<svg xmlns="http://www.w3.org/2000/svg" xmlns:xlink="http://www.w3.org/1999/xlink" width="58.101" height="53" viewBox="0 0 58.101 53"><defs><clipPath id="a"><rect width="58.101" height="53" fill="#0075a9"/></clipPath></defs><g clip-path="url(#a)"><path d="M0,41.246a11.3,11.3,0,0,1,.345-1.54,18.635,18.635,0,0,1,1.2-2.862C7.551,26.389,13.627,15.975,19.6,5.5A10.89,10.89,0,0,1,36.894,3.321a12.613,12.613,0,0,1,1.663,2.285c6.016,10.383,11.972,20.8,18.022,31.164a10.768,10.768,0,0,1-5.232,15.5,10.591,10.591,0,0,1-12.86-4.244c-2.8-4.646-5.451-9.378-8.167-14.072-.4-.686-.794-1.371-1.244-2.147-.14.223-.247.385-.344.553q-4.337,7.512-8.669,15.027A10.67,10.67,0,0,1,.112,43.827,3.489,3.489,0,0,0,0,43.4V41.246m46.89,7.984c5.888.043,9.227-5.729,6.54-10.4q-8.275-14.37-16.643-28.687a31.491,31.491,0,0,0-2.693-4.058,6.2,6.2,0,0,0-6.142-2.242,6.914,6.914,0,0,0-4.742,10.318Q32.357,30,41.5,45.826a6.478,6.478,0,0,0,5.385,3.4M18.929,14.173,8.734,31.832a10.707,10.707,0,0,1,11.983,6.9c.144-.236.245-.393.339-.555,1.862-3.222,3.716-6.449,5.594-9.662a.823.823,0,0,0-.013-.964q-3.874-6.689-7.707-13.378M10.7,35.408a6.913,6.913,0,1,0,6.888,6.964A6.915,6.915,0,0,0,10.7,35.408" transform="translate(0 0)" fill="#0075a9"/></g></svg>