<svg xmlns="http://www.w3.org/2000/svg" xmlns:xlink="http://www.w3.org/1999/xlink" width="154" height="53" viewBox="0 0 154 53"><defs><clipPath id="a"><rect width="154" height="53" fill="#0075a9"/></clipPath><clipPath id="b"><rect width="16.533" height="18.397" fill="#0075a9"/></clipPath><clipPath id="c"><rect width="11.159" height="12.999" fill="#0075a9"/></clipPath><clipPath id="d"><rect width="11.135" height="13.411" fill="#0075a9"/></clipPath><clipPath id="e"><rect width="2.372" height="18.397" fill="#0075a9"/></clipPath><clipPath id="f"><rect width="12.588" height="18.131" fill="#0075a9"/></clipPath><clipPath id="g"><rect width="7.964" height="16.63" fill="#0075a9"/></clipPath><clipPath id="h"><rect width="3.341" height="18.591" fill="#0075a9"/></clipPath><clipPath id="i"><rect width="12.055" height="13.411" fill="#0075a9"/></clipPath><clipPath id="j"><rect width="10.457" height="13.411" fill="#0075a9"/></clipPath></defs><g clip-path="url(#a)"><path d="M238.23,28.988a6.839,6.839,0,1,1-6.839-6.818,6.734,6.734,0,0,1,6.839,6.818m-2.994,0a3.855,3.855,0,1,0-7.691,0,3.855,3.855,0,1,0,7.691,0" transform="translate(-147.705 -14.583)" fill="#0075a9"/><path d="M281.343,28.988A6.839,6.839,0,1,1,274.5,22.17a6.733,6.733,0,0,1,6.839,6.818m-2.993,0a3.855,3.855,0,1,0-7.691,0,3.855,3.855,0,1,0,7.691,0" transform="translate(-176.064 -14.583)" fill="#0075a9"/><path d="M323.83,22.581v12.24c0,5.035-2.969,7.091-6.48,7.091a6.493,6.493,0,0,1-6.043-4.017l2.607-1.085a3.766,3.766,0,0,0,3.434,2.419c2.247,0,3.639-1.387,3.639-4v-.98h-.1a4.644,4.644,0,0,1-3.59,1.549,6.823,6.823,0,0,1,0-13.633,4.726,4.726,0,0,1,3.59,1.525h.1V22.584h2.844Zm-2.631,6.43c0-2.4-1.6-4.156-3.64-4.156a3.942,3.942,0,0,0-3.8,4.156,3.913,3.913,0,0,0,3.8,4.107,3.81,3.81,0,0,0,3.64-4.107" transform="translate(-204.411 -14.582)" fill="#0075a9"/><rect width="2.92" height="19.98" transform="translate(121.186 0.824)" fill="#0075a9"/><path d="M376.444,31.226l2.324,1.549a6.785,6.785,0,0,1-5.68,3.022,6.671,6.671,0,0,1-6.766-6.818,6.479,6.479,0,0,1,6.431-6.818,6.331,6.331,0,0,1,5.834,4.337l.311.775-9.114,3.775a3.47,3.47,0,0,0,3.3,2.065A3.891,3.891,0,0,0,376.444,31.226Zm-7.153-2.453,6.092-2.53a2.64,2.64,0,0,0-2.53-1.445,3.74,3.74,0,0,0-3.562,3.975" transform="translate(-240.959 -14.577)" fill="#0075a9"/><path d="M171.616,12.721V9.829h9.747a9.6,9.6,0,0,1,.144,1.746A9.553,9.553,0,0,1,179,18.34a9.68,9.68,0,0,1-7.383,2.969,10.735,10.735,0,0,1-10.74-10.586A10.735,10.735,0,0,1,171.619.137a10.087,10.087,0,0,1,7.254,2.917L176.832,5.1a7.373,7.373,0,0,0-5.216-2.066,7.594,7.594,0,0,0-7.592,7.694,7.594,7.594,0,0,0,7.592,7.694,7.082,7.082,0,0,0,5.346-2.118,5.993,5.993,0,0,0,1.567-3.581Z" transform="translate(-105.823 -0.09)" fill="#0075a9"/><g transform="translate(54.85 29.059)"><g clip-path="url(#b)"><path d="M168.482,87.819l-3,8.3h6.124l-3.026-8.3Zm-5.591,15.492h-2.614l6.922-18.4h2.688l6.922,18.4H174.2l-1.768-4.987h-7.746Z" transform="translate(-160.276 -84.914)" fill="#0075a9"/></g></g><g transform="translate(72.575 34.458)"><g clip-path="url(#c)"><path d="M212.069,101.1h2.276v1.743h.1a4.072,4.072,0,0,1,1.647-1.525,4.75,4.75,0,0,1,2.324-.63,4.626,4.626,0,0,1,3.558,1.332,5.214,5.214,0,0,1,1.258,3.752v7.915h-2.372v-7.746q-.072-3.1-3.1-3.1A2.967,2.967,0,0,0,215.386,104a4.114,4.114,0,0,0-.945,2.711v6.972h-2.372Z" transform="translate(-212.069 -100.687)" fill="#0075a9"/></g></g><g transform="translate(85.667 34.458)"><g clip-path="url(#d)"><path d="M252.771,109.838a1.9,1.9,0,0,0,.775,1.549,2.876,2.876,0,0,0,1.84.606,3.765,3.765,0,0,0,2.638-1.089,3.479,3.479,0,0,0,1.187-2.615,4.931,4.931,0,0,0-3.1-.871,3.965,3.965,0,0,0-2.4.7,2.047,2.047,0,0,0-.945,1.718m3.051-9.15a5.813,5.813,0,0,1,4.115,1.4,4.979,4.979,0,0,1,1.526,3.85v7.746h-2.251v-1.743h-.1a4.541,4.541,0,0,1-3.921,2.153,5.065,5.065,0,0,1-3.486-1.235,3.95,3.95,0,0,1-1.38-3.074,3.7,3.7,0,0,1,1.476-3.1,6.2,6.2,0,0,1,3.946-1.162,7.162,7.162,0,0,1,3.463.75v-.531a2.644,2.644,0,0,0-.993-2.082,3.3,3.3,0,0,0-2.276-.872,3.578,3.578,0,0,0-3.122,1.672l-2.082-1.308a5.786,5.786,0,0,1,5.083-2.469" transform="translate(-250.326 -100.688)" fill="#0075a9"/></g></g><g transform="translate(99.379 29.059)"><g clip-path="url(#e)"><rect width="2.372" height="18.397" transform="translate(0.001 -0.001)" fill="#0075a9"/></g></g><g transform="translate(103.11 34.869)"><g clip-path="url(#f)"><path d="M313.883,101.89l-7.892,18.131h-2.42l2.928-6.343-5.2-11.788h2.565l3.752,9.054h.048l3.656-9.054Z" transform="translate(-301.295 -101.89)" fill="#0075a9"/></g></g><g transform="translate(116.386 31.02)"><g clip-path="url(#g)"><path d="M345.9,107.275a3.6,3.6,0,0,1-2.542-.944,3.484,3.484,0,0,1-1.041-2.64V96.648h-2.227V94.493h2.227V90.645h2.348v3.848h3.1v2.155h-3.1v6.268a2.325,2.325,0,0,0,.485,1.72,1.671,1.671,0,0,0,1.113.435,2.862,2.862,0,0,0,.557-.048,4.856,4.856,0,0,0,.508-.169l.727,2.105a6.793,6.793,0,0,1-2.155.315" transform="translate(-340.088 -90.644)" fill="#0075a9"/></g></g><g transform="translate(125.892 28.866)"><g clip-path="url(#h)"><path d="M371.209,86.018A1.623,1.623,0,0,1,370.7,87.2a1.668,1.668,0,0,1-2.349,0,1.647,1.647,0,0,1-.483-1.187,1.66,1.66,0,0,1,2.832-1.185,1.579,1.579,0,0,1,.508,1.185m-.484,16.921h-2.372V90.351h2.372Z" transform="translate(-367.869 -84.348)" fill="#0075a9"/></g></g><g transform="translate(130.254 34.458)"><g clip-path="url(#i)"><path d="M387.076,114.1a6.157,6.157,0,0,1-4.648-1.912,6.738,6.738,0,0,1-1.815-4.794,6.639,6.639,0,0,1,1.815-4.793,6.179,6.179,0,0,1,4.648-1.912,5.9,5.9,0,0,1,3.365.968,6.028,6.028,0,0,1,2.155,2.663l-2.155.9a3.544,3.544,0,0,0-3.51-2.374,3.666,3.666,0,0,0-2.807,1.308,5.109,5.109,0,0,0,0,6.488,3.844,3.844,0,0,0,6.439-1.066l2.105.9a5.577,5.577,0,0,1-2.153,2.663,6.166,6.166,0,0,1-3.438.968" transform="translate(-380.613 -100.689)" fill="#0075a9"/></g></g><g transform="translate(143.542 34.458)"><g clip-path="url(#j)"><path d="M429.9,110.2a3.414,3.414,0,0,1-1.452,2.784,5.731,5.731,0,0,1-3.608,1.114,5.79,5.79,0,0,1-3.34-.993,5.515,5.515,0,0,1-2.057-2.615l2.105-.9a4.041,4.041,0,0,0,1.356,1.768,3.266,3.266,0,0,0,1.937.629,3.39,3.39,0,0,0,1.888-.483,1.38,1.38,0,0,0,.775-1.162c0-.806-.623-1.393-1.864-1.768l-2.155-.533c-2.457-.629-3.68-1.815-3.68-3.558a3.269,3.269,0,0,1,1.405-2.759,6.418,6.418,0,0,1,6.608-.242,4.335,4.335,0,0,1,1.888,2.13l-2.105.871a2.607,2.607,0,0,0-1.187-1.233,3.559,3.559,0,0,0-1.791-.46,3.137,3.137,0,0,0-1.67.46,1.339,1.339,0,0,0-.727,1.137c0,.714.677,1.229,2.032,1.549l1.889.483q3.748.928,3.752,3.777" transform="translate(-419.443 -100.687)" fill="#0075a9"/></g></g><path d="M94.947,6.2V45.194c0,4.366,3.009,6.794,6.2,6.794,2.954,0,6.2-2.068,6.2-6.794V6.5a6.212,6.212,0,0,0-6.2-6.5,6.308,6.308,0,0,0-6.2,6.2" transform="translate(-62.454 0)" fill="#0075a9"/><path d="M47.473,64.034v19.2c0,4.366,3.009,6.794,6.2,6.794,2.954,0,6.2-2.068,6.2-6.794V64.329a6.212,6.212,0,0,0-6.2-6.5A6.308,6.308,0,0,0,47.473,64.034Z" transform="translate(-31.227 -38.04)" fill="#0075a9"/><path d="M12.406,121.866a6.2,6.2,0,1,1-6.2-6.2,6.2,6.2,0,0,1,6.2,6.2" transform="translate(0 -76.081)" fill="#0075a9"/></g></svg>