<svg xmlns="http://www.w3.org/2000/svg" width="14.532" height="14.528" viewBox="0 0 14.532 14.528">
  <path id="Trazado_11820" data-name="Trazado 11820" d="M100.218,78.625a1.823,1.823,0,0,1-.163.219Q94.323,84.58,88.589,90.315a.849.849,0,0,1-.635.315.733.733,0,0,1-.55-1.2,2.24,2.24,0,0,1,.175-.181Q93.3,83.529,99.016,77.812a2.542,2.542,0,0,1,.213-.174l-.027-.067h-.234q-3.3,0-6.607,0A1.287,1.287,0,0,1,92,77.532a.722.722,0,0,1-.514-.774.738.738,0,0,1,.69-.652c.061,0,.123,0,.184,0h7.066a2.205,2.205,0,0,1,2.334,2.326q0,3.579,0,7.157a.733.733,0,0,1-.535.763.686.686,0,0,1-.8-.3,1.117,1.117,0,0,1-.13-.52c-.008-2.2-.005-4.4-.005-6.607v-.25l-.074-.05" transform="translate(-87.229 -76.103)" fill="#fddb00"/>
</svg>
