<svg xmlns="http://www.w3.org/2000/svg" width="730.947" height="655.659" viewBox="0 0 730.947 655.659">
  <path id="PORT_FO_LIO" data-name="PORT
  FO
    LIO" d="M286.058,74.556a114.321,114.321,0,0,1,20.864,1.908,108.793,108.793,0,0,1,19.611,5.583,104.1,104.1,0,0,1,17.889,9.046,100.574,100.574,0,0,1,15.694,12.295,99.054,99.054,0,0,1,13.023,15.323,100.712,100.712,0,0,1,9.878,18.123,112.428,112.428,0,0,1,8.449,43.691,111.71,111.71,0,0,1-8.45,43.531,100.466,100.466,0,0,1-9.878,18.073,99.01,99.01,0,0,1-13.023,15.289,100.672,100.672,0,0,1-15.693,12.274,104.247,104.247,0,0,1-17.888,9.035,108.906,108.906,0,0,1-19.611,5.579,115.569,115.569,0,0,1-41.819,0,109.484,109.484,0,0,1-19.68-5.579,104.511,104.511,0,0,1-17.938-9.035,100.709,100.709,0,0,1-15.727-12.274,98.928,98.928,0,0,1-13.044-15.289,100.341,100.341,0,0,1-9.889-18.074,111.632,111.632,0,0,1-8.455-43.531,112.348,112.348,0,0,1,8.454-43.692,100.587,100.587,0,0,1,9.888-18.124,98.964,98.964,0,0,1,13.044-15.323,100.6,100.6,0,0,1,15.728-12.295,104.343,104.343,0,0,1,17.939-9.046A109.349,109.349,0,0,1,265.1,76.464,115.278,115.278,0,0,1,286.058,74.556Zm0,207.659a110.365,110.365,0,0,0,20.132-1.84A104.911,104.911,0,0,0,325.08,275a100.24,100.24,0,0,0,17.2-8.687,96.669,96.669,0,0,0,15.069-11.785,95.011,95.011,0,0,0,12.5-14.67,96.461,96.461,0,0,0,9.484-17.352,107.735,107.735,0,0,0,8.138-41.981,108.452,108.452,0,0,0-8.139-42.145,96.7,96.7,0,0,0-9.484-17.4,95.034,95.034,0,0,0-12.5-14.7,96.572,96.572,0,0,0-15.068-11.8,100.1,100.1,0,0,0-17.2-8.7A104.778,104.778,0,0,0,306.19,80.4a111.537,111.537,0,0,0-40.359,0,105.339,105.339,0,0,0-18.959,5.377,100.349,100.349,0,0,0-17.25,8.7,96.609,96.609,0,0,0-15.1,11.8,94.952,94.952,0,0,0-12.516,14.7,96.574,96.574,0,0,0-9.494,17.4,108.374,108.374,0,0,0-8.143,42.145,107.657,107.657,0,0,0,8.142,41.98A96.334,96.334,0,0,0,202,239.858a94.92,94.92,0,0,0,12.516,14.67,96.7,96.7,0,0,0,15.1,11.785A100.492,100.492,0,0,0,246.872,275a105.464,105.464,0,0,0,18.959,5.374A111.313,111.313,0,0,0,286.058,282.215ZM19.637,78.771H96.664A81.414,81.414,0,0,1,125.1,83.647,65.44,65.44,0,0,1,147.351,97.3a60.8,60.8,0,0,1,14.462,20.87,67.789,67.789,0,0,1,5.135,26.389,68.6,68.6,0,0,1-5.134,26.624,60.142,60.142,0,0,1-14.467,20.85,65.03,65.03,0,0,1-22.254,13.519,82.454,82.454,0,0,1-28.428,4.794H68.035V282h-48.4ZM96.664,206.345a78.471,78.471,0,0,0,27.052-4.55,61.051,61.051,0,0,0,20.9-12.684,56.169,56.169,0,0,0,13.51-19.473,64.626,64.626,0,0,0,4.824-25.08,63.812,63.812,0,0,0-4.823-24.841,56.824,56.824,0,0,0-13.515-19.506,61.46,61.46,0,0,0-20.9-12.815,77.433,77.433,0,0,0-27.044-4.626H23.637V278h40.4V206.345ZM419.219,78.771H500.18a75.177,75.177,0,0,1,27.422,4.9,61.15,61.15,0,0,1,21.056,13.59A59.79,59.79,0,0,1,562.1,117.73a68.48,68.48,0,0,1,4.708,25.423,67.1,67.1,0,0,1-2.8,19.518,56.965,56.965,0,0,1-20.9,29.628,64.85,64.85,0,0,1-14.863,8.146L569.175,282H515.783L480.1,207.816H467.617V282h-48.4ZM562.693,278l-40.025-79.772,2.131-.759a61.555,61.555,0,0,0,15.944-8.388,52.965,52.965,0,0,0,19.445-27.573,63.106,63.106,0,0,0,2.623-18.355,64.5,64.5,0,0,0-4.425-23.945,55.814,55.814,0,0,0-12.548-19.1,57.174,57.174,0,0,0-19.689-12.7,71.2,71.2,0,0,0-25.968-4.632H423.219V278h40.4V203.816H482.61L518.3,278Zm16.7-199.229h171.2V125.2H689.045V282h-48.4V125.2H579.389Zm167.2,4h-163.2V121.2h61.258V278h40.4V121.2h61.539Zm-682.268,34.5H92.168c8.875,0,16.426,2.517,21.834,7.278,5.591,4.922,8.546,11.939,8.546,20.293a28.125,28.125,0,0,1-2.229,11.268A24.432,24.432,0,0,1,114,164.781a28.032,28.032,0,0,1-9.648,5.465,38.107,38.107,0,0,1-12.186,1.883H64.316Zm27.852,50.861a34.126,34.126,0,0,0,10.908-1.673,24.058,24.058,0,0,0,8.283-4.677c4.7-4.14,7.189-10,7.189-16.939a25.266,25.266,0,0,0-1.9-9.968,20.28,20.28,0,0,0-5.286-7.323c-4.667-4.109-11.3-6.28-19.191-6.28H68.316v46.861Zm371.449-50.861H491.75a42.309,42.309,0,0,1,12.7,1.774,26.167,26.167,0,0,1,9.524,5.223,22.184,22.184,0,0,1,5.908,8.355,28.556,28.556,0,0,1,1.97,10.814,27.289,27.289,0,0,1-1.973,10.467,23.042,23.042,0,0,1-5.886,8.369,26.656,26.656,0,0,1-9.51,5.427,40.16,40.16,0,0,1-12.731,1.9H463.617ZM491.75,165.6a36.192,36.192,0,0,0,11.462-1.7,22.689,22.689,0,0,0,8.1-4.6c4.28-3.867,6.542-9.354,6.542-15.868a24.589,24.589,0,0,0-1.674-9.3,18.218,18.218,0,0,0-4.849-6.863,22.2,22.2,0,0,0-8.083-4.41,38.341,38.341,0,0,0-11.494-1.589H467.617V165.6ZM286.058,117.83a63.1,63.1,0,0,1,10.71.919,62.054,62.054,0,0,1,10.546,2.792,57.038,57.038,0,0,1,19.079,11.421,55.285,55.285,0,0,1,13.747,19.518,70.9,70.9,0,0,1,5.243,27.764,70.585,70.585,0,0,1-5.244,27.723,54.819,54.819,0,0,1-13.751,19.424,56.919,56.919,0,0,1-19.08,11.322,62.455,62.455,0,0,1-10.543,2.758,63.869,63.869,0,0,1-10.706.907,64.89,64.89,0,0,1-10.8-.906,63.043,63.043,0,0,1-10.612-2.757,57.065,57.065,0,0,1-19.165-11.322A54.722,54.722,0,0,1,231.7,207.969a70.506,70.506,0,0,1-5.248-27.724A70.817,70.817,0,0,1,231.7,152.48a55.186,55.186,0,0,1,13.78-19.519,57.181,57.181,0,0,1,19.163-11.42,62.621,62.621,0,0,1,10.614-2.791A64.1,64.1,0,0,1,286.058,117.83Zm0,120.549a59.864,59.864,0,0,0,10.033-.85,58.452,58.452,0,0,0,9.866-2.581,52.94,52.94,0,0,0,17.748-10.525A50.847,50.847,0,0,0,336.457,206.4a66.623,66.623,0,0,0,4.925-26.159,66.935,66.935,0,0,0-4.926-26.205A51.313,51.313,0,0,0,323.7,135.921a53.057,53.057,0,0,0-17.75-10.62,58.05,58.05,0,0,0-9.864-2.611,59.081,59.081,0,0,0-10.029-.861,60.087,60.087,0,0,0-10.124.862A58.625,58.625,0,0,0,266,125.3a53.2,53.2,0,0,0-17.832,10.62,51.215,51.215,0,0,0-12.784,18.117,66.855,66.855,0,0,0-4.93,26.2,66.543,66.543,0,0,0,4.929,26.158,50.752,50.752,0,0,0,12.779,18.018,53.089,53.089,0,0,0,17.831,10.526,59.031,59.031,0,0,0,9.937,2.582A60.882,60.882,0,0,0,286.058,238.379Zm124.2,58.177a114.323,114.323,0,0,1,20.864,1.908,108.794,108.794,0,0,1,19.612,5.583,104.1,104.1,0,0,1,17.889,9.046,100.572,100.572,0,0,1,15.694,12.295,99.053,99.053,0,0,1,13.023,15.323,100.712,100.712,0,0,1,9.878,18.123,116.768,116.768,0,0,1,0,87.222,100.464,100.464,0,0,1-9.878,18.073,99.01,99.01,0,0,1-13.023,15.289,100.672,100.672,0,0,1-15.693,12.274,104.247,104.247,0,0,1-17.888,9.035,108.907,108.907,0,0,1-19.611,5.579,115.566,115.566,0,0,1-41.819,0,109.481,109.481,0,0,1-19.68-5.579,104.508,104.508,0,0,1-17.938-9.035,100.717,100.717,0,0,1-15.727-12.274,98.943,98.943,0,0,1-13.044-15.289,100.343,100.343,0,0,1-9.889-18.074,116.712,116.712,0,0,1,0-87.223,100.58,100.58,0,0,1,9.888-18.124,98.957,98.957,0,0,1,13.044-15.323,100.606,100.606,0,0,1,15.728-12.295,104.344,104.344,0,0,1,17.939-9.046,109.343,109.343,0,0,1,19.681-5.583A115.277,115.277,0,0,1,410.26,296.556Zm0,207.659a110.364,110.364,0,0,0,20.132-1.84A104.908,104.908,0,0,0,449.282,497a100.242,100.242,0,0,0,17.2-8.687,96.674,96.674,0,0,0,15.069-11.785,95.014,95.014,0,0,0,12.5-14.67,96.464,96.464,0,0,0,9.484-17.352,112.774,112.774,0,0,0,0-84.126,96.7,96.7,0,0,0-9.484-17.4,95.035,95.035,0,0,0-12.5-14.7,96.568,96.568,0,0,0-15.068-11.8,100.09,100.09,0,0,0-17.2-8.7,104.781,104.781,0,0,0-18.889-5.377,111.538,111.538,0,0,0-40.359,0,105.347,105.347,0,0,0-18.959,5.377,100.348,100.348,0,0,0-17.25,8.7,96.612,96.612,0,0,0-15.1,11.8,94.955,94.955,0,0,0-12.516,14.7,96.577,96.577,0,0,0-9.494,17.4,112.718,112.718,0,0,0,0,84.125,96.333,96.333,0,0,0,9.493,17.352,94.924,94.924,0,0,0,12.516,14.67,96.7,96.7,0,0,0,15.1,11.785A100.493,100.493,0,0,0,371.074,497a105.467,105.467,0,0,0,18.959,5.374A111.318,111.318,0,0,0,410.26,504.215ZM157.889,300.771H290.306v46.15H206.287v38.15h73.9v44.464H206.568V504H157.889Zm128.417,4H161.889V500h40.679V425.535H276.19V389.071h-73.9v-46.15h84.019ZM410.26,339.83a63.1,63.1,0,0,1,10.71.919,62.042,62.042,0,0,1,10.546,2.792,57.037,57.037,0,0,1,19.079,11.421,55.285,55.285,0,0,1,13.747,19.518,76.024,76.024,0,0,1,0,55.487,54.819,54.819,0,0,1-13.751,19.424,56.92,56.92,0,0,1-19.08,11.322,62.462,62.462,0,0,1-10.543,2.758,63.872,63.872,0,0,1-10.706.907,64.9,64.9,0,0,1-10.8-.906,63.049,63.049,0,0,1-10.612-2.757,57.066,57.066,0,0,1-19.165-11.322A54.723,54.723,0,0,1,355.9,429.969a75.965,75.965,0,0,1,0-55.489,55.188,55.188,0,0,1,13.78-19.519,57.183,57.183,0,0,1,19.163-11.42,62.622,62.622,0,0,1,10.614-2.791A64.1,64.1,0,0,1,410.26,339.83Zm0,120.549a59.864,59.864,0,0,0,10.033-.85,58.457,58.457,0,0,0,9.866-2.581,52.94,52.94,0,0,0,17.748-10.525A50.847,50.847,0,0,0,460.659,428.4a72.048,72.048,0,0,0,0-52.364A51.313,51.313,0,0,0,447.9,357.921a53.057,53.057,0,0,0-17.75-10.62,58.046,58.046,0,0,0-9.864-2.611,59.085,59.085,0,0,0-10.029-.861,60.091,60.091,0,0,0-10.124.861A58.626,58.626,0,0,0,390.2,347.3a53.2,53.2,0,0,0-17.832,10.62,51.215,51.215,0,0,0-12.784,18.117,71.988,71.988,0,0,0,0,52.362,50.754,50.754,0,0,0,12.779,18.018,53.089,53.089,0,0,0,17.831,10.526,59.038,59.038,0,0,0,9.937,2.582A60.882,60.882,0,0,0,410.26,460.379Zm227.048,58.177a114.321,114.321,0,0,1,20.864,1.908,108.8,108.8,0,0,1,19.612,5.583,104.1,104.1,0,0,1,17.889,9.046,100.573,100.573,0,0,1,15.694,12.295,99.053,99.053,0,0,1,13.023,15.323,100.714,100.714,0,0,1,9.878,18.123,116.769,116.769,0,0,1,0,87.222,100.466,100.466,0,0,1-9.878,18.073,99.006,99.006,0,0,1-13.023,15.289,100.671,100.671,0,0,1-15.693,12.274,104.251,104.251,0,0,1-17.888,9.035,108.907,108.907,0,0,1-19.611,5.579,115.567,115.567,0,0,1-41.819,0,109.484,109.484,0,0,1-19.68-5.579,104.514,104.514,0,0,1-17.938-9.035,100.724,100.724,0,0,1-15.727-12.274,98.934,98.934,0,0,1-13.044-15.289,100.341,100.341,0,0,1-9.889-18.074,116.712,116.712,0,0,1,0-87.223,100.59,100.59,0,0,1,9.888-18.124,98.965,98.965,0,0,1,13.044-15.323,100.609,100.609,0,0,1,15.728-12.295,104.347,104.347,0,0,1,17.939-9.046,109.343,109.343,0,0,1,19.681-5.583A115.273,115.273,0,0,1,637.308,518.556Zm0,207.659a110.366,110.366,0,0,0,20.132-1.84A104.913,104.913,0,0,0,676.33,719a100.238,100.238,0,0,0,17.2-8.687A96.67,96.67,0,0,0,708.6,698.53a95.011,95.011,0,0,0,12.5-14.67,96.461,96.461,0,0,0,9.484-17.352,112.774,112.774,0,0,0,0-84.126,96.691,96.691,0,0,0-9.484-17.4,95.034,95.034,0,0,0-12.5-14.7,96.565,96.565,0,0,0-15.068-11.8,100.09,100.09,0,0,0-17.2-8.7A104.785,104.785,0,0,0,657.44,524.4a111.537,111.537,0,0,0-40.359,0,105.343,105.343,0,0,0-18.959,5.377,100.336,100.336,0,0,0-17.25,8.7,96.605,96.605,0,0,0-15.1,11.8,94.952,94.952,0,0,0-12.516,14.7,96.574,96.574,0,0,0-9.494,17.4,112.718,112.718,0,0,0,0,84.125,96.334,96.334,0,0,0,9.493,17.352,94.92,94.92,0,0,0,12.516,14.67,96.7,96.7,0,0,0,15.1,11.785A100.494,100.494,0,0,0,598.122,719a105.462,105.462,0,0,0,18.96,5.374A111.311,111.311,0,0,0,637.308,726.215ZM296.141,522.771h48.4v156.8h85.986V726H296.141Zm44.4,4h-40.4V722H426.525V683.569H340.539Zm114.648-4h48.96V726h-48.96Zm44.96,4h-40.96V722h40.96ZM637.308,561.83a63.1,63.1,0,0,1,10.71.919,62.06,62.06,0,0,1,10.546,2.792,57.038,57.038,0,0,1,19.079,11.421,55.287,55.287,0,0,1,13.747,19.518,76.024,76.024,0,0,1,0,55.487,54.819,54.819,0,0,1-13.751,19.424,56.918,56.918,0,0,1-19.08,11.322,62.455,62.455,0,0,1-10.543,2.758,63.869,63.869,0,0,1-10.706.907,64.89,64.89,0,0,1-10.8-.906,63.044,63.044,0,0,1-10.612-2.757,57.066,57.066,0,0,1-19.165-11.322,54.723,54.723,0,0,1-13.784-19.425,75.964,75.964,0,0,1,0-55.489,55.187,55.187,0,0,1,13.78-19.519,57.183,57.183,0,0,1,19.163-11.42,62.622,62.622,0,0,1,10.614-2.791A64.1,64.1,0,0,1,637.308,561.83Zm0,120.549a59.863,59.863,0,0,0,10.033-.85,58.454,58.454,0,0,0,9.866-2.581,52.938,52.938,0,0,0,17.748-10.525A50.845,50.845,0,0,0,687.707,650.4a72.046,72.046,0,0,0,0-52.364,51.312,51.312,0,0,0-12.755-18.118A53.057,53.057,0,0,0,657.2,569.3a58.042,58.042,0,0,0-9.864-2.611,59.081,59.081,0,0,0-10.029-.861,60.094,60.094,0,0,0-10.124.861,58.625,58.625,0,0,0-9.935,2.612,53.2,53.2,0,0,0-17.832,10.62,51.216,51.216,0,0,0-12.784,18.117,71.988,71.988,0,0,0,0,52.362,50.753,50.753,0,0,0,12.779,18.018,53.089,53.089,0,0,0,17.831,10.526,59.032,59.032,0,0,0,9.937,2.582A60.882,60.882,0,0,0,637.308,682.379Z" transform="translate(-19.637 -74.556)" fill="#024065"/>
</svg>
