<svg width="329" height="424" viewBox="0 0 329 424" fill="none" xmlns="http://www.w3.org/2000/svg"><g clip-path="url(#clip0_2_4)"><path d="M234.194 420.478c-.013 1.848 1.786 3.36 4.023 3.378l18.637.144c2.238.017 4.064-1.469 4.077-3.315l.09-11.659c.014-1.846-1.79-3.361-4.025-3.378l-18.637-.144c-2.238-.017-4.062 1.47-4.075 3.317l-.09 11.657zM76.7064 203.502c-.8875-.734-2.0212-1.101-3.1696-1.026-1.1484.074-2.2252.584-3.011 1.426l-13.5781 14.545c-.3874.399-.6889.874-.8865 1.394-.1976.52-.2871 1.076-.2625 1.632.0246.556.1627 1.102.4054 1.603.2428.5.5855.946 1.0066 1.31l11.2209 9.659c.8865.732 2.0183 1.099 3.1652 1.024 1.1469-.074 2.2224-.584 3.0071-1.425L88.182 219.1c.3862-.4.687-.874.8841-1.394.1971-.52.2865-1.075.2625-1.631-.024-.556-.1608-1.101-.402-1.602-.2413-.501-.582-.947-1.0013-1.312l-11.2189-9.659z" fill="#ECA97B"/><path d="M77.8837 197.283c-.9763-1.64-2.7981-2.248-4.0762-1.368-1.2781.878-1.5297 2.916-.5494 4.568l4.9964 8.393c.9773 1.639 2.8039 2.26 4.083 1.356 1.2681-.878 1.5167-2.928.5494-4.554l-5.0032-8.395z" fill="#ECA97B"/><path d="M32.3767 167.657l24.1246 46.965c.4911.957 1.3055 1.708 2.2982 2.119l21.058 8.748c.5024.209 1.0467.296 1.5892.255.5424-.04 1.0678-.208 1.5335-.489l.5587-.34c.5236-.316.9133-.813 1.0964-1.397.1831-.584.1467-1.215-.1025-1.774l-23.5825-52.837c-.2929-.657-.7474-1.228-1.3208-1.66-.5735-.432-1.2474-.711-1.9581-.811l-21.8841-3.074c-.4001-.057-.8079-.02-1.1915.107-.3836.127-.7326.34-1.0207.624l-.7378.729c-.3685.361-.6119.831-.6948 1.341-.0829.51-.0008 1.034.2342 1.494z" fill="#0075A9"/><path d="M83.5354 224.916c.5241-.315.9152-.812 1.0993-1.396.184-.584.1483-1.215-.1001-1.775l-23.5879-52.837c-.2928-.656-.747-1.227-1.3203-1.659-.5733-.433-1.2466-.712-1.9571-.812l-21.8841-3.074c-.3996-.057-.8069-.02-1.19.107-.3832.127-.7318.34-1.0193.624l-.7407.729c-.3192.324-.5407.732-.6387 1.177l23.2513 3.593c.6298.097 1.2253.351 1.7316.739.5064.387.9071.895 1.1662 1.478l23.968 53.75c.2324-.076.4559-.176.6665-.3l.5553-.344z" fill="#36A9E1"/><path d="M49.3615 179.804c.6416 1.501.4685 3.019-.3879 3.386-.8564.368-2.0713-.552-2.7148-2.055-.6436-1.503-.4719-3.019.3854-3.387.8574-.369 2.0768.553 2.7173 2.056z" fill="#C6C9CA"/><path d="M35.595 168.463c.2238.527.1631 1.059-.1366 1.188-.2998.129-.7256-.192-.9525-.721-.2268-.528-.1656-1.058.1362-1.187.3017-.129.725.192.9529.72z" fill="#2A2A2A"/><path d="M63.2261 178.731c-.2029.014-.405-.035-.5796-.139-.1746-.104-.3135-.26-.3977-.445l-2.6128-5.697c-.1106-.243-.1206-.519-.0278-.769.0927-.25.2807-.453.5225-.564.2422-.111.5184-.121.768-.029.2497.093.4525.281.5641.523l2.6128 5.697c.1101.244.1191.521.0254.771s-.2824.453-.525.563c-.1102.051-.2288.081-.3499.089z" fill="#101010"/><path d="M52.604 206.347c-2.9489-.539-5.632.773-5.9737 2.927-.3558 2.159 1.7644 4.345 4.7153 4.875l15.139 2.735c2.9398.533 5.6322-.775 5.9629-2.935.3578-2.151-1.766-4.341-4.7129-4.879l-15.1306-2.723z" fill="#ECA97B"/><path d="M55.0638 214.539c-.534-.127-1.0882-.146-1.6296-.055-.5415.09-1.0592.289-1.5229.583-.4636.295-.8634.679-1.1764 1.131-.3129.451-.5325.961-.6455 1.499-.0917 1.121.2554 2.235.9676 3.105.7122.87 1.7341 1.429 2.85 1.558l12.3909 2.115c.5339.129 1.0879.149 1.6297.059.5417-.09 1.06-.288 1.5238-.583.4638-.294.8636-.679 1.1759-1.132.3123-.452.5308-.963.6421-1.501.0964-1.121-.2468-2.235-.9568-3.106s-1.7311-1.431-2.8466-1.561l-12.4022-2.112zM49.7851 199.591c-2.1874-.437-4.2191.595-4.5529 2.294-.3377 1.693 1.1664 3.421 3.3428 3.857l11.1755 2.201c2.1904.433 4.232-.6 4.5568-2.301.3397-1.692-1.1648-3.423-3.3462-3.855l-11.176-2.196z" fill="#ECA97B"/><path d="M87.9065 213.477l-5.4804-4.28-.0595 7.405-6.4875-.834.9222 5.909-5.662 1.432 2.2484 4.636-7.0725.921 1.9605 5.483 2.1981.3 6.0166-5.715 7.5888-8.481 3.8273-6.776z" fill="#161514" opacity=".6"/><path d="M144.24 269.574l-54.647-55.427-3.0437-4.187-1.1261 8.457-6.1855-2.879.0488 7.037-6.5134-.624 2.63 6.274-8.0938-.849 1.4989 6.393-6.5792.325 7.6693 5.637 49.6497 51.714c1.424 1.223 3.12 2.085 4.947 2.511 2.806.437 5.678.028 8.252-1.173 5.68-2.523 10.372-11.49 11.493-23.209z" fill="#703F19"/><path d="M141.076 282.339c11.069-26.892 22.137-53.782 33.205-80.672 6.874-16.69 1.356-22.004-6.78-25.365-11.003-4.544-25.367 19.814-32.982 38.298l-23.748 57.656" fill="#703F19"/><path d="M177.558 420.042c-.016 1.848 1.791 3.359 4.025 3.376l18.638.146c2.237.018 4.063-1.469 4.076-3.316l.091-11.656c.013-1.847-1.789-3.363-4.026-3.381l-18.638-.142c-2.235-.018-4.061 1.469-4.077 3.318l-.089 11.655z" fill="#ECA97B"/><path d="M230.524 422.63l1.605-9.143.522-71.636.635-87.112c.127-17.569 7.572-20.242 16.736-20.166 12.41.1 16.388 27.385 16.247 46.855l-.443 60.693-.415 75.807.782 4.991-6.986-5.128-2.519 6.21-5.088-4.931-4.403 4.855-2.59-6.164-5.421 6.099-3.533-5.478-5.129 4.248zM173.495 422.167l1.604-9.145.523-71.634.632-87.115c.129-17.566 7.577-20.239 16.736-20.165 12.409.1 16.388 27.385 16.25 46.856l-.442 60.693-.415 75.809.783 4.99-6.995-5.129-2.512 6.212-5.088-4.933-4.407 4.856-2.592-6.167-5.421 6.105-3.527-5.478-5.129 4.245z" fill="#424B5A"/><path d="M302.21 354.299c-.026.332-.12.655-.278.947-.157.293-.374.55-.636.754-.263.204-.565.351-.887.432-.322.08-.658.093-.985.036-.672-.188-1.251-.621-1.622-1.213-.372-.592-.51-1.301-.387-1.989l1.099-7.598c.027-.332.122-.654.28-.947.158-.293.375-.55.638-.755.262-.204.564-.352.887-.433.322-.082.658-.095.986-.039.672.189 1.249.621 1.621 1.213.371.592.51 1.301.389 1.989l-1.105 7.603z" fill="#ECA97B"/><path d="M322.995 354.125c.081.851-.176 1.7-.715 2.364-.539.663-1.316 1.087-2.165 1.182l-14.889 1.847c-.416.059-.84.035-1.246-.072-.407-.106-.788-.292-1.122-.547-.334-.255-.615-.574-.825-.938-.21-.365-.346-.768-.399-1.185l-1.245-10.938c-.082-.85.173-1.698.711-2.361.538-.663 1.315-1.088 2.163-1.181l14.889-1.847c.416-.059.84-.035 1.246.071.407.106.789.292 1.124.547.334.254.615.573.826.937.21.365.347.767.401 1.185l1.246 10.936z" fill="#ECA97B"/><path d="M296.777 346.789v-3.402l-7.571-63.764-9.207-77.54c-1.856-15.636 4.031-18.805 11.653-19.714 10.327-1.23 16.679 22.616 18.737 39.943l6.414 54.026 8.13 67.458-28.156 2.993z" fill="#703F19"/><path d="M308.916 367.313c.049.476.003.958-.137 1.416-.14.459-.37.884-.676 1.252-.307.368-.684.671-1.109.891-.425.22-.89.352-1.367.39-.978-.045-1.901-.468-2.574-1.181-.673-.712-1.043-1.659-1.033-2.639l-.439-10.987c-.049-.477-.001-.959.139-1.418.14-.458.37-.884.677-1.253.306-.368.683-.671 1.109-.892.425-.22.89-.354 1.367-.392.978.045 1.9.468 2.573 1.18.672.712 1.042 1.658 1.033 2.638l.437 10.995zM316.446 367.834c.125 2.438-1.314 4.468-3.219 4.53-1.904.059-3.549-1.867-3.67-4.309l-.629-12.493c-.121-2.435 1.315-4.465 3.221-4.527 1.899-.06 3.546 1.866 3.671 4.309l.626 12.49zM323.92 363.982c.063.477.032.962-.093 1.426-.125.464-.341.899-.634 1.279-.294.38-.661.698-1.079.936-.417.237-.878.388-1.354.446-.977-.004-1.913-.391-2.608-1.077-.695-.687-1.094-1.619-1.112-2.596l-.8-10.971c-.064-.477-.033-.961.091-1.426.124-.464.339-.899.633-1.28.293-.38.659-.699 1.077-.936.417-.238.877-.391 1.354-.449.977.004 1.914.391 2.61 1.078s1.096 1.619 1.115 2.598l.8 10.972z" fill="#ECA97B"/><path d="M157.736 173.95c11.148-23.367 32.007-46.276 56.435-46.087l13.99.108c35.66.275 64.307 34.371 63.987 76.16l-.31 40.356c-.321 41.792-29.489 75.443-65.153 75.167l-13.99-.108c-13.23-.182-25.999-4.894-36.184-13.352.142-3.559 1.062-11.252-3.775-11.783l.019-2.495c-.009-.809-.31-1.587-.848-2.191-.538-.603-1.275-.991-2.077-1.091-.337-2.22-.899-4.353-1.473-6.698-.133-.532-.405-1.019-.789-1.411-.383-.392-.864-.675-1.392-.819.085-1.176.229-2.301.376-3.288.634-4.153-6.095-6.026-6.449-1.801-.339 4.034-6.706-85.284-3.858-91.366l-6.683-8.933s7.2-.634 8.174-.368z" fill="#161615" opacity=".5"/><path d="M152.903 241.439c-.319 41.788 27.809 75.885 62.834 76.154l13.738.106c35.025.269 63.673-33.391 63.994-75.178l.309-40.355c.322-41.791-27.806-75.886-62.83-76.154l-13.739-.106c-35.025-.27-63.676 33.388-63.996 75.18l-.31 40.353z" fill="#703F19"/><path d="M281.457 273.118l-10.349-74.698c-1.743-15.7 6.697-18.937 17.465-19.917 14.556-1.325 16.885 7.967 18.815 25.361l9.978 65.761-35.909 3.493z" fill="#A82B11"/><mask id="a" style="mask-type:luminance" maskUnits="userSpaceOnUse" x="270" y="178" width="48" height="96"><path d="M281.343 273.138l-10.238-74.714c-1.742-15.699 6.701-18.937 17.471-19.918 6.028-.551 9.904.741 12.856 3.657 3.309 3.226 4.42 9.67 5.549 19.861l10.721 67.914-36.359 3.2z" fill="#fff"/></mask><g style="mix-blend-mode:darken" opacity=".5" fill="#1A1818" mask="url(#a)"><path d="M303.209 187.936l-1.015-9.177-12.892 1.18 1.015 9.177 12.892-1.18zM328.995 185.587l-1.016-9.181-12.898 1.18 1.015 9.181 12.899-1.18zM315.079 177.579l-1.015-9.176-12.894 1.18 1.015 9.176 12.894-1.18zM289.304 179.927l-1.015-9.176-12.892 1.18 1.015 9.176 12.892-1.18zM307.289 224.665l-1.016-9.177-12.892 1.18 1.016 9.177 12.892-1.18zM319.16 214.308l-1.015-9.177-12.895 1.18 1.016 9.177 12.894-1.18zM305.249 206.301l-1.016-9.176-12.892 1.18 1.016 9.176 12.892-1.18z"/><path d="M331.028 203.952l-1.015-9.177-12.892 1.18 1.015 9.177 12.892-1.18zM317.118 195.944l-1.015-9.175-12.894 1.18 1.015 9.176 12.894-1.181zM293.383 216.657l-1.016-9.176-12.892 1.179 1.016 9.176 12.892-1.179zM291.344 198.292l-1.015-9.176-12.892 1.18 1.015 9.176 12.892-1.18zM303.209 187.938l-1.016-9.178-12.891 1.18 1.015 9.177 12.892-1.179zM328.995 185.589l-1.016-9.181-12.898 1.179 1.015 9.181 12.899-1.179zM311.367 261.395l-1.016-9.176-12.892 1.179 1.016 9.177 12.892-1.18zM323.237 251.038l-1.016-9.177-12.894 1.18 1.016 9.177 12.894-1.18zM309.333 243.031l-1.015-9.18-12.898 1.179 1.016 9.181 12.897-1.18z"/><path d="M321.197 232.674l-1.016-9.177-12.894 1.18 1.016 9.177 12.894-1.18zM297.461 253.387l-1.016-9.176-12.892 1.18 1.016 9.176 12.892-1.18zM295.422 235.021l-1.016-9.177-12.892 1.18 1.016 9.177 12.892-1.18z"/><path d="M307.289 224.667l-1.016-9.178-12.892 1.18 1.016 9.177 12.892-1.179zM313.407 279.76l-1.016-9.176-12.892 1.18 1.016 9.177 12.892-1.181zM325.276 269.404l-1.015-9.177-12.894 1.18 1.015 9.177 12.894-1.18zM299.5 271.751l-1.016-9.176-12.892 1.18 1.016 9.176 12.892-1.18zM311.367 261.396l-1.016-9.176-12.892 1.179 1.016 9.176 12.892-1.179zM277.443 190.283l-1.016-9.181-12.899 1.18 1.016 9.181 12.899-1.18z"/><path d="M289.304 179.927l-1.015-9.176-12.892 1.18 1.015 9.176 12.892-1.18zM281.52 227.013l-1.015-9.179-12.898 1.179 1.016 9.18 12.897-1.18z"/><path d="M293.383 216.657l-1.015-9.175-12.892 1.179 1.015 9.176 12.892-1.18zM279.475 208.649l-1.015-9.177-12.892 1.18 1.015 9.177 12.892-1.18z"/><path d="M291.344 198.293l-1.015-9.176-12.892 1.18 1.015 9.176 12.892-1.18zM277.436 190.286l-1.015-9.177-12.892 1.18 1.016 9.176 12.891-1.179zM285.6 263.743l-1.015-9.18-12.899 1.179 1.015 9.181 12.899-1.18zM271.686 255.734l-1.016-9.177-12.894 1.18 1.015 9.177 12.895-1.18z"/><path d="M297.461 253.387l-1.016-9.176-12.892 1.18 1.016 9.176 12.892-1.18zM283.555 245.378l-1.016-9.177-12.892 1.18 1.016 9.177 12.892-1.18z"/><path d="M295.422 235.022l-1.015-9.177-12.893 1.18 1.016 9.177 12.892-1.18zM281.52 227.014l-1.016-9.18-12.897 1.178 1.016 9.181 12.897-1.179zM287.632 282.109l-1.016-9.177-12.892 1.179 1.015 9.177 12.893-1.179zM273.729 274.1l-1.015-9.181-12.9 1.18 1.016 9.181 12.899-1.18zM299.5 271.752l-1.016-9.175-12.892 1.179 1.016 9.176 12.892-1.18z"/><path d="M285.592 263.744l-1.016-9.177-12.892 1.179 1.016 9.178 12.892-1.18z"/></g><path d="M295.146 346.847l-9.607-69.039c-1.615-14.511 6.258-17.507 16.294-18.419 13.57-1.237 15.736 7.355 17.525 23.433l9.267 60.776-33.479 3.249z" fill="#A82B11"/><mask id="b" style="mask-type:luminance" maskUnits="userSpaceOnUse" x="285" y="259" width="44" height="88"><path d="M295.042 346.866l-9.502-69.055c-1.614-14.51 6.265-17.507 16.309-18.421 5.622-.512 9.237.68 11.989 3.37 3.082 2.987 4.113 8.935 5.161 18.359l9.96 62.768-33.917 2.979z" fill="#fff"/></mask><g style="mix-blend-mode:darken" opacity=".5" fill="#1A1818" mask="url(#b)"><path d="M315.49 268.098l-.939-8.482-12.029 1.099.939 8.485 12.029-1.102zM339.542 265.912l-.939-8.485-12.035 1.099.939 8.488 12.035-1.102z"/><path d="M326.567 258.517l-.938-8.481-12.031 1.098.939 8.485 12.03-1.102zM302.524 260.704l-.939-8.482-12.03 1.099.939 8.485 12.03-1.102zM319.273 302.046l-.939-8.482-12.03 1.099.939 8.485 12.03-1.102z"/><path d="M330.351 292.466l-.938-8.482-12.031 1.099.939 8.485 12.03-1.102zM317.381 285.073l-.939-8.482-12.029 1.099.939 8.485 12.029-1.102z"/><path d="M341.429 282.886l-.939-8.481-12.029 1.098.938 8.485 12.03-1.102zM328.459 275.492l-.938-8.48-12.032 1.098.939 8.484 12.031-1.102zM306.307 294.652l-.939-8.482-12.03 1.099.939 8.485 12.03-1.102zM304.416 277.679l-.938-8.481-12.03 1.099.939 8.484 12.029-1.102z"/><path d="M315.49 268.1l-.939-8.482-12.029 1.098.939 8.485 12.029-1.101zM339.542 265.914l-.939-8.486-12.035 1.098.94 8.489 12.034-1.101zM323.055 335.993l-.938-8.482-12.03 1.099.939 8.485 12.029-1.102z"/><path d="M334.133 326.412l-.939-8.482-12.031 1.099.939 8.485 12.031-1.102zM321.169 319.019l-.938-8.485-12.035 1.098.939 8.489 12.034-1.102z"/><path d="M332.242 309.439l-.939-8.482-12.032 1.099.939 8.485 12.032-1.102zM310.088 328.599l-.938-8.482-12.03 1.099.939 8.484 12.029-1.101zM308.197 311.625l-.939-8.482-12.028 1.099.939 8.484 12.028-1.101z"/><path d="M319.273 302.046l-.939-8.483-12.03 1.099.939 8.485 12.03-1.101zM324.947 352.967l-.939-8.481-12.03 1.099.939 8.485 12.03-1.103z"/><path d="M336.025 343.388l-.939-8.482-12.032 1.099.939 8.485 12.032-1.102zM311.98 345.574l-.939-8.482-12.03 1.099.939 8.484 12.03-1.101z"/><path d="M323.056 335.994l-.939-8.482-12.03 1.099.939 8.485 12.03-1.102zM291.451 270.284l-.938-8.485-12.035 1.098.939 8.489 12.034-1.102z"/><path d="M302.523 260.704l-.939-8.482-12.029 1.099.938 8.485 12.03-1.102zM295.236 304.231l-.938-8.485-12.035 1.099.939 8.488 12.034-1.102z"/><path d="M306.307 294.652l-.939-8.482-12.029 1.099.938 8.485 12.03-1.102zM293.339 287.258l-.939-8.482-12.029 1.099.938 8.484 12.03-1.101z"/><path d="M304.417 277.678l-.939-8.481-12.03 1.099.939 8.484 12.03-1.102zM291.448 270.284l-.939-8.482-12.03 1.098.94 8.485 12.029-1.101zM299.019 338.178l-.939-8.485-12.035 1.099.939 8.488 12.035-1.102zM286.044 330.784l-.939-8.481-12.031 1.099.939 8.484 12.031-1.102z"/><path d="M310.088 328.599l-.938-8.482-12.03 1.099.939 8.484 12.029-1.101zM297.122 321.204l-.938-8.481-12.03 1.098.939 8.485 12.029-1.102z"/><path d="M308.197 311.625l-.939-8.482-12.028 1.099.939 8.484 12.028-1.101zM295.236 304.232l-.939-8.486-12.034 1.098.939 8.489 12.034-1.101zM300.903 355.154l-.938-8.482-12.03 1.098.939 8.485 12.029-1.101zM287.941 347.759l-.939-8.485-12.037 1.099.939 8.488 12.037-1.102z"/><path d="M311.98 345.574l-.939-8.482-12.029 1.099.939 8.484 12.029-1.101zM299.011 338.18l-.939-8.482-12.029 1.098.939 8.485 12.029-1.101z"/></g><path d="M164.794 263.258c-.064 26.576 19.878 48.388 44.544 48.716l9.678.129c24.664.328 44.716-20.951 44.781-47.527l.063-25.667c.068-26.578-19.874-48.388-44.541-48.717l-9.678-.13c-24.666-.328-44.716 20.952-44.781 47.533l-.066 25.663z" fill="#ECA97B"/><path d="M264.962 183.305V313.03s-20.612 11.078-49.036 10.207c-28.425-.87-38.289-10.207-38.289-10.207V183.305h9.431s3.688 25.34 28.858 24.687c25.17-.652 25.82-24.687 25.82-24.687h23.216z" fill="#fff"/><path d="M249.669 339.441s45.585-16.765 40.252-76.222l.828-33.806c-.262-35.004-13.018-60.094-42.35-59.874l1.27 169.902z" fill="#A82B11"/><mask id="c" style="mask-type:luminance" maskUnits="userSpaceOnUse" x="248" y="169" width="43" height="171"><path d="M249.669 339.441s45.585-16.765 40.252-76.222l.828-33.806c-.262-35.004-13.018-60.094-42.35-59.874l1.27 169.902z" fill="#fff"/></mask><g style="mix-blend-mode:darken" opacity=".5" fill="#1A1818" mask="url(#c)"><path d="M250.154 189.797l.058 7.714 7.702-.058-.057-7.713-7.703.057z"/><path d="M242.394 182.142l.058 7.713 7.703-.058-.058-7.713-7.703.058zM250.039 174.37l.057 7.714 7.702-.058-.057-7.713-7.702.057zM242.279 166.714l.058 7.713 7.703-.058-.058-7.713-7.703.058zM257.798 182.027l.058 7.713 7.702-.058-.058-7.713-7.702.058zM257.683 166.6l.058 7.713 7.702-.058-.058-7.713-7.702.058zM250.381 220.652l.062 7.715 7.703-.062-.061-7.715-7.704.062z"/><path d="M242.625 212.997l.057 7.712 7.704-.057-.058-7.713-7.703.058zM250.269 205.225l.058 7.714 7.702-.058-.058-7.713-7.702.057z"/><path d="M242.509 197.57l.058 7.713 7.703-.058-.058-7.713-7.703.058zM258.029 212.881l.057 7.712 7.702-.057-.057-7.713-7.702.058zM257.914 197.454l.057 7.713 7.703-.057-.058-7.714-7.702.058zM250.154 189.798l.058 7.714 7.702-.058-.057-7.713-7.703.057zM250.613 251.506l.062 7.715 7.702-.062-.061-7.714-7.703.061z"/><path d="M242.856 243.851l.057 7.713 7.704-.058-.058-7.713-7.703.058z"/><path d="M250.501 236.08l.058 7.714 7.702-.058-.058-7.713-7.702.057zM242.74 228.425l.058 7.713 7.703-.058-.058-7.713-7.703.058zM258.261 243.735l.057 7.713 7.703-.058-.058-7.713-7.702.058zM258.146 228.309l.057 7.713 7.703-.058-.058-7.713-7.702.058zM250.385 220.652l.058 7.714 7.702-.058-.057-7.713-7.703.057zM250.847 282.36l.058 7.714 7.703-.058-.058-7.713-7.703.057zM243.087 274.705l.057 7.713 7.703-.057-.057-7.714-7.703.058zM250.731 266.933l.058 7.714 7.702-.058-.058-7.713-7.702.057z"/><path d="M242.971 259.278l.057 7.713 7.704-.058-.058-7.713-7.703.058zM258.49 274.59l.058 7.713 7.702-.058-.058-7.713-7.702.058zM258.376 259.163l.057 7.713 7.702-.058-.057-7.713-7.702.058z"/><path d="M250.612 251.506l.062 7.715 7.702-.062-.062-7.714-7.702.061zM251.081 313.218l.054 7.712 7.702-.054-.054-7.712-7.702.054zM243.316 305.56l.058 7.716 7.703-.058-.057-7.716-7.704.058z"/><path d="M250.966 297.791l.054 7.712 7.702-.054-.054-7.712-7.702.054zM243.201 290.136l.057 7.713 7.704-.058-.058-7.713-7.703.058z"/><path d="M258.721 305.444l.058 7.716 7.702-.058-.058-7.716-7.702.058zM258.606 290.02l.058 7.713 7.702-.058-.058-7.713-7.702.058zM250.846 282.361l.058 7.714 7.703-.058-.058-7.713-7.703.057zM243.547 336.417l.058 7.713 7.703-.058-.057-7.713-7.704.058zM251.193 328.646l.057 7.713 7.703-.057-.058-7.714-7.702.058zM243.432 320.99l.058 7.713 7.703-.058-.058-7.713-7.703.058z"/><path d="M258.951 336.302l.058 7.713 7.702-.058-.058-7.713-7.702.058zM258.832 320.875l.062 7.713 7.702-.062-.061-7.713-7.703.062z"/><path d="M251.082 313.217l.053 7.712 7.703-.054-.054-7.712-7.702.054zM280.963 189.567l.058 7.714 7.704-.058-.057-7.713-7.705.057zM265.558 189.682l.058 7.714 7.702-.058-.057-7.713-7.703.057zM273.203 181.911l.057 7.713 7.703-.058-.058-7.713-7.702.058zM257.798 182.027l.058 7.713 7.702-.058-.058-7.713-7.702.058zM280.848 174.139l.058 7.714 7.703-.058-.057-7.713-7.704.057zM265.443 174.255l.057 7.714 7.702-.058-.057-7.713-7.702.057z"/><path d="M273.088 166.484l.058 7.713 7.702-.058-.058-7.713-7.702.058zM257.683 166.599l.058 7.713 7.702-.057-.058-7.714-7.702.058zM288.609 181.795l.058 7.713 7.702-.058-.058-7.713-7.702.058zM288.494 166.368l.058 7.713 7.702-.058-.058-7.713-7.702.058zM281.198 220.42l.054 7.715 7.704-.054-.054-7.715-7.704.054zM265.789 220.535l.058 7.716 7.702-.058-.058-7.716-7.702.058z"/><path d="M273.434 212.766l.057 7.712 7.703-.058-.058-7.712-7.702.058zM258.029 212.881l.057 7.712 7.703-.058-.058-7.712-7.702.058zM281.078 204.993l.058 7.714 7.703-.058-.058-7.713-7.703.057zM265.673 205.109l.058 7.714 7.702-.058-.058-7.713-7.702.057z"/><path d="M273.319 197.339l.057 7.713 7.703-.058-.058-7.713-7.702.058zM257.914 197.453l.058 7.713 7.702-.057-.058-7.714-7.702.058zM288.843 212.65l.054 7.712 7.703-.054-.054-7.712-7.703.054zM288.724 197.223l.057 7.713 7.702-.058-.057-7.713-7.702.058z"/><path d="M280.963 189.567l.058 7.714 7.704-.058-.057-7.714-7.705.058zM265.558 189.682l.058 7.714 7.702-.058-.057-7.713-7.703.057zM281.425 251.275l.058 7.715 7.703-.058-.058-7.714-7.703.057zM266.015 251.39l.062 7.715 7.702-.062-.062-7.715-7.702.062zM273.664 243.62l.057 7.713 7.702-.058-.057-7.713-7.702.058z"/><path d="M258.26 243.735l.057 7.713 7.703-.058-.058-7.713-7.702.058zM281.309 235.849l.058 7.713 7.703-.057-.058-7.714-7.703.058z"/><path d="M265.904 235.964l.058 7.714 7.702-.058-.058-7.713-7.702.057zM273.549 228.193l.058 7.713 7.703-.058-.058-7.713-7.703.058z"/><path d="M258.145 228.309l.057 7.713 7.703-.058-.058-7.713-7.702.058zM289.07 243.504l.057 7.713 7.702-.058-.057-7.713-7.702.058zM288.955 228.078l.057 7.713 7.702-.058-.057-7.713-7.702.058zM281.193 220.421l.058 7.714 7.704-.058-.057-7.714-7.705.058zM265.789 220.537l.058 7.714 7.702-.058-.058-7.714-7.702.058zM281.657 282.131l.057 7.713 7.704-.057-.058-7.714-7.703.058zM266.251 282.246l.058 7.713 7.702-.057-.058-7.714-7.702.058z"/><path d="M273.895 274.476l.058 7.713 7.702-.058-.057-7.713-7.703.058zM258.49 274.591l.058 7.713 7.702-.058-.057-7.713-7.703.058zM281.541 266.703l.058 7.714 7.703-.059-.058-7.713-7.703.058zM266.136 266.819l.058 7.714 7.702-.058-.058-7.713-7.702.057zM273.78 259.049l.058 7.713 7.702-.058-.057-7.713-7.703.058zM258.376 259.163l.057 7.713 7.703-.058-.058-7.713-7.702.058zM289.301 274.36l.058 7.713 7.702-.058-.058-7.713-7.702.058z"/><path d="M289.186 258.933l.058 7.713 7.702-.058-.058-7.713-7.702.058zM281.425 251.275l.058 7.714 7.703-.057-.058-7.715-7.703.058zM266.016 251.391l.062 7.714 7.702-.061-.062-7.715-7.702.062zM281.89 312.986l.054 7.711 7.704-.054-.054-7.711-7.704.054zM266.484 313.102l.054 7.711 7.703-.054-.054-7.711-7.703.054zM274.126 305.328l.058 7.716 7.703-.058-.058-7.716-7.703.058zM258.721 305.444l.058 7.716 7.702-.058-.058-7.716-7.702.058z"/><path d="M281.767 297.56l.061 7.711 7.704-.061-.062-7.712-7.703.062zM266.369 297.675l.054 7.711 7.703-.054-.054-7.711-7.703.054zM274.011 289.904l.058 7.713 7.702-.058-.057-7.713-7.703.058zM258.606 290.02l.058 7.713 7.702-.058-.058-7.713-7.702.058zM289.531 305.214l.058 7.716 7.702-.058-.058-7.716-7.702.058zM289.416 289.789l.058 7.713 7.702-.058-.058-7.713-7.702.058zM281.656 282.13l.057 7.713 7.704-.057-.058-7.714-7.703.058zM266.251 282.245l.057 7.713 7.703-.057-.058-7.714-7.702.058zM274.356 336.186l.058 7.713 7.702-.058-.058-7.713-7.702.058zM258.951 336.301l.058 7.713 7.702-.058-.058-7.713-7.702.058zM282.001 328.414l.058 7.713 7.704-.057-.057-7.714-7.705.058z"/><path d="M266.597 328.53l.057 7.714 7.703-.058-.058-7.714-7.702.058z"/><path d="M274.241 320.759l.058 7.713 7.702-.058-.058-7.713-7.702.058zM258.832 320.875l.062 7.713 7.702-.062-.061-7.713-7.703.062zM289.762 336.071l.058 7.713 7.702-.058-.058-7.713-7.702.058zM289.647 320.643l.058 7.713 7.702-.058-.058-7.713-7.702.058zM281.889 312.986l.054 7.711 7.704-.054-.054-7.711-7.704.054zM266.484 313.102l.054 7.711 7.703-.054-.054-7.711-7.703.054zM288.608 181.795l.058 7.713 7.702-.058-.057-7.713-7.703.058zM288.494 166.367l.057 7.713 7.702-.058-.057-7.713-7.702.058zM288.843 212.649l.054 7.713 7.703-.054-.054-7.713-7.703.054zM288.724 197.223l.057 7.713 7.702-.058-.057-7.713-7.702.058zM289.069 243.505l.058 7.713 7.702-.058-.058-7.713-7.702.058zM288.954 228.079l.058 7.713 7.702-.058-.057-7.713-7.703.058zM289.301 274.359l.058 7.713 7.702-.058-.058-7.713-7.702.058zM289.186 258.932l.058 7.713 7.702-.058-.058-7.713-7.702.058zM289.531 305.214l.058 7.716 7.702-.058-.058-7.716-7.702.058zM289.416 289.789l.058 7.713 7.702-.058-.058-7.713-7.702.058z"/><path d="M289.762 336.071l.058 7.713 7.702-.058-.058-7.713-7.702.058zM289.647 320.643l.058 7.713 7.702-.058-.058-7.713-7.702.058z"/></g><path d="M145.195 276.412l37.653-75.162c7.723-13.763 1.213-20.042-8.311-25.155-12.88-6.912-29.189 12.108-37.744 27.355l-26.678 47.548 35.08 25.414z" fill="#A82B11"/><mask id="d" style="mask-type:luminance" maskUnits="userSpaceOnUse" x="110" y="174" width="77" height="92"><path d="M148.776 265.707l34.072-64.457c7.724-13.763 1.213-20.042-8.31-25.155-12.881-6.912-29.19 12.107-37.744 27.355l-26.678 47.547 38.66 14.71z" fill="#fff"/></mask><g style="mix-blend-mode:darken" opacity=".5" fill="#1A1818" mask="url(#d)"><path d="M157.39 179.049l4.515-8.048 11.404 6.122-4.514 8.048-11.405-6.122zM173.307 177.115l4.514-8.047 11.405 6.122-4.515 8.046-11.404-6.121zM139.32 211.251l4.514-8.047 11.405 6.122-4.515 8.047-11.404-6.122zM116.514 199.012l4.516-8.05 11.409 6.124-4.515 8.05-11.41-6.124zM132.434 197.08l4.514-8.047 11.406 6.123-4.514 8.047-11.406-6.123z"/><path d="M109.631 184.844l4.515-8.047 11.404 6.122-4.514 8.047-11.405-6.122zM148.354 195.15l4.515-8.047 11.404 6.123-4.514 8.046-11.405-6.122zM125.549 182.911l4.515-8.048 11.404 6.122-4.515 8.048-11.404-6.122zM141.47 180.98l4.514-8.047 11.407 6.123-4.514 8.047-11.407-6.123zM118.667 168.743l4.514-8.047 11.405 6.122-4.515 8.047-11.404-6.122zM155.237 209.317l4.514-8.047 11.404 6.122-4.514 8.047-11.404-6.122zM164.272 193.217l4.514-8.047 11.405 6.122-4.514 8.047-11.405-6.122zM157.39 179.05l4.515-8.048 11.404 6.122-4.515 8.048-11.404-6.122zM121.248 243.454l4.515-8.047 11.404 6.122-4.515 8.047-11.404-6.122zM98.4429 231.214l4.5161-8.05 11.409 6.124-4.516 8.05-11.4091-6.124zM114.363 229.283l4.515-8.047 11.406 6.123-4.515 8.047-11.406-6.123zM130.284 227.352l4.516-8.05 11.409 6.124-4.516 8.05-11.409-6.124zM107.479 215.115l4.515-8.048 11.404 6.122-4.515 8.048-11.404-6.122z"/><path d="M123.398 213.182l4.515-8.047 11.406 6.123-4.514 8.047-11.407-6.123zM100.595 200.946l4.515-8.048 11.404 6.122-4.514 8.048-11.405-6.122zM137.166 241.521l4.514-8.046 11.404 6.121-4.514 8.047-11.404-6.122zM146.201 225.42l4.515-8.047 11.404 6.122-4.514 8.047-11.405-6.122zM139.319 211.252l4.515-8.047 11.404 6.121-4.515 8.048-11.404-6.122zM116.514 199.013l4.516-8.05 11.409 6.124-4.516 8.05-11.409-6.124zM96.2915 261.487l4.5145-8.047 11.406 6.123-4.514 8.047-11.4065-6.123zM112.212 259.555l4.515-8.047 11.404 6.122-4.515 8.048-11.404-6.123zM105.327 245.386l4.515-8.048 11.407 6.123-4.515 8.048-11.407-6.123zM119.094 273.723l4.515-8.047 11.404 6.122-4.515 8.047-11.404-6.122zM128.13 257.623l4.515-8.047 11.404 6.122-4.514 8.047-11.405-6.122zM121.248 243.454l4.514-8.046 11.404 6.121-4.514 8.047-11.404-6.122zM98.4417 231.216l4.5163-8.051 11.409 6.124-4.516 8.051-11.4093-6.124zM180.19 191.285l4.517-8.051 11.409 6.124-4.516 8.051-11.41-6.124z"/><path d="M173.307 177.115l4.514-8.046 11.405 6.122-4.515 8.046-11.404-6.122zM184.925 235.725l4.514-8.047 11.405 6.122-4.515 8.047-11.404-6.122zM162.119 223.486l4.516-8.05 11.409 6.124-4.515 8.05-11.41-6.124zM178.039 221.555l4.515-8.048 11.406 6.123-4.515 8.047-11.406-6.122zM155.236 209.317l4.514-8.047 11.404 6.122-4.514 8.046-11.404-6.121zM171.155 207.385l4.514-8.047 11.405 6.121-4.515 8.048-11.404-6.122zM164.271 193.216l4.514-8.046 11.405 6.122-4.515 8.046-11.404-6.122zM180.19 191.284l4.515-8.047 11.404 6.122-4.514 8.047-11.405-6.122zM166.854 267.928l4.515-8.048 11.404 6.122-4.514 8.048-11.405-6.122zM144.048 255.69l4.516-8.051 11.41 6.125-4.516 8.05-11.41-6.124zM159.969 253.758l4.514-8.048 11.407 6.123-4.515 8.048-11.406-6.123z"/><path d="M137.166 241.521l4.514-8.047 11.404 6.122-4.514 8.047-11.404-6.122zM175.889 251.827l4.514-8.046 11.404 6.121-4.514 8.047-11.404-6.122zM153.083 239.588l4.515-8.047 11.404 6.122-4.514 8.047-11.405-6.122zM169.003 237.656l4.516-8.051 11.411 6.125-4.516 8.051-11.411-6.125zM146.201 225.42l4.515-8.047 11.404 6.122-4.514 8.047-11.405-6.122zM182.771 265.995l4.514-8.046 11.404 6.122-4.514 8.046-11.404-6.122zM184.924 235.726l4.515-8.047 11.404 6.121-4.514 8.048-11.405-6.122z"/><path d="M162.119 223.487l4.516-8.05 11.409 6.124-4.516 8.05-11.409-6.124zM119.094 273.723l4.515-8.047 11.404 6.122-4.515 8.047-11.404-6.122zM135.014 271.792l4.514-8.047 11.405 6.122-4.515 8.047-11.404-6.122zM150.933 269.86l4.517-8.051 11.411 6.125-4.516 8.051-11.412-6.125zM128.131 257.623l4.514-8.047 11.404 6.122-4.514 8.047-11.404-6.122zM166.854 267.929l4.514-8.047 11.404 6.122-4.514 8.046-11.404-6.121z"/><path d="M144.05 255.692l4.514-8.048 11.405 6.122-4.515 8.047-11.404-6.121z"/></g><path d="M90.8952 211.061l50.2888 56.108c10.211 12.035 5.024 19.441-3.354 26.281-11.324 9.246-18.442 2.849-29.755-10.485l-44.9897-48.91 27.8099-22.994z" fill="#A82B11"/><mask id="e" style="mask-type:luminance" maskUnits="userSpaceOnUse" x="62" y="210" width="85" height="88"><path d="M90.9715 210.985l50.2135 56.184c10.211 12.035 5.024 19.441-3.354 26.28-4.686 3.829-8.621 4.927-12.695 4.163-4.544-.822-9.063-5.541-15.691-13.354l-46.816-50.279 28.3425-22.994z" fill="#fff"/></mask><g style="mix-blend-mode:darken" opacity=".5" fill="#1A1818" mask="url(#e)"><path d="M120.425 293.828l5.971 7.038 10.028-8.19-5.971-7.039-10.028 8.191zM136.421 292.68l5.97 7.038 10.028-8.191-5.97-7.037-10.028 8.19zM96.5381 265.671l5.9709 7.039 10.027-8.191-5.97-7.038-10.0279 8.19zM76.4794 282.055l5.9724 7.041 10.0335-8.194-5.9731-7.041-10.0328 8.194z"/><path d="M92.4819 280.902l5.9708 7.039 10.0293-8.192-5.971-7.039-10.0291 8.192zM72.4309 297.279l5.9702 7.037 10.0275-8.19-5.9701-7.038-10.0276 8.191z"/><path d="M108.481 279.749l5.971 7.038 10.028-8.19-5.971-7.039-10.028 8.191zM88.427 296.13l5.9708 7.038 10.0272-8.19-5.9704-7.039-10.0276 8.191zM104.426 294.978l5.971 7.038 10.029-8.192-5.97-7.038-10.03 8.192zM112.534 264.523l5.971 7.038 10.027-8.191-5.97-7.038-10.028 8.191zM124.477 278.602l5.97 7.038 10.028-8.191-5.97-7.038-10.028 8.191zM120.425 293.827l5.97 7.039 10.028-8.191-5.971-7.038-10.027 8.19zM72.6519 237.513l5.9708 7.038 10.0275-8.19-5.9708-7.039-10.0275 8.191zM52.5924 253.897l5.9725 7.041 10.0334-8.194-5.9731-7.041-10.0328 8.194z"/><path d="M68.5966 252.743l5.9708 7.038 10.0291-8.191-5.9708-7.039-10.0291 8.192zM48.5432 269.121l5.9702 7.038 10.0275-8.191-5.9701-7.037-10.0276 8.19z"/><path d="M84.5903 251.595l5.9724 7.041 10.0323-8.193-5.9727-7.042-10.032 8.194zM64.5417 267.971l5.9709 7.038 10.0276-8.19-5.9709-7.039-10.0276 8.191z"/><path d="M80.5402 266.821l5.9708 7.039 10.0291-8.192-5.9708-7.039-10.0291 8.192zM60.4868 283.2l5.9708 7.038 10.0276-8.19-5.9708-7.039-10.0276 8.191zM88.6485 236.364l5.9701 7.038 10.0274-8.19-5.97-7.038-10.0275 8.19zM100.592 250.444l5.971 7.039 10.027-8.191-5.971-7.038-10.027 8.19z"/><path d="M96.5376 265.671l5.9704 7.038 10.028-8.19-5.971-7.039-10.0274 8.191zM76.4789 282.054l5.9724 7.041 10.0335-8.193-5.9731-7.042-10.0328 8.194zM48.7649 209.356l5.9702 7.038 10.0275-8.191-5.9701-7.037-10.0276 8.19zM60.7081 223.434l5.971 7.038 10.0273-8.19-5.9711-7.039-10.0272 8.191zM56.6531 238.663l5.9707 7.039 10.0292-8.192-5.9707-7.039-10.0292 8.192z"/><path d="M64.7611 208.207l5.971 7.039 10.0273-8.191-5.9711-7.039-10.0272 8.191zM76.7058 222.285l5.9702 7.038 10.0275-8.19-5.9701-7.038-10.0276 8.19zM72.6521 237.513l5.9702 7.038 10.0275-8.191-5.9701-7.038-10.0276 8.191zM52.5919 253.896l5.9731 7.042 10.0328-8.194-5.9731-7.042-10.0328 8.194zM140.47 277.456l5.973 7.041 10.033-8.194-5.973-7.041-10.033 8.194z"/><path d="M136.421 292.68l5.97 7.038 10.028-8.191-5.97-7.038-10.028 8.191zM136.643 232.914l5.97 7.038 10.028-8.19-5.971-7.039-10.027 8.191zM116.584 249.297l5.972 7.041 10.033-8.193-5.973-7.041-10.032 8.193z"/><path d="M132.587 248.144l5.971 7.038 10.029-8.192-5.971-7.038-10.029 8.192zM112.534 264.522l5.97 7.038 10.028-8.191-5.971-7.037-10.027 8.19zM128.532 263.372l5.97 7.039 10.028-8.191-5.971-7.038-10.027 8.19zM144.526 262.224l5.972 7.041 10.034-8.195-5.973-7.041-10.033 8.195zM124.477 278.601l5.97 7.038 10.028-8.191-5.971-7.037-10.027 8.19z"/><path d="M140.474 277.45l5.97 7.038 10.028-8.19-5.97-7.038-10.028 8.19zM112.756 204.758l5.971 7.038 10.027-8.19-5.97-7.039-10.028 8.191zM92.6967 221.141l5.9724 7.041 10.0339-8.194-5.974-7.042-10.0323 8.195z"/><path d="M108.7 219.987l5.971 7.039 10.029-8.192-5.971-7.039-10.029 8.192zM88.6482 236.364l5.9702 7.038 10.0276-8.191-5.9702-7.037-10.0276 8.19zM124.699 218.835l5.97 7.038 10.028-8.19-5.97-7.038-10.028 8.19z"/><path d="M104.645 235.216l5.97 7.038 10.028-8.19-5.971-7.039-10.027 8.191zM120.638 234.069l5.973 7.042 10.034-8.195-5.973-7.042-10.034 8.195zM100.591 250.443l5.971 7.039 10.027-8.191-5.97-7.038-10.028 8.19zM140.695 217.688l5.971 7.039 10.028-8.191-5.971-7.038-10.028 8.19z"/><path d="M136.642 232.914l5.971 7.039 10.027-8.191-5.971-7.038-10.027 8.19zM116.584 249.297l5.972 7.041 10.033-8.193-5.973-7.042-10.032 8.194zM64.7608 208.207l5.9711 7.039 10.0272-8.191-5.971-7.039-10.0273 8.191zM80.7591 207.056l5.9707 7.039 10.0278-8.19-5.9708-7.039-10.0277 8.19zM96.753 205.91l5.973 7.042 10.034-8.195-5.973-7.042-10.034 8.195zM76.7049 222.284l5.9701 7.038 10.0276-8.19-5.9702-7.038-10.0275 8.19z"/><path d="M112.756 204.756l5.97 7.038 10.028-8.19-5.97-7.038-10.028 8.19zM92.7029 221.135l5.9708 7.038 10.0273-8.19-5.971-7.039-10.0271 8.191z"/></g><path d="M184.303 339.44s-45.585-16.765-40.252-76.222l-.828-33.806c.262-35.004 13.02-60.094 42.35-59.874l-1.27 169.902z" fill="#A82B11"/><mask id="f" style="mask-type:luminance" maskUnits="userSpaceOnUse" x="143" y="169" width="43" height="171"><path d="M184.303 339.44s-45.585-16.765-40.252-76.222l-.828-33.806c.262-35.004 13.02-60.094 42.35-59.874l-1.27 169.902z" fill="#fff"/></mask><g style="mix-blend-mode:darken" opacity=".5" fill="#1A1818" mask="url(#f)"><path d="M176.114 189.739l-.057 7.714 7.702.057.058-7.713-7.703-.058zM183.875 182.083l-.058 7.713 7.703.058.058-7.713-7.703-.058zM176.23 174.311l-.057 7.714 7.702.057.057-7.713-7.702-.058zM183.99 166.655l-.058 7.713 7.703.058.058-7.713-7.703-.058zM168.471 181.968l-.058 7.713 7.702.058.058-7.713-7.702-.058z"/><path d="M168.587 166.541l-.058 7.713 7.702.058.058-7.713-7.702-.058zM175.888 220.593l-.061 7.715 7.703.061.062-7.714-7.704-.062zM183.645 212.938l-.058 7.712 7.703.058.058-7.713-7.703-.057zM176 205.166l-.057 7.714 7.702.057.058-7.713-7.703-.058z"/><path d="M183.76 197.511l-.058 7.713 7.703.058.058-7.713-7.703-.058zM168.241 212.822l-.058 7.712 7.702.058.058-7.712-7.702-.058zM168.356 197.395l-.058 7.713 7.702.058.058-7.714-7.702-.057z"/><path d="M176.115 189.739l-.058 7.714 7.703.057.057-7.713-7.702-.058zM175.658 251.447l-.062 7.714 7.702.062.062-7.714-7.702-.062zM183.415 243.793l-.058 7.713 7.704.058.057-7.713-7.703-.058zM175.77 236.021l-.058 7.713 7.702.058.058-7.713-7.702-.058zM183.53 228.366l-.058 7.713 7.703.058.058-7.713-7.703-.058zM168.01 243.676l-.058 7.713 7.703.058.057-7.713-7.702-.058zM168.125 228.25l-.058 7.713 7.703.058.057-7.714-7.702-.057zM175.884 220.594l-.057 7.714 7.702.057.058-7.713-7.703-.058zM175.422 282.302l-.058 7.714 7.703.057.058-7.713-7.703-.058zM183.182 274.647l-.057 7.713 7.703.058.057-7.714-7.703-.057zM175.538 266.874l-.058 7.714 7.702.057.058-7.713-7.702-.058z"/><path d="M183.297 259.219l-.058 7.713 7.703.058.058-7.713-7.703-.058zM167.778 274.531l-.058 7.713 7.703.058.057-7.713-7.702-.058zM167.894 259.104l-.058 7.713 7.703.058.057-7.714-7.702-.057z"/><path d="M175.656 251.447l-.061 7.715 7.702.061.062-7.714-7.703-.062zM175.188 313.159l-.054 7.712 7.703.054.054-7.712-7.703-.054zM182.952 305.501l-.057 7.716 7.703.058.058-7.716-7.704-.058zM175.303 297.732l-.054 7.712 7.703.054.054-7.712-7.703-.054zM183.067 290.077l-.057 7.713 7.703.058.057-7.713-7.703-.058z"/><path d="M167.548 305.386l-.057 7.716 7.702.058.057-7.717-7.702-.057zM167.664 289.961l-.058 7.713 7.702.058.058-7.713-7.702-.058zM175.423 282.302l-.058 7.714 7.703.057.058-7.713-7.703-.058zM182.721 336.358l-.057 7.713 7.703.058.058-7.714-7.704-.057zM175.077 328.587l-.058 7.714 7.702.057.058-7.713-7.702-.058zM182.837 320.931l-.058 7.713 7.703.058.058-7.713-7.703-.058z"/><path d="M167.317 336.243l-.057 7.713 7.702.058.058-7.713-7.703-.058zM167.437 320.816l-.061 7.713 7.702.062.062-7.714-7.703-.061zM175.189 313.159l-.054 7.712 7.702.054.054-7.712-7.702-.054zM145.304 189.508l-.058 7.713 7.704.058.058-7.713-7.704-.058zM160.71 189.624l-.057 7.714 7.702.057.057-7.713-7.702-.058zM153.065 181.852l-.058 7.713 7.703.058.057-7.713-7.702-.058zM168.47 181.968l-.058 7.713 7.702.058.058-7.713-7.702-.058zM145.419 174.081l-.057 7.714 7.703.057.058-7.713-7.704-.058zM160.825 174.196l-.057 7.714 7.702.057.057-7.713-7.702-.058zM153.18 166.425l-.058 7.713 7.702.058.058-7.713-7.702-.058zM168.586 166.541l-.058 7.713 7.702.058.058-7.713-7.702-.058zM137.66 181.736l-.058 7.713 7.703.058.057-7.713-7.702-.058zM137.776 166.309l-.058 7.713 7.702.058.058-7.714-7.702-.057zM145.07 220.362l-.054 7.714 7.705.054.053-7.714-7.704-.054zM160.481 220.476l-.058 7.716 7.702.058.058-7.716-7.702-.058zM152.835 212.707l-.057 7.712 7.702.058.057-7.712-7.702-.058zM168.241 212.822l-.058 7.712 7.703.058.057-7.712-7.702-.058zM145.19 204.935l-.058 7.713 7.703.058.058-7.713-7.703-.058zM160.596 205.05l-.058 7.714 7.702.057.058-7.713-7.702-.058z"/><path d="M152.951 197.28l-.058 7.713 7.703.058.057-7.713-7.702-.058zM168.356 197.395l-.058 7.713 7.703.058.057-7.714-7.702-.057zM137.426 212.59l-.053 7.713 7.702.054.054-7.713-7.703-.054zM137.546 197.164l-.057 7.713 7.702.058.057-7.714-7.702-.057z"/><path d="M145.304 189.508l-.057 7.714 7.704.057.058-7.713-7.705-.058zM160.711 189.624l-.057 7.714 7.702.057.057-7.713-7.702-.058zM144.843 251.216l-.058 7.714 7.703.058.058-7.714-7.703-.058zM160.254 251.331l-.062 7.715 7.702.061.062-7.714-7.702-.062zM152.604 243.561l-.057 7.713 7.702.058.058-7.713-7.703-.058zM168.009 243.676l-.058 7.713 7.703.058.057-7.713-7.702-.058zM144.959 235.79l-.058 7.714 7.703.057.058-7.713-7.703-.058zM160.365 235.905l-.058 7.714 7.702.057.058-7.713-7.702-.058zM152.719 228.134l-.058 7.713 7.703.058.058-7.713-7.703-.058z"/><path d="M168.124 228.25l-.058 7.713 7.703.058.057-7.713-7.702-.058zM137.199 243.445l-.057 7.713 7.702.058.057-7.714-7.702-.057zM137.315 228.019l-.057 7.713 7.702.058.057-7.714-7.702-.057zM145.075 220.363l-.058 7.714 7.704.057.058-7.713-7.704-.058zM160.481 220.478l-.058 7.714 7.702.058.058-7.714-7.702-.058zM144.612 282.072l-.058 7.713 7.704.058.057-7.713-7.703-.058zM160.019 282.188l-.058 7.713 7.702.058.058-7.713-7.702-.058zM152.374 274.417l-.058 7.713 7.702.058.058-7.714-7.702-.057zM167.778 274.532l-.057 7.713 7.702.058.058-7.713-7.703-.058zM144.728 266.644l-.058 7.713 7.704.058.058-7.713-7.704-.058zM160.134 266.76l-.058 7.714 7.702.057.058-7.713-7.702-.058z"/><path d="M152.489 258.99l-.057 7.713 7.702.058.058-7.714-7.703-.057zM167.894 259.105l-.057 7.713 7.702.058.057-7.714-7.702-.057zM136.969 274.301l-.058 7.713 7.702.058.058-7.714-7.702-.057zM137.084 258.874l-.058 7.713 7.702.058.058-7.714-7.702-.057zM144.843 251.216l-.058 7.714 7.703.058.058-7.714-7.703-.058z"/><path d="M160.254 251.332l-.062 7.715 7.702.061.062-7.714-7.702-.062zM144.377 312.928l-.054 7.711 7.704.054.054-7.711-7.704-.054zM159.784 313.044l-.054 7.711 7.703.054.054-7.711-7.703-.054zM152.143 305.269l-.058 7.716 7.703.058.058-7.717-7.703-.057zM167.547 305.385l-.057 7.716 7.702.058.058-7.717-7.703-.057z"/><path d="M144.501 297.501l-.062 7.711 7.704.062.061-7.711-7.703-.062zM159.899 297.616l-.054 7.712 7.703.054.054-7.712-7.703-.054zM152.257 289.845l-.057 7.713 7.702.058.057-7.714-7.702-.057zM167.663 289.961l-.058 7.713 7.702.058.058-7.713-7.702-.058z"/><path d="M136.737 305.155l-.057 7.716 7.702.057.058-7.716-7.703-.057zM136.854 289.73l-.058 7.713 7.702.058.058-7.713-7.702-.058zM144.612 282.071l-.058 7.713 7.703.058.058-7.713-7.703-.058zM160.019 282.187l-.058 7.714 7.702.057.058-7.713-7.702-.058zM151.913 336.127l-.058 7.713 7.702.058.058-7.713-7.702-.058zM167.318 336.243l-.058 7.713 7.702.058.058-7.713-7.702-.058zM144.267 328.356l-.057 7.713 7.704.058.058-7.713-7.705-.058zM159.673 328.471l-.058 7.713 7.703.058.057-7.713-7.702-.058zM152.029 320.7l-.058 7.713 7.702.058.058-7.714-7.702-.057zM167.438 320.816l-.062 7.713 7.702.062.062-7.714-7.702-.061zM136.508 336.012l-.058 7.713 7.702.058.058-7.714-7.702-.057zM136.623 320.584l-.058 7.713 7.702.058.058-7.713-7.702-.058zM144.378 312.928l-.054 7.712 7.704.054.054-7.712-7.704-.054zM159.785 313.044l-.054 7.711 7.703.054.054-7.711-7.703-.054zM137.661 181.736l-.058 7.713 7.702.058.058-7.713-7.702-.058zM137.776 166.309l-.058 7.713 7.702.058.058-7.714-7.702-.057zM137.425 212.591l-.053 7.713 7.702.054.054-7.713-7.703-.054zM137.545 197.165l-.057 7.713 7.702.058.057-7.714-7.702-.057zM137.199 243.446l-.057 7.713 7.702.058.057-7.714-7.702-.057zM137.314 228.02l-.057 7.713 7.702.058.057-7.714-7.702-.057z"/><path d="M136.969 274.301l-.058 7.713 7.702.058.058-7.714-7.702-.057zM137.084 258.874l-.058 7.713 7.702.058.058-7.714-7.702-.057zM136.737 305.155l-.057 7.716 7.702.057.058-7.716-7.703-.057zM136.853 289.73l-.058 7.713 7.702.058.058-7.713-7.702-.058zM136.507 336.012l-.058 7.713 7.702.058.058-7.714-7.702-.057zM136.622 320.584l-.058 7.713 7.702.058.058-7.713-7.702-.058z"/></g><path d="M274.255 200.681l-18.087-12.584s4.688-4.676 7.35-3.422l14.369 11.179-3.632 4.827zM210.707 206.411l-33.123-20.278s2.621-3.114 6.202-3.089l32.266 20.656-5.345 2.711z" fill="#161615" opacity=".5"/><path d="M228.785 0s-3.887 7.10512.939 7.41935c20.223 1.30092 70.998 7.94575 76.025 41.79785 6.955 46.7613 2.166 116.8078 2.166 116.8078l-5.379-1.069 6.021 11.575-10.311-2.629 1.942 11.544-10.122-4.718-10.293 16.773-15.433-11.785-44.646 20.505-34.166-22.068-19.348 9.389-8.7-14.768-8.409 3.114 2.191-12.699-10.184.309 5.795-13.689-9.625 5.648s-1.239-79.2273 5.895-116.9502c5.581-29.541 39.072-36.20777 59.883-37.45466 1.945-.11608 5.437-5.25685 7.131-5.29088 0 0 2.757 6.05828 4.077 5.06758C218.766 3.41241 228.785 0 228.785 0z" fill="#703F19"/><path d="M149.807 78.3999s1.983-29.1509 25.175-30.1706c25.563-1.1258 35.812 11.3861 39.672 19.0646 4.124-7.9307 14.889-20.8779 40.503-17.3344 25.311 3.5025 26.399 31.7677 26.399 31.7677s.829 32.8488-16.563 38.5448l-.581 17.627s-5.008 33.807-48.98 35.164v.034c-.756.012-1.499.015-2.233.009-.735-.006-1.46 0-2.207-.013v-.031c-43.955-1.45-48.349-35.125-48.349-35.125l.244-17.786c-15.631-6.688-13.08-41.7511-13.08-41.7511z" fill="#ECA97B"/><path d="M225.197 104.131c.011-1.454.598-2.844 1.632-3.865 1.034-1.0209 2.431-1.5887 3.883-1.5789.719.0054 1.431.1527 2.093.4335.663.2807 1.264.6894 1.769 1.2024.505.514.904 1.122 1.174 1.789.27.668.407 1.383.401 2.103-.005.721-.152 1.433-.433 2.096-.28.663-.688 1.265-1.201 1.77-.513.506-1.12.905-1.786 1.175-.667.27-1.381.406-2.1.4-.719-.005-1.43-.153-2.092-.434-.662-.28-1.262-.688-1.767-1.202-.504-.513-.903-1.12-1.173-1.787-.27-.668-.406-1.382-.4-2.102zM179.319 101.638c.011-1.384.571-2.7076 1.557-3.6788.986-.9712 2.316-1.511 3.699-1.5006 1.382.0122 2.703.5728 3.673 1.559.97.9862 1.51 2.3174 1.501 3.7014-.011 1.386-.57 2.711-1.556 3.684-.985.972-2.316 1.513-3.699 1.504-.686-.005-1.363-.146-1.994-.414-.631-.267-1.203-.657-1.684-1.146-.481-.489-.86-1.069-1.117-1.705-.257-.637-.386-1.317-.38-2.004z" fill="#5E3012"/><path d="M247.67 136.83s-40.923 29.874-69.212-5.489c20.668 15.333 69.215 5.434 69.215 5.434l-.003.055zM199.475 122.957s3.197 4.159 5.532.833l.255-3.838-6.289-.422.502 3.427zM215.079 123.872s-3.697 3.729-5.589.136l.219-3.835 6.296.359-.926 3.34z" fill="#341E13"/><g filter="url(#filter0_d_2_4)"><path d="M80.1522 135.934c1.7344-1.664 3.1244-3.654 4.0908-5.856.9663-2.202 1.4897-4.573 1.5408-6.978.0512-2.405-.3713-4.796-1.2432-7.038-.8719-2.241-2.1759-4.288-3.8381-6.025-1.6615-1.737-3.6483-3.129-5.8473-4.097-2.199-.968-4.5671-1.492-6.9686-1.544-2.4015-.051-4.7894.372-7.0276 1.245-2.2382.873-4.2826 2.179-6.0167 3.844-3.267 3.137-5.2572 7.375-5.5858 11.896-.3285 4.521 1.0278 9.003 3.8069 12.58l-3.2975 11.465 8.8179-6.72c3.4182 1.909 7.3577 2.67 11.2399 2.171 3.8822-.499 7.5024-2.231 10.3285-4.943z" fill="#fff"/></g><path d="M73.7109 115.795c-.6071-.345-1.2881-.539-1.9854-.565-.6973-.027-1.3906.115-2.022.412-.6089.299-1.1512.718-1.5945 1.231-.4434.514-.7787 1.112-.9856 1.759-.435-.521-.97-.949-1.5736-1.259-.6036-.309-1.2632-.494-1.9395-.543-.6967-.038-1.3929.092-2.0293.378-.6364.287-1.1946.722-1.6282 1.269-.5465.823-.8374 1.789-.8363 2.777.001.988.2939 1.954.8421 2.775 1.1341 1.63 2.7878 2.824 4.6895 3.387 1.3768.552 2.8456.839 4.3289.844v.005l.0132-.005h.0141c1.3734-.563 2.6276-1.381 3.6971-2.411 1.5532-1.237 2.6397-2.966 3.0807-4.904.2012-.967.112-1.973-.2566-2.889-.3687-.917-1-1.704-1.8146-2.261z" fill="#E3444C"/><path d="M40.3509 220.523c-2.93 4.681-7.5966 8.005-12.9735 9.241-5.377 1.235-11.0239.281-15.6986-2.652-4.67424-2.934-7.99341-7.607-9.22723-12.992-1.23382-5.384-.28123-11.039 2.64798-15.721 2.73414-4.367 6.98815-7.565 11.93965-8.974 4.9514-1.41 10.2483-.931 14.8676 1.344l11.9913-6.322-5.4399 11.383c2.9114 3.372 4.6665 7.59 5.0072 12.035.3406 4.444-.7511 8.881-3.1145 12.658z" fill="#040506" opacity=".18"/><path d="M38.4294 216.674c-2.9296 4.681-7.5962 8.006-12.973 9.241-5.3768 1.236-11.0234.282-15.69811-2.651-4.67438-2.934-7.99369-7.607-9.227701-12.991-1.234012-5.385-.281625-11.04 2.647501-15.721 2.73398-4.368 6.98761-7.566 11.93911-8.975 4.9515-1.41 10.2489-.931 14.8682 1.344l11.9913-6.321-5.4399 11.383c2.9111 3.371 4.6659 7.589 5.0066 12.033.3407 4.445-.7508 8.881-3.114 12.658z" fill="#fff"/><path d="M22.1053 199.81c.049-.06.0951-.119.1401-.181.5662-.768.9356-1.663 1.0768-2.607.1059-.721.1743-1.787.9817-2.09.3306-.079.6783-.033.9774.128.299.162.5285.428.6445.747.2074.65.2364 1.344.0839 2.009-.1718 1.174-.3922 2.339-.6606 3.495l3.4316.791c.6754.107 1.3197.358 1.8902.736.2812.195.4944.474.6085.798.114.323.1234.674.0273 1.003-.3538.883-1.5497 1.015-2.486.858.5299.124.9975.435 1.3179.876.3203.441.4717.982.4274 1.525-.0451.265-.1456.518-.2947.741-.1492.224-.3437.413-.5709.557-.2272.143-.4817.237-.7475.275-.2658.038-.5367.019-.7948-.055.3511.089.6555.307.8519.612.1964.305.2702.672.2064 1.029-.0811.354-.2457.683-.4801.961-.2344.277-.5318.493-.8671.632-.6725.27-1.3901.41-2.1147.414-2.7684.154-5.5446-.089-8.244-.724-.4083-.066-.7956-.226-1.132-.467-.3269-.303-.551-.701-.6406-1.138-.2292-1.314-.0852-2.666.4157-3.903.3498-1.075.762-2.129 1.2349-3.156.2311-.568.5579-1.092.9656-1.55.5746-.589 1.2991-.486 1.9776-.851.6822-.366 1.2849-.864 1.7736-1.465zM14.5635 210.241c.0999.471.165.972-.1308 1.256-.1357.095-.2897.159-.4523.19-.1626.031-.3299.027-.4909-.011l-1.6619-.162c-.1886-.005-.3741-.05-.5435-.133-.1432-.117-.259-.264-.3391-.431-.0802-.167-.1225-.349-.1244-.534-.3673-2.877.3701-5.787 2.0634-8.141.1796-.293.4398-.529.7495-.678.2542-.078.5211-.102.785-.072.6396.031 1.2991.024 1.9347.091.4177.046.8314.031.5826.556-.2659.561-.6911 1.072-.9749 1.633-.5529 1.034-.9889 2.126-1.2994 3.257-.2053.786-.2871 1.6-.242 2.412.0303.259.0784.515.144.767z" fill="#134593"/><g filter="url(#filter1_d_2_4)"><path d="M142.11 141.158H90.0068c-3.1392.009-6.1468 1.262-8.3665 3.485-2.2197 2.223-3.4709 5.235-3.4799 8.379v12.438c.0092 3.144 1.2603 6.156 3.4799 8.379 2.2196 2.223 5.2274 3.476 8.3665 3.485.3772 0 .7501.083 1.0915.244.3414.16.6434.394.8841.685.2408.291.4146.631.5089.997.0944.365.1071.747.0371 1.119l-1.4989 7.986 12.6995-10.445c.459-.378 1.035-.585 1.629-.586h36.754c3.14-.009 6.148-1.262 8.367-3.485 2.22-2.223 3.471-5.235 3.48-8.379v-12.438c-.009-3.144-1.26-6.157-3.48-8.38-2.22-2.223-5.229-3.476-8.369-3.484z" fill="#fff"/></g><path d="M100.756 158.251c-.001.848-.338 1.662-.9379 2.261-.5996.6-1.4124.936-2.2596.936-.4192 0-.834-.083-1.2213-.243-.3873-.161-.7395-.397-1.0359-.693-.2964-.297-.5315-.65-.6919-1.038-.1603-.388-.2426-.803-.2425-1.223-.0007-.42.081-.837.2411-1.225.16-.389.3954-.742.6919-1.039.2964-.298.6482-.533 1.0358-.694.3877-.161.8031-.245 1.2228-.245.8481 0 1.6614.338 2.261.938.5995.601.9365 1.416.9365 2.265zM119.251 158.251c-.001.848-.338 1.66-.936 2.259-.599.599-1.41.937-2.257.938-.847 0-1.66-.336-2.259-.936-.6-.599-.937-1.413-.938-2.261 0-.849.337-1.664.936-2.265.6-.6 1.413-.938 2.261-.938.848.002 1.66.34 2.258.94.599.601.935 1.415.935 2.263zM137.748 158.251c-.002.848-.339 1.662-.939 2.261-.599.6-1.412.936-2.259.936-.846-.002-1.657-.339-2.256-.938-.598-.599-.935-1.412-.936-2.259 0-.848.336-1.662.935-2.262.598-.601 1.41-.939 2.257-.941.848 0 1.661.338 2.261.938.599.601.937 1.416.937 2.265z" fill="#22283E"/></g><defs><filter id="filter0_d_2_4" x="49.2083" y="104.392" width="37.5798" height="42.0334" filterUnits="userSpaceOnUse" color-interpolation-filters="sRGB"><feFlood flood-opacity="0" result="BackgroundImageFix"/><feColorMatrix in="SourceAlpha" values="0 0 0 0 0 0 0 0 0 0 0 0 0 0 0 0 0 0 127 0" result="hardAlpha"/><feOffset dx="1" dy="1"/><feColorMatrix values="0 0 0 0 0.0156863 0 0 0 0 0.0196078 0 0 0 0 0.0235294 0 0 0 0.18 0"/><feBlend in2="BackgroundImageFix" result="effect1_dropShadow_2_4"/><feBlend in="SourceGraphic" in2="effect1_dropShadow_2_4" result="shape"/></filter><filter id="filter1_d_2_4" x="78.1604" y="141.158" width="76.7983" height="49.1974" filterUnits="userSpaceOnUse" color-interpolation-filters="sRGB"><feFlood flood-opacity="0" result="BackgroundImageFix"/><feColorMatrix in="SourceAlpha" values="0 0 0 0 0 0 0 0 0 0 0 0 0 0 0 0 0 0 127 0" result="hardAlpha"/><feOffset dx="1" dy="2"/><feColorMatrix values="0 0 0 0 0.0156863 0 0 0 0 0.0196078 0 0 0 0 0.0235294 0 0 0 0.18 0"/><feBlend in2="BackgroundImageFix" result="effect1_dropShadow_2_4"/><feBlend in="SourceGraphic" in2="effect1_dropShadow_2_4" result="shape"/></filter><clipPath id="clip0_2_4"><path fill="#fff" d="M0 0h329v424H0z"/></clipPath></defs></svg>