<svg xmlns="http://www.w3.org/2000/svg" xmlns:xlink="http://www.w3.org/1999/xlink" width="66.435" height="52.923" viewBox="0 0 66.435 52.923"><defs><clipPath id="a"><rect width="66.435" height="52.923" fill="#0075a9"/></clipPath></defs><g clip-path="url(#a)"><path d="M13.8,0a6.619,6.619,0,0,0-6.47,6.916A37.183,37.183,0,0,1,6.165,18.5C5.035,22.163,3.123,24.482,0,24.78v3.362c3.123.3,5.035,2.617,6.165,6.279A37.182,37.182,0,0,1,7.329,46.007,6.62,6.62,0,0,0,13.8,52.923H52.642a6.618,6.618,0,0,0,6.469-6.916,37.2,37.2,0,0,1,1.163-11.585c1.131-3.662,3.038-5.981,6.161-6.279V24.78c-3.123-.3-5.03-2.617-6.161-6.279A37.2,37.2,0,0,1,59.111,6.916,6.619,6.619,0,0,0,52.642,0H13.8ZM45.041,32.577c0,4.955-3.7,7.959-9.829,7.959H24.773a1.126,1.126,0,0,1-1.126-1.126v-25.9a1.126,1.126,0,0,1,1.126-1.126h10.38c5.114,0,8.47,2.77,8.47,7.023a6.288,6.288,0,0,1-5.134,6.126v.156c3.916.429,6.552,3.141,6.552,6.887M34.074,15.956H28.121v8.408h5.014c3.876,0,6.013-1.561,6.013-4.35,0-2.614-1.838-4.058-5.074-4.058M28.121,27.7v9.266h6.172c4.035,0,6.173-1.619,6.173-4.662s-2.2-4.6-6.432-4.6H28.121Z" fill="#0075a9"/></g></svg>