<svg xmlns="http://www.w3.org/2000/svg" width="179.658" height="32.285" viewBox="0 0 179.658 32.285">
  <g id="Grupo_95" data-name="Grupo 95" transform="translate(-116.088 -27.356)">
    <path id="Trazado_533" data-name="Trazado 533" d="M201.836,44.11a4.594,4.594,0,1,1,4.6,4.594,4.6,4.6,0,0,1-4.6-4.594" fill="#fff"/>
    <path id="Trazado_534" data-name="Trazado 534" d="M223.3,44.11a4.4,4.4,0,1,1,4.4,4.4,4.4,4.4,0,0,1-4.4-4.4" fill="#fff"/>
    <path id="Trazado_535" data-name="Trazado 535" d="M118.512,40.608a10.169,10.169,0,0,0,.832,4.077,10.669,10.669,0,0,0,5.628,5.638,10.346,10.346,0,0,0,8.123,0,10.646,10.646,0,0,0,4.468-3.6h2.874a12.706,12.706,0,0,1-2.251,3.048,13.2,13.2,0,0,1-4.121,2.787,12.829,12.829,0,0,1-10.045,0,13.124,13.124,0,0,1-6.911-6.91,12.861,12.861,0,0,1,0-10.044,13.139,13.139,0,0,1,6.911-6.911,12.864,12.864,0,0,1,10.045,0,13.238,13.238,0,0,1,4.121,2.789,12.686,12.686,0,0,1,2.251,3.048h-2.909a8.382,8.382,0,0,0-1.108-1.291,10.429,10.429,0,0,0-3.325-2.3,9.956,9.956,0,0,0-4.053-.839,10.133,10.133,0,0,0-4.07.833,10.715,10.715,0,0,0-5.628,5.621,10.038,10.038,0,0,0-.832,4.059" fill="#fff"/>
    <path id="Trazado_536" data-name="Trazado 536" d="M142.931,28.5h2.494v8.453a5.419,5.419,0,0,1,.987-1,5.975,5.975,0,0,1,1.281-.762,8.24,8.24,0,0,1,1.472-.485,6.891,6.891,0,0,1,1.524-.173,7.4,7.4,0,0,1,3.014.624,7.953,7.953,0,0,1,4.156,4.156,7.412,7.412,0,0,1,.624,3.013v.035l.034,10.391h-2.493l-.035-10.391v-.035a5.215,5.215,0,0,0-1.559-3.758,5.544,5.544,0,0,0-1.7-1.126,5.137,5.137,0,0,0-2.044-.414,4.587,4.587,0,0,0-1.991.45,5.537,5.537,0,0,0-1.663,1.194,6.118,6.118,0,0,0-1.143,1.7,4.762,4.762,0,0,0-.433,1.992V52.748h-2.528Z" fill="#fff"/>
    <path id="Trazado_537" data-name="Trazado 537" d="M160.8,29.957A1.42,1.42,0,1,1,161.219,31a1.409,1.409,0,0,1-.415-1.039m.207,5.473h2.425V52.748h-2.425Z" fill="#fff"/>
    <path id="Trazado_538" data-name="Trazado 538" d="M165.929,35.43h2.494v1.558a5.9,5.9,0,0,1,2.269-1.783,6.966,6.966,0,0,1,3-.676,7.037,7.037,0,0,1,3.688.987,8.418,8.418,0,0,1,2.72,2.616,7.7,7.7,0,0,1,2.822-2.616,7.863,7.863,0,0,1,3.863-.987,7.412,7.412,0,0,1,3.013.624,8.026,8.026,0,0,1,2.477,1.68,7.841,7.841,0,0,1,2.268,5.524l.035,10.391H192.08l-.035-10.391a5.229,5.229,0,0,0-.415-2.079,5.539,5.539,0,0,0-1.126-1.7,5.209,5.209,0,0,0-1.663-1.144,5.335,5.335,0,0,0-4.121,0,5.42,5.42,0,0,0-1.68,1.144,5.345,5.345,0,0,0-1.143,1.7,5.23,5.23,0,0,0-.416,2.079l.035,10.391h-2.494l-.035-10.391a6.2,6.2,0,0,0-.5-2.13,5.5,5.5,0,0,0-1.143-1.7,5.164,5.164,0,0,0-1.645-1.108,5.087,5.087,0,0,0-2.009-.4,4.662,4.662,0,0,0-2.026.45,5.768,5.768,0,0,0-1.68,1.194,5.631,5.631,0,0,0-1.143,1.7,4.934,4.934,0,0,0-.416,1.992l.035,10.391h-2.494Z" fill="#fff"/>
    <path id="Trazado_539" data-name="Trazado 539" d="M196.929,44.089a9.271,9.271,0,0,1,.745-3.706,9.562,9.562,0,0,1,5.074-5.074,9.59,9.59,0,0,1,7.412,0,9.571,9.571,0,0,1,5.074,5.074,9.59,9.59,0,0,1,0,7.412,9.571,9.571,0,0,1-5.074,5.074,9.275,9.275,0,0,1-3.706.746,8.91,8.91,0,0,1-4.053-1.058,7.417,7.417,0,0,1-3.048-2.614v9.7h-2.424Zm2.424,0a6.943,6.943,0,0,0,.555,2.754,7.079,7.079,0,0,0,3.792,3.792,7.108,7.108,0,0,0,5.507,0A7.076,7.076,0,0,0,213,46.843a7.122,7.122,0,0,0,0-5.508,7.076,7.076,0,0,0-3.793-3.792,7.108,7.108,0,0,0-5.507,0,7.079,7.079,0,0,0-3.792,3.792,6.939,6.939,0,0,0-.555,2.754" fill="#fff"/>
    <path id="Trazado_540" data-name="Trazado 540" d="M218.16,44.055a9.271,9.271,0,0,1,.745-3.706,9.581,9.581,0,0,1,5.075-5.076,9.614,9.614,0,0,1,7.412,0,9.584,9.584,0,0,1,5.074,5.076,9.287,9.287,0,0,1,.744,3.706v8.694h-2.424V50.428l-.381.381a9.547,9.547,0,0,1-3.013,2.026,9.59,9.59,0,0,1-7.412,0,9.569,9.569,0,0,1-5.075-5.074,9.278,9.278,0,0,1-.745-3.706m2.425,0a6.96,6.96,0,0,0,.554,2.754,7.085,7.085,0,0,0,3.793,3.792,7.12,7.12,0,0,0,5.507,0,7.137,7.137,0,0,0,2.269-1.523,7.21,7.21,0,0,0,1.524-2.253,7.469,7.469,0,0,0,.554-2.459v-.311a6.945,6.945,0,0,0-.554-2.754,7.091,7.091,0,0,0-3.793-3.793,7.12,7.12,0,0,0-5.507,0,7.091,7.091,0,0,0-3.793,3.793,6.945,6.945,0,0,0-.554,2.754" fill="#fff"/>
    <path id="Trazado_541" data-name="Trazado 541" d="M252.762,42.357a5.221,5.221,0,0,0-.415-2.078,5.347,5.347,0,0,0-2.841-2.841,5.133,5.133,0,0,0-2.043-.415,4.784,4.784,0,0,0-2.044.451,5.708,5.708,0,0,0-1.7,1.194,5.857,5.857,0,0,0-1.161,1.714,4.8,4.8,0,0,0-.433,1.975l.035,10.391H239.7V35.43h2.424v1.593A4.06,4.06,0,0,1,243.064,36a6.421,6.421,0,0,1,1.3-.8,7.152,7.152,0,0,1,1.507-.5,7.525,7.525,0,0,1,4.607.449,7.919,7.919,0,0,1,4.157,4.174,7.554,7.554,0,0,1,.623,3.031l.035,10.391H252.8Z" fill="#fff"/>
    <path id="Trazado_542" data-name="Trazado 542" d="M259.828,44.055a6.942,6.942,0,0,0,.554,2.754,7.087,7.087,0,0,0,3.792,3.792,7.12,7.12,0,0,0,5.507,0,7.13,7.13,0,0,0,2.27-1.523,6.845,6.845,0,0,0,1.177-1.594H275.8l-.1.277a9.371,9.371,0,0,1-2.026,3.031,9.613,9.613,0,0,1-3.031,2.043,9.588,9.588,0,0,1-7.411,0,9.568,9.568,0,0,1-5.075-5.074,9.59,9.59,0,0,1,0-7.412,9.581,9.581,0,0,1,5.075-5.076,9.612,9.612,0,0,1,7.411,0,9.6,9.6,0,0,1,3.031,2.045,9.371,9.371,0,0,1,2.026,3.031l.1.241h-2.7a6.361,6.361,0,0,0-1.142-1.558,7.133,7.133,0,0,0-2.27-1.524,7.12,7.12,0,0,0-5.507,0,7.094,7.094,0,0,0-3.792,3.793,6.928,6.928,0,0,0-.554,2.754" fill="#fff"/>
    <path id="Trazado_543" data-name="Trazado 543" d="M215.778,34.913s-.342-.165-.942-.429-1.462-.625-2.5-1.009a27.432,27.432,0,0,0-3.6-1.06,17.747,17.747,0,0,0-2.057-.326,12.359,12.359,0,0,0-2.116-.036,9.005,9.005,0,0,0-2.05.355,10.14,10.14,0,0,0-.959.334c-.311.124-.6.287-.894.432a10.555,10.555,0,0,0-1.539,1.112c-.217.214-.446.41-.641.624l-.566.63c-.169.212-.316.429-.471.627a4.87,4.87,0,0,0-.41.584c-.233.383-.476.7-.62.995-.319.572-.515.9-.515.9s.09-.365.272-1.006a9.816,9.816,0,0,1,.414-1.13,11.231,11.231,0,0,1,.706-1.411l.5-.758c.18-.262.411-.5.627-.759a10.4,10.4,0,0,1,.746-.736c.261-.248.579-.44.877-.67a8.629,8.629,0,0,1,2.091-1,10.228,10.228,0,0,1,2.337-.453,13.474,13.474,0,0,1,2.35.088,14.175,14.175,0,0,1,2.2.467,16.538,16.538,0,0,1,1.961.695c.607.257,1.167.53,1.668.8a18.317,18.317,0,0,1,2.325,1.477c.53.4.809.655.809.655" fill="#fff"/>
    <path id="Trazado_544" data-name="Trazado 544" d="M238.1,38.646s-.09-.4-.227-1.087c-.133-.325-.255-.715-.447-1.139a8.3,8.3,0,0,0-.834-1.334,3.82,3.82,0,0,0-.577-.676c-.227-.208-.421-.46-.68-.657l-.8-.6-.9-.514-.231-.131-.25-.1-.5-.2c-.171-.063-.335-.14-.51-.193l-.538-.134a11.88,11.88,0,0,0-2.218-.358h-1.14c-.19,0-.379-.011-.568.01l-.564.072c-.374.052-.746.093-1.116.132l-1.077.248a15.764,15.764,0,0,0-2.023.582c-.319.108-.637.2-.932.313l-.851.357c-.539.243-1.067.412-1.5.638l-1.13.559c-.634.305-1.007.47-1.007.47s.308-.257.866-.694c.279-.217.619-.483,1.018-.776a15.541,15.541,0,0,1,1.411-.882l.825-.483c.29-.162.613-.279.934-.426l1-.436a7.992,7.992,0,0,1,1.084-.353l1.138-.332c.395-.072.8-.134,1.206-.192l.613-.089c.205-.027.416-.016.625-.026l1.262-.021a13.259,13.259,0,0,1,2.486.449l.6.169c.194.072.38.169.568.25s.373.172.557.256l.274.128.254.163c.334.221.673.422.977.653l.831.76a8.6,8.6,0,0,1,.684.811,4.554,4.554,0,0,1,.534.829,6.935,6.935,0,0,1,.67,1.572,11.7,11.7,0,0,1,.236,1.294c-.015.705-.035,1.109-.035,1.109" fill="#fff"/>
    <path id="Trazado_545" data-name="Trazado 545" d="M279.155,44.037a6.944,6.944,0,0,0,.554,2.753,7.091,7.091,0,0,0,3.793,3.793,7.108,7.108,0,0,0,5.507,0,7.123,7.123,0,0,0,2.269-1.524,6.763,6.763,0,0,0,1.177-1.593h2.667l-.1.277a9.39,9.39,0,0,1-2.027,3.031,9.6,9.6,0,0,1-3.03,2.043,9.581,9.581,0,0,1-7.413,0,9.571,9.571,0,0,1-5.074-5.074,9.6,9.6,0,0,1,0-7.413,9.565,9.565,0,0,1,5.074-5.073,9.581,9.581,0,0,1,7.413,0,9.651,9.651,0,0,1,3.03,2.042,9.411,9.411,0,0,1,2.027,3.031,8.854,8.854,0,0,1,.727,2.979H279.189c-.022.256-.034.5-.034.728m12.123-5.023a7.173,7.173,0,0,0-2.269-1.524,7.12,7.12,0,0,0-5.507,0,7.151,7.151,0,0,0-3.619,3.395h12.711a7.63,7.63,0,0,0-1.316-1.871" fill="#fff"/>
    <path id="Trazado_546" data-name="Trazado 546" d="M284.53,32.052l3.28-4.7H291.7l-5.042,4.7Z" fill="#fff"/>
  </g>
</svg>
