<svg xmlns="http://www.w3.org/2000/svg" width="37.549" height="53" viewBox="0 0 37.549 53"><g transform="translate(0 0)"><path d="M18.774,110.073,6.417,106.647,3.494,73.9H34.123L31.2,106.647l-12.358,3.426v.019l-.034-.009-.034.009ZM0,70.766l3.417,38.328,15.334,4.257,15.377-4.263,3.421-38.321Z" transform="translate(0 -60.35)" fill="#0075a9"/><path d="M28.311,0V2.36H26.125V0H23.737V7.147h2.389V4.754h2.185V7.147H30.7V0Z" transform="translate(-20.243)" fill="#0075a9"/><path d="M78.1,0V2.37h2.1V7.147H82.59V2.37h2.1V0Z" transform="translate(-66.603)" fill="#0075a9"/><path d="M135.578,0l-1.531,2.511L132.515,0h-2.491V7.147h2.337V3.6l1.645,2.541h.041L135.691,3.6V7.147h2.379V0Z" transform="translate(-110.886)" fill="#0075a9"/><path d="M192.765,0V7.147h5.749V4.785h-3.359V0Z" transform="translate(-164.392)" fill="#0075a9"/><path d="M59.259,123.995H47.472l.113,1.261L48.74,138.21H65.031l-.546,6.1-5.243,1.415h0L54,144.309l-.335-3.749H48.95l.659,7.381,9.629,2.673.022-.006h0l9.62-2.666.071-.794,1.1-12.375.115-1.262H53.039l-.43-4.814H70.6l.094-1.057.214-2.383.112-1.261Z" transform="translate(-40.485 -105.745)" fill="#0075a9"/></g></svg>