<svg xmlns="http://www.w3.org/2000/svg" xmlns:xlink="http://www.w3.org/1999/xlink" width="21.907" height="22" viewBox="0 0 21.907 22">
  <defs>
    <clipPath id="clip-path">
      <rect id="Rectángulo_4333" data-name="Rectángulo 4333" width="21.907" height="22" fill="#fff"/>
    </clipPath>
  </defs>
  <g id="Grupo_4705" data-name="Grupo 4705" transform="translate(-12.47 -11.964)">
    <g id="Grupo_4704" data-name="Grupo 4704" transform="translate(12.47 11.964)">
      <g id="Grupo_4703" data-name="Grupo 4703" clip-path="url(#clip-path)">
        <path id="Trazado_17767" data-name="Trazado 17767" d="M0,22c.234-.855.458-1.67.681-2.486.272-.994.546-1.986.808-2.982a.509.509,0,0,0-.039-.34,10.857,10.857,0,0,1,1.4-12.528A10.5,10.5,0,0,1,9.989.045a10.9,10.9,0,0,1,8.243,19.016A10.912,10.912,0,0,1,5.926,20.569a.492.492,0,0,0-.322-.027q-2.681.692-5.359,1.4C.18,21.958.113,21.973,0,22m2.62-2.593c.071-.016.106-.022.141-.031.989-.259,1.979-.513,2.965-.782a.713.713,0,0,1,.6.078,8.8,8.8,0,0,0,8.262.546A9.065,9.065,0,0,0,11.44,1.84,8.871,8.871,0,0,0,5.3,3.865,8.845,8.845,0,0,0,1.949,10.4,8.826,8.826,0,0,0,3.4,15.857a.492.492,0,0,1,.067.445c-.288,1.02-.562,2.044-.852,3.1" transform="translate(0 0.001)" fill="#fff"/>
        <path id="Trazado_17768" data-name="Trazado 17768" d="M53.016,54.6c.44-.115.659.183.823.608.244.633.511,1.258.78,1.881a.556.556,0,0,1-.05.6c-.22.293-.432.593-.664.876a.42.42,0,0,0-.037.542,7.481,7.481,0,0,0,3.749,3.226.427.427,0,0,0,.549-.131c.272-.34.556-.67.817-1.019a.414.414,0,0,1,.552-.178c.781.365,1.558.735,2.33,1.119a.369.369,0,0,1,.16.273,2.068,2.068,0,0,1-.938,1.96,3.281,3.281,0,0,1-2.809.358,10.9,10.9,0,0,1-5.886-4.247,7,7,0,0,1-1.3-2.375,3.076,3.076,0,0,1,.637-2.958,1.245,1.245,0,0,1,1.285-.537" transform="translate(-45.508 -48.73)" fill="#fff"/>
      </g>
    </g>
  </g>
</svg>
