<svg id="Grupo_5558" data-name="Grupo 5558" xmlns="http://www.w3.org/2000/svg" xmlns:xlink="http://www.w3.org/1999/xlink" width="34.412" height="34.405" viewBox="0 0 34.412 34.405">
  <defs>
    <clipPath id="clip-path">
      <rect id="Rectángulo_4416" data-name="Rectángulo 4416" width="34.412" height="34.405" fill="none"/>
    </clipPath>
  </defs>
  <g id="Grupo_5209" data-name="Grupo 5209" clip-path="url(#clip-path)">
    <path id="Trazado_11218" data-name="Trazado 11218" d="M30.76,5.974a4.362,4.362,0,0,1-.385.518Q16.8,20.075,3.22,33.657a2.012,2.012,0,0,1-1.5.747A1.649,1.649,0,0,1,.17,33.39a1.663,1.663,0,0,1,.244-1.831,5.449,5.449,0,0,1,.415-.429Q14.37,17.588,27.913,4.049a6.085,6.085,0,0,1,.5-.412c-.022-.053-.042-.106-.063-.159H27.8q-7.823,0-15.646,0a3.055,3.055,0,0,1-.857-.091A1.711,1.711,0,0,1,10.082,1.55,1.75,1.75,0,0,1,11.716.005c.144-.009.29,0,.435,0q8.365,0,16.732,0a5.222,5.222,0,0,1,5.528,5.508q0,8.474,0,16.95a1.737,1.737,0,0,1-1.266,1.808,1.625,1.625,0,0,1-1.889-.7,2.628,2.628,0,0,1-.308-1.231c-.02-5.216-.013-10.432-.013-15.647V6.093Z" transform="translate(0 0)" fill="#fddb00"/>
  </g>
</svg>
