<svg xmlns="http://www.w3.org/2000/svg" width="28.741" height="20.029" viewBox="0 0 28.741 20.029">
  <g id="Grupo_2129" data-name="Grupo 2129" transform="translate(-411.803 -2655.847)">
    <path id="Trazado_4487" data-name="Trazado 4487" d="M201.836,42.641a3.126,3.126,0,1,1,3.126,3.126,3.127,3.127,0,0,1-3.126-3.126" transform="translate(214.012 2622.667)" fill="#fff"/>
    <path id="Trazado_4488" data-name="Trazado 4488" d="M223.3,42.7a3,3,0,1,1,2.995,3,3,3,0,0,1-2.995-3" transform="translate(207.151 2622.606)" fill="#fff"/>
    <path id="Trazado_4489" data-name="Trazado 4489" d="M196.929,41.045a6.307,6.307,0,0,1,.507-2.521,6.506,6.506,0,0,1,3.452-3.452,6.525,6.525,0,0,1,5.043,0,6.512,6.512,0,0,1,3.452,3.452,6.525,6.525,0,0,1,0,5.043,6.512,6.512,0,0,1-3.452,3.452,6.31,6.31,0,0,1-2.521.508,6.062,6.062,0,0,1-2.758-.72,5.046,5.046,0,0,1-2.074-1.778v6.6h-1.649Zm1.649,0a4.724,4.724,0,0,0,.378,1.874,4.816,4.816,0,0,0,2.58,2.58,4.836,4.836,0,0,0,3.747,0,4.814,4.814,0,0,0,2.581-2.58,4.846,4.846,0,0,0,0-3.747,4.814,4.814,0,0,0-2.581-2.58,4.836,4.836,0,0,0-3.747,0,4.816,4.816,0,0,0-2.58,2.58,4.721,4.721,0,0,0-.378,1.874" transform="translate(215.58 2624.25)" fill="#fff"/>
    <path id="Trazado_4490" data-name="Trazado 4490" d="M218.16,41.01a6.307,6.307,0,0,1,.507-2.521,6.519,6.519,0,0,1,3.453-3.454,6.541,6.541,0,0,1,5.043,0,6.521,6.521,0,0,1,3.452,3.454,6.318,6.318,0,0,1,.506,2.521v5.915h-1.649V45.346l-.259.259a6.5,6.5,0,0,1-2.05,1.378,6.525,6.525,0,0,1-5.043,0,6.51,6.51,0,0,1-3.453-3.452,6.312,6.312,0,0,1-.507-2.521m1.65,0a4.735,4.735,0,0,0,.377,1.874,4.82,4.82,0,0,0,2.581,2.58,4.844,4.844,0,0,0,3.747,0,4.856,4.856,0,0,0,1.544-1.036,4.906,4.906,0,0,0,1.037-1.533,5.081,5.081,0,0,0,.377-1.673V41.01a4.725,4.725,0,0,0-.377-1.874,4.824,4.824,0,0,0-2.581-2.581,4.844,4.844,0,0,0-3.747,0,4.824,4.824,0,0,0-2.581,2.581,4.725,4.725,0,0,0-.377,1.874" transform="translate(208.794 2624.261)" fill="#fff"/>
    <path id="Trazado_4491" data-name="Trazado 4491" d="M209.421,33.57s-.233-.112-.641-.292-.995-.425-1.7-.686a18.664,18.664,0,0,0-2.451-.721,12.074,12.074,0,0,0-1.4-.222,8.408,8.408,0,0,0-1.44-.024,6.127,6.127,0,0,0-1.395.242,6.9,6.9,0,0,0-.652.227c-.212.084-.409.2-.608.294a7.181,7.181,0,0,0-1.047.757c-.148.146-.3.279-.436.425l-.385.429c-.115.144-.215.292-.32.427a3.312,3.312,0,0,0-.279.4c-.159.261-.324.478-.422.677-.217.389-.35.612-.35.612s.061-.248.185-.684a6.681,6.681,0,0,1,.282-.769,7.64,7.64,0,0,1,.48-.96l.344-.516c.122-.178.28-.338.427-.516a7.081,7.081,0,0,1,.508-.5c.178-.169.394-.3.6-.456a5.871,5.871,0,0,1,1.423-.678,6.959,6.959,0,0,1,1.59-.308,9.167,9.167,0,0,1,1.6.06,9.645,9.645,0,0,1,1.5.318,11.252,11.252,0,0,1,1.334.473c.413.175.794.361,1.135.547a12.462,12.462,0,0,1,1.582,1c.361.271.55.446.55.446" transform="translate(215.912 2625.482)" fill="#fff"/>
    <path id="Trazado_4492" data-name="Trazado 4492" d="M231.509,35.947s-.061-.269-.154-.74c-.091-.221-.173-.486-.3-.775a5.647,5.647,0,0,0-.567-.908,2.6,2.6,0,0,0-.393-.46c-.154-.142-.286-.313-.463-.447l-.542-.408-.613-.35-.157-.089-.17-.066-.342-.133c-.116-.043-.228-.1-.347-.131l-.366-.091a8.082,8.082,0,0,0-1.509-.244h-.776c-.129,0-.258-.007-.386.007l-.384.049c-.254.035-.508.063-.759.09l-.733.169a10.726,10.726,0,0,0-1.376.4c-.217.073-.433.134-.634.213l-.579.243c-.367.165-.726.28-1.018.434l-.769.38c-.431.208-.685.32-.685.32s.21-.175.589-.472c.19-.148.421-.329.693-.528a10.573,10.573,0,0,1,.96-.6l.561-.329c.2-.11.417-.19.635-.29l.678-.3a5.437,5.437,0,0,1,.737-.24l.774-.226c.269-.049.543-.091.821-.131l.417-.061c.139-.018.283-.011.425-.018l.859-.014a9.021,9.021,0,0,1,1.691.305l.41.115c.132.049.259.115.386.17l.379.174.186.087.173.111c.227.15.458.287.665.444l.565.517a5.845,5.845,0,0,1,.465.552,3.1,3.1,0,0,1,.363.564,4.716,4.716,0,0,1,.456,1.07,7.959,7.959,0,0,1,.161.88c-.01.48-.024.755-.024.755" transform="translate(209.011 2625.644)" fill="#fff"/>
  </g>
</svg>
