<svg xmlns="http://www.w3.org/2000/svg" width="21.847" height="21.839" viewBox="0 0 21.847 21.839">
  <path id="phone" d="M22.692,25.214h-.143C6.043,24.265,3.7,10.338,3.372,6.088A2.52,2.52,0,0,1,5.691,3.375h4.628a1.68,1.68,0,0,1,1.563,1.058l1.276,3.142a1.68,1.68,0,0,1-.37,1.814L11,11.2a7.87,7.87,0,0,0,6.367,6.384l1.823-1.806a1.68,1.68,0,0,1,1.823-.344L24.177,16.7a1.68,1.68,0,0,1,1.034,1.562v4.435a2.52,2.52,0,0,1-2.52,2.52ZM5.892,5.055a.84.84,0,0,0-.84.84v.067c.387,4.973,2.864,16.732,17.589,17.572a.84.84,0,0,0,.891-.789V18.259l-3.167-1.269-2.411,2.394-.4-.051c-7.307-.915-8.3-8.224-8.3-8.3l-.051-.4,2.386-2.411-1.26-3.166Z" transform="translate(-3.364 -3.375)" fill="#01253b"/>
</svg>
