<svg xmlns="http://www.w3.org/2000/svg" width="13.226" height="17.791" viewBox="0 0 13.226 17.791">
  <g id="location-pin" transform="translate(-5.627 -1.238)">
    <path id="Trazado_13128" data-name="Trazado 13128" d="M15.788,8.971A2.434,2.434,0,1,0,18.221,11.4,2.434,2.434,0,0,0,15.788,8.971Zm0,3.65A1.217,1.217,0,1,1,17,11.4a1.217,1.217,0,0,1-1.217,1.217Z" transform="translate(-3.548 -3.551)" fill="#fddb00"/>
    <path id="Trazado_13129" data-name="Trazado 13129" d="M16.916,3.173A6.613,6.613,0,0,0,6.7,11.46l4.6,7.058a1.126,1.126,0,0,0,1.887,0l4.6-7.058a6.613,6.613,0,0,0-.865-8.286ZM16.761,10.8l-4.522,6.942L7.718,10.8a5.4,5.4,0,1,1,9.043,0Z" transform="translate(0 0)" fill="#fddb00"/>
  </g>
</svg>
