<svg xmlns="http://www.w3.org/2000/svg" xmlns:xlink="http://www.w3.org/1999/xlink" width="690.97" height="426.45" viewBox="0 0 690.97 426.45">
  <defs>
    <clipPath id="clip-path">
      <circle id="Elipse_150" data-name="Elipse 150" cx="38.597" cy="38.597" r="38.597" fill="none"/>
    </clipPath>
    <filter id="Trazado_11890" x="303.479" y="141.351" width="47.299" height="44.581" filterUnits="userSpaceOnUse">
      <feOffset dx="0.27" dy="0.27" input="SourceAlpha"/>
      <feGaussianBlur result="blur"/>
      <feFlood flood-color="#060707" flood-opacity="0.42"/>
      <feComposite operator="in" in2="blur"/>
      <feComposite in="SourceGraphic"/>
    </filter>
  </defs>
  <g id="Cohete" transform="translate(138.495 -8293.755)">
    <g id="Chimpa-Cohete" transform="translate(-138.495 8293.755)">
      <path id="Trazado_11875" data-name="Trazado 11875" d="M1142.893,1559.55h83.528v23.916a.177.177,0,0,1-.176.176h-83.179a.177.177,0,0,1-.176-.176V1559.55h0Z" transform="translate(-856.076 -1220.784)" fill="#36a9e1"/>
      <g id="Grupo_5564" data-name="Grupo 5564" transform="translate(190.257 222.273)">
        <path id="Trazado_11876" data-name="Trazado 11876" d="M831.353,1094.93s-31.5,41.967-53.9,67.775c-30.228,34.83-22.195,39.269,4.876,135.872,68.9-46.4,39.508-113.341,64.247-126.83,45.142-24.614-15.22-76.815-15.22-76.815Z" transform="translate(-758.132 -1094.93)" fill="#005081"/>
        <path id="Trazado_11877" data-name="Trazado 11877" d="M1473.286,1094.93s31.5,41.967,53.9,67.775c30.227,34.83,22.2,39.269-4.876,135.872-68.9-46.4-39.508-113.341-64.247-126.83-45.142-24.614,15.221-76.815,15.221-76.815Z" transform="translate(-1269.862 -1094.93)" fill="#005081"/>
      </g>
      <path id="Trazado_11878" data-name="Trazado 11878" d="M1139.24,388.8c0-80.9-46.753-153.13-70.957-185.1a18.372,18.372,0,0,0-28.953-.434c-24.656,30.6-71.469,99.519-71.469,181.6,0,33.164,22.729,127.352,34.576,151.354a16.839,16.839,0,0,0,15.093,9.411h73.851a16.835,16.835,0,0,0,15.093-9.411c11.847-24,32.764-114.257,32.764-147.421Z" transform="translate(-724.971 -196.421)" fill="#0075a9"/>
      <path id="Trazado_11879" data-name="Trazado 11879" d="M1106.475,683.9c11.848-24,32.765-114.258,32.765-147.424,0-49.272-17.344-95.33-36.374-131.034a104.343,104.343,0,0,0-101.257,2.547c-18.024,33.831-33.749,76.98-33.749,124.554,0,33.164,22.729,127.352,34.577,151.353a16.84,16.84,0,0,0,15.093,9.411h73.851a16.835,16.835,0,0,0,15.093-9.411Z" transform="translate(-724.971 -344.095)" fill="#36a9e1"/>
      <circle id="Elipse_148" data-name="Elipse 148" cx="52.61" cy="52.61" r="52.61" transform="translate(279.25 99.769)" fill="#e4d4ab"/>
      <circle id="Elipse_149" data-name="Elipse 149" cx="52.61" cy="52.61" r="52.61" transform="translate(254.431 151.824) rotate(-45)" fill="#6481bf"/>
      <path id="Trazado_11880" data-name="Trazado 11880" d="M1103.042,650.553a52.628,52.628,0,0,1,67.971-50.324,52.616,52.616,0,1,0-33.086,99.865A52.623,52.623,0,0,1,1103.042,650.553Z" transform="translate(-824.459 -498.047)" fill="#36a9e1"/>
      <path id="Trazado_11881" data-name="Trazado 11881" d="M1305.245,977.573a3.972,3.972,0,1,1-3.972-3.973A3.973,3.973,0,0,1,1305.245,977.573Z" transform="translate(-971.736 -780.589)" fill="#cecdc9"/>
      <path id="Trazado_11882" data-name="Trazado 11882" d="M1304.245,617.633a3.973,3.973,0,1,1-3.973-3.972A3.973,3.973,0,0,1,1304.245,617.633Z" transform="translate(-970.987 -510.235)" fill="#cecdc9"/>
      <path id="Trazado_11883" data-name="Trazado 11883" d="M1439.6,677.773a3.972,3.972,0,1,1-3.972-3.973A3.973,3.973,0,0,1,1439.6,677.773Z" transform="translate(-1072.378 -555.406)" fill="#cecdc9"/>
      <path id="Trazado_11884" data-name="Trazado 11884" d="M1176.475,926.4a3.972,3.972,0,1,1-3.972-3.973A3.973,3.973,0,0,1,1176.475,926.4Z" transform="translate(-875.281 -742.155)" fill="#cecdc9"/>
      <path id="Trazado_11885" data-name="Trazado 11885" d="M1439.6,919.413a3.972,3.972,0,1,1-3.972-3.973A3.973,3.973,0,0,1,1439.6,919.413Z" transform="translate(-1072.378 -736.905)" fill="#cecdc9"/>
      <path id="Trazado_11886" data-name="Trazado 11886" d="M1170.145,675.273a3.973,3.973,0,1,1-3.973-3.973A3.973,3.973,0,0,1,1170.145,675.273Z" transform="translate(-870.54 -553.528)" fill="#cecdc9"/>
      <path id="Trazado_11887" data-name="Trazado 11887" d="M1486.4,798.063a3.972,3.972,0,1,1-3.973-3.973A3.973,3.973,0,0,1,1486.4,798.063Z" transform="translate(-1107.426 -645.757)" fill="#cecdc9"/>
      <path id="Trazado_11888" data-name="Trazado 11888" d="M1121.075,798.063a3.973,3.973,0,1,1-3.973-3.973A3.973,3.973,0,0,1,1121.075,798.063Z" transform="translate(-833.785 -645.757)" fill="#cecdc9"/>
      <g id="Grupo_5566" data-name="Grupo 5566" transform="translate(290.234 113.06)" clip-path="url(#clip-path)">
        <g id="Grupo_5565" data-name="Grupo 5565" transform="translate(8.086 12.124)">
          <path id="Trazado_11889" data-name="Trazado 11889" d="M1220.444,701.31s-1.335,2.557.389,2.635c7.22.319,25.369,2.321,27.4,14.337,2.813,16.6,1.609,41.568,1.609,41.568l-1.925-.341,2.231,4.078-3.693-.863.775,4.1-3.644-1.609-3.551,6.045-5.586-4.086-15.77,7.619-12.339-7.612-6.831,3.481-3.207-5.195-2.976,1.17.69-4.537-3.629.183,1.968-4.914-3.393,2.078s-1.009-28.2,1.265-41.676c1.779-10.555,13.669-13.17,21.083-13.762.693-.055,1.9-1.91,2.505-1.935,0,0,1.026,2.138,1.49,1.774a24.763,24.763,0,0,1,5.142-2.535Z" transform="translate(-1188.741 -701.31)" fill="#654221"/>
          <g transform="matrix(1, 0, 0, 1, -298.32, -125.18)" filter="url(#Trazado_11890)">
            <path id="Trazado_11890-2" data-name="Trazado 11890" d="M1209.315,776.771s.5-10.392,8.761-10.921c9.1-.585,12.849,3.8,14.282,6.5,1.413-2.853,5.16-7.539,14.318-6.462,9.049,1.064,9.639,11.12,9.639,11.12s.53,11.687-5.629,13.84l-.08,6.281s-1.544,12.071-17.21,12.869v.013c-.269.01-.535.015-.8.02s-.519.01-.785.01v-.01c-15.68-.2-17.489-12.156-17.489-12.156l-.04-6.334c-5.621-2.269-4.964-14.771-4.964-14.771Z" transform="translate(-905.82 -624.38)" fill="#d8a57c"/>
          </g>
          <path id="Trazado_11891" data-name="Trazado 11891" d="M1317.21,838.167a1.953,1.953,0,1,1,1.975,1.93,1.955,1.955,0,0,1-1.975-1.93Z" transform="translate(-1284.97 -802.341)" fill="#654221"/>
          <path id="Trazado_11892" data-name="Trazado 11892" d="M1251.949,836.222a1.86,1.86,0,1,1,1.883,1.839A1.859,1.859,0,0,1,1251.949,836.222Z" transform="translate(-1236.087 -800.955)" fill="#654221"/>
          <path id="Trazado_11893" data-name="Trazado 11893" d="M1276.294,885.458S1261.92,896.387,1251.58,884c7.479,5.31,24.714,1.44,24.714,1.44v.02Z" transform="translate(-1235.811 -838.153)" fill="#3e2c1f"/>
          <path id="Trazado_11894" data-name="Trazado 11894" d="M1280.586,867.885s1.17,1.458,1.978.258l.062-1.368-2.246-.105.2,1.217Z" transform="translate(-1257.383 -825.172)" fill="#3e2c1f"/>
          <path id="Trazado_11895" data-name="Trazado 11895" d="M1297.443,868.55s-1.29,1.355-1.993.088l.051-1.368,2.246.083-.306,1.195Z" transform="translate(-1268.671 -825.621)" fill="#3e2c1f"/>
        </g>
      </g>
      <circle id="Elipse_151" data-name="Elipse 151" cx="38.597" cy="38.597" r="38.597" transform="translate(290.234 113.06)" fill="#b4c5e7" opacity="0.74"/>
      <path id="Trazado_11896" data-name="Trazado 11896" d="M1160.947,696.353a38.6,38.6,0,0,1,64.541-28.579,38.6,38.6,0,1,0-56.315,52.4A38.421,38.421,0,0,1,1160.947,696.353Z" transform="translate(-866.286 -539.915)" fill="#ddebf1"/>
      <g id="Grupo_5567" data-name="Grupo 5567" transform="translate(278.641 102.615)">
        <path id="Trazado_11897" data-name="Trazado 11897" d="M1302.436,975.123a3.973,3.973,0,1,1-3.973-3.973A3.973,3.973,0,0,1,1302.436,975.123Z" transform="translate(-1248.272 -880.819)" fill="#848281"/>
        <path id="Trazado_11898" data-name="Trazado 11898" d="M1303.736,982.592a2.206,2.206,0,1,1,2.206-2.206A2.207,2.207,0,0,1,1303.736,982.592Z" transform="translate(-1253.545 -886.085)" fill="#858585"/>
        <path id="Trazado_11899" data-name="Trazado 11899" d="M1301.426,615.172a3.973,3.973,0,1,1-3.973-3.972A3.974,3.974,0,0,1,1301.426,615.172Z" transform="translate(-1247.515 -611.2)" fill="#848281"/>
        <path id="Trazado_11900" data-name="Trazado 11900" d="M1302.736,622.642a2.206,2.206,0,1,1,2.206-2.206A2.207,2.207,0,0,1,1302.736,622.642Z" transform="translate(-1252.796 -616.466)" fill="#858585"/>
        <path id="Trazado_11901" data-name="Trazado 11901" d="M1436.786,675.312a3.973,3.973,0,1,1-3.973-3.972A3.974,3.974,0,0,1,1436.786,675.312Z" transform="translate(-1348.906 -656.248)" fill="#848281"/>
        <path id="Trazado_11902" data-name="Trazado 11902" d="M1438.1,682.792a2.206,2.206,0,1,1,2.206-2.206A2.207,2.207,0,0,1,1438.1,682.792Z" transform="translate(-1354.187 -661.521)" fill="#858585"/>
        <path id="Trazado_11903" data-name="Trazado 11903" d="M1173.656,923.943a3.973,3.973,0,1,1-3.973-3.973A3.973,3.973,0,0,1,1173.656,923.943Z" transform="translate(-1151.81 -842.483)" fill="#848281"/>
        <path id="Trazado_11904" data-name="Trazado 11904" d="M1174.956,931.422a2.206,2.206,0,1,1,2.206-2.206A2.207,2.207,0,0,1,1174.956,931.422Z" transform="translate(-1157.083 -847.756)" fill="#858585"/>
        <path id="Trazado_11905" data-name="Trazado 11905" d="M1436.786,916.952a3.973,3.973,0,1,1-3.973-3.972A3.974,3.974,0,0,1,1436.786,916.952Z" transform="translate(-1348.906 -837.247)" fill="#848281"/>
        <circle id="Elipse_152" data-name="Elipse 152" cx="2.206" cy="2.206" r="2.206" transform="translate(81.703 77.5)" fill="#858585"/>
        <path id="Trazado_11906" data-name="Trazado 11906" d="M1167.325,672.813a3.973,3.973,0,1,1-3.973-3.973A3.973,3.973,0,0,1,1167.325,672.813Z" transform="translate(-1147.068 -654.375)" fill="#848281"/>
        <path id="Trazado_11907" data-name="Trazado 11907" d="M1168.626,680.292a2.206,2.206,0,1,1,2.206-2.206A2.207,2.207,0,0,1,1168.626,680.292Z" transform="translate(-1152.342 -659.649)" fill="#858585"/>
        <path id="Trazado_11908" data-name="Trazado 11908" d="M1483.575,795.6a3.972,3.972,0,1,1-3.972-3.972A3.974,3.974,0,0,1,1483.575,795.6Z" transform="translate(-1383.954 -746.35)" fill="#848281"/>
        <path id="Trazado_11909" data-name="Trazado 11909" d="M1484.876,803.082a2.206,2.206,0,1,1,2.206-2.206A2.207,2.207,0,0,1,1484.876,803.082Z" transform="translate(-1389.227 -751.623)" fill="#858585"/>
        <path id="Trazado_11910" data-name="Trazado 11910" d="M1118.266,795.6a3.973,3.973,0,1,1-3.973-3.972A3.974,3.974,0,0,1,1118.266,795.6Z" transform="translate(-1110.32 -746.35)" fill="#848281"/>
        <path id="Trazado_11911" data-name="Trazado 11911" d="M1119.566,803.082a2.206,2.206,0,1,1,2.206-2.206A2.207,2.207,0,0,1,1119.566,803.082Z" transform="translate(-1115.593 -751.623)" fill="#858585"/>
      </g>
      <path id="Trazado_11912" data-name="Trazado 11912" d="M1251.642,726.539a31.486,31.486,0,0,1-51.782,15.288,32.45,32.45,0,1,0,44.951-43.967,31.442,31.442,0,0,1,6.828,28.677Z" transform="translate(-898.749 -573.601)" fill="#fff" opacity="0.14"/>
      <path id="Trazado_11914" data-name="Trazado 11914" d="M991.19,434.808c0-85.48,50.236-157.243,76.694-189.115l.073-.088a3.715,3.715,0,0,0-4.314-5.775,18.258,18.258,0,0,0-7.483,5.378c-24.656,29.7-71.469,96.575-71.469,176.231,0,31.723,20.415,110.167,32.393,135.021-12.6-39.365-25.9-94.6-25.9-121.653Z" transform="translate(-737.577 -228.728)" fill="#fff" opacity="0.43"/>
      <path id="Trazado_11871" data-name="Trazado 11871" d="M952.852,1650.32H895.077c-8.351,28.015-32.177,49.715-75.666,63.387h209.11c-46.055-13.876-68.925-35.824-75.667-63.387Z" transform="translate(-595.385 -1287.462)" fill="#e8f0fb"/>
      <rect id="Rect치ngulo_4652" data-name="Rect치ngulo 4652" width="14.784" height="177.405" transform="translate(226.063 247.931)" fill="#0075a9"/>
      <rect id="Rect치ngulo_4653" data-name="Rect치ngulo 4653" width="14.784" height="177.99" transform="translate(422.97 247.931)" fill="#0075a9"/>
      <path id="Trazado_12277" data-name="Trazado 12277" d="M0,6.184,17.248,0V42.505H0Z" transform="translate(280.579 254.707) rotate(90)" fill="#0075a9"/>
      <path id="Trazado_12278" data-name="Trazado 12278" d="M0,36.321l17.248,6.184V0H0Z" transform="translate(426.975 254.707) rotate(90)" fill="#0075a9"/>
      <g id="Grupo_5563" data-name="Grupo 5563" transform="translate(0 334.797)">
        <g id="Grupo_5562" data-name="Grupo 5562">
          <path id="Trazado_11872" data-name="Trazado 11872" d="M240.357,2447.522a40.434,40.434,0,0,0-53.373-47.817,65.719,65.719,0,0,0-124.727,18.9c-.658-.04-1.318-.065-1.985-.065a32.414,32.414,0,0,0-29.063,18.055A18.807,18.807,0,0,0,0,2447.52H240.357Z" transform="translate(0 -2355.868)" fill="#e8f0fb"/>
          <path id="Trazado_11873" data-name="Trazado 11873" d="M2632.647,2638.506c.042-.544.072-1.091.072-1.646a20.209,20.209,0,1,0-40.419,0c0,.555.031,1.1.072,1.646Z" transform="translate(-1941.749 -2546.852)" fill="#e8f0fb"/>
          <path id="Trazado_11874" data-name="Trazado 11874" d="M1930.971,2430.174c.1-1.181.17-2.376.17-3.589a39.461,39.461,0,0,0-53.16-36.986,55.11,55.11,0,0,0-54.962-51.079c-29.081,0-55.107,24.674-55.107,55.107a55.551,55.551,0,0,0,.494,7.386,40.446,40.446,0,0,0-51.168,29.158h213.731Z" transform="translate(-1286.29 -2338.52)" fill="#e8f0fb"/>
        </g>
      </g>
      <path id="Trazado_11913" data-name="Trazado 11913" d="M1287.563,1261.058c0,51.139-5.074,84.14-10.962,92.6-6.091-8.808-10.962-41.458-10.962-92.6a403.2,403.2,0,0,1,10.962-92.6A403.206,403.206,0,0,1,1287.563,1261.058Z" transform="translate(-948.021 -927.821)" fill="#005081"/>
    </g>
  </g>
</svg>
