<svg xmlns="http://www.w3.org/2000/svg" xmlns:xlink="http://www.w3.org/1999/xlink" width="293" height="215" viewBox="0 0 293 215">
  <defs>
    <clipPath id="clip-path">
      <rect id="Rectángulo_15187" data-name="Rectángulo 15187" width="293" height="215" transform="translate(122 6155)" fill="none" stroke="red" stroke-width="1"/>
    </clipPath>
    <clipPath id="clip-path-2">
      <rect id="Rectángulo_7436" data-name="Rectángulo 7436" width="446.633" height="230.633" fill="none"/>
    </clipPath>
    <clipPath id="clip-path-4">
      <rect id="Rectángulo_7411" data-name="Rectángulo 7411" width="33.478" height="86.253" fill="none"/>
    </clipPath>
    <clipPath id="clip-path-5">
      <rect id="Rectángulo_7410" data-name="Rectángulo 7410" width="33.478" height="86.254" fill="none"/>
    </clipPath>
    <clipPath id="clip-path-6">
      <rect id="Rectángulo_7414" data-name="Rectángulo 7414" width="12.443" height="6.185" fill="none"/>
    </clipPath>
    <linearGradient id="linear-gradient" x1="-7.993" y1="30.655" x2="-7.944" y2="30.655" gradientUnits="objectBoundingBox">
      <stop offset="0" stop-color="#f4f0e1"/>
      <stop offset="1" stop-color="#c4c5ca"/>
    </linearGradient>
    <clipPath id="clip-path-7">
      <rect id="Rectángulo_7416" data-name="Rectángulo 7416" width="12.717" height="6.185" fill="none"/>
    </clipPath>
    <linearGradient id="linear-gradient-2" x1="-5.905" y1="30.655" x2="-5.857" y2="30.655" xlink:href="#linear-gradient"/>
    <clipPath id="clip-path-8">
      <path id="Trazado_20721" data-name="Trazado 20721" d="M83.661,67.281v6.185H96.1l-.013-6.185Z" transform="translate(-83.661 -67.281)" fill="none"/>
    </clipPath>
    <linearGradient id="linear-gradient-3" x1="-4.101" y1="30.655" x2="-4.052" y2="30.655" xlink:href="#linear-gradient"/>
    <clipPath id="clip-path-10">
      <rect id="Rectángulo_7419" data-name="Rectángulo 7419" width="122.37" height="4.573" fill="none"/>
    </clipPath>
    <clipPath id="clip-path-11">
      <path id="Trazado_20722" data-name="Trazado 20722" d="M33.239,96.938h122.37l-6.035-4.572H39.276Z" transform="translate(-33.239 -92.365)" fill="none"/>
    </clipPath>
    <linearGradient id="linear-gradient-4" x1="-0.166" y1="38.121" x2="-0.161" y2="38.121" gradientUnits="objectBoundingBox">
      <stop offset="0" stop-color="#fff"/>
      <stop offset="0.983" stop-color="#040506"/>
      <stop offset="1" stop-color="#040506"/>
    </linearGradient>
    <clipPath id="clip-path-12">
      <rect id="Rectángulo_7421" data-name="Rectángulo 7421" width="69.735" height="3.236" fill="none"/>
    </clipPath>
    <clipPath id="clip-path-14">
      <rect id="Rectángulo_7425" data-name="Rectángulo 7425" width="67.16" height="69.753" fill="none"/>
    </clipPath>
    <clipPath id="clip-path-15">
      <rect id="Rectángulo_7429" data-name="Rectángulo 7429" width="28.287" height="55.002" fill="none"/>
    </clipPath>
    <clipPath id="clip-path-16">
      <rect id="Rectángulo_7431" data-name="Rectángulo 7431" width="51.879" height="23.802" fill="none"/>
    </clipPath>
    <clipPath id="clip-path-17">
      <rect id="Rectángulo_7433" data-name="Rectángulo 7433" width="48.669" height="20.593" fill="none"/>
    </clipPath>
    <clipPath id="clip-path-18">
      <rect id="Rectángulo_7434" data-name="Rectángulo 7434" width="5.922" height="11.413" fill="none"/>
    </clipPath>
  </defs>
  <g id="Enmascarar_grupo_5637" data-name="Enmascarar grupo 5637" transform="translate(-122 -6155)" clip-path="url(#clip-path)">
    <g id="Grupo_11916" data-name="Grupo 11916" transform="translate(124.633 6155.476)">
      <g id="Grupo_7009" data-name="Grupo 7009" clip-path="url(#clip-path-2)">
        <g id="Grupo_6974" data-name="Grupo 6974">
          <g id="Grupo_6973" data-name="Grupo 6973" clip-path="url(#clip-path-2)">
            <path id="Trazado_20688" data-name="Trazado 20688" d="M169.286,161.934c-6.594.125-11.847,6.018-11.71,13.1l1.131,59.07c.137,7.105,5.607,12.755,12.2,12.63l41.659-.8c6.561-.126,11.832-5.981,11.7-13.087l-1.134-59.068c-.135-7.082-5.628-12.77-12.186-12.643Z" transform="translate(-61.501 -62.89)" fill="#e69567"/>
            <path id="Trazado_20689" data-name="Trazado 20689" d="M57.138,243.106C49,243.022,42.524,248.8,42.6,256.033s6.784,13.112,14.918,13.153l41.538.293c8.168.082,14.65-5.715,14.53-12.927-.081-7.219-6.73-13.127-14.875-13.173Z" transform="translate(-16.626 -94.884)" fill="#e69567"/>
            <path id="Trazado_20690" data-name="Trazado 20690" d="M54.454,206.783c-9.9-.183-17.946,5.514-17.919,12.712-.012,7.219,8.058,13.208,17.961,13.364l50.813.851c9.87.175,17.956-5.52,17.889-12.721.022-7.2-8.069-13.2-17.954-13.379Z" transform="translate(-14.26 -80.706)" fill="#e69567"/>
            <path id="Trazado_20691" data-name="Trazado 20691" d="M52.321,165.437c-9.142-.374-16.651,5.181-16.839,12.385C35.264,185,42.523,191.127,51.626,191.5l46.666,1.808c9.155.361,16.7-5.2,16.853-12.412.216-7.172-7.04-13.319-16.156-13.677Z" transform="translate(-13.847 -64.563)" fill="#e69567"/>
            <rect id="Rectángulo_7409" data-name="Rectángulo 7409" width="73.756" height="33.129" transform="translate(46.321 143.319)" fill="#fff"/>
            <path id="Trazado_20692" data-name="Trazado 20692" d="M147.455,207.144H78.246a2.272,2.272,0,1,1,0-4.545h69.209a2.272,2.272,0,0,1,0,4.545" transform="translate(-29.652 -79.075)" fill="#fff"/>
            <path id="Trazado_20693" data-name="Trazado 20693" d="M147.455,222.011H78.246a2.272,2.272,0,1,1,0-4.545h69.209a2.272,2.272,0,0,1,0,4.545" transform="translate(-29.652 -84.877)" fill="#fff"/>
            <g id="Grupo_6972" data-name="Grupo 6972" transform="translate(128.623 100.891)" opacity="0.6" style="mix-blend-mode: multiply;isolation: isolate">
              <g id="Grupo_6971" data-name="Grupo 6971">
                <g id="Grupo_6970" data-name="Grupo 6970" clip-path="url(#clip-path-4)">
                  <g id="Grupo_6969" data-name="Grupo 6969" transform="translate(0.001 -0.001)">
                    <g id="Grupo_6968" data-name="Grupo 6968" clip-path="url(#clip-path-5)">
                      <path id="Trazado_20694" data-name="Trazado 20694" d="M228.127,251.729l-17.166-1.957,17.6-15.422-16.648-13.326,16.23-10.049-9.356-16.084,16.178-4.346L221.2,172.24l17.555-6.763,5.685,4.478-.1,25.748L241.175,230.8Z" transform="translate(-210.962 -165.475)" fill="#161514"/>
                    </g>
                  </g>
                </g>
              </g>
            </g>
            <path id="Trazado_20695" data-name="Trazado 20695" d="M497.99,187.269,244.628,144.786l-16.28-5.162,13.68,23.547-22,3.831,13.981,17.818L215.6,194.977l19.295,11.214-23.046,12.443,16.543,13.56-16.728,12.693L243,245.4l239.478,39.73c95.252-20.587,15.51-97.86,15.51-97.86" transform="translate(-82.613 -54.495)" fill="#5e3214"/>
            <path id="Trazado_20696" data-name="Trazado 20696" d="M144.424,153.129s.29.165.793.457c.251.144.555.316.9.514s.741.409,1.171.644c.44.216.895.476,1.394.718s1.021.493,1.565.738c.535.273,1.122.463,1.694.712s1.18.412,1.775.618c.6.15,1.2.367,1.8.469a17.271,17.271,0,0,0,1.776.293,13.341,13.341,0,0,0,1.685.113,12.242,12.242,0,0,0,1.525-.042c.47-.058.912-.1,1.308-.127.388-.086.724-.157,1-.216.566-.114.905-.169.905-.169s-.272.188-.779.492c-.254.15-.562.34-.933.531-.384.147-.824.313-1.316.472a7.718,7.718,0,0,1-1.627.358,8.86,8.86,0,0,1-1.866.121,11.452,11.452,0,0,1-1.992-.171c-.676-.093-1.333-.3-2.006-.456-.642-.243-1.3-.454-1.91-.733a16.344,16.344,0,0,1-1.748-.9,14.426,14.426,0,0,1-1.536-.993c-.485-.318-.894-.688-1.288-1a14.023,14.023,0,0,1-2.3-2.437" transform="translate(-56.369 -59.766)" fill="#1694d6"/>
            <path id="Trazado_20697" data-name="Trazado 20697" d="M116.5,153.129a14,14,0,0,1-2.3,2.437c-.393.316-.8.686-1.287,1a14.485,14.485,0,0,1-1.536.993,16.311,16.311,0,0,1-1.75.9c-.61.279-1.266.49-1.907.733-.674.151-1.33.363-2.007.456a11.44,11.44,0,0,1-1.993.171,8.854,8.854,0,0,1-1.865-.121,7.744,7.744,0,0,1-1.627-.358c-.492-.159-.93-.325-1.315-.472-.371-.191-.681-.381-.935-.531-.507-.3-.779-.492-.779-.492s.34.055.905.169c.278.059.616.13,1,.216.4.03.838.069,1.308.127a12.258,12.258,0,0,0,1.527.042,13.312,13.312,0,0,0,1.683-.113A17.378,17.378,0,0,0,105.4,158c.6-.1,1.2-.319,1.805-.469.593-.207,1.2-.377,1.774-.618s1.158-.44,1.693-.712c.546-.246,1.071-.492,1.566-.738s.954-.5,1.393-.718c.43-.235.822-.452,1.171-.644s.654-.37.9-.514c.5-.293.793-.457.793-.457" transform="translate(-37.935 -59.766)" fill="#1694d6"/>
            <path id="Trazado_20698" data-name="Trazado 20698" d="M94.307,17.55a3.371,3.371,0,0,1-3.36,3.358H73.491c-4.106,0-7.556,8.1-7.556,6.252V3.36A3.369,3.369,0,0,1,69.293,0H90.947a3.37,3.37,0,0,1,3.36,3.361Z" transform="translate(-25.734 0)" fill="#259edc"/>
            <path id="Trazado_20699" data-name="Trazado 20699" d="M81.841,9.981A2.638,2.638,0,0,1,82,9.065,2.163,2.163,0,0,1,83.238,7.8a2.683,2.683,0,0,1,1.027-.188A2.733,2.733,0,0,1,85.31,7.8a2.169,2.169,0,0,1,1.226,1.261,2.6,2.6,0,0,1,.162.916v.608a2.536,2.536,0,0,1-.162.909,2.121,2.121,0,0,1-.471.749,2.226,2.226,0,0,1-.755.507,2.649,2.649,0,0,1-1.027.19,2.7,2.7,0,0,1-1.038-.19,2.355,2.355,0,0,1-.765-.507A2.142,2.142,0,0,1,82,11.5a2.575,2.575,0,0,1-.16-.909Zm1.338.608a1.7,1.7,0,0,0,.066.456,1.083,1.083,0,0,0,.547.655,1.136,1.136,0,0,0,.491.1,1.114,1.114,0,0,0,.48-.1,1.052,1.052,0,0,0,.537-.655,1.63,1.63,0,0,0,.066-.456V9.981A1.616,1.616,0,0,0,85.3,9.53a1.1,1.1,0,0,0-.2-.393,1.009,1.009,0,0,0-.831-.371,1.065,1.065,0,0,0-.479.1,1.023,1.023,0,0,0-.341.272,1.234,1.234,0,0,0-.2.393,1.685,1.685,0,0,0-.066.451Zm1.5,7.788-.986-.566,5.595-8.955.982.568Zm2.674-1.951a2.562,2.562,0,0,1,.162-.912,2.112,2.112,0,0,1,.474-.753,2.334,2.334,0,0,1,.763-.507,2.657,2.657,0,0,1,1.031-.19,2.693,2.693,0,0,1,1.036.19,2.3,2.3,0,0,1,.765.507,2.189,2.189,0,0,1,.469.753,2.575,2.575,0,0,1,.161.912v.614a2.545,2.545,0,0,1-.161.912,2.2,2.2,0,0,1-.468.748,2.173,2.173,0,0,1-.76.507,2.685,2.685,0,0,1-1.027.184,2.745,2.745,0,0,1-1.036-.184,2.273,2.273,0,0,1-.772-.507,2.152,2.152,0,0,1-.474-.748,2.532,2.532,0,0,1-.162-.912Zm1.336.614a1.456,1.456,0,0,0,.073.457,1.108,1.108,0,0,0,.215.392,1.013,1.013,0,0,0,.821.369,1.122,1.122,0,0,0,.5-.1,1.014,1.014,0,0,0,.334-.269,1.171,1.171,0,0,0,.189-.392,1.8,1.8,0,0,0,.056-.457v-.614a1.571,1.571,0,0,0-.065-.455,1.082,1.082,0,0,0-.2-.384,1.122,1.122,0,0,0-.344-.271,1.062,1.062,0,0,0-.48-.1,1.09,1.09,0,0,0-.485.1,1.048,1.048,0,0,0-.341.271,1.087,1.087,0,0,0-.2.384,1.6,1.6,0,0,0-.068.455Z" transform="translate(-31.943 -2.973)" fill="#fff"/>
            <path id="Trazado_20700" data-name="Trazado 20700" d="M139.433,67.112a10.22,10.22,0,0,1,10.208,10.2l.069,138.612a10.207,10.207,0,0,1-10.2,10.206l-66.6.027a10.208,10.208,0,0,1-10.206-10.2L62.644,77.353A10.208,10.208,0,0,1,72.838,67.144Z" transform="translate(-24.45 -26.194)" fill="#ededed"/>
            <path id="Trazado_20701" data-name="Trazado 20701" d="M63.506,216.274a9.749,9.749,0,0,0,9.721,9.718l66.594-.034a9.744,9.744,0,0,0,9.712-9.725l-.069-138.609a9.746,9.746,0,0,0-9.723-9.711l-66.6.027a9.741,9.741,0,0,0-9.711,9.723Z" transform="translate(-24.759 -26.507)" fill="#008cd0"/>
            <path id="Trazado_20702" data-name="Trazado 20702" d="M68.032,221.431l80.5-.046L148.476,88.7l-80.5.04Z" transform="translate(-26.53 -34.62)" fill="#259edc"/>
            <path id="Trazado_20703" data-name="Trazado 20703" d="M242.108,55.534c-.626-.674-1.824-2.195-1.824-2.195V46.127c0-2.75-1.286-5.5-5.3-6.537a3.818,3.818,0,0,0-1.156-.124h-.076a3.855,3.855,0,0,0-1.16.124c-4.016,1.036-5.3,3.787-5.3,6.537v7.212s-1.2,1.521-1.824,2.195-.573,1.548.526,1.548h15.593c1.1,0,1.146-.876.522-1.548" transform="translate(-87.843 -15.404)" fill="#ffd100"/>
            <path id="Trazado_20704" data-name="Trazado 20704" d="M248.36,77.93a.663.663,0,1,1-.937.937l-2.3-2.3a.663.663,0,0,1,.937-.939Z" transform="translate(-95.595 -29.442)" fill="#ffd100"/>
            <path id="Trazado_20705" data-name="Trazado 20705" d="M228.059,77.93a.663.663,0,0,0,.939.937l2.3-2.3a.664.664,0,0,0-.939-.939Z" transform="translate(-88.936 -29.442)" fill="#ffd100"/>
            <path id="Trazado_20706" data-name="Trazado 20706" d="M0,82.321a4.054,4.054,0,1,0,4.053-4.054A4.058,4.058,0,0,0,0,82.321m1.663,0a2.39,2.39,0,1,1,2.39,2.39,2.394,2.394,0,0,1-2.39-2.39" transform="translate(0 -30.548)" fill="#fff"/>
            <path id="Trazado_20707" data-name="Trazado 20707" d="M149.384,43.369h-2.263V41.107a.906.906,0,1,0-1.812,0v2.261h-2.263a.906.906,0,0,0,0,1.812h2.263v2.263a.906.906,0,0,0,1.812,0V45.181h2.263a.906.906,0,0,0,0-1.812" transform="translate(-55.477 -15.69)" fill="#fff"/>
            <path id="Trazado_20708" data-name="Trazado 20708" d="M163.91,22.521a.806.806,0,0,0,0,1.14l4.725,4.724a.807.807,0,0,0,1.139,0L174.5,23.66a.808.808,0,0,0,0-1.14L169.773,17.8a.8.8,0,0,0-1.139,0Zm5.294-3.015c.76.758,2.827,2.825,3.587,3.585-.76.76-2.827,2.826-3.587,3.584-.76-.758-2.827-2.825-3.586-3.584.76-.76,2.826-2.827,3.586-3.585" transform="translate(-63.882 -6.854)" fill="#fff"/>
            <path id="Trazado_20709" data-name="Trazado 20709" d="M155.609,91.106l-18.064-13.68H51.3L33.239,91.107Z" transform="translate(-12.973 -30.219)" fill="#008cd0"/>
            <path id="Trazado_20710" data-name="Trazado 20710" d="M149.131,91.106l-12.745-13.68H75.5L62.746,91.107Z" transform="translate(-24.49 -30.219)" fill="#f4f0e2"/>
            <path id="Trazado_20711" data-name="Trazado 20711" d="M142.785,91.106l-7.542-13.68H99.233L91.7,91.107Z" transform="translate(-35.789 -30.219)" fill="#008cd0"/>
            <path id="Trazado_20712" data-name="Trazado 20712" d="M136.838,91.106l-2.664-13.68H121.456l-2.663,13.68Z" transform="translate(-46.365 -30.219)" fill="#f4f0e2"/>
            <path id="Trazado_20713" data-name="Trazado 20713" d="M204.431,99.767h17.995s-1.512,9.057-8.818,9.057c-8.012,0-9.177-9.057-9.177-9.057" transform="translate(-79.79 -38.939)" fill="#008cd0"/>
            <path id="Trazado_20714" data-name="Trazado 20714" d="M184.413,108.957c7.258,0,8.722-9.19,8.722-9.19H175.489s.959,9.19,8.924,9.19" transform="translate(-68.494 -38.939)" fill="#f4f0e2"/>
            <path id="Trazado_20715" data-name="Trazado 20715" d="M156.368,108.957c7.491,0,8.543-9.19,8.543-9.19H148.388s-.049,9.19,7.98,9.19" transform="translate(-57.916 -38.939)" fill="#008cd0"/>
            <path id="Trazado_20716" data-name="Trazado 20716" d="M51.344,99.767H33.351s1.51,9.057,8.817,9.057c8.014,0,9.176-9.057,9.176-9.057" transform="translate(-13.017 -38.939)" fill="#008cd0"/>
            <path id="Trazado_20717" data-name="Trazado 20717" d="M71.584,108.957c-7.258,0-8.722-9.19-8.722-9.19h17.65s-.959,9.19-8.927,9.19" transform="translate(-24.535 -38.939)" fill="#f4f0e2"/>
            <path id="Trazado_20718" data-name="Trazado 20718" d="M100.355,108.957c-7.494,0-8.544-9.19-8.544-9.19h16.52s.051,9.19-7.976,9.19" transform="translate(-35.834 -38.939)" fill="#008cd0"/>
            <path id="Trazado_20719" data-name="Trazado 20719" d="M118.793,99.767h18.044s-.342,9.1-9.375,9.1c-8.324,0-8.669-9.1-8.669-9.1" transform="translate(-46.365 -38.939)" fill="#f4f0e2"/>
            <path id="Trazado_20720" data-name="Trazado 20720" d="M62.862,68.681a1.405,1.405,0,0,1,1.4-1.4h83.444a1.4,1.4,0,0,1,1.4,1.4v4.786H62.862Z" transform="translate(-24.535 -26.26)" fill="#008cd0"/>
          </g>
        </g>
        <g id="Grupo_6976" data-name="Grupo 6976" transform="translate(99.454 41.021)">
          <g id="Grupo_6975" data-name="Grupo 6975" clip-path="url(#clip-path-6)">
            <rect id="Rectángulo_7413" data-name="Rectángulo 7413" width="12.443" height="6.185" transform="translate(0)" fill="url(#linear-gradient)"/>
          </g>
        </g>
        <g id="Grupo_6978" data-name="Grupo 6978" transform="translate(75.091 41.021)">
          <g id="Grupo_6977" data-name="Grupo 6977" clip-path="url(#clip-path-7)">
            <rect id="Rectángulo_7415" data-name="Rectángulo 7415" width="12.717" height="6.185" fill="url(#linear-gradient-2)"/>
          </g>
        </g>
        <g id="Grupo_6980" data-name="Grupo 6980" transform="translate(51.008 41.021)">
          <g id="Grupo_6979" data-name="Grupo 6979" clip-path="url(#clip-path-8)">
            <rect id="Rectángulo_7417" data-name="Rectángulo 7417" width="12.437" height="6.185" transform="translate(0)" fill="url(#linear-gradient-3)"/>
          </g>
        </g>
        <g id="Grupo_7008" data-name="Grupo 7008">
          <g id="Grupo_7007" data-name="Grupo 7007" clip-path="url(#clip-path-2)">
            <g id="Grupo_6985" data-name="Grupo 6985" transform="translate(20.266 56.315)" opacity="0.4" style="mix-blend-mode: screen;isolation: isolate">
              <g id="Grupo_6984" data-name="Grupo 6984">
                <g id="Grupo_6983" data-name="Grupo 6983" clip-path="url(#clip-path-10)">
                  <g id="Grupo_6982" data-name="Grupo 6982" transform="translate(0)">
                    <g id="Grupo_6981" data-name="Grupo 6981" clip-path="url(#clip-path-11)">
                      <rect id="Rectángulo_7418" data-name="Rectángulo 7418" width="122.37" height="4.573" transform="translate(0)" fill="url(#linear-gradient-4)"/>
                    </g>
                  </g>
                </g>
              </g>
            </g>
            <g id="Grupo_6988" data-name="Grupo 6988" transform="translate(46.97 168.914)" opacity="0.2" style="mix-blend-mode: screen;isolation: isolate">
              <g id="Grupo_6987" data-name="Grupo 6987">
                <g id="Grupo_6986" data-name="Grupo 6986" clip-path="url(#clip-path-12)">
                  <rect id="Rectángulo_7420" data-name="Rectángulo 7420" width="69.735" height="3.236" transform="translate(0 0.001)" fill="#b77fb0"/>
                </g>
              </g>
            </g>
            <g id="Grupo_6991" data-name="Grupo 6991" transform="translate(46.97 173.93)" opacity="0.2" style="mix-blend-mode: screen;isolation: isolate">
              <g id="Grupo_6990" data-name="Grupo 6990">
                <g id="Grupo_6989" data-name="Grupo 6989" clip-path="url(#clip-path-12)">
                  <rect id="Rectángulo_7422" data-name="Rectángulo 7422" width="69.735" height="3.236" transform="translate(0 0)" fill="#b77fb0"/>
                </g>
              </g>
            </g>
            <g id="Grupo_6994" data-name="Grupo 6994" transform="translate(48.643 83.9)" opacity="0.2" style="mix-blend-mode: screen;isolation: isolate">
              <g id="Grupo_6993" data-name="Grupo 6993">
                <g id="Grupo_6992" data-name="Grupo 6992" clip-path="url(#clip-path-14)">
                  <rect id="Rectángulo_7424" data-name="Rectángulo 7424" width="67.16" height="69.754" rx="14.153" transform="translate(0 0)" fill="#b77fb0"/>
                </g>
              </g>
            </g>
            <rect id="Rectángulo_7426" data-name="Rectángulo 7426" width="45.41" height="7.979" rx="2.908" transform="translate(72.289 155.801)" fill="#ffd100"/>
            <path id="Trazado_20723" data-name="Trazado 20723" d="M131.369,258.514h1.3a2.452,2.452,0,0,1,1.3.263.923.923,0,0,1,.4.829.992.992,0,0,1-.2.633.865.865,0,0,1-.566.319v.029a1.126,1.126,0,0,1,.676.344,1.026,1.026,0,0,1,.219.689,1.115,1.115,0,0,1-.412.917,1.745,1.745,0,0,1-1.141.334h-1.575Zm.714,1.8h.684a1.146,1.146,0,0,0,.651-.143.538.538,0,0,0,.211-.482.478.478,0,0,0-.226-.444,1.38,1.38,0,0,0-.7-.137h-.618Zm0,.578v1.379h.758a1.083,1.083,0,0,0,.671-.172.621.621,0,0,0,.229-.539.58.58,0,0,0-.231-.506,1.227,1.227,0,0,0-.706-.162Z" transform="translate(-51.273 -100.898)" fill="#fff"/>
            <path id="Trazado_20724" data-name="Trazado 20724" d="M141.369,258.514v2.821a1.656,1.656,0,0,1-.211.844,1.317,1.317,0,0,1-.6.556,2.055,2.055,0,0,1-.933.2,1.767,1.767,0,0,1-1.263-.43,1.568,1.568,0,0,1-.452-1.18v-2.81h.716v2.757a1.112,1.112,0,0,0,.25.8,1.029,1.029,0,0,0,.771.258q1.009,0,1.008-1.06v-2.75Z" transform="translate(-53.826 -100.898)" fill="#fff"/>
            <path id="Trazado_20725" data-name="Trazado 20725" d="M146.271,260.5l1.03-1.991h.777l-1.454,2.668v1.689h-.713v-1.665l-1.444-2.692h.773Z" transform="translate(-56.385 -100.898)" fill="#fff"/>
            <path id="Trazado_20726" data-name="Trazado 20726" d="M157.565,262.871h-.873l-2.144-3.47h-.024l.015.191q.038.556.039,1.016v2.263h-.648v-4.357h.866l2.139,3.455h.017c0-.044-.014-.214-.027-.5s-.016-.507-.016-.669v-2.286h.655Z" transform="translate(-60.079 -100.898)" fill="#fff"/>
            <path id="Trazado_20727" data-name="Trazado 20727" d="M165.508,260.643a2.394,2.394,0,0,1-.533,1.654,2.232,2.232,0,0,1-3.022,0,2.393,2.393,0,0,1-.531-1.665,2.34,2.34,0,0,1,.536-1.658,1.952,1.952,0,0,1,1.515-.58,1.908,1.908,0,0,1,1.5.59,2.382,2.382,0,0,1,.533,1.655m-3.327,0a1.973,1.973,0,0,0,.324,1.222,1.322,1.322,0,0,0,1.921,0,2.48,2.48,0,0,0,0-2.442,1.144,1.144,0,0,0-.957-.415,1.169,1.169,0,0,0-.969.415,1.947,1.947,0,0,0-.324,1.218" transform="translate(-63.003 -100.853)" fill="#fff"/>
            <path id="Trazado_20728" data-name="Trazado 20728" d="M173.331,262.871h-.777l-.738-2.6c-.03-.111-.073-.274-.118-.488a3.835,3.835,0,0,1-.086-.447c-.021.128-.054.292-.1.494s-.081.355-.111.454l-.722,2.587H169.9l-.561-2.181-.575-2.176h.728l.621,2.54a10.239,10.239,0,0,1,.212,1.079c.022-.168.054-.357.1-.566s.086-.377.118-.507l.711-2.545h.706l.729,2.557a9.726,9.726,0,0,1,.221,1.061,7.929,7.929,0,0,1,.214-1.083l.62-2.535h.721Z" transform="translate(-65.871 -100.898)" fill="#fff"/>
            <path id="Rectángulo_7427" data-name="Rectángulo 7427" d="M2.9,0H7.92a2.908,2.908,0,0,1,2.908,2.908V5.071A2.908,2.908,0,0,1,7.92,7.979H2.9A2.9,2.9,0,0,1,0,5.074V2.9A2.9,2.9,0,0,1,2.9,0Z" transform="translate(59.464 155.801)" fill="#ffd100"/>
            <path id="Trazado_20729" data-name="Trazado 20729" d="M104.58,266.062a.452.452,0,1,1-.452-.452.452.452,0,0,1,.452.452" transform="translate(-40.464 -103.668)" fill="#259edc"/>
            <path id="Trazado_20730" data-name="Trazado 20730" d="M109.676,266.062a.453.453,0,1,1-.452-.452.452.452,0,0,1,.452.452" transform="translate(-42.453 -103.668)" fill="#259edc"/>
            <path id="Trazado_20731" data-name="Trazado 20731" d="M100.825,257.917a.145.145,0,1,0,0,.29h.814c.042.224.765,4,.765,4a.148.148,0,0,0,.145.116h3.762a.145.145,0,1,0,0-.29h-3.644c-.04-.223-.765-4-.765-4a.146.146,0,0,0-.142-.116Z" transform="translate(-39.296 -100.665)" fill="#259edc"/>
            <path id="Trazado_20732" data-name="Trazado 20732" d="M107.946,257.495a1.466,1.466,0,1,0,2.5,1.036,1.464,1.464,0,0,0-2.5-1.036m.2,1.868a1.175,1.175,0,1,1,2.005-.831,1.175,1.175,0,0,1-2.005.831" transform="translate(-41.964 -100.333)" fill="#259edc"/>
            <path id="Trazado_20733" data-name="Trazado 20733" d="M109.447,259.2h-.469v-.207h.469v-.48h.209v.48h.468v.207h-.468v.477h-.209Z" transform="translate(-42.534 -100.898)" fill="#259edc"/>
            <path id="Trazado_20734" data-name="Trazado 20734" d="M102.657,259.031a.149.149,0,0,0-.115.052.151.151,0,0,0-.03.12l.463,2.428a.144.144,0,0,0,.141.118h4.116a.143.143,0,0,0,.141-.116l.212-1.054a.142.142,0,0,0-.047-.138.145.145,0,0,0-.142-.029,1.225,1.225,0,0,1-.369.06,1.174,1.174,0,0,1-1.176-1.174l0-.11a.155.155,0,0,0-.037-.11.146.146,0,0,0-.106-.049Zm2.907.291a1.465,1.465,0,0,0,1.465,1.441,1.5,1.5,0,0,0,.227-.017c-.049.238-.115.571-.141.711h-3.876c-.038-.2-.352-1.852-.408-2.135Z" transform="translate(-40.01 -101.1)" fill="#259edc"/>
            <rect id="Rectángulo_7428" data-name="Rectángulo 7428" width="10.828" height="7.979" rx="2.908" transform="translate(46.601 155.801)" fill="#ffd100"/>
            <path id="Trazado_20735" data-name="Trazado 20735" d="M81.147,258.548a.488.488,0,0,0-.347.143.5.5,0,0,0-.143.348v4.22c0,.215.106.286.168.312s.19.039.334-.125l.659-.76a.662.662,0,0,1,.418-.189h3.539a.492.492,0,0,0,.49-.49v-2.968a.491.491,0,0,0-.49-.49Zm-.163.49a.167.167,0,0,1,.163-.165h4.628a.164.164,0,0,1,.163.165v2.968a.162.162,0,0,1-.163.162H82.236a.982.982,0,0,0-.666.3l-.587.677Z" transform="translate(-31.481 -100.912)" fill="#259edc"/>
            <path id="Trazado_20736" data-name="Trazado 20736" d="M83.209,261.55a.313.313,0,1,1-.312-.313.314.314,0,0,1,.312.313" transform="translate(-32.232 -101.961)" fill="#259edc"/>
            <path id="Trazado_20737" data-name="Trazado 20737" d="M85.369,261.55a.313.313,0,1,1-.313-.313.315.315,0,0,1,.313.313" transform="translate(-33.075 -101.961)" fill="#259edc"/>
            <path id="Trazado_20738" data-name="Trazado 20738" d="M87.531,261.55a.313.313,0,1,1-.313-.313.315.315,0,0,1,.313.313" transform="translate(-33.919 -101.961)" fill="#259edc"/>
            <path id="Trazado_20739" data-name="Trazado 20739" d="M135.282,152.578a55.717,55.717,0,0,0-8.733-1.289,16.1,16.1,0,0,1-6.787,1.73h-.051a16.1,16.1,0,0,1-6.788-1.73,55.7,55.7,0,0,0-8.732,1.289c-1.328.322-12.39,8.208-12.39,8.208s.844,7.162,4.422,9.9l7.809-2.535v36.205a64.685,64.685,0,0,0,31.407,0V168.148l7.81,2.535c3.581-2.735,4.424-9.9,4.424-9.9s-11.067-7.886-12.391-8.208m-15.52,4.853v0l-.027,0-.024,0v0c-4.737-.01-6.279-3.228-6.332-4.882a13.835,13.835,0,0,0,6.332,1.588v0h.051v0a13.832,13.832,0,0,0,6.332-1.588c-.055,1.654-1.594,4.872-6.332,4.882" transform="translate(-35.83 -59.048)" fill="#f3dfe0"/>
            <g id="Grupo_6997" data-name="Grupo 6997" transform="translate(83.556 92.241)" opacity="0.15" style="mix-blend-mode: multiply;isolation: isolate">
              <g id="Grupo_6996" data-name="Grupo 6996">
                <g id="Grupo_6995" data-name="Grupo 6995" clip-path="url(#clip-path-15)">
                  <path id="Trazado_20740" data-name="Trazado 20740" d="M144.207,151.289a16.1,16.1,0,0,1-6.787,1.731h-.05c-.077,0-.189,0-.326-.006v1.127c.148,0,.268,0,.326,0v0l.023,0,.027,0v0a13.852,13.852,0,0,0,6.332-1.588c-.056,1.653-1.594,4.872-6.332,4.881v0l-.027,0-.023,0v0c-.12,0-.212-.025-.326-.029v48.883c.117,0,.233,0,.349,0a67.114,67.114,0,0,0,15.7-1.935V168.148l7.81,2.535c3.581-2.736,4.424-9.9,4.424-9.9s-11.066-7.886-12.391-8.208a55.7,55.7,0,0,0-8.733-1.29" transform="translate(-137.044 -151.289)" fill="#8f8ac2"/>
                </g>
              </g>
            </g>
            <path id="Trazado_20741" data-name="Trazado 20741" d="M169.5,233.659a5.645,5.645,0,1,1-5.644-5.648,5.646,5.646,0,0,1,5.644,5.648" transform="translate(-61.749 -88.993)" fill="#ffd100"/>
            <path id="Trazado_20742" data-name="Trazado 20742" d="M165.221,231.792l.972,2.355,2.54.194L166.793,236l.6,2.477-2.172-1.336-2.172,1.336.6-2.477-1.94-1.657,2.54-.194Z" transform="translate(-63.114 -90.469)" fill="#fff"/>
            <g id="Grupo_7000" data-name="Grupo 7000" transform="translate(4.094 75.136)" opacity="0.1" style="mix-blend-mode: multiply;isolation: isolate">
              <g id="Grupo_6999" data-name="Grupo 6999">
                <g id="Grupo_6998" data-name="Grupo 6998" clip-path="url(#clip-path-16)">
                  <rect id="Rectángulo_7430" data-name="Rectángulo 7430" width="51.879" height="23.802" transform="translate(0 0)" fill="#040506"/>
                </g>
              </g>
            </g>
            <rect id="Rectángulo_7432" data-name="Rectángulo 7432" width="51.879" height="23.802" transform="translate(2.33 73.211)" fill="#ffd100"/>
            <g id="Grupo_7003" data-name="Grupo 7003" transform="translate(3.936 74.816)" opacity="0.5">
              <g id="Grupo_7002" data-name="Grupo 7002">
                <g id="Grupo_7001" data-name="Grupo 7001" clip-path="url(#clip-path-17)">
                  <path id="Trazado_20743" data-name="Trazado 20743" d="M52.986,122.708H8.619a2.154,2.154,0,0,1-2.153,2.122l-.012,0v16.3h.012a2.159,2.159,0,0,1,2.158,2.154c0,.007,0,.015,0,.022H52.983v-.022a2.158,2.158,0,0,1,2.142-2.154v-16.3a2.147,2.147,0,0,1-2.139-2.12" transform="translate(-6.455 -122.709)" fill="#fff"/>
                </g>
              </g>
            </g>
            <path id="Trazado_20744" data-name="Trazado 20744" d="M49.281,134.416a8.089,8.089,0,1,1-8.091-8.089,8.087,8.087,0,0,1,8.091,8.089" transform="translate(-12.92 -49.306)" fill="#f5870f"/>
            <path id="Trazado_20745" data-name="Trazado 20745" d="M73.7,138.566a1.6,1.6,0,1,1-1.609-1.608,1.6,1.6,0,0,1,1.609,1.608" transform="translate(-27.515 -53.455)" fill="#f5870f"/>
            <path id="Trazado_20746" data-name="Trazado 20746" d="M20.628,138.566a1.6,1.6,0,1,1-1.6-1.608,1.6,1.6,0,0,1,1.6,1.608" transform="translate(-6.799 -53.455)" fill="#f5870f"/>
            <g id="Grupo_7006" data-name="Grupo 7006" transform="translate(25.324 79.31)" opacity="0.5">
              <g id="Grupo_7005" data-name="Grupo 7005">
                <g id="Grupo_7004" data-name="Grupo 7004" clip-path="url(#clip-path-18)">
                  <path id="Trazado_20747" data-name="Trazado 20747" d="M45.726,137.9a1.329,1.329,0,0,0-.066-.443.974.974,0,0,0-.213-.351,1.575,1.575,0,0,0-.389-.285,4.1,4.1,0,0,0-.58-.261,10.645,10.645,0,0,1-1.068-.462,3.55,3.55,0,0,1-.822-.56,2.231,2.231,0,0,1-.529-.744,2.445,2.445,0,0,1-.192-1.013,2.409,2.409,0,0,1,.17-.932,2.18,2.18,0,0,1,.479-.737,2.41,2.41,0,0,1,.746-.5,3.4,3.4,0,0,1,.976-.256v-1.28H45.2v1.3a2.76,2.76,0,0,1,.936.293,2.249,2.249,0,0,1,.713.575,2.715,2.715,0,0,1,.458.836,3.594,3.594,0,0,1,.153,1.09H45.726a1.633,1.633,0,0,0-.3-1.079.961.961,0,0,0-.79-.357,1.2,1.2,0,0,0-.466.078.852.852,0,0,0-.321.219.893.893,0,0,0-.19.337,1.455,1.455,0,0,0-.058.409,1.332,1.332,0,0,0,.058.4.9.9,0,0,0,.208.333,1.653,1.653,0,0,0,.39.288,6.581,6.581,0,0,0,.605.283c.39.154.74.313,1.056.47a3.637,3.637,0,0,1,.822.575,2.229,2.229,0,0,1,.53.747,2.507,2.507,0,0,1,.186,1.006,2.477,2.477,0,0,1-.17.951,2.043,2.043,0,0,1-.482.721,2.345,2.345,0,0,1-.754.5,3.551,3.551,0,0,1-.979.236v1.195h-.957v-1.186a3.8,3.8,0,0,1-.962-.234,2.591,2.591,0,0,1-.824-.524,2.3,2.3,0,0,1-.576-.849,3.207,3.207,0,0,1-.22-1.239H43.27a1.979,1.979,0,0,0,.112.712,1.225,1.225,0,0,0,.3.458,1.082,1.082,0,0,0,.421.237,1.752,1.752,0,0,0,.485.071,1.447,1.447,0,0,0,.494-.077,1.085,1.085,0,0,0,.357-.219.877.877,0,0,0,.213-.325,1.083,1.083,0,0,0,.075-.412" transform="translate(-41.535 -130.081)" fill="#fff"/>
                </g>
              </g>
            </g>
            <path id="Trazado_20748" data-name="Trazado 20748" d="M119.533,273.99h12.031a.953.953,0,1,1,0,1.906H120.689l1.3,6.671H132.6l2.92-11.9a.951.951,0,0,1,.925-.726h4.169a.953.953,0,0,1,0,1.906H137.2l-2.919,11.9a.954.954,0,0,1-.926.726H121.2a.954.954,0,0,1-.936-.771l-1.667-8.577a.953.953,0,0,1,.935-1.135" transform="translate(-46.282 -105.358)" fill="#f2f3f6"/>
            <path id="Trazado_20749" data-name="Trazado 20749" d="M137.473,300.521a2.168,2.168,0,1,1,2.168-2.167,2.167,2.167,0,0,1-2.168,2.167" transform="translate(-52.81 -115.601)" fill="#f2f3f6"/>
            <path id="Trazado_20750" data-name="Trazado 20750" d="M123.269,298.354a2.168,2.168,0,1,1,2.167,2.168,2.167,2.167,0,0,1-2.167-2.168" transform="translate(-48.112 -115.602)" fill="#f2f3f6"/>
            <path id="Trazado_20751" data-name="Trazado 20751" d="M168.252,167.989c-7.044,1.291-11.618,7.547-10.266,13.963s8.133,10.612,15.219,9.328l36.039-6.6c7.037-1.293,11.667-7.538,10.228-14.01-1.363-6.39-8.194-10.581-15.176-9.312Z" transform="translate(-61.57 -62.89)" fill="#e69567"/>
            <path id="Trazado_20752" data-name="Trazado 20752" d="M67.353,178.236c0-7.257-7.2-13.141-16.072-13.141S35.21,170.979,35.21,178.236s7.2,13.141,16.071,13.141,16.072-5.884,16.072-13.141" transform="translate(-13.742 -64.437)" fill="#e69567"/>
            <path id="Trazado_20753" data-name="Trazado 20753" d="M72.162,218.843c0-7.257-7.2-13.14-16.072-13.14s-16.071,5.883-16.071,13.14,7.2,13.141,16.071,13.141,16.072-5.882,16.072-13.141" transform="translate(-15.619 -80.286)" fill="#e69567"/>
            <path id="Trazado_20754" data-name="Trazado 20754" d="M76.97,255.16c0-7.257-7.194-13.141-16.072-13.141S44.827,247.9,44.827,255.16,52.023,268.3,60.9,268.3,76.97,262.417,76.97,255.16" transform="translate(-17.496 -94.46)" fill="#e69567"/>
          </g>
        </g>
      </g>
    </g>
  </g>
</svg>
