<svg xmlns="http://www.w3.org/2000/svg" width="83.828" height="67.834" viewBox="0 0 83.828 67.834">
  <g id="Grupo_2130" data-name="Grupo 2130" transform="translate(-612.778 -3031.773) rotate(-7)">
    <g id="Grupo_294" data-name="Grupo 294" transform="translate(289.856 3147.606) rotate(-150)">
      <path id="Trazado_1433" data-name="Trazado 1433" d="M13.387,32.944a4.325,4.325,0,0,1-5.5-2.623L.336,11.272A4.313,4.313,0,0,1,2.549,5.6L15.986.272A4.314,4.314,0,0,1,21.48,2.893l7.549,19.049a4.328,4.328,0,0,1-2.206,5.678Z" fill="#eba97b"/>
    </g>
    <g id="Grupo_298" data-name="Grupo 298" transform="translate(285.779 3121.422) rotate(-150)">
      <path id="Trazado_1439" data-name="Trazado 1439" d="M5.814,14.725C4.462,16.44,2.3,16.86.98,15.674h0c-1.322-1.187-1.308-3.536.051-5.263L7.947,1.626C9.3-.09,11.468-.524,12.786.691h0c1.313,1.184,1.291,3.548-.046,5.251Z" transform="translate(0 0)" fill="#eba97b"/>
    </g>
    <g id="Grupo_299" data-name="Grupo 299" transform="translate(293.119 3147.606) rotate(-150)">
      <path id="Trazado_1440" data-name="Trazado 1440" d="M5.854,15.959C3.34,16.976.8,15.437.148,12.525h0A6.275,6.275,0,0,1,3.541,5.445L16.378.313C18.9-.7,21.448.838,22.082,3.75h0a6.266,6.266,0,0,1-3.38,7.082Z" transform="translate(0 0)" fill="#eba97b"/>
    </g>
    <g id="Grupo_300" data-name="Grupo 300" transform="translate(296.17 3139.669) rotate(-150)">
      <path id="Trazado_1441" data-name="Trazado 1441" d="M7.419,17.483C4.124,18.757.859,17.436.145,14.535h0c-.731-2.907,1.366-6.3,4.663-7.559L21.723.483C25.005-.786,28.285.53,28.986,3.44h0c.731,2.9-1.371,6.294-4.661,7.562Z" transform="translate(0 0)" fill="#eba97b"/>
    </g>
    <g id="Grupo_301" data-name="Grupo 301" transform="translate(311.691 3131.972) rotate(-150)">
      <path id="Trazado_1442" data-name="Trazado 1442" d="M7.017,14.241c-3,1.036-6.05-.058-6.831-2.434h0C-.6,9.444,1.2,6.685,4.182,5.651L19.5.39c3-1.034,6.069.058,6.838,2.441h0c.789,2.359-1.009,5.125-4,6.156Z" transform="translate(0 1.388) rotate(-3)" fill="#eba97b"/>
    </g>
    <path id="Trazado_1444" data-name="Trazado 1444" d="M45.107,36.859,34.06,51.519l-2.837,5.2-2.538-9.427-6.6,4.186-.993-7.991-7.307,1.677,2.058-7.508L6.77,39.827l.755-7.476L0,32.962l7.874-7.537,8.208-10.656s9.294-12.8,24.355-1.815S45.107,36.859,45.107,36.859Z" transform="translate(252.132 3158.997) rotate(-120)" fill="#703f19"/>
  </g>
</svg>
