<svg xmlns="http://www.w3.org/2000/svg" width="25.417" height="25.412" viewBox="0 0 25.417 25.412">
  <path id="Trazado_11820" data-name="Trazado 11820" d="M109.948,80.515a3.188,3.188,0,0,1-.285.382Q99.637,90.931,89.608,100.962a1.485,1.485,0,0,1-1.111.551,1.282,1.282,0,0,1-.961-2.1,3.92,3.92,0,0,1,.307-.317q10-10,20-20a4.443,4.443,0,0,1,.373-.3l-.047-.118h-.41q-5.777,0-11.556,0a2.25,2.25,0,0,1-.633-.067,1.263,1.263,0,0,1-.9-1.354,1.292,1.292,0,0,1,1.207-1.14c.107-.007.214,0,.321,0q6.179,0,12.358,0a3.857,3.857,0,0,1,4.083,4.068q0,6.26,0,12.519a1.283,1.283,0,0,1-.935,1.335,1.2,1.2,0,0,1-1.4-.52,1.953,1.953,0,0,1-.227-.91c-.014-3.852-.009-7.7-.009-11.556V80.6l-.13-.088" transform="translate(-87.229 -76.103)" fill="#36a9e1"/>
</svg>
