<svg xmlns="http://www.w3.org/2000/svg" width="110.474" height="76.987" viewBox="0 0 110.474 76.987">
  <g id="Grupo_5175" data-name="Grupo 5175" transform="translate(872.163 -1093.579)">
    <path id="Trazado_533" data-name="Trazado 533" d="M201.836,51.532a12.016,12.016,0,1,1,12.017,12.014,12.019,12.019,0,0,1-12.017-12.014" transform="translate(-1058.451 1078.417)" fill="#fff"/>
    <path id="Trazado_534" data-name="Trazado 534" d="M223.3,51.222a11.513,11.513,0,1,1,11.512,11.515A11.513,11.513,0,0,1,223.3,51.222" transform="translate(-1023.781 1078.727)" fill="#fff"/>
    <path id="Trazado_539" data-name="Trazado 539" d="M196.929,59.474a24.245,24.245,0,0,1,1.948-9.692,25.007,25.007,0,0,1,13.27-13.27,25.081,25.081,0,0,1,19.384,0,25.031,25.031,0,0,1,13.27,13.27,25.08,25.08,0,0,1,0,19.384,25.03,25.03,0,0,1-13.27,13.27,24.255,24.255,0,0,1-9.692,1.951,23.3,23.3,0,0,1-10.6-2.767,19.4,19.4,0,0,1-7.971-6.836v25.362h-6.339Zm6.339,0a18.157,18.157,0,0,0,1.451,7.2,18.512,18.512,0,0,0,9.917,9.917,18.589,18.589,0,0,0,14.4,0,18.505,18.505,0,0,0,9.919-9.917,18.627,18.627,0,0,0,0-14.4,18.505,18.505,0,0,0-9.919-9.917,18.589,18.589,0,0,0-14.4,0,18.512,18.512,0,0,0-9.917,9.917,18.148,18.148,0,0,0-1.451,7.2" transform="translate(-1066.377 1070.42)" fill="#fff"/>
    <path id="Trazado_540" data-name="Trazado 540" d="M218.16,59.44a24.242,24.242,0,0,1,1.948-9.692,25.056,25.056,0,0,1,13.272-13.275,25.142,25.142,0,0,1,19.384,0,25.065,25.065,0,0,1,13.27,13.275,24.287,24.287,0,0,1,1.946,9.692V82.177H261.64v-6.07l-1,1a24.967,24.967,0,0,1-7.88,5.3,25.08,25.08,0,0,1-19.384,0,25.023,25.023,0,0,1-13.272-13.27,24.261,24.261,0,0,1-1.948-9.692m6.342,0a18.2,18.2,0,0,0,1.449,7.2,18.528,18.528,0,0,0,9.92,9.917,18.62,18.62,0,0,0,14.4,0,18.665,18.665,0,0,0,5.934-3.983,18.86,18.86,0,0,0,3.986-5.892,19.534,19.534,0,0,0,1.449-6.431V59.44a18.165,18.165,0,0,0-1.449-7.2,18.545,18.545,0,0,0-9.919-9.92,18.62,18.62,0,0,0-14.4,0,18.544,18.544,0,0,0-9.92,9.92,18.165,18.165,0,0,0-1.449,7.2" transform="translate(-1032.085 1070.365)" fill="#fff"/>
    <path id="Trazado_543" data-name="Trazado 543" d="M247.9,41.7s-.894-.431-2.463-1.122-3.824-1.635-6.549-2.639a71.735,71.735,0,0,0-9.423-2.772,46.412,46.412,0,0,0-5.379-.853,32.322,32.322,0,0,0-5.534-.094,23.55,23.55,0,0,0-5.361.928,26.519,26.519,0,0,0-2.508.873c-.813.324-1.572.751-2.338,1.13a27.605,27.605,0,0,0-4.025,2.908c-.567.56-1.166,1.072-1.676,1.632s-1,1.119-1.48,1.648c-.442.554-.826,1.122-1.232,1.64a12.726,12.726,0,0,0-1.072,1.527c-.609,1-1.245,1.839-1.621,2.6-.834,1.5-1.347,2.354-1.347,2.354s.235-.955.711-2.631a25.667,25.667,0,0,1,1.083-2.955,29.361,29.361,0,0,1,1.846-3.69l1.321-1.982c.471-.685,1.075-1.3,1.64-1.985a27.233,27.233,0,0,1,1.951-1.925c.683-.649,1.514-1.151,2.294-1.752a22.566,22.566,0,0,1,5.468-2.6,26.749,26.749,0,0,1,6.112-1.185,35.235,35.235,0,0,1,6.146.23,37.072,37.072,0,0,1,5.751,1.221,43.258,43.258,0,0,1,5.128,1.818c1.587.672,3.052,1.386,4.362,2.1a47.921,47.921,0,0,1,6.08,3.863C247.17,41.028,247.9,41.7,247.9,41.7" transform="translate(-1068.054 1064.197)" fill="#fff"/>
    <path id="Trazado_544" data-name="Trazado 544" d="M271.4,52.283s-.235-1.033-.594-2.843c-.348-.85-.667-1.87-1.169-2.979a21.7,21.7,0,0,0-2.181-3.489,9.984,9.984,0,0,0-1.509-1.768c-.594-.544-1.1-1.2-1.778-1.718s-1.373-1.033-2.084-1.566q-1.153-.659-2.356-1.344l-.6-.343-.654-.254c-.437-.17-.876-.343-1.316-.513s-.876-.366-1.334-.5l-1.407-.35a31.067,31.067,0,0,0-5.8-.936q-1.495,0-2.981,0c-.5.01-.991-.029-1.486.026l-1.475.188c-.978.136-1.951.243-2.919.345q-1.428.329-2.817.649a41.22,41.22,0,0,0-5.291,1.522c-.834.282-1.666.515-2.437.819-.769.324-1.514.635-2.225.934-1.41.635-2.79,1.077-3.912,1.669l-2.955,1.462c-1.658.8-2.634,1.229-2.634,1.229s.805-.672,2.265-1.815c.73-.568,1.619-1.263,2.662-2.029a40.625,40.625,0,0,1,3.69-2.307l2.158-1.263c.758-.424,1.6-.73,2.443-1.114s1.718-.753,2.607-1.14a20.9,20.9,0,0,1,2.835-.923c.975-.282,1.969-.575,2.976-.868,1.033-.188,2.087-.35,3.154-.5l1.6-.233c.536-.071,1.088-.042,1.634-.068l3.3-.055a34.676,34.676,0,0,1,6.5,1.174l1.574.442c.507.188.994.442,1.485.654q.734.341,1.457.67l.717.335.664.426c.873.578,1.76,1.1,2.555,1.708l2.173,1.988a22.488,22.488,0,0,1,1.789,2.121,11.911,11.911,0,0,1,1.4,2.168A18.143,18.143,0,0,1,270.874,46a30.555,30.555,0,0,1,.617,3.384c-.039,1.844-.091,2.9-.091,2.9" transform="translate(-1033.18 1063.376)" fill="#fff"/>
  </g>
</svg>
