<svg xmlns="http://www.w3.org/2000/svg" xmlns:xlink="http://www.w3.org/1999/xlink" width="212.545" height="185.917" viewBox="0 0 212.545 185.917">
  <defs>
    <clipPath id="clip-path">
      <rect id="Rectángulo_2103" data-name="Rectángulo 2103" width="212.545" height="185.917" fill="#0075a9"/>
    </clipPath>
  </defs>
  <g id="Grupo_2558" data-name="Grupo 2558" clip-path="url(#clip-path)">
    <path id="Trazado_9969" data-name="Trazado 9969" d="M373.161,4.8c4.756,4.338,5.611,11.145,5.611,11.145s-6.856-.227-11.612-4.565S361.549.231,361.549.231,368.4.458,373.161,4.8" transform="translate(-206.743 -0.132)" fill="#0075a9"/>
    <path id="Trazado_9970" data-name="Trazado 9970" d="M304.827,373.148a21.161,21.161,0,0,0-4.286,11.476c-.016.079,8.591-2.328,12.454-8.122a14.845,14.845,0,0,0,2.038-11.632,35.084,35.084,0,0,0-10.206,8.278" transform="translate(-171.854 -208.642)" fill="#0075a9"/>
    <path id="Trazado_9971" data-name="Trazado 9971" d="M310.788,415.193a14.608,14.608,0,0,1-10.371-6.944c.089.028,8.185-2.309,15.16-1.488a19.289,19.289,0,0,1,11.184,5.279c.1.023-8.335,4.466-15.972,3.153" transform="translate(-171.786 -232.496)" fill="#0075a9"/>
    <path id="Trazado_9972" data-name="Trazado 9972" d="M342.809,355.884a20.8,20.8,0,0,0-1.752,11.795c-.007.08,7.559-3.676,10.107-9.93a14.882,14.882,0,0,0-.3-11.594,32.242,32.242,0,0,0-8.056,9.729" transform="translate(-194.901 -197.94)" fill="#0075a9"/>
    <path id="Trazado_9973" data-name="Trazado 9973" d="M352.2,395.558a14.4,14.4,0,0,1-11.075-4.973c.083.013,7.178-3.59,13.95-3.975a18.985,18.985,0,0,1,11.634,3.214c.094.007-7.086,5.728-14.509,5.734" transform="translate(-195.062 -221.059)" fill="#0075a9"/>
    <path id="Trazado_9974" data-name="Trazado 9974" d="M374.761,333.71a20.639,20.639,0,0,0,.578,11.708c0,.079,6.482-4.834,7.778-11.332a14.882,14.882,0,0,0-2.426-11.189,30.538,30.538,0,0,0-5.931,10.814" transform="translate(-213.958 -184.64)" fill="#0075a9"/>
    <path id="Trazado_9975" data-name="Trazado 9975" d="M388.091,369.036a14.134,14.134,0,0,1-11.5-2.931c.076,0,6.134-4.688,12.578-6.223a18.684,18.684,0,0,1,11.8,1.117c.087-.008-5.791,6.772-12.876,8.037" transform="translate(-215.344 -205.517)" fill="#0075a9"/>
    <path id="Trazado_9976" data-name="Trazado 9976" d="M400.629,307.456a20.43,20.43,0,0,0,2.7,11.257c.012.078,5.362-5.8,5.472-12.344a14.77,14.77,0,0,0-4.334-10.459,29.618,29.618,0,0,0-3.833,11.546" transform="translate(-229.065 -169.209)" fill="#0075a9"/>
    <path id="Trazado_9977" data-name="Trazado 9977" d="M418.243,336.686a13.9,13.9,0,0,1-11.64-.859c.069-.012,5.05-5.6,11.041-8.215a18.489,18.489,0,0,1,11.671-.972c.08-.021-4.453,7.6-11.073,10.047" transform="translate(-232.506 -186.483)" fill="#0075a9"/>
    <path id="Trazado_9978" data-name="Trazado 9978" d="M420.5,277.96a20.127,20.127,0,0,0,4.6,10.483c.022.074,4.2-6.579,3.189-12.982a14.549,14.549,0,0,0-6.018-9.443A29.15,29.15,0,0,0,420.5,277.96" transform="translate(-240.395 -152.116)" fill="#0075a9"/>
    <path id="Trazado_9979" data-name="Trazado 9979" d="M442.416,299.532a13.757,13.757,0,0,1-11.487,1.2c.062-.023,3.928-6.329,9.338-9.937a18.442,18.442,0,0,1,11.245-3.01c.074-.033-3.069,8.2-9.1,11.747" transform="translate(-246.416 -164.532)" fill="#0075a9"/>
    <path id="Trazado_9980" data-name="Trazado 9980" d="M434.127,246.06a19.7,19.7,0,0,0,6.27,9.428c.031.07,2.988-7.164.933-13.259a14.263,14.263,0,0,0-7.47-8.185,28.987,28.987,0,0,0,.266,12.016" transform="translate(-247.794 -133.832)" fill="#0075a9"/>
    <path id="Trazado_9981" data-name="Trazado 9981" d="M460.379,258.9a13.718,13.718,0,0,1-11.034,3.207c.055-.032,2.766-6.873,7.464-11.373a18.525,18.525,0,0,1,10.512-4.956c.067-.044-1.641,8.593-6.942,13.121" transform="translate(-256.947 -140.541)" fill="#0075a9"/>
    <path id="Trazado_9982" data-name="Trazado 9982" d="M441.09,212.6a19.248,19.248,0,0,0,7.712,8.131c.041.064,1.734-7.558-1.294-13.191a13.974,13.974,0,0,0-8.683-6.724c.034.051-.28,6.39,2.264,11.784" transform="translate(-250.932 -114.833)" fill="#0075a9"/>
    <path id="Trazado_9983" data-name="Trazado 9983" d="M471.9,216.348a13.763,13.763,0,0,1-10.274,5.119c.047-.04,1.565-7.233,5.417-12.507a18.7,18.7,0,0,1,9.466-6.768c.06-.053-.168,8.764-4.608,14.155" transform="translate(-263.967 -115.619)" fill="#0075a9"/>
    <path id="Trazado_9984" data-name="Trazado 9984" d="M441.583,178.43a18.814,18.814,0,0,0,8.915,6.635c.052.057.435-7.759-3.489-12.792a13.731,13.731,0,0,0-9.65-5.1c.044.045.829,6.391,4.224,11.259" transform="translate(-250.093 -95.593)" fill="#0075a9"/>
    <path id="Trazado_9985" data-name="Trazado 9985" d="M476.734,173.024a13.837,13.837,0,0,1-9.2,6.894c.04-.047.325-7.408,3.2-13.322a18.878,18.878,0,0,1,8.1-8.405c.052-.062,1.348,8.717-2.094,14.833" transform="translate(-267.347 -90.457)" fill="#0075a9"/>
    <path id="Trazado_9986" data-name="Trazado 9986" d="M436.094,144.306a18.463,18.463,0,0,0,9.872,4.981c.063.049-.908-7.768-5.65-12.079a13.554,13.554,0,0,0-10.365-3.361c.054.039,1.976,6.234,6.143,10.458" transform="translate(-245.857 -76.499)" fill="#0075a9"/>
    <path id="Trazado_9987" data-name="Trazado 9987" d="M474.325,130.007a13.889,13.889,0,0,1-7.808,8.492c.033-.052-.953-7.4.8-13.8a19.047,19.047,0,0,1,6.407-9.827c.044-.069,2.911,8.452.605,15.139" transform="translate(-266.625 -65.685)" fill="#0075a9"/>
    <path id="Trazado_9988" data-name="Trazado 9988" d="M424.413,110.659a18.192,18.192,0,0,0,10.576,3.209c.074.039-2.3-7.582-7.775-11.064a13.418,13.418,0,0,0-10.821-1.54c.065.03,3.162,5.918,8.02,9.395" transform="translate(-238.104 -57.61)" fill="#0075a9"/>
    <path id="Trazado_9989" data-name="Trazado 9989" d="M462.952,88.384a13.894,13.894,0,0,1-6.087,9.87c.024-.056-2.27-7.208-1.784-13.937a19.228,19.228,0,0,1,4.381-10.99c.037-.073,4.517,7.97,3.491,15.057" transform="translate(-260.188 -41.93)" fill="#0075a9"/>
    <path id="Trazado_9990" data-name="Trazado 9990" d="M406.328,78.325a17.963,17.963,0,0,0,11.02,1.361c.085.028-3.728-7.2-9.86-9.765a13.268,13.268,0,0,0-11.01.319c.076.021,4.387,5.442,9.851,8.085" transform="translate(-226.716 -39.384)" fill="#0075a9"/>
    <path id="Trazado_9991" data-name="Trazado 9991" d="M442.5,49.241a13.867,13.867,0,0,1-4.032,10.988c.016-.059-3.626-6.832-4.547-13.706a19.563,19.563,0,0,1,2.013-11.854c.029-.078,6.167,7.269,6.566,14.572" transform="translate(-248.029 -19.824)" fill="#0075a9"/>
    <path id="Trazado_9992" data-name="Trazado 9992" d="M381.63,48.244a17.669,17.669,0,0,0,11.2-.523c.1.016-5.206-6.629-11.9-8.194A13.008,13.008,0,0,0,370,41.7c.086.011,5.651,4.805,11.633,6.543" transform="translate(-211.574 -22.386)" fill="#0075a9"/>
    <path id="Trazado_9993" data-name="Trazado 9993" d="M412.781,13.668a13.932,13.932,0,0,1-1.636,11.8c.007-.06-5.021-6.272-7.5-13.094A20.369,20.369,0,0,1,402.947,0c.021-.08,7.862,6.352,9.834,13.667" transform="translate(-230.058 0)" fill="#0075a9"/>
    <path id="Trazado_9994" data-name="Trazado 9994" d="M244,192.822l.12-1.329a81.961,81.961,0,0,0,32.616-3.645,86.346,86.346,0,0,0,28.513-15.613A90.719,90.719,0,0,0,337.5,113.593c2.487-19.016,1.211-35.961-3.792-50.366a67.188,67.188,0,0,0-28.438-35.975l.706-1.132a68.49,68.49,0,0,1,28.993,36.669c5.072,14.6,6.369,31.753,3.854,50.977a92.047,92.047,0,0,1-32.728,59.5,87.685,87.685,0,0,1-28.952,15.852,83.28,83.28,0,0,1-33.144,3.7" transform="translate(-139.524 -14.936)" fill="#0075a9"/>
    <path id="Trazado_9995" data-name="Trazado 9995" d="M100.236,4.8c-4.756,4.338-5.611,11.145-5.611,11.145s6.856-.227,11.612-4.565S111.848.231,111.848.231,104.992.458,100.236,4.8" transform="translate(-54.109 -0.132)" fill="#0075a9"/>
    <path id="Trazado_9996" data-name="Trazado 9996" d="M171.662,373.148a21.161,21.161,0,0,1,4.286,11.476c.016.079-8.591-2.328-12.454-8.122a14.845,14.845,0,0,1-2.038-11.632,35.084,35.084,0,0,1,10.206,8.278" transform="translate(-92.091 -208.642)" fill="#0075a9"/>
    <path id="Trazado_9997" data-name="Trazado 9997" d="M150.427,415.193a14.608,14.608,0,0,0,10.371-6.944c-.089.028-8.185-2.309-15.16-1.488a19.29,19.29,0,0,0-11.184,5.279c-.1.023,8.335,4.466,15.972,3.153" transform="translate(-76.884 -232.496)" fill="#0075a9"/>
    <path id="Trazado_9998" data-name="Trazado 9998" d="M138.394,355.884a20.8,20.8,0,0,1,1.752,11.795c.007.08-7.559-3.676-10.107-9.93a14.883,14.883,0,0,1,.3-11.594,32.241,32.241,0,0,1,8.056,9.729" transform="translate(-73.758 -197.94)" fill="#0075a9"/>
    <path id="Trazado_9999" data-name="Trazado 9999" d="M110.034,395.558a14.4,14.4,0,0,0,11.076-4.973c-.083.013-7.179-3.59-13.95-3.975a18.985,18.985,0,0,0-11.634,3.214c-.094.007,7.086,5.728,14.509,5.734" transform="translate(-54.624 -221.059)" fill="#0075a9"/>
    <path id="Trazado_10000" data-name="Trazado 10000" d="M109.316,333.71a20.639,20.639,0,0,1-.578,11.708c0,.079-6.482-4.834-7.778-11.332a14.882,14.882,0,0,1,2.426-11.189,30.538,30.538,0,0,1,5.931,10.814" transform="translate(-57.574 -184.64)" fill="#0075a9"/>
    <path id="Trazado_10001" data-name="Trazado 10001" d="M75.751,369.036a14.134,14.134,0,0,0,11.5-2.931c-.076,0-6.134-4.688-12.578-6.223A18.684,18.684,0,0,0,62.875,361c-.088-.008,5.791,6.772,12.876,8.037" transform="translate(-35.953 -205.517)" fill="#0075a9"/>
    <path id="Trazado_10002" data-name="Trazado 10002" d="M84.8,307.456a20.43,20.43,0,0,1-2.7,11.257c-.012.078-5.362-5.8-5.472-12.344a14.77,14.77,0,0,1,4.334-10.459A29.617,29.617,0,0,1,84.8,307.456" transform="translate(-43.818 -169.209)" fill="#0075a9"/>
    <path id="Trazado_10003" data-name="Trazado 10003" d="M47.822,336.686a13.9,13.9,0,0,0,11.64-.859c-.069-.012-5.05-5.6-11.042-8.215a18.489,18.489,0,0,0-11.671-.972c-.08-.021,4.453,7.6,11.073,10.047" transform="translate(-21.013 -186.483)" fill="#0075a9"/>
    <path id="Trazado_10004" data-name="Trazado 10004" d="M65.159,277.96a20.127,20.127,0,0,1-4.6,10.483c-.022.074-4.2-6.579-3.189-12.982a14.55,14.55,0,0,1,6.018-9.443,29.151,29.151,0,0,1,1.767,11.942" transform="translate(-32.718 -152.116)" fill="#0075a9"/>
    <path id="Trazado_10005" data-name="Trazado 10005" d="M26.493,299.532a13.757,13.757,0,0,0,11.487,1.2c-.062-.023-3.928-6.329-9.338-9.937a18.44,18.44,0,0,0-11.244-3.01c-.074-.033,3.069,8.2,9.1,11.747" transform="translate(-9.947 -164.532)" fill="#0075a9"/>
    <path id="Trazado_10006" data-name="Trazado 10006" d="M50.63,246.06a19.7,19.7,0,0,1-6.27,9.428c-.032.07-2.988-7.164-.933-13.259a14.263,14.263,0,0,1,7.47-8.185,28.979,28.979,0,0,1-.266,12.016" transform="translate(-24.417 -133.832)" fill="#0075a9"/>
    <path id="Trazado_10007" data-name="Trazado 10007" d="M12.01,258.9a13.718,13.718,0,0,0,11.034,3.207c-.055-.032-2.766-6.873-7.464-11.373a18.525,18.525,0,0,0-10.512-4.956C5,245.734,6.71,254.371,12.01,258.9" transform="translate(-2.897 -140.541)" fill="#0075a9"/>
    <path id="Trazado_10008" data-name="Trazado 10008" d="M41.305,212.6a19.247,19.247,0,0,1-7.712,8.131c-.042.064-1.734-7.558,1.294-13.191a13.974,13.974,0,0,1,8.683-6.724c-.034.051.28,6.39-2.264,11.784" transform="translate(-18.918 -114.833)" fill="#0075a9"/>
    <path id="Trazado_10009" data-name="Trazado 10009" d="M4.616,216.348a13.763,13.763,0,0,0,10.274,5.119c-.048-.04-1.565-7.233-5.417-12.507a18.7,18.7,0,0,0-9.466-6.768c-.06-.053.168,8.764,4.608,14.155" transform="translate(0 -115.619)" fill="#0075a9"/>
    <path id="Trazado_10010" data-name="Trazado 10010" d="M37.223,178.43a18.816,18.816,0,0,1-8.915,6.635c-.052.057-.435-7.759,3.489-12.792a13.732,13.732,0,0,1,9.651-5.1c-.044.045-.829,6.391-4.224,11.259" transform="translate(-16.168 -95.593)" fill="#0075a9"/>
    <path id="Trazado_10011" data-name="Trazado 10011" d="M4.2,173.024a13.837,13.837,0,0,0,9.2,6.894c-.04-.047-.325-7.408-3.2-13.322a18.878,18.878,0,0,0-8.1-8.405c-.052-.062-1.348,8.717,2.094,14.833" transform="translate(-1.044 -90.457)" fill="#0075a9"/>
    <path id="Trazado_10012" data-name="Trazado 10012" d="M38.911,144.306a18.463,18.463,0,0,1-9.872,4.981c-.063.049.908-7.768,5.65-12.079a13.553,13.553,0,0,1,10.365-3.361c-.054.039-1.976,6.234-6.143,10.458" transform="translate(-16.604 -76.499)" fill="#0075a9"/>
    <path id="Trazado_10013" data-name="Trazado 10013" d="M10.118,130.007a13.89,13.89,0,0,0,7.808,8.492c-.032-.052.953-7.4-.8-13.8a19.044,19.044,0,0,0-6.407-9.827c-.045-.069-2.911,8.452-.605,15.139" transform="translate(-5.273 -65.685)" fill="#0075a9"/>
    <path id="Trazado_10014" data-name="Trazado 10014" d="M47.149,110.659a18.192,18.192,0,0,1-10.576,3.209c-.074.039,2.3-7.582,7.775-11.064a13.418,13.418,0,0,1,10.821-1.54c-.065.03-3.162,5.918-8.02,9.395" transform="translate(-20.912 -57.61)" fill="#0075a9"/>
    <path id="Trazado_10015" data-name="Trazado 10015" d="M22.639,88.384a13.9,13.9,0,0,0,6.087,9.87C28.7,98.2,31,91.046,30.511,84.316a19.228,19.228,0,0,0-4.381-10.99c-.037-.073-4.517,7.97-3.491,15.057" transform="translate(-12.858 -41.93)" fill="#0075a9"/>
    <path id="Trazado_10016" data-name="Trazado 10016" d="M62.2,78.325a17.964,17.964,0,0,1-11.02,1.361c-.085.028,3.728-7.2,9.86-9.765a13.268,13.268,0,0,1,11.01.319c-.076.021-4.387,5.442-9.851,8.085" transform="translate(-29.262 -39.384)" fill="#0075a9"/>
    <path id="Trazado_10017" data-name="Trazado 10017" d="M42.166,49.241A13.868,13.868,0,0,0,46.2,60.229c-.016-.059,3.626-6.832,4.547-13.706a19.563,19.563,0,0,0-2.013-11.854c-.029-.078-6.167,7.269-6.566,14.572" transform="translate(-24.094 -19.824)" fill="#0075a9"/>
    <path id="Trazado_10018" data-name="Trazado 10018" d="M84.275,48.244a17.669,17.669,0,0,1-11.2-.523c-.1.016,5.206-6.629,11.9-8.194A13.008,13.008,0,0,1,95.908,41.7c-.086.011-5.651,4.805-11.633,6.543" transform="translate(-41.787 -22.386)" fill="#0075a9"/>
    <path id="Trazado_10019" data-name="Trazado 10019" d="M68.853,13.668a13.932,13.932,0,0,0,1.636,11.8c-.007-.06,5.021-6.272,7.5-13.094A20.368,20.368,0,0,0,78.687,0c-.021-.08-7.862,6.352-9.834,13.667" transform="translate(-39.031 0)" fill="#0075a9"/>
    <path id="Trazado_10020" data-name="Trazado 10020" d="M124.1,192.822l-.12-1.329a81.961,81.961,0,0,1-32.616-3.645,86.346,86.346,0,0,1-28.513-15.613A90.717,90.717,0,0,1,30.6,113.593c-2.487-19.016-1.211-35.961,3.792-50.366A67.188,67.188,0,0,1,62.829,27.252l-.706-1.132A68.492,68.492,0,0,0,33.131,62.789c-5.072,14.6-6.369,31.753-3.854,50.977A92.049,92.049,0,0,0,62,173.267a87.685,87.685,0,0,0,28.952,15.852,83.28,83.28,0,0,0,33.144,3.7" transform="translate(-16.029 -14.936)" fill="#0075a9"/>
    <path id="Trazado_10021" data-name="Trazado 10021" d="M233.811,399.581l-10.082,7.413,10.082,7.414,10.082-7.414Z" transform="translate(-127.934 -228.491)" fill="#0075a9"/>
  </g>
</svg>
