<svg id="Grupo_13861" data-name="Grupo 13861" xmlns="http://www.w3.org/2000/svg" xmlns:xlink="http://www.w3.org/1999/xlink" width="29.57" height="30.097" viewBox="0 0 29.57 30.097">
  <defs>
    <clipPath id="clip-path">
      <rect id="Rectángulo_4416" data-name="Rectángulo 4416" width="29.57" height="30.097" fill="#fddb00"/>
    </clipPath>
  </defs>
  <g id="Grupo_5209" data-name="Grupo 5209" clip-path="url(#clip-path)">
    <path id="Trazado_11218" data-name="Trazado 11218" d="M26.432,5.226a3.813,3.813,0,0,1-.331.453Q14.435,17.562,2.767,29.443a1.718,1.718,0,0,1-1.293.654,1.416,1.416,0,0,1-1.328-.887,1.476,1.476,0,0,1,.21-1.6,4.729,4.729,0,0,1,.356-.376Q12.348,15.386,23.986,3.542a5.25,5.25,0,0,1,.434-.36l-.054-.139h-.476q-6.722,0-13.445,0a2.58,2.58,0,0,1-.736-.08,1.5,1.5,0,0,1-1.045-1.6A1.515,1.515,0,0,1,10.067,0c.124-.008.249,0,.374,0q7.188,0,14.378,0a4.528,4.528,0,0,1,4.75,4.818q0,7.413,0,14.828a1.518,1.518,0,0,1-1.088,1.581,1.385,1.385,0,0,1-1.623-.616,2.332,2.332,0,0,1-.264-1.077c-.017-4.563-.011-9.125-.011-13.688V5.33Z" transform="translate(0 0)" fill="#fddb00"/>
  </g>
</svg>
