<svg xmlns="http://www.w3.org/2000/svg" xmlns:xlink="http://www.w3.org/1999/xlink" width="53" height="53" viewBox="0 0 53 53"><defs><clipPath id="a"><rect width="53" height="53" fill="#0075a9"/></clipPath></defs><g clip-path="url(#a)"><path d="M45.381,45.382H37.49V33.023c0-2.947-.053-6.741-4.1-6.741-4.11,0-4.739,3.211-4.739,6.526V45.381H20.754V19.966H28.33V23.44h.106a8.3,8.3,0,0,1,7.475-4.105c8,0,9.473,5.261,9.473,12.106ZM11.85,16.492a4.58,4.58,0,1,1,3.238-1.342,4.58,4.58,0,0,1-3.238,1.342M15.8,45.382H7.9V19.966h7.9ZM49.315,0H3.93A3.886,3.886,0,0,0,0,3.843V49.418a3.889,3.889,0,0,0,3.93,3.843H49.315a3.9,3.9,0,0,0,3.946-3.843V3.84A3.9,3.9,0,0,0,49.315,0" transform="translate(0 0)" fill="#0075a9"/></g></svg>