<svg xmlns="http://www.w3.org/2000/svg" width="53" height="53" viewBox="0 0 53 53"><path d="M35.333,26.5A8.837,8.837,0,0,0,26.5,17.667,8.837,8.837,0,0,0,17.667,26.5,8.837,8.837,0,0,0,26.5,35.333,8.837,8.837,0,0,0,35.333,26.5Zm4.761,0A13.547,13.547,0,0,1,26.5,40.095,13.547,13.547,0,0,1,12.906,26.5,13.547,13.547,0,0,1,26.5,12.906,13.547,13.547,0,0,1,40.095,26.5Zm3.726-14.147A3.174,3.174,0,1,1,38.4,10.111a3.174,3.174,0,0,1,5.416,2.242ZM26.5,4.761q-.241,0-2.64-.018t-3.641,0q-1.243.018-3.33.1a27.211,27.211,0,0,0-3.554.345,13.713,13.713,0,0,0-2.466.64,9.024,9.024,0,0,0-5.038,5.038,13.847,13.847,0,0,0-.639,2.467,27.211,27.211,0,0,0-.344,3.554q-.085,2.088-.1,3.33t0,3.641q.018,2.4.018,2.64t-.018,2.64q-.018,2.4,0,3.641t.1,3.33a27.211,27.211,0,0,0,.344,3.554,13.764,13.764,0,0,0,.639,2.465,9.024,9.024,0,0,0,5.038,5.038,13.847,13.847,0,0,0,2.467.639,27.212,27.212,0,0,0,3.554.345q2.088.085,3.33.1t3.641,0q2.4-.018,2.64-.018t2.64.018q2.4.018,3.641,0t3.33-.1a27.209,27.209,0,0,0,3.554-.345,13.849,13.849,0,0,0,2.467-.639,9.024,9.024,0,0,0,5.038-5.038,13.847,13.847,0,0,0,.639-2.467,27.213,27.213,0,0,0,.344-3.554q.085-2.088.1-3.33t0-3.641q-.018-2.4-.018-2.64t.018-2.64q.018-2.4,0-3.641t-.1-3.33a27.209,27.209,0,0,0-.344-3.554,13.583,13.583,0,0,0-.642-2.465,9.024,9.024,0,0,0-5.038-5.038,13.847,13.847,0,0,0-2.467-.639,27.211,27.211,0,0,0-3.554-.344q-2.088-.085-3.33-.1t-3.641,0q-2.4.018-2.64.018ZM53,26.5q0,7.9-.172,10.939-.345,7.177-4.278,11.111T37.439,52.828Q34.4,53,26.5,53t-10.939-.172q-7.177-.345-11.111-4.278T.172,37.439Q0,34.4,0,26.5T.172,15.561Q.517,8.384,4.451,4.451T15.561.172Q18.6,0,26.5,0T37.439.172q7.177.345,11.111,4.278t4.278,11.111Q53,18.6,53,26.5Z" fill="#0075a9"/></svg>