<svg xmlns="http://www.w3.org/2000/svg" width="49" height="34" viewBox="0 0 49 34"><g transform="translate(-53.371 -1.904)"><path d="M201.836,44.822a5.329,5.329,0,1,1,5.33,5.306,5.32,5.32,0,0,1-5.33-5.306" transform="translate(-141.569 -26.856)" fill="#fff"/><path d="M223.3,44.792a5.107,5.107,0,1,1,5.106,5.085,5.1,5.1,0,0,1-5.106-5.085" transform="translate(-138.136 -26.826)" fill="#fff"/><path d="M196.929,45.565a10.667,10.667,0,0,1,.864-4.28,11.068,11.068,0,0,1,5.886-5.86,11.169,11.169,0,0,1,8.6,0,11.078,11.078,0,0,1,5.886,5.86,11.033,11.033,0,0,1,0,8.561,11.078,11.078,0,0,1-5.886,5.86,10.8,10.8,0,0,1-4.3.862,10.371,10.371,0,0,1-4.7-1.222,8.593,8.593,0,0,1-3.536-3.019v11.2h-2.812Zm2.812,0a7.989,7.989,0,0,0,.644,3.181,8.193,8.193,0,0,0,4.4,4.38,8.278,8.278,0,0,0,6.388,0,8.19,8.19,0,0,0,4.4-4.38,8.193,8.193,0,0,0,0-6.362,8.19,8.19,0,0,0-4.4-4.38,8.278,8.278,0,0,0-6.388,0,8.193,8.193,0,0,0-4.4,4.38,7.985,7.985,0,0,0-.644,3.181" transform="translate(-142.354 -27.623)" fill="#fff"/><path d="M218.16,45.531a10.667,10.667,0,0,1,.864-4.28,11.09,11.09,0,0,1,5.887-5.863,11.2,11.2,0,0,1,8.6,0,11.093,11.093,0,0,1,5.886,5.863,10.686,10.686,0,0,1,.863,4.28V55.572h-2.812V52.892l-.442.44a11.076,11.076,0,0,1-3.495,2.34,11.168,11.168,0,0,1-8.6,0,11.075,11.075,0,0,1-5.887-5.86,10.675,10.675,0,0,1-.864-4.28m2.813,0a8.009,8.009,0,0,0,.643,3.181,8.2,8.2,0,0,0,4.4,4.38,8.292,8.292,0,0,0,6.388,0,8.25,8.25,0,0,0,4.4-4.361,8.6,8.6,0,0,0,.643-2.84v-.359a7.993,7.993,0,0,0-.643-3.181,8.208,8.208,0,0,0-4.4-4.381,8.292,8.292,0,0,0-6.388,0,8.208,8.208,0,0,0-4.4,4.381,7.992,7.992,0,0,0-.643,3.181" transform="translate(-138.958 -27.628)" fill="#fff"/><path d="M218.959,35.564s-.4-.191-1.093-.5-1.7-.722-2.9-1.165a31.921,31.921,0,0,0-4.179-1.224A20.668,20.668,0,0,0,208.4,32.3a14.4,14.4,0,0,0-2.454-.042,10.486,10.486,0,0,0-2.378.41c-.387.095-.745.256-1.112.386s-.7.331-1.037.5a12.246,12.246,0,0,0-1.785,1.284c-.252.247-.517.474-.743.721l-.657.728c-.2.245-.367.5-.546.724a5.617,5.617,0,0,0-.476.674c-.27.442-.552.812-.719,1.149-.37.661-.6,1.039-.6,1.039s.1-.422.316-1.162a11.306,11.306,0,0,1,.48-1.305,12.947,12.947,0,0,1,.819-1.63l.586-.875c.209-.3.477-.574.727-.877a12.048,12.048,0,0,1,.865-.85c.3-.286.672-.508,1.017-.774a10.028,10.028,0,0,1,2.425-1.15,11.909,11.909,0,0,1,2.711-.523,15.7,15.7,0,0,1,2.726.1,16.5,16.5,0,0,1,2.551.539,19.238,19.238,0,0,1,2.275.8c.7.3,1.354.612,1.935.929a21.264,21.264,0,0,1,2.7,1.706c.615.46.938.757.938.757" transform="translate(-142.52 -28.22)" fill="#fff"/><path d="M241.4,39.954s-.1-.456-.263-1.255c-.154-.375-.3-.826-.518-1.316a9.578,9.578,0,0,0-.967-1.541,4.417,4.417,0,0,0-.669-.781c-.263-.24-.488-.531-.789-.759l-.924-.692-1.045-.594-.268-.151-.29-.112-.583-.226c-.2-.073-.389-.162-.592-.223l-.624-.155a13.835,13.835,0,0,0-2.573-.413h-1.322c-.22,0-.44-.013-.659.012l-.654.083c-.434.06-.865.107-1.295.152l-1.249.286a18.346,18.346,0,0,0-2.347.672c-.37.125-.739.228-1.081.361l-.987.412c-.625.281-1.238.476-1.735.737l-1.311.646c-.735.352-1.168.543-1.168.543s.357-.3,1-.8c.324-.251.718-.558,1.181-.9a18.034,18.034,0,0,1,1.637-1.019l.957-.558c.336-.187.711-.322,1.083-.492l1.156-.5a9.3,9.3,0,0,1,1.257-.408l1.32-.383c.458-.083.926-.155,1.4-.222l.711-.1c.238-.031.483-.018.725-.03l1.464-.024a15.44,15.44,0,0,1,2.884.519l.7.2c.225.083.441.2.659.289s.433.2.646.3l.318.148.295.188c.387.255.781.487,1.133.754l.964.878a9.931,9.931,0,0,1,.793.937,5.26,5.26,0,0,1,.619.957,7.993,7.993,0,0,1,.777,1.816,13.438,13.438,0,0,1,.274,1.495c-.017.814-.041,1.281-.041,1.281" transform="translate(-139.067 -28.299)" fill="#fff"/></g></svg>