<svg xmlns="http://www.w3.org/2000/svg" xmlns:xlink="http://www.w3.org/1999/xlink" width="53" height="53" viewBox="0 0 53 53"><defs><clipPath id="a"><rect width="53" height="53" fill="#0075a9"/></clipPath></defs><g clip-path="url(#a)"><path d="M0,52.725H52.725V0H0Zm28.692-11.6c0,5.132-3.008,7.468-7.4,7.468a7.69,7.69,0,0,1-7.432-4.53h0L17.9,41.619c.779,1.38,1.487,2.548,3.185,2.548,1.628,0,2.655-.637,2.655-3.114V24.206h4.955Zm11.716,7.468c-4.6,0-7.574-2.194-9.025-5.061l4.034-2.336A5.393,5.393,0,0,0,40.3,44.2c2.053,0,3.362-1.026,3.362-2.442,0-1.7-1.345-2.3-3.61-3.291l-1.238-.531C35.241,36.416,32.87,34.5,32.87,30.47c0-3.716,2.831-6.548,7.255-6.548a7.318,7.318,0,0,1,7.043,3.964L43.31,30.364c-.849-1.522-1.769-2.123-3.185-2.123a2.156,2.156,0,0,0-2.371,2.123c0,1.486.92,2.088,3.044,3.009l1.239.531c4.212,1.805,6.583,3.645,6.583,7.786,0,4.46-3.5,6.9-8.211,6.9" fill="#0075a9"/></g></svg>