<svg xmlns="http://www.w3.org/2000/svg" xmlns:xlink="http://www.w3.org/1999/xlink" width="1920" height="448" viewBox="0 0 1920 448"><defs><clipPath id="a"><rect width="1920" height="448" transform="translate(-1481 -13614)" fill="none" stroke="#707070" stroke-width="1"/></clipPath></defs><g transform="translate(1481 13614)" clip-path="url(#a)"><path d="M350.442,322.07q-5.188-4.614-10.006-9.348c-1.116,8.555-6.362,16.758-14.5,22.608-8.422,6.055-19.858,9.531-31.348,9.531h-.058c15.148-11.031,30.253-21.617,45.4-32.637-6.323-6.233-12.174-12.6-17.594-19.027-3.056,9.166-10.164,17.494-19.867,23.251-9.924,5.89-22.494,9.048-34.991,8.792,19.634-9.077,37.207-20.846,54.59-32.36A287.512,287.512,0,0,1,304.383,269.5c-1.2,7.693-6.222,15-13.834,20.033-8.038,5.314-18.859,8.024-29.393,7.357,14.352-9.367,28.329-18.844,42.669-28.214-4.627-6.858-8.817-13.7-12.612-20.439-4.315,7.193-12.222,13.054-21.7,16.063a52.923,52.923,0,0,1-30.6.185c17.794-5.2,34.344-11.354,52.117-16.564-3.776-6.73-7.159-13.362-10.186-19.82-6.953,5.215-16.448,8.353-26.123,8.617-9.911.269-19.906-2.482-27.375-7.536,17.042-.172,36.223-1.262,53.322-1.459-3.648-7.807-6.775-15.353-9.456-22.509-13.927,7.965-33.769,9.238-49.168,3.089,16.221-1.331,32.8-2.129,49.036-3.442q-1.836-4.917-3.4-9.57-.832-2.472-1.605-4.9a23.968,23.968,0,0,1-11.858.7c-6.164-.973-11.537-4.547-13.708-9.12-7.857,4.281-20.705,3.6-28.664-.566s-11.937-12.479-9.188-19.609c-9.349,1.786-20.013-1.939-25.471-8.083a15.522,15.522,0,0,1,.062-21.035,21.692,21.692,0,0,1-3.835-1.609,162.49,162.49,0,0,0,5.228,54.964,144.564,144.564,0,0,0,54.631,77.931,29.136,29.136,0,0,1-18.26-2.568c-5.39-2.8-9.2-7.35-10.3-12.3a46.75,46.75,0,0,1-22.14-6.323,28.909,28.909,0,0,1-8.226-7.13,22.516,22.516,0,0,1-.962-26.393c-8.065-1.614-15.806-5.626-19.7-11.329a18.855,18.855,0,0,1-1.706-18.754c-8.781-1.014-15.843-8.7-17.218-15.491s1.234-13.685,4.482-20.085A137.906,137.906,0,0,1,174.3,100.007a99.365,99.365,0,0,1,10.915-13.154,147.6,147.6,0,0,0-30.579-14.52C81.743,67.323,43.9,94.675,20.172,104.681V-90h1651.3v.2h306.351V201.6a164.437,164.437,0,0,1-40.676,7.238,56.715,56.715,0,0,0,1.345,10.121c6.067-3.6,13.849-5.164,21.5-5.415,7.809-.257,15.584.753,23.293,1.76a90.7,90.7,0,0,1-44.719,3.962,57.2,57.2,0,0,0,2.162,7.162q.819,2.19,1.823,4.333c13.232-8.375,31.91-11.326,48.31-7.583a228.8,228.8,0,0,1-48.129,7.966,65.217,65.217,0,0,0,5.312,9.127c5.217-4.562,12.7-7.347,20.4-8.639,7.933-1.332,16.151-1.2,24.247-.749a113.456,113.456,0,0,1-44.367,9.79,73.011,73.011,0,0,0,4.782,6.07c15.589-8.88,37.8-9.855,55.267-3.365-17.9,3.52-36.7,6.408-54.846,3.843a79.775,79.775,0,0,0,5.76,5.823c7.667-1.427,18.115-.968,26.667-2.956,8.841-2.055,18.646-3.656,27.066-.725-8.736,2.516-17.544,5.046-26.748,6.188-8.665,1.075-18.121.724-26.257-1.85a87.2,87.2,0,0,0,9.457,7.319c7.016-.221,13.865-1.762,20.805-2.66,7.268-.94,15.092-1.112,21.624,1.526a90.238,90.238,0,0,1-41.909,1.481q3.21,2.121,6.659,4.01c12.381,1.3,23.988,6.65,31.326,14.49-11.684-1.4-22.672-6-30.631-12.767q-3.12-1.636-6.059-3.462a91.108,91.108,0,0,1,13.053,25.982,28.836,28.836,0,0,1-12.9-12.11,20.6,20.6,0,0,1-1.7-14.852,89.414,89.414,0,0,1-9.958-7.479c2.813,9.77,5.538,19.831,5.225,29.725a18.525,18.525,0,0,1,8.036,3.763,23.4,23.4,0,0,1-8.7,2.654,38.976,38.976,0,0,1-1.271,5.077,39.6,39.6,0,0,1-3.5-4.907,27.651,27.651,0,0,1-9.8-2.151q.269.336.535.673a95.581,95.581,0,0,1,7.1,10.281,21.555,21.555,0,0,1,12.686-1.372,17.114,17.114,0,0,1,10.665,6.442,24.1,24.1,0,0,1-7.086,1.011,27.537,27.537,0,0,1-15.365-4.531,67.493,67.493,0,0,1,5.673,12.809,21.789,21.789,0,0,1,12.882.187c4.253,1.433,7.672,4.283,9.2,7.675a23.074,23.074,0,0,1-3.94.329c-6.7,0-13.667-2.689-17.728-6.8a43.57,43.57,0,0,1,1.78,12.828,21.792,21.792,0,0,1,12.861.2c4.252,1.433,7.671,4.283,9.2,7.674a23.087,23.087,0,0,1-3.941.329c-6.942,0-14.168-2.885-18.153-7.249a34.906,34.906,0,0,1-.872,6.362,11.307,11.307,0,0,1,1.621,9.778c-1.146,3.241-4.72,5.925-8.546,7.51a10.192,10.192,0,0,1-1.868-10.032,13.656,13.656,0,0,1,7.349-7.315,36.629,36.629,0,0,0,.4-14.367c-1.335,6.026-7.384,11.768-14.887,13.46a11.109,11.109,0,0,1,3.281-10.162,18.736,18.736,0,0,1,11.3-4.991c-2.058-10.245-7.586-19.652-12.518-26.419-1.052,6.241-7.251,12.312-15,14.06a11.105,11.105,0,0,1,3.281-10.162,18.63,18.63,0,0,1,10.94-4.954q-.786-1.048-1.537-2c-1.52-1.924-3.111-3.829-4.746-5.714q-.884,1.864-1.841,3.592a23.3,23.3,0,0,1-1.972-5.055c-1.9,5.485-7.574,10.475-14.482,12.033a11.111,11.111,0,0,1,3.281-10.162,18.52,18.52,0,0,1,10.532-4.9c-.037-.212-.072-.426-.1-.639-2.438-2.661-4.918-5.283-7.363-7.868q-.874-.923-1.75-1.851c-.167.184-.336.369-.5.552-1.4,5.969-7.413,11.629-14.852,13.306a11.108,11.108,0,0,1,3.281-10.162,18.4,18.4,0,0,1,10.107-4.842q.072-.391.153-.781c-1.9-2.02-3.79-4.061-5.648-6.128q-2.44,2.27-5.132,4.369a44.259,44.259,0,0,1,1.022-4.59c-2.19,5.106-7.608,9.625-14.118,11.094a11.108,11.108,0,0,1,3.281-10.162,18.7,18.7,0,0,1,11.2-4.982c-1.564-1.834-3.087-3.692-4.547-5.578q-2.113,1.663-4.35,3.229a52.2,52.2,0,0,1,2.478-5.711q-1.167-1.59-2.264-3.208c-.962,6.3-7.206,12.471-15.031,14.236A11.111,11.111,0,0,1,1899,250.51a18.692,18.692,0,0,1,11.146-4.977q-.5-.749-.973-1.506-1.2-1.9-2.286-3.834-1.659,1.1-3.367,2.158c.737-1.392,1.492-2.781,2.276-4.16q-.824-1.56-1.579-3.138c-.992,6.282-7.222,12.422-15.023,14.181a11.107,11.107,0,0,1,3.281-10.162,18.712,18.712,0,0,1,11.283-4.99,96.9,96.9,0,0,1-4.669-12.191c-1.21,6.124-7.329,12.013-14.942,13.73a11.1,11.1,0,0,1,3.281-10.162,18.71,18.71,0,0,1,11.234-4.986q-.658-2.237-1.216-4.489a26.131,26.131,0,0,1-7.827,2.931,64.094,64.094,0,0,0,6.885-7.032q-.349-1.653-.652-3.31c-1.443,5.933-7.429,11.541-14.828,13.21a11.107,11.107,0,0,1,3.281-10.162l.164-.161q.383-2.834.515-5.684-1.384,1.238-2.884,2.393a11.761,11.761,0,0,1,.932,1.486,22.819,22.819,0,0,1-3.646.469q-1.209.815-2.479,1.574.668-.764,1.309-1.544h-.086a27.9,27.9,0,0,1-5.753-.613q.136.642.3,1.279-.377-.682-.726-1.372a27.316,27.316,0,0,1-7.046-2.639,65.772,65.772,0,0,0,2,8,21.039,21.039,0,0,1,5.23.866c4.319,1.309,7.874,4.057,9.57,7.4a23.377,23.377,0,0,1-4.661.454c-6.355,0-12.959-2.358-17.077-6.08a75.472,75.472,0,0,0,3.363,9.947,49.183,49.183,0,0,1-3.371-4.227c.276,2.171.646,4.337,1.089,6.5a21.74,21.74,0,0,1,12.639-.742,16.458,16.458,0,0,1,10.157,6.916,23.765,23.765,0,0,1-5.908.715c-6.13,0-12.492-2.1-16.6-5.548,1,4.567,2.315,9.1,3.74,13.587a21.739,21.739,0,0,1,12.847-.621,16.24,16.24,0,0,1,9.981,7.07,23.661,23.661,0,0,1-5.519.627c-6.28,0-12.805-2.234-16.914-5.844.848,2.629,1.729,5.241,2.6,7.831q.582,1.72,1.164,3.457a21.306,21.306,0,0,1,12.182,1.958c3.873,1.975,6.612,5.237,7.374,8.781q-.413.015-.826.015a24.916,24.916,0,0,1-17.617-7.4c1.431,4.387,2.79,8.833,3.882,13.289a21.8,21.8,0,0,1,12.787-.083c4.307,1.333,7.835,4.1,9.5,7.456a23.35,23.35,0,0,1-4.519.428c-6.545,0-13.352-2.514-17.441-6.434q.09.389.177.779a78.43,78.43,0,0,1,1.721,11.583,21.078,21.078,0,0,1,12.448,2.34,13.1,13.1,0,0,1,6.858,9.028h-.055c-7.806,0-15.686-4.186-19.151-9.67a61.031,61.031,0,0,1-.807,13.526,19.919,19.919,0,0,1,11.891,3.846,11.829,11.829,0,0,1,4.914,9.759c-7.849-.96-14.892-6.222-17.078-12.19a46.175,46.175,0,0,1-4.437,12.436,19.915,19.915,0,0,1,11.867,3.846,11.823,11.823,0,0,1,4.913,9.759c-8.085-.988-15.313-6.54-17.26-12.73a42.369,42.369,0,0,1-3.831,5.666,11.779,11.779,0,0,1-3.137,9.554c-2.6,2.688-7.2,4.166-11.513,4.55a10.494,10.494,0,0,1,3.029-9.861,17.645,17.645,0,0,1,10.309-4.711A42.113,42.113,0,0,0,1872.6,309.4c-4.1,5.224-12.456,8.841-20.236,8.277.965-3.514,3.892-6.676,7.875-8.515a21.544,21.544,0,0,1,12.879-1.424c2.951-10.112,2.278-20.435.905-28.132-3.942,5.5-12.592,9.382-20.629,8.8.967-3.515,3.893-6.677,7.878-8.515a21.507,21.507,0,0,1,12.526-1.49c-.155-.8-.316-1.565-.48-2.295-.826-3.678-1.859-7.361-2.986-11.017-3.884,5.592-12.628,9.556-20.747,8.969.967-3.514,3.892-6.678,7.878-8.515a21.5,21.5,0,0,1,12.548-1.487c-1.067-3.4-2.208-6.784-3.329-10.111q-.445-1.316-.89-2.64c-3.9,5.572-12.619,9.517-20.721,8.931.967-3.514,3.892-6.677,7.878-8.515a21.5,21.5,0,0,1,12.48-1.5c-1.361-4.073-2.694-8.2-3.847-12.355-3.817,5.692-12.666,9.751-20.876,9.157.965-3.514,3.892-6.676,7.878-8.515a21.511,21.511,0,0,1,12.779-1.441,103.662,103.662,0,0,1-2.722-12.952c-3.888,5.585-12.624,9.543-20.741,8.955a13.887,13.887,0,0,1,7.622-8.393q-.364-2.392-.635-4.792a24.951,24.951,0,0,1-6.583.741,13.9,13.9,0,0,1,2.347,4.261s-21.937-.79-28.054-1.288a55.731,55.731,0,0,1-11.432-3.039c1.047,1.5,1.89,2.649,2.466,3.316l-3.964,3.111,5.2-.818s14.462,13.459,18.1,18.263c4.159,5.494,5.556,10.785,4.612,15.64,0,0-10.841-5.365-16.245-7.636a200.588,200.588,0,0,1-26.309-14.792,61.174,61.174,0,0,0,4.748,7.615,43.21,43.21,0,0,1,5.926,12.723s-9.65-3.547-16.741-6.054c-3.91-1.382-9.032-5.457-13.325-9.345.689,4.023,1.038,6.688,1.038,6.688l-5.98-2.2,7.074,4.7c1.861,13.861,1.543,39.882,1.543,39.882-22.726-13.112-31.053-43.331-31.053-43.331l3.386-9.18L1738.2,242.7s-.3-1.128-.737-3c-1,6.07-1.887,10.621-1.887,10.621l-4.031-4.809,3,10.1s-2.5,13.7-7.972,22.018-15.1,28.181-23.224,33.008c0,0-1.552-33.691.439-40.4l4.38-4.875-3.948,2.434s.411-6.722,1.337-13.875a16.6,16.6,0,0,1-10.61,3.893q-.64,0-1.273-.056a9.085,9.085,0,0,1,5.188-5.368,13.754,13.754,0,0,1,7.04-.983c.175-1.2.364-2.384.569-3.535a29.614,29.614,0,0,1,.263-4.163,16.1,16.1,0,0,1-11.645,4.934c-.426,0-.85-.018-1.272-.056a9.076,9.076,0,0,1,5.189-5.368,13.818,13.818,0,0,1,7.933-.844,40.244,40.244,0,0,1,2.114-7.495c-.6.271-1.366.611-2.256.994a17.013,17.013,0,0,1-1.89.8c-6.053,2.513-15.564,6-21.169,5.755-7.513-.332-17.788-.659-17.788-.659a43.187,43.187,0,0,1,10.261-9.576,61.406,61.406,0,0,0,7.253-5.282,200.732,200.732,0,0,1-29.934,3.859c-5.862.083-17.923,1-17.923,1,.944-4.856,4.221-9.239,10.136-12.775a116.783,116.783,0,0,1,11.886-5.467,45.636,45.636,0,0,1-7.891-14.589c-3.63-1.289-7.175-2.562-9.656-3.456a92.254,92.254,0,0,1-10.9,4.177q4.241-2.423,8.117-5.18l-.636-.23c1.327-1.684,3.888-3.351,7.011-4.728q1.706-1.451,3.316-2.966-.112-.891-.207-1.779-.191-1.814-.311-3.632a19.26,19.26,0,0,1-13.562,5.91q-.292.008-.583.008-.414,0-.827-.017a36.962,36.962,0,0,0,1.767,3.68,36.489,36.489,0,0,1-3-3.767,20.525,20.525,0,0,1-9.2-3.216q-1.991,1.548-4.095,3.009a79.5,79.5,0,0,0,2.906,14.018,68.92,68.92,0,0,1-9.517-26.7,28.057,28.057,0,0,1-3.261,1.739,25.728,25.728,0,0,1-3.463,1.265,74.978,74.978,0,0,0,2.791,9.038,74.837,74.837,0,0,1-4.77-8.549,27.534,27.534,0,0,1-3.4.49,86.7,86.7,0,0,0,.3,18.708,82.411,82.411,0,0,1-4.533-18.713,19.53,19.53,0,0,1-7-1.872,16.421,16.421,0,0,1-1.672-.956,73.454,73.454,0,0,0,2.557,10.527,70.434,70.434,0,0,1-8.248-16.688q-.144-.255-.28-.513a29.255,29.255,0,0,1-2.239-5.9q-4.7.39-9.4.773-.138.261-.278.522a60.131,60.131,0,0,0,5.83,11.643,67.269,67.269,0,0,1-7.121-6.895l-2.149,10.781-3.813,19.112h0l-4.9,7.645-2.588.251-16.464,1.6-18.807,45.453-24.008,12.9-6.317,21.982L1458.317,304l-5.161-10.139-21.484-42.242-27.382-8.122-17.412-47.9q-4.353,2.577-9.1,5.065s3.08-3.316,7.849-8.5l-.741-2.038-11.745-3.761a210.836,210.836,0,0,1-38.562,15.406c6.5-7.614,14.358-14.248,22.87-20.431l-6.489-2.078v0h0l-5.637-13.171a304.225,304.225,0,0,1-33.57,5.154c10.395-3.494,20.8-7.085,31.158-10.789l-7.119-16.633c-7.378.262-14.776.277-22.155.146,6.709-1.347,13.523-2.841,20.352-4.36l-12.02-28.086a74.272,74.272,0,0,0,5.768,27.69,50.4,50.4,0,0,1-12.169-26.432,61.549,61.549,0,0,1-.574-11.243,189.834,189.834,0,0,0-3.756,22.936q.233.83.491,1.658-.278-.554-.545-1.11-.683,6.942-.852,13.928a126.36,126.36,0,0,1-1.831-20.26,69.324,69.324,0,0,1-3.986-17.41,68.794,68.794,0,0,1-3.671,10.82,47.059,47.059,0,0,1-22.135,22.945c11.852-10.977,19.185-24.776,21.1-39-.834.022-1.672.05-2.506.082a53.212,53.212,0,0,0-1.1,10.739,46.881,46.881,0,0,1-2.615-10.559q-1.259.073-2.515.162a57.384,57.384,0,0,1-18.082,17.51,48.4,48.4,0,0,0,4.553,9.428,40.929,40.929,0,0,1-6.593-8.2q-1.162.675-2.362,1.309,1.07-.864,2.092-1.762-.289-.492-.562-.99a45.277,45.277,0,0,1-13.307-11.429q-4.023,1.134-8.037,2.5c-10.024,3.413-16.9,7.037-27.46,11.267q.506.711,1.028,1.414-.8-.587-1.575-1.2c-4.815,1.915-10.4,3.955-17.388,6.155q.85.64,1.658,1.326a15.256,15.256,0,0,1,4.676,7.179,45.218,45.218,0,0,1,1.87,15.172c-.021,1.113-.138,2.223-.26,3.329a5.644,5.644,0,0,1-1.112,2.669.262.262,0,0,1-.366.02c-.225-.2-.4-.355-.563-.524-1.156-1.224-2.236-2.495-3.465-3.672a35.042,35.042,0,0,0-9.161-6.3,52.19,52.19,0,0,0-8.045-2.757,8.242,8.242,0,0,0-1.833-.27c-.3-.017-.8.089-.87.247a.816.816,0,0,0,.24.791,6.529,6.529,0,0,0,1.471,1.035c3.045,1.523,6.125,3,9.169,4.523a40.574,40.574,0,0,1,9.545,6.336c1.581,1.469,2.581,3.107,2.238,5.015a8,8,0,0,1-.9,2.185c-1.268,2.435-2.542,4.867-3.887,7.273a15.273,15.273,0,0,1-1.314,1.846.707.707,0,0,1-1.08-.076l-.237-.381c-1.108-1.775-2.106-3.6-3.349-5.314a45.474,45.474,0,0,0-7.171-7.633c-1.816-1.569-3.786-3.028-5.71-4.517a8.842,8.842,0,0,0-1.239-.7,1.07,1.07,0,0,0-1.223,0c-.405.32-.167.676.156.943,1.612,1.34,3.18,2.722,4.891,3.978a50.126,50.126,0,0,1,10.507,10.283,10.079,10.079,0,0,1,1.484,2.743c.612,1.795-.154,3.345-1.78,4.468-2.2,1.515-4.565,2.876-6.889,4.276a19.128,19.128,0,0,1-2.219,1.087,2.176,2.176,0,0,1-.7.108.243.243,0,0,1-.255-.152,1.2,1.2,0,0,1-.076-.552,11.184,11.184,0,0,0-1.386-7.851,50.422,50.422,0,0,0-7.405-10.06c-.444-.491-.863-.995-1.311-1.481a6.018,6.018,0,0,0-.693-.638,1.061,1.061,0,0,0-1.207-.2c-.463.238-.4.607-.168.94,1.239,1.791,2.425,3.607,3.773,5.349,2.1,2.722,4.4,5.363,5.727,8.384a25.651,25.651,0,0,1,1.237,3.371,4.548,4.548,0,0,1-.457,3.268,3.938,3.938,0,0,1-2.9,1.833c-2.476.578-4.945,1.177-7.43,1.734a18.924,18.924,0,0,1-2.522.379c-.662.055-.815-.164-.539-.623a12.251,12.251,0,0,0,.838-10.858c-.488-1.395-1.142-2.76-1.724-4.138-.063-.151-.1-.344-.234-.435-.3-.2-.686-.512-.993-.495-.557.031-.447.47-.358.8.661,2.459,1.494,4.9,1.944,7.377a25.523,25.523,0,0,1,.252,5.747c-.082,1.786-1.463,2.833-3.684,3.138a11.57,11.57,0,0,1-4.838-.425,23,23,0,0,0-3.164-.7c-1.593-.224-3.2-.337-4.808-.5a2.162,2.162,0,0,1-.378-.1c-.022-.059-.042-.084-.034-.094.973-1.344-.176-2.159-1.328-3.015a61.065,61.065,0,0,0-5.691-3.61c-2.808-1.641-3.3-3.979-2.282-6.316,1.312-3.017,3.894-5.263,7.182-7.006,1.506-.8,3.091-1.506,4.6-2.3a13.56,13.56,0,0,0,1.755-1.187c.131-.1.244-.34.175-.439a.8.8,0,0,0-.567-.189,4.025,4.025,0,0,0-1.055.219,28.856,28.856,0,0,0-10.333,6.34,16.975,16.975,0,0,0-3.667,5.195c-.139.308-.3.607-.464.909a.747.747,0,0,1-.109.14.265.265,0,0,1-.367,0,14.059,14.059,0,0,1-1.612-1.742,21.509,21.509,0,0,1-1.772-3.109c-1.043-2.264-.469-4.265,1.442-5.972a47.387,47.387,0,0,1,5.828-3.928c3.326-2.167,7.361-3.457,10.852-5.407.4-.221.787-.445,1.18-.67a.153.153,0,0,0,.076-.194.24.24,0,0,0-.224-.132,3.1,3.1,0,0,0-.949.056c-1.5.5-3,1-4.441,1.586-2.645,1.083-5.3,2.166-7.85,3.37a17.614,17.614,0,0,0-5.168,3.468,32.959,32.959,0,0,0-2.6,3.37c-.187.247-.35.507-.539.8a.262.262,0,0,1-.4,0,6.176,6.176,0,0,1-1.292-2.7c-.544-2.61-.962-4.36-1.337-6.98-.483-3.379,2.024-6.032,5.528-7.414a35.539,35.539,0,0,1,12.636-2.791c2.271-.049,4.53-.221,6.792-.347.55-.031,1.14-.091,1.2-.648s-.448-.928-1.052-1.029a20.234,20.234,0,0,0-3.243-.332,32.357,32.357,0,0,0-13.484,2.759c-2.034.914-3.922,2.021-5.876,3.042l-.565.3a.259.259,0,0,1-.352-.113,1.269,1.269,0,0,1-.1-.41c0-1.679-.063-3.366.047-5.037,0-.072.01-.143.015-.215a114.64,114.64,0,0,1-16.263,1.186,105.65,105.65,0,0,1-41.425-8.526,15.446,15.446,0,0,1-4.8,4.572c-.742.477-1.514.924-2.3,1.355q1.6,2.665,3.353,5.277-2.948-1.931-5.608-4.087a51.1,51.1,0,0,0-6.223,3.562c-3.28,2.337-5.759,5.841-4.606,9.175,1.47,4.247,8.077,6.475,9.6,10.71,1.206,3.35-1.217,6.876-4.325,9.386s-6.971,4.454-9.739,7.192-4.859,7.277-2.424,10.2c-6.024-.627-10.551-5.78-9.1-10.351.966-3.03,4.081-5.619,4.078-8.739,0-3.4-3.672-6.063-7.283-7.989s-7.7-3.781-9.379-6.918c-1.989-3.711.139-8.047,3.407-11.168s7.6-5.48,11.025-8.5,5.98-7.129,4.581-11c-.7-1.938-2.288-3.553-3.836-5.193a16.185,16.185,0,0,0-2.317.757q.578,1.354,1.2,2.7-.96-1.181-1.874-2.384a6.22,6.22,0,0,0-1.971,1.542c-3.187,3.873,2.006,9.121.085,13.466-1.1,2.5-4.34,4.065-7.585,4.871s-6.7,1.055-9.887,2-6.237,2.819-6.809,5.422c-.933,4.24,4.918,8.568,2.5,12.438-1.091,1.746-3.6,2.7-6.054,3.085s-5,.323-7.456.7c-4.943.754-9.3,3.406-11.58,6.871A7.223,7.223,0,0,0,991.448,165c-1.516-2.346-3.866-4.31-5.544-6.59s-2.634-5.158-1.116-7.5c2.839-4.382,12.443-4.529,14.1-9.261,1.309-3.739-3.618-7.294-3.2-11.153.39-3.634,5.165-5.867,9.586-7.215a68.25,68.25,0,0,1-3.4-6.18,78.748,78.748,0,0,1-16,11,80.243,80.243,0,0,0,13.9-15.686q-.35-.853-.68-1.708a98.725,98.725,0,0,1-3.287-10.062,75.548,75.548,0,0,1-7.1-12.83,42.647,42.647,0,0,1-3.544,9.078q.14-1.179.223-2.362a71.806,71.806,0,0,1-5.85,11.279,40.226,40.226,0,0,0,7.934,12.894,41.415,41.415,0,0,1-9.878-9.985,78.5,78.5,0,0,1-7.126,8.722,87.746,87.746,0,0,0,6.606,13.244A78.106,78.106,0,0,1,960.3,105.394a30.9,30.9,0,0,1-8.779-19.61q-1.1-1.662-2.04-3.38a89.518,89.518,0,0,0-1.048,11.8,79.034,79.034,0,0,0,11.54,24.3,85.452,85.452,0,0,1-11.083-13.121,90.31,90.31,0,0,0,6.248,24.8A87.579,87.579,0,0,1,939.71,87.22a68.4,68.4,0,0,1-3.289-14.391l-.733.075a49.269,49.269,0,0,1-2.017,5.409,58.77,58.77,0,0,1-.244,25.205,80.316,80.316,0,0,0,8.346,17.611A78.1,78.1,0,0,1,922.6,93.351a42.632,42.632,0,0,1-5.527,3.986q-.458,2.89-1.15,5.757a69.649,69.649,0,0,0,8.828,10.452,78.238,78.238,0,0,1-9.921-6.424,77.917,77.917,0,0,1-8.892,19.313,104.567,104.567,0,0,0,3.619-23.763q-.637-.6-1.254-1.2-1.656.578-3.371,1.032,1.438,1.783,3.08,3.465a21.488,21.488,0,0,1-5.686-2.857,42.063,42.063,0,0,1-11.521.743,55.631,55.631,0,0,0,8.671-3.092,32.042,32.042,0,0,1-4.38-5.276,62.882,62.882,0,0,1-11.805,14.334,61.307,61.307,0,0,0,8.333-20.384,52.623,52.623,0,0,1-2.511-6.034l-.324.115a41.184,41.184,0,0,1-3.809,9.7q.648,1.952,1.4,3.881-1.2-1.141-2.3-2.341a34.562,34.562,0,0,1-6.869,8.061A66.881,66.881,0,0,0,881.291,91.4a43.772,43.772,0,0,1-2.667-3.961q-3.2,1.325-6.2,2.667a30.738,30.738,0,0,1-1.489,3.4,75.411,75.411,0,0,0,13.148,21.032,45.715,45.715,0,0,1-17.066-15.42,23.657,23.657,0,0,1-2.188,2.067,69.7,69.7,0,0,0,10.1,20.837,47,47,0,0,1-16.442-17.087l-.15.059.1-.143a46.085,46.085,0,0,1-3.023-6.615q-1.5.743-2.933,1.454-.222,2.655-.635,5.294-.083-2.408-.349-4.809-.848.417-1.675.82v8.591q1.129,2.049,2.413,4.043-1.237-1.207-2.413-2.444v.879a82.882,82.882,0,0,0-8.156-2.553,82.718,82.718,0,0,0,11.755,19.931,71.636,71.636,0,0,1-19.669-21.575q-4.149-.663-8.323-.944a40.288,40.288,0,0,0,7.49,11.772,41.177,41.177,0,0,1-11.168-11.959q-2.539-.084-5.081-.049A64.945,64.945,0,0,1,809.8,117.12a69.919,69.919,0,0,0,1.851-10.264c-1.243.068-2.484.154-3.73.257q.286.462.587.918-.5-.436-.985-.885-4.141.354-8.3.942a83.856,83.856,0,0,0,6.205,10.419,86.425,86.425,0,0,1-8.864-10.027q-3.556.55-7.12,1.232a69.169,69.169,0,0,0,4.858,11.889,67.9,67.9,0,0,1-8.246-11.221c-6.9,1.409-13.83,3.1-20.762,4.863a155.533,155.533,0,0,0,14.763,22.648,96.451,96.451,0,0,1-23.015-20.535c-12.432,3.19-24.875,6.321-37.259,8.151-5.658.836-11.328,1.4-17,1.721q1.979,3.366,4.251,6.589a93.47,93.47,0,0,1-6.808-6.459A232.188,232.188,0,0,1,676,127.114c-13.516.716-27.112.385-39.886-2.77a72.359,72.359,0,0,0,4.752,6.345,104.877,104.877,0,0,1,11.736-.016,97.429,97.429,0,0,0,15.2-.276c9.108-1.165,19.1-1.781,26.964,1.959-9.079,1.631-18.232,3.269-27.548,3.489-8.772.208-18.093-1.075-25.738-4.433a79.077,79.077,0,0,0,8.172,8.195c7,.475,14.043-.374,21.075-.579,7.363-.213,15.151.389,21.2,3.655A90.024,90.024,0,0,1,650.111,140q2.834,2.422,5.943,4.637c12.066,2.515,22.694,8.969,28.68,17.472-11.358-2.544-21.5-8.2-28.275-15.7q-2.824-1.931-5.437-4.032a85.087,85.087,0,0,1,8.66,27.06,26.2,26.2,0,0,1-10.8-13.288,20.482,20.482,0,0,1,.768-14.9,81.093,81.093,0,0,1-8.643-8.4c1.64,13.864,3.017,28.267-3.537,41.206-8.073-13.111-6.842-29.391,3.107-41.7a74.146,74.146,0,0,1-5.107-6.582c-2.447,12.265-9.069,27.869-17.1,38.381-2.307-6.381-1.328-16.43,1.508-22.681a38.593,38.593,0,0,1,15.181-16.3q-1.2-1.786-2.281-3.621-1.682-.309-3.366-.628a86.93,86.93,0,0,1-22.625,26.1c2.5-10.212,9.531-19.709,19.542-26.621l.042-.063q-2.889-.564-5.783-1.155a76.988,76.988,0,0,1-22.82,20.6,54.523,54.523,0,0,1,14.937-22.249c-1.214-.26-2.422-.521-3.635-.785a101.477,101.477,0,0,1-16.938,11.391,60.645,60.645,0,0,1,9.717-12.985q-5.39-1.2-10.783-2.438-1.851.941-3.745,1.832.846-1.151,1.711-2.3l-2.168-.495c-19.132-4.369-38.225-8.739-57.22-11.771.126,2.583.093,5.177-.025,7.774-.066,1.452-.259,2.9-.459,4.348a7.681,7.681,0,0,1-1.572,3.516.357.357,0,0,1-.489.039c-.292-.254-.526-.449-.732-.663-1.5-1.556-2.891-3.177-4.487-4.669a43.517,43.517,0,0,0-11.98-7.9,67.264,67.264,0,0,0-10.616-3.32,10.958,10.958,0,0,0-2.429-.29c-.4-.012-1.066.144-1.166.352a1.009,1.009,0,0,0,.293,1.022,8.055,8.055,0,0,0,1.923,1.3c4,1.883,8.051,3.7,12.051,5.585a50.446,50.446,0,0,1,12.489,7.934c2.055,1.86,3.33,3.962,2.808,6.461a10.918,10.918,0,0,1-1.278,2.879c-1.429,2.6-2.863,5.19-4.348,7.767a11.921,11.921,0,0,1,2.822,1.489,14.9,14.9,0,0,1-5.07,2.014c-.21.265-.425.529-.638.793a.947.947,0,0,1-1.435-.061l-.239-.387a20.915,20.915,0,0,1-2.144.081c.472,1.987-.406,3.76-2.176,5.145q.434.758.853,1.52a13.131,13.131,0,0,1,7.642-2.885,13.754,13.754,0,0,1,8.626,2.362c-4.166,2.733-10.9,3.176-15.842,1.306,1.385,2.565,2.662,5.159,3.9,7.736a13.2,13.2,0,0,1,7.5-2.765,13.76,13.76,0,0,1,8.628,2.362c-4.117,2.7-10.74,3.164-15.658,1.373q.371.779.741,1.553c1.027,2.156,2.07,4.344,3.165,6.525a13.187,13.187,0,0,1,7.53-2.792,13.754,13.754,0,0,1,8.626,2.362c-4.122,2.705-10.759,3.167-15.683,1.365,1.174,2.3,2.41,4.588,3.752,6.814q.393.652.839,1.352a13.188,13.188,0,0,1,7.526-2.789,13.755,13.755,0,0,1,8.627,2.362c-4.072,2.671-10.595,3.155-15.5,1.431a62.428,62.428,0,0,0,5.736,7.38,12.961,12.961,0,0,1,7.951-3.162,13.764,13.764,0,0,1,8.628,2.362c-4.292,2.814-11.3,3.2-16.274,1.134a52.864,52.864,0,0,0,8.333,7.363,13.1,13.1,0,0,1,7.7-2.938,13.758,13.758,0,0,1,8.627,2.362c-3.847,2.524-9.882,3.094-14.671,1.7a43.737,43.737,0,0,0,10.2,4.87,14,14,0,0,1,7.792-.376,10.507,10.507,0,0,1,6.61,4.563,14.369,14.369,0,0,1-8.662.929,12.064,12.064,0,0,1-6.33-4.1,44.153,44.153,0,0,1-5.016-1.981,9.946,9.946,0,0,1-3.343,11.968,7.492,7.492,0,0,1-2.152-6.888,9.01,9.01,0,0,1,4.46-5.579,48.049,48.049,0,0,1-8.316-5.3,9.991,9.991,0,0,1-3.542,11.5,7.5,7.5,0,0,1-2.153-6.889,9.027,9.027,0,0,1,4.487-5.593,57.356,57.356,0,0,1-6.949-6.953c.592,3.99-1.689,8.454-5.894,10.71a7.17,7.17,0,0,1-.708-7.066,10.121,10.121,0,0,1,5.53-4.949,64.734,64.734,0,0,1-4.839-6.949l-.121-.2c-.554,4.081-4.235,8.132-9.142,9.56a7.321,7.321,0,0,1,1.543-6.986,12.014,12.014,0,0,1,6.907-3.749c-1.54-2.662-2.942-5.389-4.277-8.11a11.387,11.387,0,0,1-6.526,9.159,7.139,7.139,0,0,1-.3-7.083,10.38,10.38,0,0,1,5.569-4.662q-.549-1.146-1.092-2.285c-.76-1.6-1.526-3.2-2.316-4.812-.8,4.077-4.755,8.014-9.774,9.248a7.441,7.441,0,0,1,2-6.915,12.412,12.412,0,0,1,7.2-3.479c-1.035-2.08-2.116-4.156-3.278-6.2-1.163.783-2.357,1.539-3.566,2.282a14.45,14.45,0,0,1-7.715,4.664q-.026-.118-.048-.237l-.315.141a3.017,3.017,0,0,1-.931.164.3.3,0,0,1-.333-.188,1.5,1.5,0,0,1-.084-.717,12.986,12.986,0,0,0-.614-8.062,13.95,13.95,0,0,1-2.665,1.116A31.122,31.122,0,0,1,494.8,145.3a5.944,5.944,0,0,1-.72,4.275c-.709,1.373-2.19,2.052-3.916,2.489-3.316.838-6.622,1.7-9.95,2.513a26.026,26.026,0,0,1-3.37.581c-.883.094-1.079-.185-.7-.793a15.88,15.88,0,0,0,1.484-14.183c-.6-1.8-1.426-3.559-2.154-5.335-.079-.194-.12-.445-.3-.56-.4-.255-.9-.643-1.306-.611-.742.059-.61.628-.5,1.056.8,3.182,1.822,6.342,2.336,9.551a32.458,32.458,0,0,1,.14,7.483c-.171,2.331-2.044,3.742-5.011,4.217a15.55,15.55,0,0,1-6.426-.389,30.374,30.374,0,0,0-4.188-.808c-2.113-.238-4.254-.328-6.383-.49a2.883,2.883,0,0,1-.5-.121c-.028-.076-.054-.108-.042-.122,1.341-1.785-.16-2.808-1.664-3.885a76.236,76.236,0,0,0-7.452-4.512c-3.682-2.043-4.255-5.075-2.823-8.156,1.85-3.977,5.363-6.994,9.8-9.377,2.031-1.092,4.165-2.068,6.2-3.152a19.594,19.594,0,0,0,2.377-1.607c.177-.13.336-.453.247-.579a1.033,1.033,0,0,0-.748-.228,5.673,5.673,0,0,0-1.411.321,41.25,41.25,0,0,0-13.97,8.617,23.82,23.82,0,0,0-5.058,6.9c-.194.407-.425.8-.648,1.2a1,1,0,0,1-.149.187.359.359,0,0,1-.489.009,17.034,17.034,0,0,1-2.086-2.216,25.971,25.971,0,0,1-2.253-3.993c-1.312-2.914-.479-5.543,2.122-7.835,2.321-2.044,5.223-3.576,7.891-5.318,4.5-2.938,9.916-4.757,14.63-7.418l.376-.214a7.054,7.054,0,0,1-.008-1.074,1.525,1.525,0,0,0-.225.058c-2.011.7-4.03,1.4-5.965,2.219-3.558,1.5-7.124,3-10.563,4.659a25.2,25.2,0,0,0-7,4.7,46.294,46.294,0,0,0-3.578,4.482c-.257.329-.482.673-.744,1.062a.354.354,0,0,1-.528.015,7.527,7.527,0,0,1-1.628-3.472c-.634-3.384-1.132-5.65-1.542-9.053-.528-4.387,2.9-7.932,7.61-9.852a49.757,49.757,0,0,1,16.915-4.069c3.024-.141,6.036-.441,9.053-.684a4.292,4.292,0,0,0,.915-.144q-2.359-1.212-4.691-2.372l-.282,0a45.212,45.212,0,0,0-18.042,4.056c-2.739,1.262-5.289,2.768-7.926,4.165l-.762.4a.336.336,0,0,1-.464-.134,1.569,1.569,0,0,1-.117-.532c.025-.969.033-1.939.053-2.908-.518.171-1.04.345-1.559.522-13.775,4.691-21.6,9.778-41.227,16.293q8.9-.745,17.7-2.035a39.87,39.87,0,0,1-20.484,7.207,43.956,43.956,0,0,1-7.846-.144,25.356,25.356,0,0,0,6.034,6.511,62.38,62.38,0,0,0,10.864,6.469,95.511,95.511,0,0,0,26.066-6.285c-4.145,5.755-11.609,10.01-19.935,11.364a37.622,37.622,0,0,1-7.057.461c3.527,2.075,6.874,4.54,8.784,7.588,3.885-1.245,7.766-2.47,11.674-3.643a62.017,62.017,0,0,1,5.271-6.258q2.336,1.627,4.589,3.448,4.729-1.265,9.57-2.364a33.213,33.213,0,0,1-6.112,5.3c26.31,23.507,42.964,64.845,44.023,84.538l-16.577-2.957,16.964,10.716A65.473,65.473,0,0,1,471,255.38c0,9.255-2.079,20.836-11.049,27.832l-.014-.011c-.689-.3-45.353-20.1-53.6-52.983l7.721-14.1L403.6,221.88a90.42,90.42,0,0,1-3.436-14.513l-6.15-3.389,5.738,10.475a42.122,42.122,0,0,1-8.625,16.29,15.4,15.4,0,0,1,3.584.357,12.071,12.071,0,0,1,7.635,4.99,16.148,16.148,0,0,1-9.734,1.252,14.169,14.169,0,0,1-5.2-2.472,83.307,83.307,0,0,1-10.662,9.065q-.229.2-.471.391l-.031-.031a102.313,102.313,0,0,1-16.331,9.533l-.012.008c-6.666-5.2-8.213-13.806-8.211-20.684a50.522,50.522,0,0,1,.474-6.78,7.987,7.987,0,0,1-.178-6.433,9.668,9.668,0,0,1,2.468-3.43l-1.3.232a47.4,47.4,0,0,1,1.106-7.5c-.691-.971-1.316-1.9-1.876-2.764l-.215-.334c-.4,4.66-4.415,9.394-9.945,11.135a8.192,8.192,0,0,1,1.464-7.915,13.346,13.346,0,0,1,7.731-4.409c-1.874-3.018-3.589-6.115-5.227-9.206a12.59,12.59,0,0,1-7,10.662,8.074,8.074,0,0,1-.614-7.981,11.506,11.506,0,0,1,6.18-5.423q-.664-1.277-1.318-2.544c-.941-1.821-1.888-3.657-2.864-5.493-.67,4.667-5.012,9.279-10.684,10.807a7.708,7.708,0,0,1-.278-2.655,28.128,28.128,0,0,1-19.189-3.938,53.259,53.259,0,0,0,8.136,8.066l2.925-1.306q-.98,1.023-1.979,2.041,1.462,1.109,3.043,2.143a20.1,20.1,0,0,1,11.69,2.034c3.7,1.98,6.229,5.215,6.783,8.669-4.254.656-9.216.342-12.758-1.6a14.2,14.2,0,0,1-6.763-8.348q-1.485-.977-2.865-2.021c-1.319,1.32-2.671,2.622-4.075,3.885a18.565,18.565,0,0,1-10.346,9.862,10.581,10.581,0,0,1-.673-1.846q-.277.153-.556.3a42.167,42.167,0,0,1-19.5,5.1,32.257,32.257,0,0,1-6.044-.557l26.754-11.946a11.4,11.4,0,0,1,.841-1.512,16.639,16.639,0,0,1,9.774-6.475,56.631,56.631,0,0,1-9.141-10.784c.279,6.2-4.344,12.877-11.435,15.655a10.584,10.584,0,0,1,.818-10.456,16.647,16.647,0,0,1,9.8-6.483,68.493,68.493,0,0,1-6.118-12.684c-1.131,6.057-7,11.924-14.458,13.763a11,11,0,0,1,2.958-10.223,18.418,18.418,0,0,1,10.923-5.18,80.314,80.314,0,0,1-2.944-11.432c-.048-.262-.094-.524-.139-.786-2.891,5.8-10.571,10.55-18.527,10.926a12.544,12.544,0,0,1,6.094-9.351,20.682,20.682,0,0,1,12.2-2.956q-.284-1.771-.518-3.553a13.478,13.478,0,0,1-3.585,2.685,8.083,8.083,0,0,1-.762-7.651,21.75,21.75,0,0,1-11.331,6.353,10.25,10.25,0,0,1,.393-5.231q-.449.278-.926.525a8.08,8.08,0,0,1-.614-7.983,9.63,9.63,0,0,1,2.006-2.747q-2.258-.405-4.466-.9-1.094.116-2.2.125.043-.31.106-.618a114.723,114.723,0,0,1-18.361-6.278,313.473,313.473,0,0,0,11.673,55.818q2.1.862,4.248,1.667a14.647,14.647,0,0,1-3.118,1.965q.816,2.569,1.7,5.189a310.294,310.294,0,0,0,15.579,37.823c17.691-1.076,38.559-3.075,55.1-7.9-6.758,5.879-16.092,9.947-26.086,11.371A58.787,58.787,0,0,1,284.83,233.2,300.459,300.459,0,0,0,300.6,261.3a406.374,406.374,0,0,0,59.065-4.288c-7.793,5.738-18.122,9.373-28.829,10.143a60.377,60.377,0,0,1-30-5.49,289.135,289.135,0,0,0,17.683,24.8c20.715.15,43.549-2.451,61.746-10.09-5.833,8.1-16.339,14.089-28.057,15.994-11.492,1.868-23.957-.223-33.436-5.587a280.115,280.115,0,0,0,34.719,36.293,510.146,510.146,0,0,1,48.865,34.664C358.929,352.943,351.519,327.389,350.442,322.07ZM1948.82,288.162a18.969,18.969,0,0,1,7.593-3.3,36.091,36.091,0,0,1-1.467-5.281,27.161,27.161,0,0,1-3.4.21,29.806,29.806,0,0,1-4.865-.4c-.551,1.435-1.133,2.836-1.745,4.193Q1946.927,285.853,1948.82,288.162Zm-9.342-10.625q-.017-.179-.033-.358-.275-.13-.545-.265Zm14.835-3.209a35.128,35.128,0,0,1,4.963-19.589,82.008,82.008,0,0,1-6.151-6.022,97.266,97.266,0,0,1-4.109,23.827A19.752,19.752,0,0,1,1954.313,274.327Zm-20.763-3.1q1.355,1.434,2.723,2.884a19.33,19.33,0,0,1,3.034-1.122,30.727,30.727,0,0,1,.8-6.593c-.847.071-1.7.106-2.554.106a30.689,30.689,0,0,1-3.7-.223q-1.139,1.411-2.349,2.786Q1932.53,270.147,1933.55,271.224Zm-4.376-4.642q.149-.6.318-1.187c-.714-.207-1.41-.444-2.083-.71Q1928.29,265.636,1929.174,266.582Zm-2.718-2.93a17.215,17.215,0,0,1,4.614-2.737,43.875,43.875,0,0,1,5.1-8.948,25.785,25.785,0,0,1-5.087,1.359,71.246,71.246,0,0,1-6.964,7.755Q1925.281,262.373,1926.456,263.651Zm16.281-3.9a36.329,36.329,0,0,1,9.885-11.588,74.612,74.612,0,0,1-5.3-6.592,73.456,73.456,0,0,1-8.476,17.828h.036A21.481,21.481,0,0,1,1942.737,259.75Zm-22.836-.665c.068-.2.138-.4.209-.592l-.094-.109Q1919.969,258.734,1919.9,259.085Zm.735-1.986q.726-1.835,1.609-3.631a26.147,26.147,0,0,1-5.718-1.385Q1918.515,254.622,1920.636,257.1Zm17.7-7.861a52.166,52.166,0,0,1,8.695-8.074,66.933,66.933,0,0,1-5.292-8.895,58.306,58.306,0,0,1-6.767,15.452A18.718,18.718,0,0,1,1938.337,249.238Zm-19.371-.514a20.5,20.5,0,0,1,7.281-2.043,61.987,61.987,0,0,1,15.141-15.137q-1.13-2.372-2.041-4.8-.563-1.5-1.038-3.021a75.11,75.11,0,0,1-8.658,13.746,15.763,15.763,0,0,1,2.051,1.437,20.9,20.9,0,0,1-4.892,1.974A88.158,88.158,0,0,1,1918.966,248.723Zm-8.5-5.184q1.532,2.426,3.241,4.788a58.208,58.208,0,0,1,4.129-6.542,27.28,27.28,0,0,1-9.739-2.231Q1909.217,241.567,1910.462,243.539Zm-3.85-6.756c1.183-2.012,2.439-4,3.807-5.929q-1.267-1.141-2.4-2.362a24.24,24.24,0,0,1-5.877-1.954A91.768,91.768,0,0,0,1906.612,236.784Zm6.682-1.15a21.1,21.1,0,0,1,10.106-.5,73.315,73.315,0,0,1,14.786-11.816,57.664,57.664,0,0,1-2.228-11.058,99.321,99.321,0,0,1-10.691,12.837,15.464,15.464,0,0,1,1.3.941,20.235,20.235,0,0,1-4.079,1.787A113.534,113.534,0,0,1,1913.294,235.634ZM1911.037,230q.365-.5.741-.993-.632-.045-1.26-.117Q1910.773,229.443,1911.037,230Zm-9.029-3.828a16.235,16.235,0,0,1,2.687-1.8,40.915,40.915,0,0,1-5-9.805q-.476.333-.97.65A105.277,105.277,0,0,0,1902.008,226.168Zm-56-1.716a21.565,21.565,0,0,1,12.5-1.35q-.1-.84-.189-1.678-.042-.418-.08-.836a49.5,49.5,0,0,1-3.1-5.84,24.84,24.84,0,0,1-8.881,4.759Q1846.1,221.976,1846.007,224.452Zm62.13-1.51a21.06,21.06,0,0,1,9.646-.658,45.639,45.639,0,0,1,18.118-10.616q-.125-1.383-.184-2.77a157.4,157.4,0,0,1-16.979-.332q.011.754.036,1.508a16.631,16.631,0,0,1,3.171,1.959,19.329,19.329,0,0,1-2.982,1.439q.087,1.118.205,2.235-.617-.933-1.176-1.887a28.229,28.229,0,0,1-8.821,1.358,30.833,30.833,0,0,1-3.243-.17A66.322,66.322,0,0,0,1908.137,222.942Zm-70.579-3.256a14.056,14.056,0,0,1,6.713-7.192q-.152-2.807-.179-5.616-.1-.281-.2-.561a23.607,23.607,0,0,1-4.848.163,12.131,12.131,0,0,1,3.218-5.312,68.992,68.992,0,0,1-1.827-8.9l-1.013-.274a65.856,65.856,0,0,1-2.984,8.291,45.277,45.277,0,0,1-7.587,11.811A39.989,39.989,0,0,1,1837.558,219.686ZM359.414,218.373l1.573-.993q-.839-.875-1.618-1.747l-.079.014A10.021,10.021,0,0,1,359.414,218.373Zm2.684-1.7.92-.581a12.866,12.866,0,0,1,2.414-1.545l-4.557.813Q361.47,216.019,362.1,216.677Zm1497.448-.911a21.581,21.581,0,0,1,6.871-.969,74.463,74.463,0,0,1-4.326-9.824,17.091,17.091,0,0,1-2-1.814,82.753,82.753,0,0,0-.7,11.917C1859.438,215.307,1859.491,215.536,1859.546,215.766Zm-200.369-2.883c5.391-2.21,10.192-4.048,10.192-4.048l4.513,2.706-2.509-4.37c.784-.4,2-1.155,3.529-2.153a55.726,55.726,0,0,1-11.738-1.463c-1.476-.461-3.89-1.281-6.674-2.249A88.931,88.931,0,0,0,1659.177,212.883Zm187.791-1.547a21.54,21.54,0,0,1,6.408-1.1,52.471,52.471,0,0,1-1.684-6.238,26.771,26.771,0,0,1-4,1.513Q1847.285,208.419,1846.969,211.336Zm50.7-.882q.3-.385.6-.774c-.17-.73-.321-1.462-.455-2.193q-.151-.82-.275-1.642l-.725-.13Q1897.193,208.087,1897.666,210.454Zm-75.778-1.791a25.844,25.844,0,0,1,3.574,1.487,63.4,63.4,0,0,0,8.721-19.592l-2.149-.6q-.249,2.541-.248,5.093a47.388,47.388,0,0,1-1.721-5.644q-2.8-.786-5.6-1.582a59.058,59.058,0,0,1-15.7,14.218A53.289,53.289,0,0,0,1821.888,208.663Zm64.394,1.3a19.7,19.7,0,0,1,9.232-3.329q-.1-.6-.2-1.2-3.659-.68-7.382-1.464Q1887.235,206.993,1886.282,209.967Zm29.25-1.1c-.08-.195-.159-.389-.236-.585q-4.187-.386-8.389-.962-.406.564-.836,1.116a21.107,21.107,0,0,1,3.34-.339c.144,0,.288,0,.432,0A21.391,21.391,0,0,1,1915.532,208.868Zm-57.381-.761a91.551,91.551,0,0,1,1.139-9.205q-.3.293-.6.582.293-.63.575-1.266a16.951,16.951,0,0,1-1.7,1.846A73.539,73.539,0,0,0,1858.151,208.107ZM353.667,205.975q.471.728,1,1.512c.626-2.536,1.434-5.255,2.417-8.094a21.653,21.653,0,0,1-7.961-1.089C350.553,200.9,352.05,203.473,353.667,205.975Zm1527.2.742q.48-.669.942-1.348-.868.32-1.771.567Q1880.468,206.315,1880.863,206.717Zm-76.6-7.694-1.293,6.652,3.143-3a34.2,34.2,0,0,1-4.433-13.077,62.69,62.69,0,0,0-.091,7.914A17.354,17.354,0,0,0,1804.26,199.023Zm-66.729,4.134c.23.64.462,1.327.687,2.057.6-1.073,1.216-2.065,1.806-2.953a13.976,13.976,0,0,1-2.126-1.687A22.53,22.53,0,0,1,1737.531,203.157Zm135.815-.811a18.176,18.176,0,0,1,5.617,2.734,10.193,10.193,0,0,1,.128-2.954l-.065-.121q-3.5-.81-7.085-1.685-.091.82-.137,1.642Q1872.587,202.125,1873.346,202.346Zm-13.209.43q.539-.2,1.1-.365-.367-1.168-.693-2.342Q1860.319,201.421,1860.137,202.776Zm4.044-1.018a22.3,22.3,0,0,1,4.777-.183q-.277-1.049-.495-2.108c-1.505-.372-3.02-.751-4.555-1.136Q1864,200.047,1864.181,201.758Zm-57.612-13.875a34.423,34.423,0,0,0,1.662,13.253,58.546,58.546,0,0,0,7.819-9.205,22.787,22.787,0,0,1-1.2-6.854q-3.715-1.07-7.429-2.145A27.366,27.366,0,0,0,1806.569,187.883ZM315.616,198.56l1.679-.75q-.862-.7-1.682-1.416A12.029,12.029,0,0,1,315.616,198.56Zm29.154-8.514c1.249,2.417,2.516,4.872,3.844,7.317a14.629,14.629,0,0,1,8.45-3.385,16.206,16.206,0,0,1,2.065-.026,127.994,127.994,0,0,1,6.248-13.217,41.388,41.388,0,0,1-8.019.789h-.044q5.04-3.67,10.072-7.267a27.733,27.733,0,0,0-.653-5c-.64-2.932-1.625-5.812-2.512-8.706q-.621.4-1.265.785a41.75,41.75,0,0,1-6.161,2.985c-2.473,3.288-5.192,6.508-6.654,10.042a14.889,14.889,0,0,1,6.368,2.358c-4.627,3.2-12.288,3.848-17.942,1.8,1.686,2.894,3.246,5.826,4.762,8.738a14.651,14.651,0,0,1,8.414-3.353,15.674,15.674,0,0,1,9.823,2.46c-4.568,3.165-12.094,3.832-17.726,1.877Zm1396.71,7.148q-.008-1.912.022-3.824a11.885,11.885,0,0,1-2.279-2.678l-.162.252-1.267,4.436q.029.242.054.493A12.735,12.735,0,0,1,1741.48,197.194Zm107.575-.058c.536-.171,1.084-.321,1.639-.449q-.062-.868-.1-1.737l-1.067-.275Q1849.284,195.9,1849.055,197.136ZM1795,191.3q-.674-2.847-1.092-5.716-.686,1.22-1.45,2.41C1793.2,189.038,1794.051,190.167,1795,191.3Zm-116.187-.755,1.188-6.111q-1.2,1.588-2.557,3.09ZM322.152,186.058a18.8,18.8,0,0,1,8.429,3.726,9.367,9.367,0,0,1,1.3-1.858,13.788,13.788,0,0,1,8.08-4.108c-1.714-3.182-3.522-6.358-5.527-9.446-.788,4.655-5.246,9.2-10.955,10.641a8.116,8.116,0,0,1,1.106-6.424,28.176,28.176,0,0,1-20.689-2.855,18.444,18.444,0,0,1-2.452-1.748,21.3,21.3,0,0,1,13.289-1.939,20.064,20.064,0,0,1,2.26.538,8.693,8.693,0,0,1,1.864-4.068,13.4,13.4,0,0,1,7.722-4.355,88.562,88.562,0,0,0-7.655-7.367,10.414,10.414,0,0,1-1.428,4.965,14.1,14.1,0,0,1,2.961,2.914,23.631,23.631,0,0,1-6.421,1.126,15.675,15.675,0,0,1-5.4,2.849,7.776,7.776,0,0,1-.352-3.188,25.74,25.74,0,0,1-10.948-4.27,69.32,69.32,0,0,0,11.972,26.575,21.008,21.008,0,0,1,9.133-2.032A21.225,21.225,0,0,1,322.152,186.058Zm1411.525,3.691q1.551-2.7,3.036-5.59a18.586,18.586,0,0,1-6.087,1.228q-2,2.14-4.056,4.164a13.313,13.313,0,0,1,2.1-.336c.353-.028.708-.042,1.063-.042A13.825,13.825,0,0,1,1733.677,189.749Zm24.276-.61a27.861,27.861,0,0,1-.536-6.225q-1.9-4.776-3.5-9.823a69.222,69.222,0,0,0-1.109,12.02A21.2,21.2,0,0,1,1757.953,189.139Zm-16.309-.741q.035-.853.078-1.705-.465.762-.933,1.517Q1741.221,188.29,1741.643,188.4Zm44.706-8.216-.559,7.313,3.465-4.5s.492.9,1.372,2.288a51.439,51.439,0,0,0,.986-6.886q-3.8-1.078-7.6-2.137-.259.67-.5,1.345Zm-39.225,6.745.078-.126-.063-.029Zm-130.173-.435q1.558-1.755,3.015-3.56a13.165,13.165,0,0,1-3.507-4.069Q1616.527,182.689,1616.952,186.492Zm38.58-.155a26.751,26.751,0,0,1,4.615-.109q.72.051,1.432.075-1.349-1.338-2.548-2.758Q1657.335,184.981,1655.531,186.337Zm18.92-1.25a65.725,65.725,0,0,0,5.142-9.393,76.708,76.708,0,0,1-.2-9.375,46.385,46.385,0,0,1-1.532-8.33l-.591-.018a57.622,57.622,0,0,1-10.178,17.507,67.168,67.168,0,0,1-7.267,7.379q.888,1.752,1.921,3.453A54.379,54.379,0,0,0,1674.452,185.087ZM209.837,143.733c12.75,17.511,31.966,32.149,54.735,41.79a313.509,313.509,0,0,1-11.5-55.786c-22.032-9.923-40.89-25.538-61.212-38.708C191.983,109.392,198.187,127.731,209.837,143.733ZM1680.41,183.88l.294-.019c-.019-.1-.039-.2-.058-.306Q1680.528,183.718,1680.41,183.88Zm6.8-13.358a91.224,91.224,0,0,0-1.46,12.254,39.263,39.263,0,0,0,6.463-2.916,69.067,69.067,0,0,1-3.238-15.278C1688.468,166.577,1687.887,168.559,1687.212,170.522Zm49.856,11.331q.255-2.112.327-4.235-1.429,1.758-2.89,3.45A13.143,13.143,0,0,1,1737.068,181.853Zm-101.4-5.9c2.417,2.46,6.923,3.594,10.686,2.743q-.086-2.147-.072-4.3-.5-1.354-.94-2.716a25.189,25.189,0,0,1-11.748,1.253A12.936,12.936,0,0,0,1635.665,175.949ZM338.117,177.755a14.57,14.57,0,0,1,8.571-3.494,16.1,16.1,0,0,1,1.681-.041,12.621,12.621,0,0,1,1.419-6.013c.323-.688.69-1.361,1.083-2.026q-.877.214-1.766.4.5.278.955.592c-3.379,2.341-8.375,3.315-13.026,2.874A23.949,23.949,0,0,0,335.6,172.2a10.109,10.109,0,0,1-.184-2.369,19.324,19.324,0,0,1-3.067-.777A93.887,93.887,0,0,1,338.117,177.755Zm-12.931,0q.227-.283.479-.554a13.933,13.933,0,0,1,8.022-3.96c-1.264-1.885-2.606-3.732-4.052-5.528q-1.085-1.346-2.243-2.649c-.223,3.524-2.545,7.114-6.042,9.444A15.153,15.153,0,0,1,325.186,177.753Zm1331.174-4.118q.227.927.5,1.848a73.07,73.07,0,0,0,7.183-11.9,22.963,22.963,0,0,1-.285-5.22q-.1-.3-.191-.6-1.65,0-3.3.01A90.678,90.678,0,0,0,1656.36,173.635Zm69.164-.81q.253-.209.5-.421a20.456,20.456,0,0,1-.524-8.1q.112-.81.291-1.612l-.633-.107a33.7,33.7,0,0,0-3.472,8.239A22.38,22.38,0,0,1,1725.524,172.825ZM370.773,170.48q.027.623.015,1.248,1.688-2.548,3.516-5c-1.6-3.358-3.419-6.675-5.153-10q-.441.41-.9.807C369.242,161.839,370.583,166.113,370.773,170.48Zm1337.572.961.125-.046-.055-.253Zm4.34-2.534q-.006.465-.006.931l.569-.211a16.107,16.107,0,0,1,3.388-.043,38.4,38.4,0,0,1,.125-6.97A45.885,45.885,0,0,1,1712.686,168.908Zm17.221-.232q.226-.246.448-.5c-.117.005-.234.009-.351.012Q1729.952,168.435,1729.906,168.675Zm-36.345-.248q.468-4.779,1.3-9.532l-.1-.007A64.3,64.3,0,0,0,1693.562,168.427Zm-1362.712-1.3q.425.526.838,1.059a13.417,13.417,0,0,1,4.724-2.7,20.83,20.83,0,0,1,2.33-4.155,22.588,22.588,0,0,1-13.208-.136A77.442,77.442,0,0,1,330.85,167.124Zm71.611-.281a64.828,64.828,0,0,1,4.663-10.993,51.889,51.889,0,0,1-9.252.838h-.159A47.354,47.354,0,0,1,402.461,166.842Zm1199.45-.528c1.756-.082,3.526-.219,5.294-.4a28.515,28.515,0,0,1-.651-3.226,14.193,14.193,0,0,1-2.777-2.2l-2.1.163Q1601.675,163.479,1601.911,166.314Zm-8.44-.116q.061-2.465.269-4.924-3.382.274-6.761.554-.592,1.435-1.258,2.854A38.082,38.082,0,0,0,1593.471,166.2ZM343.761,164.822c4.172-2.132,8.224-4.417,12.192-6.8a29.592,29.592,0,0,0,2.771-8.236c-.274.347-.556.688-.846,1.017-4.471,5.088-10.733,9.194-15.859,13.863A16.591,16.591,0,0,1,343.761,164.822ZM1584.5,164.27q.314-1.137.574-2.283l-.674.056q-.018,1.095,0,2.189ZM374.927,157.323c.837,1.8,1.686,3.633,2.445,5.49q1.384-1.673,2.835-3.269-.509-.615-1.025-1.225c-1.863-2.207-3.788-4.393-5.629-6.615q-.357.508-.738,1.005C373.5,154.263,374.219,155.8,374.927,157.323Zm1268,4.391q-.082-.506-.156-1.013-.279.5-.572.989C1642.444,161.7,1642.687,161.708,1642.929,161.714Zm-11.784-1.247c.727.1,1.452.22,2.176.335q.483-1.137.932-2.283l-.273.013A20.907,20.907,0,0,1,1631.146,160.467Zm-1306.456-.112a14.546,14.546,0,0,1,8.621-3.541,16.237,16.237,0,0,1,7.962,1.405c2.992-3.3,6.535-6.305,9.4-9.682a35.172,35.172,0,0,0,4.553-6.83q-.363.258-.737.506a34.779,34.779,0,0,1-20.885,5.227l.776-.507q-.755.008-1.511-.019,1.3-.283,2.551-.662c5.047-3.308,10.037-6.634,15.032-9.957a21.347,21.347,0,0,0,3.377-6.172c-9.187,2.224-19.9,4.6-32.538,7.138a122.641,122.641,0,0,1-17.316,2.257,23.48,23.48,0,0,1-5.833.174c-.743,0-1.489,0-2.224-.016q3.379,1.893,6.684,3.91a21.632,21.632,0,0,1,4.291.182,15.319,15.319,0,0,1,6.771-2.147,15.666,15.666,0,0,1,9.822,2.461,18.234,18.234,0,0,1-8.4,2.852,14.3,14.3,0,0,1,3.326,3.177,22.634,22.634,0,0,1-4.628.99q.8.595,1.587,1.2a14.56,14.56,0,0,1,8.6-3.52,15.678,15.678,0,0,1,9.823,2.461c-4.406,3.052-11.562,3.781-17.118,2.075A100.106,100.106,0,0,1,324.689,160.356Zm-28.06-2.661q.2,1.1.449,2.3.7-.324,1.433-.594a8.413,8.413,0,0,1,2.06-6.6,11.59,11.59,0,0,1,2.983-2.444,25.871,25.871,0,0,1-6.5-2.582,12.457,12.457,0,0,1-1.487,2.836C295.859,152.98,296.2,155.348,296.629,157.694Zm12.964.745a20.029,20.029,0,0,1,2.523.619,14.609,14.609,0,0,1,6.36-2.646c-2.109-1.788-4.312-3.509-6.588-5.17a28.54,28.54,0,0,1-3-.045,13.575,13.575,0,0,1-5.113,7.02c.7-.067,1.407-.1,2.112-.1A21.172,21.172,0,0,1,309.593,158.44Zm70.37-8.758c1.3,2.024,2.613,4.081,3.828,6.168q.789-.762,1.6-1.5-4.366-4.56-8.29-9.213C378.031,146.671,379,148.185,379.963,149.682Zm-17.5,4.327.1-.065q-.013-.083-.026-.165Q362.5,153.894,362.466,154.008Zm33.194-.334,2.717-.875-5.449-2.47Q394.4,151.97,395.661,153.675Zm-9.314-.179c1.6-1.4,3.238-2.711,4.926-3.917l-5.456-2.472c-3.073-1.392-6.18-2.807-9.062-4.425Q381.265,148.156,386.346,153.5Zm-88.614-9.078a21.331,21.331,0,0,1,2.871-.627q-1.533-.923-3.085-1.819A9.575,9.575,0,0,1,297.732,144.419Zm-5.247-.667q.414-.37.873-.708-.04-.466-.078-.932A14.964,14.964,0,0,1,292.486,143.752Zm2.236-1.585a13.9,13.9,0,0,1,1.721-.813q-.933-.532-1.871-1.054Q294.645,141.232,294.722,142.167Zm-10.234-.567a19,19,0,0,1,4.956-2.235c-1.476-.118-2.928-.265-4.37-.443A11.079,11.079,0,0,1,284.488,141.6Zm208.436-1.422a7.221,7.221,0,0,1,.861-4.534,50.564,50.564,0,0,0-2.845-4.19,14.156,14.156,0,0,1-2.657,1.726A38.481,38.481,0,0,1,492.924,140.178Zm-114.509-3.161a38.071,38.071,0,0,0,4.21,2.861q2.7-.12,5.415-.338a40.861,40.861,0,0,1-14.508-7.763A23.75,23.75,0,0,0,378.415,137.017Zm794.372-5.434c.011.137.011.274.018.411a.794.794,0,0,0,.842.78,1.364,1.364,0,0,0,1.015-.469,17.711,17.711,0,0,0,.886-2.2q-1.388.336-2.823.677Q1172.756,131.183,1172.787,131.583Zm-662.111.214a14.12,14.12,0,0,1,1.637-.372c-.5-.8-1.021-1.588-1.582-2.36q-.133-.183-.269-.366a20.4,20.4,0,0,1-2.153.216Q509.547,130.323,510.677,131.8Zm-24.883-1.766a8.022,8.022,0,0,1,1.638-2.825l.024-.027q-.936-1.071-1.909-2.127c-.573-.624-1.114-1.266-1.695-1.886l-.079-.084a13.832,13.832,0,0,1-1.8,1.567C483.212,126.459,484.437,128.275,485.794,130.03Zm18.543-5.218a14.093,14.093,0,0,1,2.364-.553q-1.5-1.572-3.143-3.058a19.885,19.885,0,0,1-2.918.4Q502.573,123.157,504.337,124.812Zm131.439-.983q1.494-.641,3.039-1.194-2.129-.364-4.261-.748Q635.146,122.864,635.775,123.828Zm372.138-12.836a94.064,94.064,0,0,0,3.409,10.307c2.546-1.029,4.744-2.367,5.791-4.393,2.149-4.163-1.809-8.627-2.4-13.088a8.3,8.3,0,0,1,.014-2.271,59.005,59.005,0,0,1-3.4,5.179q1.5,1.756,3.155,3.423-1.957-1.238-3.753-2.62Q1009.4,109.3,1007.914,110.993Zm-512.362,6.8a13.985,13.985,0,0,1,2.924-.8c-1.087-.827-2.192-1.64-3.294-2.456a19.487,19.487,0,0,1-3.058.5C493.257,115.969,494.386,116.9,495.552,117.8Zm474.814-.607a84.981,84.981,0,0,0,5.184-11.725A42.661,42.661,0,0,1,970.73,91.9c-.271-1.538-.464-3.08-.593-4.623A32.263,32.263,0,0,1,965.5,72.849,83.675,83.675,0,0,0,970.366,117.188ZM1270.982,99.7a34.472,34.472,0,0,0,1.661,13.253,58.322,58.322,0,0,0,7.819-9.205,22.753,22.753,0,0,1-1.166-6.059q-4.131.564-8.252,1.331Q1271.009,99.362,1270.982,99.7Zm-2.044,11.729a33.123,33.123,0,0,1-2.979-11.377q-2,.438-3.989.928A76.221,76.221,0,0,0,1268.938,111.431Zm40.166-6.3q.446-4.561,1.222-9.1l-.111,0A64.244,64.244,0,0,0,1309.1,105.129ZM929.78,85.328a75.977,75.977,0,0,0,2.872,15.705,49.941,49.941,0,0,0-2.568-16.157C929.984,85.028,929.883,85.178,929.78,85.328Zm-468.314,15.26.117-.1a1.505,1.505,0,0,0-1.336-.9q-.493-.069-.991-.129Q460.358,100.021,461.466,100.589Zm544-2.325q.471.871.987,1.727a65.167,65.167,0,0,0,3.517-11.223q-2.53-1.587-5.1-3.11A88.027,88.027,0,0,0,1005.461,98.264ZM897.846,90.23a44.136,44.136,0,0,0,4.694,9.03q1.233-.651,2.419-1.356a55.688,55.688,0,0,1-4.387-5.775q-1.11-1.682-2.066-3.415Q898.19,89.475,897.846,90.23Zm78.638,1.343a61.856,61.856,0,0,0,1.068,7.406,81.188,81.188,0,0,0,2.59-25.306q-1.106-.405-2.226-.791A52.425,52.425,0,0,0,976.485,91.573Zm-112.894,4.59q.377-.8.723-1.6-.147-.278-.289-.558l-.774.373Q863.408,95.273,863.591,96.163Zm154.064-.4a15.639,15.639,0,0,1,1.211-1.189l-.564-.379Q1017.992,94.98,1017.655,95.76Zm-108.331-5.1a109.644,109.644,0,0,0-1.745-12.839c-.5.125-1,.253-1.5.381A54.7,54.7,0,0,0,909.323,90.661Zm8.3-11.749q.275,2.755.335,5.522.159.984.389,1.959.736-.938,1.4-1.909a65.243,65.243,0,0,1-1.579-9l-.213.041A28.411,28.411,0,0,0,917.619,78.913Zm35.936-4.723q.493-1.228,1.1-2.426c-.424.008-.843.016-1.264.026Q953.438,72.991,953.555,74.19Zm993.313,236.4a18.86,18.86,0,0,1,11.857-5.038c-.437,6.625-6.914,13.345-15.137,15.2A11.108,11.108,0,0,1,1946.868,310.59Zm-1595.262-.682a67.487,67.487,0,0,1-12.639-1.173c19.743-6.316,38.927-12.837,59.442-17.45-10.382,11.642-28.614,18.622-46.8,18.623Zm1502.277-7.331c.967-3.514,3.893-6.677,7.878-8.515a21.527,21.527,0,0,1,13.417-1.307c-3.33,5.656-11.632,9.879-19.681,9.879Q1854.688,302.634,1853.884,302.576Z" transform="translate(495.595 -13256) rotate(180)" fill="#0075a9" stroke="rgba(0,0,0,0)" stroke-miterlimit="10" stroke-width="1"/></g></svg>