<svg xmlns="http://www.w3.org/2000/svg" xmlns:xlink="http://www.w3.org/1999/xlink" width="51.484" height="53" viewBox="0 0 51.484 53"><defs><clipPath id="a"><rect width="51.484" height="53" fill="#0075a9"/></clipPath></defs><g clip-path="url(#a)"><path d="M51.455,11.991a.83.83,0,0,1,.029.217V23.584a.829.829,0,0,1-.417.72l-9.548,5.5V40.7a.832.832,0,0,1-.415.72L21.172,52.89a.894.894,0,0,1-.145.06c-.019.006-.036.018-.056.023a.832.832,0,0,1-.425,0c-.023-.006-.043-.019-.065-.027a.851.851,0,0,1-.137-.056L.417,41.416A.83.83,0,0,1,0,40.7V6.568A.848.848,0,0,1,.029,6.35C.035,6.326.05,6.3.058,6.281a.814.814,0,0,1,.053-.129.745.745,0,0,1,.057-.074.807.807,0,0,1,.074-.1A.782.782,0,0,1,.324,5.92a.657.657,0,0,1,.091-.072h0L10.38.112a.831.831,0,0,1,.829,0l9.964,5.737h0a1.015,1.015,0,0,1,.091.07,1.015,1.015,0,0,1,.081.062.975.975,0,0,1,.075.1.765.765,0,0,1,.056.074.84.84,0,0,1,.054.129c.008.024.023.046.029.07a.84.84,0,0,1,.029.217V27.885l8.3-4.781v-10.9a.838.838,0,0,1,.029-.216c.007-.025.021-.047.029-.07a.955.955,0,0,1,.054-.129c.016-.027.038-.049.056-.074a.859.859,0,0,1,.075-.1.792.792,0,0,1,.081-.062.862.862,0,0,1,.091-.071h0l9.965-5.737a.831.831,0,0,1,.83,0l9.964,5.737a.943.943,0,0,1,.093.07c.026.021.056.039.08.062a.974.974,0,0,1,.075.1.647.647,0,0,1,.056.074.841.841,0,0,1,.054.129.6.6,0,0,1,.029.07M49.823,23.1v-9.46l-3.487,2.007-4.817,2.773v9.46L49.824,23.1ZM39.859,40.217V30.75L35.12,33.457,21.589,41.179v9.555ZM1.661,8V40.217L19.928,50.734V41.18l-9.543-5.4,0,0,0,0a56.878,56.878,0,0,0-.168-.129l0,0a.754.754,0,0,1-.068-.087.887.887,0,0,1-.062-.081v0a.663.663,0,0,1-.043-.1.6.6,0,0,1-.039-.093h0a.792.792,0,0,1-.017-.121.747.747,0,0,1-.012-.093V12.785L5.148,10.01,1.661,8.005ZM10.8,1.789l-8.3,4.779,8.3,4.779,8.3-4.78-8.3-4.778Zm4.317,29.824,4.816-2.772V8l-3.487,2.007-4.817,2.773V33.621ZM40.689,7.429l-8.3,4.779,8.3,4.779,8.3-4.78Zm-.831,11-4.817-2.773-3.487-2.007V23.1l4.816,2.772,3.488,2.008Zm-19.1,21.319,12.176-6.951,6.086-3.473-8.295-4.776-9.55,5.5-8.7,5.011Z" transform="translate(0 -0.001)" fill="#0075a9"/></g></svg>