<svg xmlns="http://www.w3.org/2000/svg" width="192.301" height="56.374" viewBox="0 0 192.301 56.374">
  <g id="Grupo_1723" data-name="Grupo 1723" transform="translate(-18 -13)">
    <g id="Grupo_1720" data-name="Grupo 1720" transform="translate(18 13)">
      <g id="Grupo_1718" data-name="Grupo 1718" transform="translate(53.351 7.516)">
        <g id="Grupo_1717" data-name="Grupo 1717">
          <path id="Trazado_3622" data-name="Trazado 3622" d="M548.525,165.5a7.889,7.889,0,1,1-3.63-14.85,8.185,8.185,0,0,1,3.65.82,1.762,1.762,0,0,0,.76.18,1.872,1.872,0,0,0,1.84-1.86,9.532,9.532,0,0,0-6.81-2.63,11.33,11.33,0,0,0,0,22.66,10.351,10.351,0,0,0,3.82-.7,9.219,9.219,0,0,0,2.99-1.93A1.842,1.842,0,0,0,548.525,165.5Z" transform="translate(-533.055 -147.158)" fill="#fff"/>
          <path id="Trazado_3623" data-name="Trazado 3623" d="M554.115,147.588v21.79a3.7,3.7,0,0,0,3.7-3.7v-18.09Z" transform="translate(-533.055 -147.158)" fill="#fff"/>
          <path id="Trazado_3624" data-name="Trazado 3624" d="M574.055,147.158a11.11,11.11,0,0,0-8.57,4.22l-.17-3.79h-3.49v21.79h3.7v-11.11c0-3.1,2.07-7.62,7.24-7.62,3.36,0,5.69,2.06,5.69,7.53v11.2h3.7v-12.75C582.155,150.468,579.095,147.158,574.055,147.158Z" transform="translate(-533.055 -147.158)" fill="#fff"/>
          <path id="Trazado_3625" data-name="Trazado 3625" d="M605.975,158.7c0-6.16-4.22-11.54-10.9-11.54-6.46,0-10.9,5.08-10.9,11.2,0,6.59,4.66,11.46,11.25,11.46a10.106,10.106,0,0,0,9.95-6.77l-3.28-.43a7.091,7.091,0,0,1-6.67,3.88c-4.48,0-7.41-2.89-7.54-6.85h18.09Zm-18.09-1.72a6.893,6.893,0,0,1,7.19-6.51,6.964,6.964,0,0,1,7.2,6.51Z" transform="translate(-533.055 -147.158)" fill="#fff"/>
          <path id="Trazado_3626" data-name="Trazado 3626" d="M617.215,147.158c-2.02,0-3.7,1.33-5.04,3.19l-.17-2.76h-3.49v21.79h3.71v-10.85c0-4.09,1.42-7.88,4.78-7.88a4.168,4.168,0,0,1,2.32.69l.65-3.23A4.128,4.128,0,0,0,617.215,147.158Z" transform="translate(-533.055 -147.158)" fill="#fff"/>
          <path id="Trazado_3627" data-name="Trazado 3627" d="M628.845,165.848c-2.63,0-4.22-.34-4.22-1.46,0-.56.47-1.04,1.25-1.38a10.143,10.143,0,0,0,3.27.52c5.09,0,9.01-3.54,9.01-8.19a7.563,7.563,0,0,0-1.55-4.65l2.54.22a3.03,3.03,0,0,0-3.31-3.02l-2.38.22a10.082,10.082,0,0,0-4.31-.95c-5.12,0-9,3.49-9,8.18a7.8,7.8,0,0,0,3.49,6.55c-1.25.6-2.5,1.64-2.5,3.1a3.318,3.318,0,0,0,1.98,2.8,5.768,5.768,0,0,0-2.97,5,1.547,1.547,0,0,0,.01.22h3.5a1.563,1.563,0,0,1-.02-.31c0-1.68,1.64-3.19,2.97-3.79.43.04.82.09,1.25.09,4.57,0,7.84.99,7.84,3.83a1.086,1.086,0,0,1-.01.18h3.49a1.547,1.547,0,0,0,.01-.22C639.185,168.568,635.3,165.848,628.845,165.848Zm.3-15.59a5.075,5.075,0,1,1,0,10.12,5.078,5.078,0,1,1,0-10.12Z" transform="translate(-533.055 -147.158)" fill="#fff"/>
          <path id="Trazado_3628" data-name="Trazado 3628" d="M641.595,147.588v21.79a3.7,3.7,0,0,0,3.71-3.7v-18.09Z" transform="translate(-533.055 -147.158)" fill="#fff"/>
          <path id="Trazado_3629" data-name="Trazado 3629" d="M668.475,147.588l-.17,4.95a9.531,9.531,0,0,0-8.79-5.38,11.334,11.334,0,0,0,0,22.66,9.539,9.539,0,0,0,8.79-5.39l.17,4.95a3.529,3.529,0,0,0,3.53-3.53v-18.26Zm-8.4,18.74a7.84,7.84,0,1,1,0-15.68,7.84,7.84,0,1,1,0,15.68Z" transform="translate(-533.055 -147.158)" fill="#fff"/>
        </g>
      </g>
      <text id="ESTUDIO_CREATIVO" data-name="ESTUDIO CREATIVO" transform="translate(189.9 44.153)" fill="#fff" font-size="9.006" font-family="Montserrat-Light, Montserrat" font-weight="300" letter-spacing="0.32em"><tspan x="-132.881" y="0">ESTUDIO CREATIVO</tspan></text>
      <g id="Grupo_1719" data-name="Grupo 1719">
        <path id="Trazado_3630" data-name="Trazado 3630" d="M494,141.714a21.542,21.542,0,0,0-3.611,1.843,22.691,22.691,0,0,1,11.89-3.9,21.608,21.608,0,0,0-8.532,1.445,22.132,22.132,0,0,0,0,41.2,21.622,21.622,0,0,0,8.531,1.446,22.679,22.679,0,0,1-11.963-3.943A21.412,21.412,0,0,0,494,181.689a20.972,20.972,0,0,0,8.278,1.4,22.01,22.01,0,0,1-11.6-3.831,20.811,20.811,0,0,0,3.57,1.824,20.291,20.291,0,0,0,8.025,1.345,21.353,21.353,0,0,1-11.228-3.719,20.191,20.191,0,0,0,3.456,1.763,19.627,19.627,0,0,0,7.772,1.294,20.685,20.685,0,0,1-10.862-3.609,19.4,19.4,0,0,0,3.343,1.7,18.964,18.964,0,0,0,7.519,1.244,20.023,20.023,0,0,1-10.5-3.5,18.8,18.8,0,0,0,3.233,1.644,18.309,18.309,0,0,0,7.265,1.193,19.366,19.366,0,0,1-10.129-3.386,18.109,18.109,0,0,0,3.117,1.581,17.628,17.628,0,0,0,7.012,1.143,18.7,18.7,0,0,1-9.763-3.276,17.435,17.435,0,0,0,3,1.522,16.978,16.978,0,0,0,6.759,1.092,18.024,18.024,0,0,1-9.4-3.166,16.7,16.7,0,0,0,2.892,1.462,16.318,16.318,0,0,0,6.506,1.042,17.375,17.375,0,0,1-9.033-3.055,16.14,16.14,0,0,0,2.781,1.4,15.646,15.646,0,0,0,6.252.991,16.707,16.707,0,0,1-8.665-2.943,15.547,15.547,0,0,0,2.666,1.341,14.98,14.98,0,0,0,6,.94,16.047,16.047,0,0,1-8.3-2.834,14.819,14.819,0,0,0,2.555,1.282,14.317,14.317,0,0,0,5.746.89,15.387,15.387,0,0,1-7.937-2.724,14.163,14.163,0,0,0,2.444,1.223,13.672,13.672,0,0,0,5.493.839,14.737,14.737,0,0,1-7.57-2.612,13.512,13.512,0,0,0,2.331,1.161,13,13,0,0,0,5.239.789,14.065,14.065,0,0,1-7.206-2.5,12.787,12.787,0,0,0,2.22,1.1,12.335,12.335,0,0,0,4.986.738,13.4,13.4,0,0,1-6.84-2.392,12.174,12.174,0,0,0,2.107,1.042,11.672,11.672,0,0,0,4.733.688,12.746,12.746,0,0,1-6.476-2.282,11.518,11.518,0,0,0,2,.983,11.009,11.009,0,0,0,4.48.637,12.079,12.079,0,0,1-6.111-2.172,10.89,10.89,0,0,0,1.884.924,10.362,10.362,0,0,0,4.227.586,11.244,11.244,0,0,1-7.341-3.449,10.676,10.676,0,0,1,0-14.68,11.246,11.246,0,0,1,7.34-3.451,10.361,10.361,0,0,0-4.227.585,10.938,10.938,0,0,0-1.848.9,12.093,12.093,0,0,1,6.075-2.151,11.006,11.006,0,0,0-4.48.636,11.5,11.5,0,0,0-1.958.962,12.751,12.751,0,0,1,6.438-2.26,11.679,11.679,0,0,0-4.734.687,12.174,12.174,0,0,0-2.067,1.02,13.422,13.422,0,0,1,6.8-2.369,12.342,12.342,0,0,0-4.987.737,12.916,12.916,0,0,0-2.176,1.078,14.075,14.075,0,0,1,7.163-2.477,12.988,12.988,0,0,0-5.24.788,13.5,13.5,0,0,0-2.287,1.137,14.736,14.736,0,0,1,7.527-2.587,13.669,13.669,0,0,0-5.493.838,14.281,14.281,0,0,0-2.4,1.195,15.408,15.408,0,0,1,7.889-2.695,14.333,14.333,0,0,0-5.746.889,14.824,14.824,0,0,0-2.507,1.254,16.059,16.059,0,0,1,8.253-2.8,15,15,0,0,0-6,.939,15.572,15.572,0,0,0-2.616,1.313,16.724,16.724,0,0,1,8.616-2.914,15.653,15.653,0,0,0-6.253.99,16.137,16.137,0,0,0-2.726,1.371,17.384,17.384,0,0,1,8.979-3.023,16.314,16.314,0,0,0-6.506,1.04,16.943,16.943,0,0,0-2.837,1.43,18.058,18.058,0,0,1,9.343-3.132,16.978,16.978,0,0,0-6.759,1.091,17.479,17.479,0,0,0-2.947,1.489,18.716,18.716,0,0,1,9.706-3.242,17.652,17.652,0,0,0-7.013,1.141,18.238,18.238,0,0,0-3.057,1.548,19.376,19.376,0,0,1,10.07-3.351,18.3,18.3,0,0,0-7.266,1.192,18.816,18.816,0,0,0-3.168,1.607,20.04,20.04,0,0,1,10.434-3.461,18.96,18.96,0,0,0-7.519,1.243,19.458,19.458,0,0,0-3.278,1.665,20.691,20.691,0,0,1,10.8-3.57,19.644,19.644,0,0,0-7.772,1.293,20.106,20.106,0,0,0-3.388,1.724,21.356,21.356,0,0,1,11.16-3.679,20.3,20.3,0,0,0-8.026,1.344,20.858,20.858,0,0,0-3.5,1.782,22.031,22.031,0,0,1,11.524-3.788A20.961,20.961,0,0,0,494,141.714Z" transform="translate(-479.704 -139.642)" fill="#fff"/>
        <path id="Trazado_3631" data-name="Trazado 3631" d="M510.9,193.945a21.544,21.544,0,0,0,3.611-1.843,22.688,22.688,0,0,1-11.889,3.9,21.624,21.624,0,0,0,8.531-1.445,22.132,22.132,0,0,0,0-41.2,21.625,21.625,0,0,0-8.531-1.446,22.678,22.678,0,0,1,11.962,3.943,21.412,21.412,0,0,0-3.685-1.886,20.971,20.971,0,0,0-8.277-1.4,22.007,22.007,0,0,1,11.594,3.831,20.74,20.74,0,0,0-3.57-1.824,20.271,20.271,0,0,0-8.024-1.345,21.353,21.353,0,0,1,11.227,3.719,20.192,20.192,0,0,0-3.456-1.763,19.625,19.625,0,0,0-7.771-1.294,20.685,20.685,0,0,1,10.861,3.609,19.407,19.407,0,0,0-3.343-1.7,18.959,18.959,0,0,0-7.518-1.244,20.023,20.023,0,0,1,10.5,3.5,18.757,18.757,0,0,0-3.233-1.644,18.307,18.307,0,0,0-7.264-1.193,19.365,19.365,0,0,1,10.128,3.386,18.11,18.11,0,0,0-3.117-1.581,17.626,17.626,0,0,0-7.011-1.143,18.7,18.7,0,0,1,9.763,3.276,17.443,17.443,0,0,0-3-1.522,16.976,16.976,0,0,0-6.758-1.092,18.034,18.034,0,0,1,9.4,3.165,16.8,16.8,0,0,0-2.893-1.461,16.313,16.313,0,0,0-6.505-1.042,17.372,17.372,0,0,1,9.032,3.055,16.1,16.1,0,0,0-2.78-1.4,15.652,15.652,0,0,0-6.252-.991,16.707,16.707,0,0,1,8.664,2.943,15.4,15.4,0,0,0-2.666-1.341,14.977,14.977,0,0,0-6-.94,16.041,16.041,0,0,1,8.3,2.834,14.745,14.745,0,0,0-2.555-1.282,14.314,14.314,0,0,0-5.745-.89,15.38,15.38,0,0,1,7.936,2.724,14.162,14.162,0,0,0-2.444-1.223,13.668,13.668,0,0,0-5.492-.839,14.725,14.725,0,0,1,7.569,2.612,13.536,13.536,0,0,0-2.33-1.161,13,13,0,0,0-5.239-.789,14.072,14.072,0,0,1,7.206,2.5,12.8,12.8,0,0,0-2.221-1.1,12.333,12.333,0,0,0-4.985-.738,13.4,13.4,0,0,1,6.839,2.392,12.14,12.14,0,0,0-2.107-1.042,11.668,11.668,0,0,0-4.732-.688,12.746,12.746,0,0,1,6.475,2.282,11.518,11.518,0,0,0-2-.983,11,11,0,0,0-4.479-.637,12.082,12.082,0,0,1,6.111,2.172,10.933,10.933,0,0,0-1.885-.924,10.36,10.36,0,0,0-4.226-.586,11.244,11.244,0,0,1,7.34,3.449,10.676,10.676,0,0,1,0,14.68,11.246,11.246,0,0,1-7.339,3.451,10.357,10.357,0,0,0,4.226-.585,10.9,10.9,0,0,0,1.848-.9,12.093,12.093,0,0,1-6.074,2.151,11,11,0,0,0,4.479-.636,11.467,11.467,0,0,0,1.958-.962,12.751,12.751,0,0,1-6.437,2.26,11.674,11.674,0,0,0,4.733-.687,12.247,12.247,0,0,0,2.067-1.02,13.418,13.418,0,0,1-6.8,2.369,12.339,12.339,0,0,0,4.986-.737,12.879,12.879,0,0,0,2.176-1.078,14.069,14.069,0,0,1-7.162,2.477,12.984,12.984,0,0,0,5.239-.788,13.533,13.533,0,0,0,2.287-1.137,14.735,14.735,0,0,1-7.526,2.587,13.667,13.667,0,0,0,5.492-.838,14.243,14.243,0,0,0,2.4-1.195,15.408,15.408,0,0,1-7.888,2.695,14.338,14.338,0,0,0,5.746-.889,14.859,14.859,0,0,0,2.507-1.254,16.065,16.065,0,0,1-8.253,2.8,15,15,0,0,0,6-.939,15.619,15.619,0,0,0,2.617-1.313,16.731,16.731,0,0,1-8.616,2.914,15.648,15.648,0,0,0,6.252-.99,16.139,16.139,0,0,0,2.726-1.371,17.392,17.392,0,0,1-8.978,3.023,16.312,16.312,0,0,0,6.505-1.04,16.8,16.8,0,0,0,2.837-1.431,18.047,18.047,0,0,1-9.342,3.133,16.984,16.984,0,0,0,6.759-1.091,17.505,17.505,0,0,0,2.946-1.489,18.715,18.715,0,0,1-9.7,3.242,17.633,17.633,0,0,0,7.012-1.142,18.156,18.156,0,0,0,3.057-1.547,19.375,19.375,0,0,1-10.069,3.351,18.314,18.314,0,0,0,7.265-1.192,18.817,18.817,0,0,0,3.168-1.607,20.039,20.039,0,0,1-10.433,3.461,18.975,18.975,0,0,0,7.518-1.243,19.42,19.42,0,0,0,3.278-1.665,20.708,20.708,0,0,1-10.8,3.57,19.649,19.649,0,0,0,7.772-1.293A20.135,20.135,0,0,0,513.78,191a21.365,21.365,0,0,1-11.159,3.679,20.3,20.3,0,0,0,8.025-1.344,20.787,20.787,0,0,0,3.5-1.783,22.023,22.023,0,0,1-11.523,3.789A20.96,20.96,0,0,0,510.9,193.945Z" transform="translate(-479.704 -139.642)" fill="#fff"/>
      </g>
    </g>
  </g>
</svg>
