<svg xmlns="http://www.w3.org/2000/svg" xmlns:xlink="http://www.w3.org/1999/xlink" width="1295.769" height="681.155" viewBox="0 0 1295.769 681.155"><defs><clipPath id="a"><rect width="1295.769" height="681.155" fill="#002c58"/></clipPath></defs><g transform="translate(0 0)" clip-path="url(#a)"><path d="M1179.964,650.933H129.481V18.415C129.481,8.8,137.87,1,148.219,1H1161.226c10.349,0,18.738,7.8,18.738,17.416Z" transform="translate(-2.049 -0.085)" fill="#00214b" stroke="#fff" stroke-linecap="round" stroke-linejoin="round" stroke-width="2"/><path d="M0,0H1294.785V13.629H0Z" transform="translate(0.492 650.844)" fill="#00214b" stroke="#fff" stroke-width="1"/><path d="M749.9,711.794a11.945,11.945,0,0,1-4.4,9.1,16.314,16.314,0,0,1-10.621,3.77H580.392c-8.291,0-15.012-5.766-15.012-12.865h-.733v.959c0,7.1,6.733,12.855,15.024,12.855H735.6c8.3,0,15.024-5.755,15.024-12.855v-.959Z" transform="translate(-8.933 -60.676)" fill="#002c58" stroke="#fff" stroke-miterlimit="10" stroke-width="1"/><path d="M3.84,726.562a.373.373,0,0,0-.1.737,620.685,620.685,0,0,0,137.6,15.333H1156.169a620.685,620.685,0,0,0,137.6-15.333.373.373,0,0,0-.1-.737H3.84Z" transform="translate(-0.054 -61.935)" fill="#00214b" stroke="#fff" stroke-miterlimit="10" stroke-width="1"/></g><g transform="translate(147.752 20.85)"><g transform="translate(0 0)"><ellipse cx="3.677" cy="3.5" rx="3.677" ry="3.5" transform="translate(0 0)" fill="#fff"/><ellipse cx="3.677" cy="3.5" rx="3.677" ry="3.5" transform="translate(13.311 0)" fill="#fff"/><ellipse cx="3.677" cy="3.5" rx="3.677" ry="3.5" transform="translate(27.646 0)" fill="#fff"/></g></g></svg>