<svg xmlns="http://www.w3.org/2000/svg" xmlns:xlink="http://www.w3.org/1999/xlink" width="372" height="350" viewBox="0 0 372 350"><defs><clipPath id="a"><rect width="289.137" height="318.898" transform="translate(0 0)" fill="none"/></clipPath><clipPath id="c"><rect width="5.836" height="2.839" fill="none"/></clipPath><clipPath id="f"><rect width="2.84" height="5.834" fill="none"/></clipPath><clipPath id="i"><rect width="74.1" height="120.403" transform="translate(0 0)" fill="none"/></clipPath><clipPath id="l"><rect width="372" height="350"/></clipPath></defs><g id="k" clip-path="url(#l)"><g transform="translate(-7707.119 7310.622)"><g transform="translate(7748.119 -7310.622)" clip-path="url(#a)"><rect width="121.512" height="236.355" transform="translate(81.794 37.75)" fill="#bcbec0"/><path d="M1887.164,424.31c-.2-1.8-2.23-3.213-4.535-3.15-.13,0-.258.011-.386.025-2.435.451-3.939,2.287-3.48,4.247l2.044,10.436c.2,1.809,2.241,3.224,4.554,3.16q.188-.005.374-.023c2.439-.451,3.946-2.29,3.482-4.253Z" transform="translate(-1824.716 -246.843)" fill="#eca97c"/></g><text transform="translate(7824.29 -7087.228)" fill="#343c74" font-size="215" font-family="SegoeUI, Segoe UI"><tspan x="0" y="0">d</tspan></text><g transform="translate(7748.119 -7310.622)" clip-path="url(#a)"><rect width="126.847" height="162.008" transform="translate(75.535 69.782)" fill="none" stroke="#e1e1e0" stroke-miterlimit="10" stroke-width="14"/><rect width="5.834" height="2.838" transform="translate(140.935 241.573)" fill="#343c74"/><g transform="translate(146.744 241.572)" opacity="0.9"><g clip-path="url(#c)"><rect width="5.834" height="2.838" transform="translate(0.002 0.001)" fill="#343c74"/></g></g><g transform="translate(152.556 241.572)" opacity="0.83"><g clip-path="url(#c)"><rect width="5.835" height="2.838" transform="translate(0 0.001)" fill="#343c74"/></g></g><g transform="translate(158.368 241.572)" opacity="0.68"><g clip-path="url(#c)"><rect width="5.835" height="2.838" transform="translate(-0.002 0.001)" fill="#343c74"/></g></g><rect width="2.838" height="5.834" transform="translate(52.124 165.143)" fill="#27bbe7"/><g transform="translate(52.125 159.333)" opacity="0.8"><g clip-path="url(#f)"><rect width="2.838" height="5.834" transform="translate(-0.001)" fill="#27bbe7"/></g></g><g transform="translate(52.125 153.522)" opacity="0.67"><g clip-path="url(#f)"><rect width="2.838" height="5.834" transform="translate(-0.001)" fill="#27bbe7"/></g></g><g transform="translate(52.125 147.712)" opacity="0.26"><g clip-path="url(#f)"><rect width="2.838" height="5.834" transform="translate(-0.001)" fill="#27bbe7"/></g></g><rect width="1.474" height="1.474" transform="matrix(0.775, -0.631, 0.631, 0.775, 174.989, 82.616)" fill="#ab3924"/><path d="M2108.693,300.7a.6.6,0,1,1-.086.838.6.6,0,0,1,.086-.838" transform="translate(-1916.818 -198.51)" fill="#ab3924"/><path d="M2056.087,236.081a.6.6,0,1,1-.085.838.6.6,0,0,1,.085-.838" transform="translate(-1895.734 -172.61)" fill="#ab3924"/><line x1="31.521" y1="38.721" transform="translate(160.729 63.933)" fill="none" stroke="#ab3924" stroke-linecap="round" stroke-linejoin="round" stroke-width="0.75"/><rect width="74.1" height="120.403" transform="translate(61.047 70.763)" fill="#343c74"/><path d="M1911.228,249.363c0,5.959-3.6,5.959-3.6,11.918s3.6,5.958,3.6,11.916-3.6,5.958-3.6,11.917,3.6,5.958,3.6,11.917-3.6,5.96-3.6,11.919,3.6,5.96,3.6,11.919-3.6,5.96-3.6,11.919,3.6,5.96,3.6,11.919-3.6,5.961-3.6,11.922,3.6,5.96,3.6,11.921" transform="translate(-1836.32 -177.987)" fill="none" stroke="#fff" stroke-miterlimit="10" stroke-width="3"/><rect width="42.412" height="42.412" transform="translate(176.132 202.44)" fill="#27bbe7"/><path d="M2095.617,480.464a8.972,8.972,0,0,0-2.106-.211h-10.534l-.038-11.789h-.373V485.52h16.211q0-4.632-3.16-5.056" transform="translate(-1906.434 -265.804)" fill="#343c74"/><path d="M2109.055,468.478V498.12h-25.892" transform="translate(-1906.674 -265.809)" fill="none" stroke="#343c74" stroke-miterlimit="10" stroke-width="1"/><rect width="42.412" height="42.412" transform="translate(176.132 202.661)" fill="none" stroke="#373737" stroke-miterlimit="10" stroke-width="0.75"/><rect width="4.163" height="4.163" transform="translate(174.408 200.636)" fill="#fff"/><rect width="4.163" height="4.163" transform="translate(174.408 200.636)" fill="none" stroke="#373737" stroke-miterlimit="10" stroke-width="0.75"/><rect width="4.163" height="4.163" transform="translate(216.463 200.636)" fill="#fff"/><rect width="4.163" height="4.163" transform="translate(216.463 200.636)" fill="none" stroke="#373737" stroke-miterlimit="10" stroke-width="0.75"/><rect width="4.163" height="4.163" transform="translate(174.408 242.992)" fill="#fff"/><rect width="4.163" height="4.163" transform="translate(174.408 242.992)" fill="none" stroke="#373737" stroke-miterlimit="10" stroke-width="0.75"/><rect width="4.163" height="4.163" transform="translate(216.463 242.992)" fill="#fff"/><rect width="4.163" height="4.163" transform="translate(216.463 242.992)" fill="none" stroke="#373737" stroke-miterlimit="10" stroke-width="0.75"/><path d="M1985.749,263.926a2.074,2.074,0,1,0,2.073-2.073A2.073,2.073,0,0,0,1985.749,263.926Z" transform="translate(-1867.63 -182.993)" fill="none" stroke="#fff" stroke-miterlimit="10" stroke-width="1"/><path d="M1925.126,327.584a3.443,3.443,0,1,0,3.443-3.444A3.443,3.443,0,0,0,1925.126,327.584Z" transform="translate(-1843.332 -207.958)" fill="none" stroke="#fff" stroke-miterlimit="10" stroke-width="1"/><path d="M1992.67,318.842a1.721,1.721,0,1,0,1.721-1.721A1.721,1.721,0,0,0,1992.67,318.842Z" transform="translate(-1870.404 -205.145)" fill="none" stroke="#fff" stroke-miterlimit="10" stroke-width="1"/><path d="M2138.881,477.691a1.722,1.722,0,1,0,1.721-1.721A1.722,1.722,0,0,0,2138.881,477.691Z" transform="translate(-1929.006 -268.812)" fill="none" stroke="#fff" stroke-miterlimit="10" stroke-width="1"/><path d="M2134.271,515.927a1.722,1.722,0,1,0,1.721-1.721A1.722,1.722,0,0,0,2134.271,515.927Z" transform="translate(-1927.158 -284.137)" fill="none" stroke="#fff" stroke-miterlimit="10" stroke-width="1"/><path d="M1926.552,270.241a5.187,5.187,0,1,0,5.187-5.187A5.187,5.187,0,0,0,1926.552,270.241Z" transform="translate(-1843.903 -184.276)" fill="none" stroke="#fff" stroke-miterlimit="10" stroke-width="1"/><path d="M2126.255,390.616l6.019-19.357-11.919-3.707-6.02,19.357-.4,1.288a46.789,46.789,0,0,0-1.98,11.954,13.952,13.952,0,0,1-.378,2.866l-1.555,5a2.213,2.213,0,0,1-.989,1.228,6.206,6.206,0,0,0-2.726,3.478c-1.023,3.291.2,8.777,3.489,9.8s7.407-2.8,8.431-6.094a6.2,6.2,0,0,0-.272-4.411,2.22,2.22,0,0,1-.119-1.572l1.555-5a13.942,13.942,0,0,1,1.315-2.575,46.856,46.856,0,0,0,5.148-10.969Z" transform="translate(-1915.809 -225.358)" fill="#ffdd08"/><path d="M2143.845,342.728l3.031-9.747a6.241,6.241,0,1,0-11.919-3.707l-3.031,9.747-3.228-1-2.741,8.812,18.375,5.714,2.74-8.812Z" transform="translate(-1923.826 -208.256)" fill="#7bcaf2"/><path d="M2124.025,389.013l6.019-19.358-11.919-3.706-6.02,19.357-.4,1.288a46.821,46.821,0,0,0-1.98,11.954,13.882,13.882,0,0,1-.378,2.866l-1.555,5a2.214,2.214,0,0,1-.989,1.228,6.206,6.206,0,0,0-2.726,3.478c-1.023,3.291.2,8.777,3.489,9.8s7.407-2.8,8.431-6.094a6.2,6.2,0,0,0-.272-4.411,2.216,2.216,0,0,1-.118-1.572l1.554-5a13.955,13.955,0,0,1,1.315-2.575,46.872,46.872,0,0,0,5.148-10.969Z" transform="translate(-1914.915 -224.715)" fill="none" stroke="#373737" stroke-miterlimit="10" stroke-width="0.75"/><path d="M2141.615,341.124l3.031-9.747a6.241,6.241,0,1,0-11.919-3.706l-3.031,9.747-3.228-1-2.741,8.812,18.375,5.714,2.74-8.812Z" transform="translate(-1922.932 -207.613)" fill="none" stroke="#373737" stroke-miterlimit="10" stroke-width="0.75"/></g><text transform="translate(7803.131 -7169.388) rotate(-90)" fill="#27bbe7" font-size="6" font-family="CircularStd-Bold, Circular Std Bold" font-weight="700"><tspan x="0" y="0">#C</tspan><tspan y="0" letter-spacing="-0.002em">5</tspan><tspan y="0">6D53</tspan></text><g transform="translate(7809.26 -7241.326)" clip-path="url(#i)"><text transform="translate(17.715 143.151)" fill="#fff" font-size="189" font-family="SegoeUI, Segoe UI"><tspan x="0" y="0">d</tspan></text></g><g transform="translate(7748.119 -7310.622)" clip-path="url(#a)"><rect width="74.1" height="120.403" transform="translate(61.047 70.763)" fill="none" stroke="#373737" stroke-miterlimit="10" stroke-width="0.75"/><rect width="4.35" height="4.35" transform="translate(58.872 68.588)" fill="#fff"/><rect width="4.35" height="4.35" transform="translate(58.872 68.588)" fill="none" stroke="#373737" stroke-miterlimit="10" stroke-width="0.75"/><rect width="4.35" height="4.35" transform="translate(132.972 68.588)" fill="#fff"/><rect width="4.35" height="4.35" transform="translate(132.972 68.588)" fill="none" stroke="#373737" stroke-miterlimit="10" stroke-width="0.75"/><rect width="4.35" height="4.349" transform="translate(58.872 128.79)" fill="#fff"/><rect width="4.35" height="4.349" transform="translate(58.872 128.79)" fill="none" stroke="#373737" stroke-miterlimit="10" stroke-width="0.75"/><rect width="4.35" height="4.349" transform="translate(132.972 128.79)" fill="#fff"/><rect width="4.35" height="4.349" transform="translate(132.972 128.79)" fill="none" stroke="#373737" stroke-miterlimit="10" stroke-width="0.75"/><rect width="4.35" height="4.35" transform="translate(58.872 188.588)" fill="#fff"/><rect width="4.35" height="4.35" transform="translate(58.872 188.588)" fill="none" stroke="#373737" stroke-miterlimit="10" stroke-width="0.75"/><rect width="4.35" height="4.35" transform="translate(132.972 188.588)" fill="#fff"/><rect width="4.35" height="4.35" transform="translate(132.972 188.588)" fill="none" stroke="#373737" stroke-miterlimit="10" stroke-width="0.75"/><path d="M1894.6,435.117a6.979,6.979,0,0,0-.659-9.848c-.163-.142-.332-.277-.508-.4a8.226,8.226,0,0,0-10.789,2.326L1869.027,445a7.006,7.006,0,0,0,.668,9.886q.237.206.491.392a8.228,8.228,0,0,0,10.8-2.333Z" transform="translate(-1820.154 -247.888)" fill="#eca97c"/><path d="M1915.939,484.412a9.486,9.486,0,0,0-5.313-12.181L1870.3,455.424a9.244,9.244,0,0,0-12.171,4.772c-.015.035-.03.071-.046.106l-12.026,29.667a9.45,9.45,0,0,0,5.3,12.167l40.325,16.807a9.257,9.257,0,0,0,12.188-4.778l.038-.088Z" transform="translate(-1811.388 -260.267)" fill="#eca97c"/><path d="M1906.891,455.779a8.315,8.315,0,0,0-4.812-10.7c-.063-.023-.128-.044-.193-.064a8.9,8.9,0,0,0-9.983,7.047l-7.031,25.191a8.333,8.333,0,0,0,4.828,10.721c.06.021.12.041.18.06a8.9,8.9,0,0,0,9.979-7.044Z" transform="translate(-1827 -256.355)" fill="#eca97c"/><path d="M1928.678,465.4c1.434-5.263-.744-10.381-4.877-11.427s-8.659,2.379-10.08,7.654l-7.334,26.972c-1.427,5.258.748,10.376,4.885,11.422s8.66-2.379,10.08-7.654Z" transform="translate(-1835.645 -259.919)" fill="#eca97c"/><path d="M1953.734,473.671a8.115,8.115,0,0,0-4.837-10.407l-.1-.037a8.367,8.367,0,0,0-9.9,6.226l-7.015,23.562a8.117,8.117,0,0,0,4.834,10.413l.095.034a8.376,8.376,0,0,0,9.909-6.227Z" transform="translate(-1845.84 -263.629)" fill="#eca97c"/><path d="M1911.058,498.151l1.627-11.257-14.408,11.762-5.3-14-10.427,11.319-9.488-10.735-5.159,14-11.776-13.58-7.284,12.512-11.017-9.435,3.568,20.606.924,107.057s-.595,34.118,36.469,32.5,32.914-34.251,32.914-34.251" transform="translate(-1808.342 -272.294)" fill="#713f19"/></g><text transform="translate(7886.279 -7058.436)" fill="#343c74" font-size="6" font-family="SegoeUI, Segoe UI"><tspan x="0" y="0">#C</tspan><tspan y="0" letter-spacing="-0.001em">5</tspan><tspan y="0">6D53</tspan></text><line x2="55.994" transform="translate(7861.357 -7252.081)" fill="none" stroke="#373737" stroke-miterlimit="10" stroke-width="0.5"/><line y1="6.928" transform="translate(7861.357 -7255.545)" fill="none" stroke="#373737" stroke-miterlimit="10" stroke-width="0.5"/><line y1="2.765" transform="translate(7868.292 -7253.463)" fill="none" stroke="#373737" stroke-miterlimit="10" stroke-width="0.5"/><line y1="2.765" transform="translate(7875.227 -7253.463)" fill="none" stroke="#373737" stroke-miterlimit="10" stroke-width="0.5"/><line y1="2.765" transform="translate(7882.161 -7253.463)" fill="none" stroke="#373737" stroke-miterlimit="10" stroke-width="0.5"/><line y1="2.765" transform="translate(7889.096 -7253.463)" fill="none" stroke="#373737" stroke-miterlimit="10" stroke-width="0.5"/><line y1="2.765" transform="translate(7896.03 -7253.463)" fill="none" stroke="#373737" stroke-miterlimit="10" stroke-width="0.5"/><line y1="2.765" transform="translate(7902.965 -7253.463)" fill="none" stroke="#373737" stroke-miterlimit="10" stroke-width="0.5"/><line y1="2.765" transform="translate(7909.9 -7253.463)" fill="none" stroke="#373737" stroke-miterlimit="10" stroke-width="0.5"/><line y1="6.928" transform="translate(7917.352 -7255.545)" fill="none" stroke="#373737" stroke-miterlimit="10" stroke-width="0.5"/><text transform="translate(7858.476 -7258.639)" fill="#373737" font-size="3" font-family="SegoeUI, Segoe UI"><tspan x="0" y="0" letter-spacing="0.008em">1</tspan><tspan y="0">0</tspan></text><text transform="translate(7872.085 -7258.639)" fill="#373737" font-size="3" font-family="SegoeUI, Segoe UI"><tspan x="0" y="0">20</tspan></text><text transform="translate(7886.127 -7258.639)" fill="#373737" font-size="3" font-family="SegoeUI, Segoe UI"><tspan x="0" y="0" letter-spacing="-0.001em">3</tspan><tspan y="0">0</tspan></text><text transform="translate(7900.518 -7258.639)" fill="#373737" font-size="3" font-family="SegoeUI, Segoe UI"><tspan x="0" y="0">40</tspan></text><text transform="translate(7914.039 -7258.639)" fill="#373737" font-size="3" font-family="SegoeUI, Segoe UI"><tspan x="0" y="0" letter-spacing="-0.002em">5</tspan><tspan y="0">0</tspan></text></g></g></svg>