<svg xmlns="http://www.w3.org/2000/svg" width="57.672" height="51.312" viewBox="0 0 57.672 51.312"><path d="M47.418,16.631q-.9-.309-1.857-.585.157-.642.287-1.266C47.253,7.958,46.335,2.462,43.2.653c-3.009-1.735-7.929.074-12.9,4.4q-.717.624-1.436,1.318-.479-.458-.956-.883C22.7.862,17.479-1.086,14.344.728c-3.006,1.74-3.9,6.906-2.631,13.371q.183.937.426,1.911c-.739.21-1.452.433-2.135.671C3.9,18.81,0,22.147,0,25.607c0,3.574,4.186,7.159,10.546,9.333q.753.257,1.559.488-.261,1.052-.453,2.059c-1.206,6.353-.264,11.4,2.733,13.126,3.1,1.786,8.293-.05,13.353-4.473q.6-.524,1.2-1.109.782.753,1.559,1.422c4.9,4.218,9.742,5.921,12.737,4.187,3.093-1.791,4.1-7.21,2.793-13.8q-.15-.755-.346-1.541.547-.162,1.073-.335c6.611-2.191,10.913-5.732,10.913-9.354,0-3.473-4.025-6.832-10.254-8.976ZM45.984,32.622q-.473.157-.969.3a57.788,57.788,0,0,0-2.92-7.306,57.775,57.775,0,0,0,2.807-7.2q.885.256,1.714.541c5.337,1.837,8.592,4.554,8.592,6.647,0,2.229-3.516,5.124-9.224,7.015Zm-2.369,4.694a20.862,20.862,0,0,1,.277,7.612c-.343,1.851-1.034,3.086-1.888,3.58-1.818,1.052-5.7-.315-9.9-3.923q-.721-.62-1.45-1.322a57.88,57.88,0,0,0,4.834-6.138,57.505,57.505,0,0,0,7.811-1.2q.176.712.312,1.4ZM19.662,48.326c-1.776.627-3.19.645-4.045.152-1.819-1.049-2.575-5.1-1.544-10.532q.177-.933.421-1.915a57.94,57.94,0,0,0,7.772,1.125,59.975,59.975,0,0,0,4.951,6.116q-.552.533-1.1,1.012a20.866,20.866,0,0,1-6.456,4.042ZM11.343,32.609a20.866,20.866,0,0,1-6.726-3.574c-1.43-1.225-2.153-2.441-2.153-3.428,0-2.1,3.131-4.779,8.353-6.6.634-.221,1.3-.429,1.985-.625a59.055,59.055,0,0,0,2.811,7.284,60.022,60.022,0,0,0-2.846,7.387q-.736-.212-1.424-.446Zm2.789-18.982c-1.084-5.539-.364-9.718,1.447-10.766,1.929-1.117,6.2.476,10.693,4.468q.431.383.865.8a59.019,59.019,0,0,0-4.913,6.08,60.214,60.214,0,0,0-7.7,1.2q-.225-.906-.4-1.777Zm24.877,6.143q-.856-1.479-1.754-2.884c1.84.233,3.6.541,5.259.919a52.624,52.624,0,0,1-1.846,4.966q-.785-1.49-1.659-3ZM28.863,9.888a52.665,52.665,0,0,1,3.394,4.1q-1.692-.08-3.421-.081-1.711,0-3.4.079c1.12-1.478,2.268-2.85,3.423-4.1Zm-10.21,9.9q-.855,1.483-1.628,2.982c-.717-1.7-1.331-3.375-1.833-4.99,1.645-.368,3.4-.669,5.229-.9q-.908,1.417-1.768,2.905Zm1.821,14.723a52.439,52.439,0,0,1-5.315-.854c.509-1.644,1.137-3.353,1.869-5.091q.774,1.5,1.635,2.984h0q.876,1.514,1.811,2.962ZM28.932,41.5c-1.168-1.26-2.332-2.654-3.47-4.153q1.656.065,3.374.065,1.763,0,3.481-.077A52.4,52.4,0,0,1,28.932,41.5ZM40.691,28.475a52.268,52.268,0,0,1,1.937,5.073,52.345,52.345,0,0,1-5.38.917q.9-1.423,1.77-2.935Q39.9,30,40.691,28.475ZM36.884,30.3c-.9,1.563-1.827,3.055-2.767,4.464-1.711.122-3.479.185-5.281.185s-3.54-.056-5.222-.165c-.977-1.427-1.923-2.924-2.819-4.471h0c-.893-1.543-1.716-3.1-2.461-4.647.745-1.551,1.565-3.109,2.453-4.649h0c.891-1.544,1.828-3.034,2.8-4.452,1.715-.13,3.474-.2,5.251-.2h0c1.785,0,3.547.068,5.261.2.954,1.408,1.885,2.892,2.779,4.437.9,1.562,1.735,3.11,2.486,4.627-.749,1.544-1.578,3.107-2.478,4.668ZM41.966,2.787c1.931,1.114,2.682,5.605,1.469,11.5q-.116.564-.259,1.147a59.017,59.017,0,0,0-7.711-1.218A57.874,57.874,0,0,0,30.59,8.127q.665-.639,1.326-1.216c4.258-3.705,8.237-5.168,10.05-4.123Zm-13.13,17.67a5.15,5.15,0,1,1-5.15,5.15,5.15,5.15,0,0,1,5.15-5.15Z" transform="translate(0 0)" fill="#0075a9"/></svg>