<svg xmlns="http://www.w3.org/2000/svg" width="372.114" height="713.725" viewBox="0 0 372.114 713.725">
  <path id="uX_uX_uX_uX_" data-name="uX 
uX 
uX
uX " d="M17.951,78.771h48.4v125.64a45.913,45.913,0,0,0,2.323,15.2,27.992,27.992,0,0,0,6.473,10.581,26.9,26.9,0,0,0,10.148,6.323,40.507,40.507,0,0,0,13.619,2.149,40.507,40.507,0,0,0,13.619-2.149,26.9,26.9,0,0,0,10.148-6.323,27.992,27.992,0,0,0,6.473-10.581,45.914,45.914,0,0,0,2.323-15.2V78.771h48.4V208.064a87.244,87.244,0,0,1-6.328,33.816,68.424,68.424,0,0,1-17.375,24.643,74.316,74.316,0,0,1-25.776,14.956A96.485,96.485,0,0,1,98.912,286.5a96.485,96.485,0,0,1-31.482-5.018,74.316,74.316,0,0,1-25.776-14.956A68.424,68.424,0,0,1,24.279,241.88a87.244,87.244,0,0,1-6.328-33.816Zm44.4,4h-40.4V208.064a83.278,83.278,0,0,0,6.018,32.272,64.454,64.454,0,0,0,16.363,23.215,70.34,70.34,0,0,0,24.4,14.145,92.5,92.5,0,0,0,30.18,4.8,92.5,92.5,0,0,0,30.18-4.8,70.34,70.34,0,0,0,24.4-14.145,64.454,64.454,0,0,0,16.363-23.215,83.278,83.278,0,0,0,6.018-32.272V82.771h-40.4v121.64a49.874,49.874,0,0,1-2.55,16.523,31.957,31.957,0,0,1-7.41,12.074,30.867,30.867,0,0,1-11.639,7.27,44.475,44.475,0,0,1-14.964,2.382,44.474,44.474,0,0,1-14.964-2.382,30.867,30.867,0,0,1-11.639-7.27,31.957,31.957,0,0,1-7.41-12.074,49.875,49.875,0,0,1-2.55-16.523Zm135.733-4h58.19l38.216,62.783L332.7,78.771h56.765L324.126,180.8,390.065,282H331.3l-38.21-62.773L255.152,282H198.088l65.638-101.754Zm55.942,4h-48.59l63.054,97.472L205.428,278H252.9l40.181-66.487L333.547,278h49.138l-63.321-97.184,62.793-98.045H334.952l-40.464,66.477Zm-236.073,249h48.4v125.64a45.913,45.913,0,0,0,2.323,15.2,27.991,27.991,0,0,0,6.473,10.581,26.9,26.9,0,0,0,10.148,6.323,40.505,40.505,0,0,0,13.619,2.149,40.505,40.505,0,0,0,13.619-2.149,26.9,26.9,0,0,0,10.148-6.323,27.991,27.991,0,0,0,6.473-10.581,45.914,45.914,0,0,0,2.323-15.2V331.771h48.4V461.064a87.245,87.245,0,0,1-6.328,33.816,68.424,68.424,0,0,1-17.375,24.643,74.315,74.315,0,0,1-25.776,14.956A96.485,96.485,0,0,1,98.912,539.5a96.485,96.485,0,0,1-31.482-5.018,74.315,74.315,0,0,1-25.776-14.956A68.424,68.424,0,0,1,24.279,494.88a87.244,87.244,0,0,1-6.328-33.816Zm44.4,4h-40.4V461.064a83.278,83.278,0,0,0,6.018,32.272,64.454,64.454,0,0,0,16.363,23.215,70.34,70.34,0,0,0,24.4,14.145,92.5,92.5,0,0,0,30.18,4.8,92.5,92.5,0,0,0,30.18-4.8,70.34,70.34,0,0,0,24.4-14.145,64.454,64.454,0,0,0,16.363-23.215,83.278,83.278,0,0,0,6.018-32.272V335.771h-40.4v121.64a49.874,49.874,0,0,1-2.55,16.523,31.956,31.956,0,0,1-7.41,12.074,30.866,30.866,0,0,1-11.639,7.27,44.474,44.474,0,0,1-14.964,2.382,44.474,44.474,0,0,1-14.964-2.382,30.866,30.866,0,0,1-11.639-7.27,31.956,31.956,0,0,1-7.41-12.074,49.874,49.874,0,0,1-2.55-16.523Zm135.733-4h58.19l38.216,62.783L332.7,331.771h56.765L324.126,433.8,390.065,535H331.3l-38.21-62.773L255.152,535H198.088l65.638-101.753Zm55.942,4h-48.59l63.054,97.472L205.428,531H252.9l40.181-66.487L333.547,531h49.138l-63.321-97.184,62.793-98.045H334.952l-40.464,66.477Zm-236.073,249h48.4v125.64a45.913,45.913,0,0,0,2.323,15.2,27.992,27.992,0,0,0,6.473,10.581,26.9,26.9,0,0,0,10.148,6.323,40.505,40.505,0,0,0,13.619,2.149,40.505,40.505,0,0,0,13.619-2.149,26.9,26.9,0,0,0,10.148-6.323,27.992,27.992,0,0,0,6.473-10.581,45.914,45.914,0,0,0,2.323-15.2V584.771h48.4V714.064a87.245,87.245,0,0,1-6.328,33.816,68.425,68.425,0,0,1-17.375,24.643,74.316,74.316,0,0,1-25.776,14.956A96.485,96.485,0,0,1,98.912,792.5a96.485,96.485,0,0,1-31.482-5.018,74.316,74.316,0,0,1-25.776-14.956A68.425,68.425,0,0,1,24.279,747.88a87.244,87.244,0,0,1-6.328-33.816Zm44.4,4h-40.4V714.064a83.278,83.278,0,0,0,6.018,32.272,64.454,64.454,0,0,0,16.363,23.215,70.34,70.34,0,0,0,24.4,14.145,92.5,92.5,0,0,0,30.18,4.8,92.5,92.5,0,0,0,30.18-4.8,70.34,70.34,0,0,0,24.4-14.145,64.454,64.454,0,0,0,16.363-23.215,83.278,83.278,0,0,0,6.018-32.272V588.771h-40.4v121.64a49.874,49.874,0,0,1-2.55,16.523,31.955,31.955,0,0,1-7.41,12.074,30.864,30.864,0,0,1-11.639,7.27,44.475,44.475,0,0,1-14.964,2.382,44.474,44.474,0,0,1-14.964-2.382,30.864,30.864,0,0,1-11.639-7.27,31.955,31.955,0,0,1-7.41-12.074,49.875,49.875,0,0,1-2.55-16.523Zm135.733-4h58.19l38.216,62.784L332.7,584.771h56.765L324.126,686.8,390.065,788H331.3l-38.21-62.773L255.152,788H198.088l65.638-101.754Zm55.942,4h-48.59l63.054,97.472L205.428,784H252.9l40.181-66.487L333.547,784h49.138l-63.321-97.184,62.793-98.045H334.952l-40.464,66.477Z" transform="translate(-17.951 -78.771)" fill="#0075a9" opacity="0.14"/>
</svg>
