<svg xmlns="http://www.w3.org/2000/svg" width="1745.208" height="219.628" viewBox="0 0 1745.208 219.628">
  <path id="Trazado_31453" data-name="Trazado 31453" d="M146.132-132.8v-35.938H4.522V-132.8H56.406V0h37.6V-132.8ZM276.08,0V-35.7h-69.5V-68.068h62.832V-101.15H206.584v-32.13h69.258v-35.462H168.98V0ZM385.322,3.57c52.36,0,74.732-35.7,80.206-59.024L429.59-65.688C426.258-53.55,414.6-34.034,385.322-34.034c-25.228,0-48.552-18.326-48.552-49.98,0-35.462,25.466-51.646,48.076-51.646,29.75,0,40.46,19.754,43.078,31.416l35.462-11.186c-5.474-24.276-27.846-56.882-78.54-56.882-47.124,0-87.108,35.7-87.108,88.3S336.77,3.57,385.322,3.57ZM637.84,0V-168.742h-37.6V-66.164L536.928-168.742h-45.7V0H528.6V-110.908L598.094,0Zm65.688-84.49c0-35.224,25.228-51.17,48.79-51.17,23.324,0,48.552,15.946,48.552,51.17s-25.228,50.932-48.552,50.932C728.756-33.558,703.528-49.266,703.528-84.49Zm-39.032.238c0,53.312,40.222,87.822,87.822,87.822,47.362,0,87.584-34.51,87.584-87.822,0-53.55-40.222-88.06-87.584-88.06C704.718-172.312,664.5-137.8,664.5-84.252ZM977.228,0V-35.938H904.4v-132.8H866.8V0Zm49.5-84.49c0-35.224,25.228-51.17,48.79-51.17,23.324,0,48.552,15.946,48.552,51.17s-25.228,50.932-48.552,50.932C1051.96-33.558,1026.732-49.266,1026.732-84.49Zm-39.032.238c0,53.312,40.222,87.822,87.822,87.822,47.362,0,87.584-34.51,87.584-87.822,0-53.55-40.222-88.06-87.584-88.06C1027.922-172.312,987.7-137.8,987.7-84.252ZM1345.89,0V-90.2h-85.918V-58.31h50.694c-2.142,9.52-13.8,27.608-41.65,27.608-27.37,0-50.694-18.326-50.694-53.55,0-37.6,26.894-52.836,49.742-52.836,28.084,0,39.27,19.04,41.888,29.512l36.176-12.614c-7.378-23.562-29.75-52.122-78.064-52.122-47.6,0-87.822,34.986-87.822,88.06,0,53.312,38.556,87.822,85.442,87.822,24.038,0,39.984-10,47.362-20.706L1315.426,0Zm69.734,0V-168.742h-38.08V0Zm29.988-212.058h-43.078l-24.752,31.416h32.13ZM1565.088,0h40.936l-62.832-168.742h-43.554L1436.092,0H1475.6l12.138-34.272h65.212ZM1520.82-126.854l20.23,58.31h-40.936Zm221.816-.476c-3.57-19.754-19.516-44.982-61.642-44.982-32.368,0-60.452,22.372-60.452,54.264,0,24.99,17.374,44.03,45.934,49.5l23.086,4.284c11.186,2.142,18.088,8.33,18.088,16.9,0,10.472-9.044,17.612-23.8,17.612-23.086,0-33.558-13.566-34.986-29.036l-34.51,8.33c2.38,23.8,22.372,54.026,69.02,54.026,40.222,0,62.356-26.894,62.356-53.312,0-24.038-16.66-44.744-48.79-50.694l-22.61-4.284c-11.662-2.142-16.66-8.092-16.66-16.184,0-9.282,9.044-18.088,23.086-18.088,20.468,0,26.894,13.328,28.084,21.182Z" transform="translate(-2.522 214.058)" fill="none" stroke="#0075a9" stroke-width="4" opacity="0.14"/>
</svg>
