<svg xmlns="http://www.w3.org/2000/svg" width="52.924" height="52.922" viewBox="0 0 52.924 52.922"><g transform="translate(-326.001 -2443.655)"><g transform="translate(326.001 2453.915)"><g transform="translate(0 -10.26)"><path d="M3.761,26.461A22.7,22.7,0,0,0,16.555,46.89L5.727,17.222a22.614,22.614,0,0,0-1.965,9.238Zm38.024-1.145a11.952,11.952,0,0,0-1.872-6.261c-1.151-1.87-2.229-3.453-2.229-5.323A3.931,3.931,0,0,1,41.5,9.7c.1,0,.2.013.294.018a22.7,22.7,0,0,0-34.3,4.273c.533.016,1.034.027,1.461.027,2.374,0,6.05-.288,6.05-.288a.938.938,0,0,1,.146,1.87s-1.23.145-2.6.216l8.266,24.588,4.968-14.9-3.537-9.69c-1.222-.072-2.38-.216-2.38-.216a.938.938,0,0,1,.143-1.87s3.749.288,5.979.288c2.374,0,6.05-.288,6.05-.288a.938.938,0,0,1,.146,1.87s-1.232.145-2.6.216l8.2,24.4,2.264-7.566c.981-3.14,1.728-5.395,1.728-7.338ZM26.86,28.446,20.049,48.237A22.711,22.711,0,0,0,34,47.875a1.993,1.993,0,0,1-.162-.313L26.86,28.446ZM46.38,15.57a17.416,17.416,0,0,1,.153,2.334,21.413,21.413,0,0,1-1.726,8.131L37.873,46.082A22.7,22.7,0,0,0,46.38,15.57ZM26.461,0A26.461,26.461,0,1,0,52.924,26.461,26.491,26.491,0,0,0,26.461,0Zm0,51.709A25.248,25.248,0,1,1,51.708,26.461,25.277,25.277,0,0,1,26.461,51.709Z" transform="translate(0)" fill="#0075a9"/></g></g></g></svg>