<svg xmlns="http://www.w3.org/2000/svg" xmlns:xlink="http://www.w3.org/1999/xlink" width="52.57" height="53" viewBox="0 0 52.57 53"><defs><clipPath id="a"><rect width="52.57" height="53" fill="#0075a9"/></clipPath></defs><g transform="translate(0)"><g transform="translate(0)"><g clip-path="url(#a)"><path d="M44.978,7.734A25.787,25.787,0,0,0,26.5,0,26.165,26.165,0,0,0,.286,26.356,27.66,27.66,0,0,0,3.724,39.391L0,53l13.895-3.581a25.578,25.578,0,0,0,12.462,3.151A26.349,26.349,0,0,0,52.57,26.213,26,26,0,0,0,44.978,7.734M26.5,48.129h0a21.282,21.282,0,0,1-11.03-3.008l-.859-.43L6.3,46.84l2.149-8.165-.573-.859a21.743,21.743,0,1,1,29.938,7.019A20.884,20.884,0,0,1,26.5,48.129m12.605-15.9-1.576-.716s-2.292-1-3.724-1.719c-.143,0-.286-.143-.43-.143a2.071,2.071,0,0,0-1,.286s-.143.143-2.149,2.435a.787.787,0,0,1-.716.43h-.143a1.085,1.085,0,0,1-.573-.286l-.716-.286a13.923,13.923,0,0,1-4.154-2.722c-.286-.286-.716-.573-1-.859A16,16,0,0,1,20.2,25.21l-.143-.286c-.143-.143-.143-.287-.286-.573a1.073,1.073,0,0,1,.143-.716s.573-.716,1-1.146c.286-.286.43-.716.716-1a1.764,1.764,0,0,0,.286-1.432,55.732,55.732,0,0,0-2.292-5.443,1.657,1.657,0,0,0-1-.716H17.046c-.286,0-.573.143-.859.143l-.143.143c-.286.143-.573.43-.859.573-.286.286-.43.573-.716.859a7.3,7.3,0,0,0-1.576,4.441,8.495,8.495,0,0,0,.716,3.294l.143.43a23.865,23.865,0,0,0,5.3,7.306l.573.573A8.651,8.651,0,0,1,20.77,32.8a25.593,25.593,0,0,0,10.313,5.443c.43.143,1,.143,1.432.287h1.433a5.31,5.31,0,0,0,2.149-.573c.43-.286.716-.286,1-.573l.286-.286c.286-.286.573-.43.86-.716a3.794,3.794,0,0,0,.716-.859,8.206,8.206,0,0,0,.573-2.005v-1a1.778,1.778,0,0,0-.43-.286" transform="translate(0 0.001)" fill="#0075a9"/></g></g></g></svg>