<svg id="html" xmlns="http://www.w3.org/2000/svg" width="56.911" height="80.33" viewBox="0 0 56.911 80.33">
  <path id="Trazado_11752" data-name="Trazado 11752" d="M28.456,130.342,9.726,125.15,5.3,75.516H51.718L47.288,125.15l-18.73,5.193v.029l-.051-.014-.051.014ZM0,70.766l5.179,58.092,23.242,6.452,23.306-6.461,5.185-58.082Z" transform="translate(0 -54.979)" fill="#fff"/>
  <path id="Trazado_11753" data-name="Trazado 11753" d="M30.669,0V3.577H27.357V0h-3.62V10.833h3.621V7.205h3.312v3.628H34.29V0Z" transform="translate(-18.441 0)" fill="#fff"/>
  <path id="Trazado_11754" data-name="Trazado 11754" d="M78.1,0V3.592h3.188v7.24h3.621V3.592h3.189V0Z" transform="translate(-60.675 0)" fill="#fff"/>
  <path id="Trazado_11755" data-name="Trazado 11755" d="M138.442,0l-2.32,3.806L133.8,0h-3.775V10.833h3.543V5.463l2.493,3.851h.062l2.491-3.851v5.369h3.606V0Z" transform="translate(-101.018 0)" fill="#fff"/>
  <path id="Trazado_11756" data-name="Trazado 11756" d="M192.765,0V10.833h8.713V7.252h-5.092V0Z" transform="translate(-149.762 0)" fill="#fff"/>
  <path id="Trazado_11757" data-name="Trazado 11757" d="M65.337,123.995H47.472l.171,1.911,1.751,19.634H74.086l-.827,9.24-7.946,2.145h0l-.007,0-7.935-2.143-.507-5.682H49.712l1,11.187L65.3,164.341l.033-.009h0l14.581-4.041.107-1.2L81.7,140.328l.174-1.913H55.909l-.651-7.3H82.522l.143-1.6.325-3.612.17-1.911Z" transform="translate(-36.882 -96.333)" fill="#fff"/>
</svg>
