<svg id="js" xmlns="http://www.w3.org/2000/svg" xmlns:xlink="http://www.w3.org/1999/xlink" width="79.662" height="80.548" viewBox="0 0 79.662 80.548">
  <defs>
    <clipPath id="clip-path">
      <rect id="Rectángulo_4522" data-name="Rectángulo 4522" width="79.662" height="80.547" fill="#fff"/>
    </clipPath>
  </defs>
  <g id="Grupo_5441" data-name="Grupo 5441" transform="translate(0 0)" clip-path="url(#clip-path)">
    <path id="Trazado_11744" data-name="Trazado 11744" d="M0,79.913H79.913V0H0ZM43.488,62.328c0,7.778-4.559,11.319-11.211,11.319-6.007,0-9.494-3.111-11.265-6.866h0l6.115-3.7c1.18,2.092,2.253,3.862,4.828,3.862,2.468,0,4.023-.965,4.023-4.72V36.688h7.51ZM61.246,73.647c-6.973,0-11.48-3.326-13.679-7.671l6.115-3.54c1.61,2.629,3.7,4.56,7.4,4.56,3.112,0,5.1-1.556,5.1-3.7,0-2.575-2.038-3.487-5.472-4.988L58.832,57.5c-5.418-2.306-9.012-5.2-9.012-11.318,0-5.633,4.291-9.924,11-9.924,4.774,0,8.207,1.663,10.675,6.008l-5.847,3.755c-1.287-2.307-2.682-3.218-4.827-3.218-2.2,0-3.594,1.395-3.594,3.218,0,2.253,1.395,3.165,4.613,4.56l1.877.8c6.383,2.736,9.978,5.525,9.978,11.8,0,6.76-5.31,10.46-12.445,10.46" transform="translate(-0.372 0.217)" fill="#fff"/>
  </g>
</svg>
