<svg id="wp" xmlns="http://www.w3.org/2000/svg" width="80.215" height="80.212" viewBox="0 0 80.215 80.212">
  <g id="wordpress" transform="translate(0 0)">
    <g id="Grupo_5436" data-name="Grupo 5436" transform="translate(0)">
      <path id="Trazado_11733" data-name="Trazado 11733" d="M5.7,40.105A34.412,34.412,0,0,0,25.092,71.07L8.68,26.1a34.275,34.275,0,0,0-2.979,14Zm57.632-1.736A18.115,18.115,0,0,0,60.5,28.88c-1.744-2.834-3.379-5.234-3.379-8.068a5.958,5.958,0,0,1,5.777-6.107c.153,0,.3.019.446.027a34.4,34.4,0,0,0-51.98,6.476c.807.024,1.568.041,2.214.041,3.6,0,9.169-.437,9.169-.437a1.422,1.422,0,0,1,.221,2.834s-1.864.219-3.938.328L31.555,61.243l7.529-22.582-5.36-14.687c-1.853-.109-3.608-.328-3.608-.328a1.421,1.421,0,0,1,.217-2.834s5.682.437,9.063.437c3.6,0,9.169-.437,9.169-.437a1.422,1.422,0,0,1,.221,2.834s-1.868.219-3.938.328L57.282,60.959l3.432-11.468c1.487-4.759,2.619-8.177,2.619-11.122ZM40.71,43.115l-10.323,30a34.422,34.422,0,0,0,21.145-.549,3.021,3.021,0,0,1-.245-.474L40.71,43.115ZM70.3,23.6a26.4,26.4,0,0,1,.232,3.538A32.455,32.455,0,0,1,67.912,39.46L57.4,69.845A34.411,34.411,0,0,0,70.3,23.6ZM40.107,0A40.106,40.106,0,1,0,80.215,40.105,40.152,40.152,0,0,0,40.107,0Zm0,78.374A38.268,38.268,0,1,1,78.372,40.105,38.312,38.312,0,0,1,40.107,78.374Z" transform="translate(0)" fill="#fff"/>
    </g>
  </g>
</svg>
