<svg xmlns="http://www.w3.org/2000/svg" xmlns:xlink="http://www.w3.org/1999/xlink" width="113" height="69" viewBox="0 0 113 69"><defs><clipPath id="a"><rect width="113" height="69" transform="translate(-0.044)" fill="none" stroke="#707070" stroke-width="1"/></clipPath><clipPath id="b"><rect width="94.867" height="34.134" fill="none"/></clipPath></defs><g transform="translate(0.044)" clip-path="url(#a)"><g transform="translate(9.125 17)" clip-path="url(#b)"><path d="M48.182,5.07c0-3.4-1.661-5.062-5.084-5.059C30.441.026,17.783.044,5.126,0,1.44-.013-.062,1.658,0,5.322.134,13,.02,20.681.049,28.361c.019,4.752,1.015,5.719,5.965,5.753,5.964.041,11.93.01,17.9.009,6.256,0,12.512-.02,18.768.008,3.5.015,5.511-1.463,5.506-5.151q-.019-11.955,0-23.909M20.1,29.759c-4.653-.02-9.31-.121-13.959.035-2.849.1-2.666-1.233-2.048-3.212,1.064-3.413,3.655-5.427,6.4-7.385,2.107-1.5,4.64-2.522,6.1-4.8,1.484-2.318,1.262-4.706-1.228-5.92-2.278-1.11-4.883-.638-5.461,2.338-.566,2.918-2.434,3.909-4.547,2.831-1.99-1.015-.839-3.237-.071-4.969,1.882-4.242,5.379-5.346,9.627-4.994,3.679.3,6.237,2.038,7.356,5.7,1.253,4.1-.569,6.988-3.6,9.392-2.474,1.961-5.508,3.211-8.259,6.591h9.457c1.585,0,3.2-.339,3.109,2.271-.078,2.233-1.355,2.133-2.871,2.126m20.883.015c-4.656-.063-9.316-.137-13.966.026-2.428.085-2.7-1-2.229-2.892.789-3.16,3.027-5.189,5.519-7.023,2.211-1.626,4.542-3.121,6.58-4.94,1.559-1.392,1.551-3.393.654-5.22-.633-1.29-1.868-1.63-3.3-1.653a3.29,3.29,0,0,0-3.668,2.967c-.421,2.636-2.047,3.5-4.235,2.72-2.9-1.041-.96-3.334-.436-4.7,1.6-4.164,4.989-5.711,9.4-5.427,3.713.239,6.558,1.829,7.643,5.38,1.221,4-.1,7.333-3.582,9.869-2.53,1.842-5.62,3.013-7.93,6.484,3.63,0,6.5-.005,9.375,0,1.448,0,2.937-.259,2.913,2.07-.021,2.046-1.025,2.362-2.732,2.339" transform="translate(0 0)" fill="#fff"/><path d="M101.6,23.633c0-7.445,0-7.488-7.589-7.277-1.317.037-3.318-1.013-3.508,1.808-.186,2.785,1.488,2.635,3.3,2.525,2.925-.178,2.867,1.1,1.55,3.061a4.484,4.484,0,0,1-2.673,2.1c-2.8.634-5.589.739-7.63-1.731-2.787-3.374-2.558-7.256-1.313-11.088A6.162,6.162,0,0,1,90,8.559c1.727-.03,3.553.382,4.2,1.808,1.6,3.493,4.35,2.469,7,2.43-1.26-5.355-3.2-7.418-7.938-8.691-5.9-1.582-10.449.563-14.143,4.932a28.909,28.909,0,0,0-4.477-3.389C69.423,3.063,63.77,4.585,58.3,4.325c-1.152-.055-1.293.943-1.294,1.853q-.007,11.1-.013,22.21c0,1.109.164,2.205,1.527,2.108,7.032-.5,14.831,2.336,20.352-4.728,5,5.179,10.418,7.583,17.086,3.412a1.392,1.392,0,0,1,1.816.019c3.464,2.149,3.755,1.938,3.823-2.084.019-1.16,0-2.322,0-3.483M66.339,25.861c-2.7.034-3.669-.742-3.364-3.406a45.777,45.777,0,0,0,.037-5.185c0-.865.065-1.764.046-2.577-.082-3.486-.563-4.537,3.378-5.051,4.948-.646,6.789.57,7.885,4.086,2.281,7.311-.943,12.044-7.982,12.133" transform="translate(-6.739 -0.424)" fill="#fff"/></g></g></svg>