<svg xmlns="http://www.w3.org/2000/svg" xmlns:xlink="http://www.w3.org/1999/xlink" width="150" height="69" viewBox="0 0 150 69"><defs><clipPath id="a"><rect width="150" height="69" transform="translate(-0.09)" fill="none" stroke="#707070" stroke-width="1"/></clipPath><clipPath id="b"><rect width="131.797" height="42.327" fill="rgba(0,0,0,0)"/></clipPath></defs><g transform="translate(0.09)" clip-path="url(#a)"><g transform="translate(8.899 13)"><g clip-path="url(#b)"><path d="M38.34,34.4a8.2,8.2,0,1,1-8.2-8.2,8.2,8.2,0,0,1,8.2,8.2" transform="translate(-17.774 -21.225)" fill="#ecebea"/><path d="M235.289,39.808c2.008-.966,3.895-1.584,5.992-1.135a4.029,4.029,0,0,1,3.168,2.652,12.809,12.809,0,0,1,.628,4.363c.05,2.7,0,5.411.026,8.116.005.559-.122.817-.73.748-.9-.1-2.07.386-2.623-.2-.433-.462-.144-1.61-.147-2.454-.009-2.2.01-4.4-.006-6.607-.024-3.226-1.29-4.208-4.422-3.456-1.822.437-1.822.437-1.822,2.331,0,3.177-.025,6.355.019,9.532.01.73-.21.924-.9.864-.811-.071-1.9.261-2.374-.15-.552-.48-.173-1.593-.177-2.428-.02-4.058.006-8.117-.023-12.175-.005-.692.107-1.048.9-.946a7.9,7.9,0,0,0,1.7,0c.629-.057.974.1.788.946" transform="translate(-187.82 -31.215)" fill="#fff"/><path d="M409.761,17.066c0-3.4.018-6.794-.015-10.191-.006-.671.116-1,.865-.9.832.109,1.95-.359,2.435.2.413.478.15,1.554.15,2.366.006,6.228-.008,12.456.019,18.683,0,.684-.136.984-.873.891-.833-.1-1.953.355-2.436-.195-.413-.47-.14-1.553-.142-2.366-.008-2.831,0-5.662,0-8.492" transform="translate(-331.954 -4.778)" fill="#fff"/><path d="M192.087,48.021c0-2.324.02-4.648-.014-6.971-.009-.615.162-.838.788-.785a11.145,11.145,0,0,0,1.888,0c.659-.057.851.164.845.828-.031,3.642-.015,7.285-.015,10.928,0,1.1-.02,2.2.009,3.3.013.491-.148.667-.646.641-.908-.048-2.056.28-2.662-.157s-.168-1.64-.184-2.505c-.034-1.758-.01-3.517-.01-5.275" transform="translate(-155.546 -32.619)" fill="#fff"/><path d="M444.916,182.489c-.1-1.757-.208-3.513-.322-5.269-.019-.285.1-.651-.4-.71-.462-.055-.594.211-.712.566-.341,1.023-.7,2.041-1.093,3.2-.417-1.192-.812-2.249-1.15-3.323-.127-.4-.366-.454-.707-.431-.392.026-.311.323-.326.559-.113,1.755-.237,3.511-.318,5.268-.013.293-.315.825.374.836.638.01.455-.491.46-.822.019-1.318.008-2.637.008-3.956l.25-.011c.32.944.644,1.886.955,2.833.073.223.143.4.426.419.31.018.352-.207.423-.41.3-.86.592-1.722.888-2.583.512-.221.141.311.321.374.021,1.164.046,2.327.06,3.491,0,.358-.039.717.509.671.519-.043.37-.4.353-.7" transform="translate(-356.373 -143.016)" fill="#fff"/><path d="M196.1,9.272c0,1.866,0,1.866-1.865,1.866-1.629,0-1.629,0-1.629-1.625,0-2,0-2,2-2,1.493,0,1.493,0,1.493,1.755" transform="translate(-156.066 -6.091)" fill="#fff"/><path d="M600.4,189.1c0,.5,0,1.006,0,1.509,0,.28.048.593-.408.563-.375-.025-.352-.284-.353-.536q0-1.32,0-2.641c0-.468-.054-.957-.665-.917-.533.035-.931.276-.889.961.054.877.012,1.759.013,2.64,0,.26.009.5-.376.5s-.383-.229-.383-.493c0-.912,0-1.823,0-2.735,0-.5-.141-.923-.724-.866-.494.048-.868.276-.83.916.051.846.018,1.7.009,2.545,0,.262.093.594-.355.626s-.391-.29-.4-.566a21.477,21.477,0,0,0-.133-3.664c-.073-.33.265-.586.4-.493.852.612,1.91-.671,2.709.315.04.049.376-.137.573-.218,1.123-.459,1.8-.04,1.825,1.14.01.471,0,.943,0,1.415" transform="translate(-482.029 -151.004)" fill="#fff"/><path d="M260.924,177.521c.265-.124.4-.19.538-.251,1.406-.624,2.135-.175,2.141,1.323,0,.911,0,1.822,0,2.733,0,.261.007.5-.374.505s-.385-.223-.385-.489c0-.879,0-1.759,0-2.638,0-.5-.079-1.033-.729-.96-.577.065-1.215.2-1.194,1.04.02.816.007,1.633,0,2.45,0,.275.059.593-.39.592-.465,0-.366-.341-.367-.6-.007-1.916,0-3.832-.005-5.748,0-.335.012-.67.465-.647.469.024.281.414.291.652.026.625.009,1.252.009,2.038" transform="translate(-210.8 -141.662)" fill="#fff"/><path d="M400.741,191.07c.363-1.365.659-2.517.983-3.661.063-.223-.028-.649.449-.545.4.087.466.358.356.714-.521,1.673-1,3.362-1.573,5.016a1.448,1.448,0,0,1-2.213.81c-.187-.111-.4-.2-.246-.5a.325.325,0,0,1,.527-.159c.412.23.824.366,1.13-.16a1.106,1.106,0,0,0-.046-1.268,30.667,30.667,0,0,1-1.5-3.943c-.1-.284.1-.378.307-.482.351-.174.447.065.53.31.41,1.213.814,2.429,1.294,3.862" transform="translate(-322.851 -151.392)" fill="#fff"/><path d="M289.833,189.041c0,.44.009.88,0,1.32-.008.29.113.664-.4.679s-.444-.332-.445-.643c0-.848,0-1.7,0-2.545,0-.461-.024-.969-.65-.907-.552.055-1.158.183-1.152.968q.008,1.225,0,2.451c0,.3.091.663-.412.675s-.423-.349-.435-.653a35.656,35.656,0,0,0-.081-3.576c-.058-.412.4-.683.541-.463.364.583.641.2.962.065,1.294-.541,2.037-.078,2.077,1.308.013.44,0,.88,0,1.32" transform="translate(-231.94 -150.868)" fill="#fff"/><path d="M193.026,180.1c0-.69-.041-1.383.012-2.069.05-.641-.127-.929-.817-.847-.3.036-.767.162-.727-.423.036-.52.464-.313.728-.321.912-.025,1.825-.022,2.736,0,.2,0,.572-.172.563.257-.005.257-.163.541-.466.484-1.37-.258-1.135.68-1.133,1.46,0,1.16.027,2.321-.015,3.48-.013.351.33,1-.456.971-.751-.032-.378-.66-.409-1.019-.057-.654-.016-1.316-.016-1.974" transform="translate(-155.162 -142.94)" fill="#fff"/><path d="M497.227,188.876a9.383,9.383,0,0,0-.11-1.963c-.139-.472.341-.771.531-.537.413.507.675.165,1.013.036,1.269-.482,1.965-.035,2,1.308.024.91.012,1.821,0,2.731,0,.263.088.589-.366.609-.529.023-.416-.356-.419-.646-.01-.847,0-1.7-.006-2.543,0-.469-.1-.964-.683-.9-.539.054-1.176.175-1.2.937-.023.847,0,1.7-.009,2.543,0,.266.08.593-.369.612-.464.02-.385-.31-.389-.578-.009-.5,0-1,0-1.6" transform="translate(-402.785 -150.893)" fill="#fff"/><path d="M654.891,188.94a7.909,7.909,0,0,0-.127-2.049.362.362,0,0,1,.184-.475c.182-.1.407-.161.493.04.2.465.429.173.665.072,1.511-.646,2.2-.2,2.226,1.437.012.847,0,1.7,0,2.543,0,.286.034.578-.41.57s-.376-.33-.378-.595c-.008-.848,0-1.7-.005-2.543,0-.5-.068-1.031-.723-.951-.538.065-1.164.188-1.163.97,0,.816.006,1.633,0,2.449,0,.292.108.675-.41.663-.465-.011-.336-.366-.345-.618-.017-.47,0-.942,0-1.514" transform="translate(-530.52 -150.909)" fill="#fff"/><path d="M679.758,185.307c-.956.026-1.421-.344-1.463-1.146-.032-.626.02-1.256-.019-1.88-.03-.478.313-1.15-.631-1.24-.234-.022-.2-.514.1-.525.674-.024.545-.462.534-.846s.013-.74.485-.741c.558,0,.319.478.293.7-.089.768.286.916.936.852.215-.021.562-.112.557.291,0,.349-.3.387-.549.345-.859-.146-1.014.295-.933,1.014a11.2,11.2,0,0,1,.008,1.222c0,1.185,0,1.193,1.24,1.069.225-.023.363,0,.42.228a.331.331,0,0,1-.229.443c-.3.095-.6.168-.751.21" transform="translate(-548.958 -144.983)" fill="#fff"/><path d="M338.186,177.982c0,.753-.012,1.507,0,2.259.011.5-.18,1.172.755.994.2-.038.242.144.289.3.064.2-.076.274-.214.351a1.078,1.078,0,0,1-1.6-.743,17,17,0,0,1-.087-2.159c-.012-1.13,0-2.26-.006-3.389,0-.4,0-.811.541-.785.515.025.3.466.31.729.027.815.01,1.631.01,2.447" transform="translate(-273.328 -141.641)" fill="#fff"/><path d="M237.457,188.84c-.049,1.568.765,2.143,1.924,1.55.207-.106.414-.19.533.116.1.249,0,.4-.218.54a1.956,1.956,0,0,1-2.975-1.105,3.433,3.433,0,0,1,.265-2.652,1.942,1.942,0,0,1,2.715-.63c.249.176.343.359.183.628-.115.194-.228.177-.451.085-1.405-.583-1.974-.148-1.975,1.469" transform="translate(-191.688 -150.994)" fill="#fff"/><path d="M460.156,186.081c.024-.184.155-.476.259-.391.216.176.092.5.062.765l-.321-.374" transform="translate(-372.856 -150.449)" fill="#fff"/><path d="M329.395,52.244c-.5-.085-1-.1-1.5-.169-1.375-.2-2.776.072-4.144-.256-.837-.2-.769-.814-.65-1.415.108-.546.189-1.116,1.057-.945a7.276,7.276,0,0,0,1.886.016c3.607-.251,5.146-1.825,5.184-5.261a5.144,5.144,0,0,0-.744-2.629c.289,0,.446,0,.6,0,1.9.053,1.869.053,1.891-1.824.008-.646-.146-.857-.825-.84a27.847,27.847,0,0,1-6.307-.223,7.442,7.442,0,0,0-2.633.062c-2.068.318-3.8,1.219-4.311,3.4-.525,2.226-.592,4.48,1.373,6.178.479.414.471.673.17,1.137-.642.991-1.119,2.139-.373,3.167.67.923.234,1.279-.383,1.818a3.986,3.986,0,0,0-1.129,4.312,3.628,3.628,0,0,0,3.014,2.661,16.513,16.513,0,0,0,6.948.118c2.714-.535,4.155-1.969,4.313-4.5.181-2.894-.645-4.323-3.44-4.8m-4.467-10.882c2,0,2.873.852,2.859,2.766-.013,1.88-.931,2.727-2.935,2.71-1.9-.017-2.831-.923-2.828-2.743,0-1.894.9-2.738,2.9-2.733m2.636,17.459a9.114,9.114,0,0,1-2.063.162,7.652,7.652,0,0,1-2.338-.245,1.778,1.778,0,0,1-1.336-2.247,1.93,1.93,0,0,1,2.128-1.624c1.128.084,2.263.081,3.392.163,1.485.109,1.944.489,2.034,1.584.1,1.207-.453,1.859-1.816,2.206" transform="translate(-257.966 -31.279)" fill="#fff"/><path d="M551.109,16.82c-.614-3.106-2.392-4.461-5.6-4.473a9.005,9.005,0,0,0-3.314.661c-.59.229-.762.1-.749-.534.035-1.759-.017-3.521.027-5.28.017-.7-.127-1.056-.921-.96a7.728,7.728,0,0,1-1.7,0c-.707-.072-.91.166-.9.882.039,3.394.017,6.789.017,10.184s0,6.789.008,10.184c0,.33-.2.829.413.87,2.7.18,5.394.608,8.1.142a5.164,5.164,0,0,0,4.569-4.376,18.452,18.452,0,0,0,.049-7.3m-3.534,6.519c-.512,1.962-1.917,2.324-4.045,2.269-2.1-.054-2.1-.131-2.1-2.211V20.755c0-1.352.015-2.705-.008-4.057a.715.715,0,0,1,.655-.839,15.04,15.04,0,0,1,2.606-.432,2.538,2.538,0,0,1,2.885,2.033,11.674,11.674,0,0,1,.01,5.879" transform="translate(-435.888 -5.038)" fill="#fff"/><path d="M635.943,46.042c.169-4.07-1.217-7.134-5.662-7.477-3.818-.295-6.559,1.183-7.408,5.218a15.184,15.184,0,0,0,.046,6.546c.649,2.853,2.157,4.158,5.076,4.48a21.572,21.572,0,0,0,5.729-.376c1.766-.278,1.727-.307,1.728-2.094,0-.679-.246-.745-.838-.7-1.727.119-3.46.228-5.19.226a2.935,2.935,0,0,1-3.307-2.879c-.086-.622.044-.853.708-.834,1.386.04,2.774.012,4.161.012.851,0,1.7.017,2.553-.005.719-.019,1.6.288,2.111-.134.486-.4.264-1.307.292-1.978m-3.357-.815c-.126.355-.393.251-.618.254-.911.013-1.823.005-2.734.005-.88,0-1.761-.019-2.64.008-.464.014-.586-.159-.568-.606.11-2.735,2.092-4.145,4.707-3.328a3.562,3.562,0,0,1,1.853,3.666" transform="translate(-504.432 -31.219)" fill="#fff"/><path d="M460.672,43.806c-.442-2.605-1.751-4.491-4.477-5.113a10.176,10.176,0,0,0-3.1-.232c-3.645.3-5.446,1.991-6.039,5.592a18.814,18.814,0,0,0-.169,2.442,13.834,13.834,0,0,0,.427,3.927,5.394,5.394,0,0,0,4.4,4.172,9.267,9.267,0,0,0,1.594.2c3.72.091,6.316-.935,7.207-4.616a15.727,15.727,0,0,0,.163-6.371m-3.553,5.733a2.832,2.832,0,0,1-3.11,2.316c-1.941.027-2.923-.6-3.326-2.25a12.235,12.235,0,0,1,.02-6.065,2.666,2.666,0,0,1,2.848-2.129c2.017-.049,2.922.461,3.449,1.963a4.4,4.4,0,0,1,.251,1c.074.749.1,1.5.148,2.256a12.89,12.89,0,0,1-.28,2.907" transform="translate(-362.098 -31.139)" fill="#fff"/><path d="M548.52,186.516c-.461.318-.837-.022-1.244-.053a1.654,1.654,0,0,0-1.932,1.267,3.9,3.9,0,0,0-.156,1.673c.226,1.5.882,1.975,2.316,1.544.444-.133.467.019.508.342.146,1.145-.456,1.508-1.867,1.111-.233-.065-.489-.253-.631.107s.118.481.4.6c1.732.712,2.915-.089,2.9-2.389a10.971,10.971,0,0,1,.151-3.784c.1-.31-.3-.516-.445-.417m-1.344,3.882a.8.8,0,0,1-.788-.153,2.665,2.665,0,0,1,.122-2.893,1.085,1.085,0,0,1,1.067-.116c.431.128.364.45.369.756,0,.251,0,.5,0,.754-.024.657.219,1.427-.771,1.653" transform="translate(-441.728 -151.08)" fill="#fff"/><path d="M378.378,186.788c-.17.043-.292.145-.512.1-1.9-.361-2.708.353-2.7,2.334.012,1.916.969,2.563,2.791,1.81.124,1.788-.137,2.011-1.816,1.61-.061-.014-.12-.038-.181-.053a.35.35,0,0,0-.46.2c-.144.3.075.4.26.506a1.908,1.908,0,0,0,3.043-1.746,17.616,17.616,0,0,1,.142-4.3c.108-.415-.2-.561-.571-.468m-1.153,3.847a.776.776,0,0,1-.716-.054c-.617-.484-.456-1.185-.448-1.816a1.22,1.22,0,0,1,.708-1.305.819.819,0,0,1,1.21.765c.01.249,0,.5,0,.748-.025.656.21,1.426-.756,1.663" transform="translate(-303.993 -151.329)" fill="#fff"/><path d="M214.781,186.45c-1.448-.24-2.356.688-2.359,2.413,0,2.022,1.425,3.063,3.148,2.288.211-.1.523-.144.4-.51-.134-.407-.39-.277-.664-.161a1.316,1.316,0,0,1-1.706-.292.986.986,0,0,1-.265-.955c.124-.308.5-.133.767-.146.5-.025,1.008-.006,1.512-.009.219,0,.439.014.546-.255a2.125,2.125,0,0,0-1.382-2.373m-.517,1.984c-.277-.257-.915.329-.924-.405a.918.918,0,0,1,.957-.967.887.887,0,0,1,.932.976c-.023.706-.656.15-.965.4" transform="translate(-172.122 -151.046)" fill="#fff"/><path d="M475.254,190.935a12.046,12.046,0,0,1-.2-3.08c-.1-1.021-.477-1.35-1.535-1.355a2.824,2.824,0,0,0-1.2.2c-.223.1-.38.2-.278.489s.249.269.5.181a1.8,1.8,0,0,1,1.192-.139.661.661,0,0,1,.482.714c.006.4-.269.429-.57.457a3.376,3.376,0,0,0-.738.132,1.57,1.57,0,0,0-1.122,2.135c.305.8,1.178,1.023,2.159.5.289-.153.462-.279.627.1.078.179.234.186.389.086s.376-.187.292-.419m-2.034-.194c-.5.051-.748-.273-.721-.755.044-.8.692-.859,1.27-.971.616-.12.408.363.445.574.083.818-.385,1.09-.994,1.152" transform="translate(-382.183 -151.118)" fill="#fff"/><path d="M631.991,186.419a1.866,1.866,0,0,0-2.405.921,3.362,3.362,0,0,0-.079,2.657,1.94,1.94,0,0,0,2.058,1.27,4.361,4.361,0,0,0,.675-.167c.283-.109.784-.088.583-.623s-.511-.1-.757-.028a1.337,1.337,0,0,1-1.874-1.019c-.065-.33,0-.467.353-.461.631.011,1.262.006,1.894,0,.24,0,.508.066.6-.288a2.344,2.344,0,0,0-1.048-2.261m.141,1.55c-.041.648-.666.124-.986.357-.289-.251-.925.317-.938-.382a.946.946,0,0,1,.936-.995.921.921,0,0,1,.988,1.02" transform="translate(-509.886 -150.937)" fill="#fff"/><path d="M571.937,186.472c-1.423-.17-2.245.719-2.25,2.434-.006,1.96,1.237,2.935,2.974,2.321.259-.092.7-.069.551-.563-.164-.539-.466-.182-.729-.1a1.3,1.3,0,0,1-1.777-.589c-.278-.551-.277-.954.55-.874.531.051,1.071.01,1.607.009.219,0,.438.024.542-.254a2.09,2.09,0,0,0-1.469-2.384m-.356,1.995c-.336-.22-.96.271-1.005-.344a.955.955,0,0,1,.989-1.036.909.909,0,0,1,.929.983c0,.731-.642.137-.913.4" transform="translate(-461.607 -151.078)" fill="#fff"/><path d="M353.1,187.457a1.614,1.614,0,0,0-1.47-1,1.714,1.714,0,0,0-1.775.806,3.432,3.432,0,0,0-.024,3.33,1.516,1.516,0,0,0,1.3.811c1.387.117,2.22-.808,2.224-2.562a2.62,2.62,0,0,0-.253-1.388m-.631,1.955c-.075.648-.193,1.3-1.04,1.3-.824.006-1.034-.606-1.091-1.265a5.189,5.189,0,0,1,.046-1.4,1.007,1.007,0,0,1,1.086-.956,1.045,1.045,0,0,1,.949,1.007c.046.276.054.559.08.839l-.027,0a4.111,4.111,0,0,1,0,.469" transform="translate(-283.124 -151.082)" fill="#fff"/><path d="M313.013,186.437a1.86,1.86,0,0,0-2.318,1.385c-.434,1.519.061,3.061,1.112,3.44a1.813,1.813,0,0,0,.458.087c1.39.118,2.2-.8,2.2-2.5,0-1.407-.5-2.245-1.454-2.415m.574,2.978c-.083.663-.248,1.285-1.094,1.25-.823-.035-.963-.676-1.052-1.323-.021-.155-.017-.313-.025-.469-.009-1.2.41-1.874,1.14-1.843.66.028,1.1.755,1.094,1.825a4.761,4.761,0,0,1-.064.56" transform="translate(-251.623 -151.029)" fill="#fff"/><path d="M524.677,190.837a8.739,8.739,0,0,1-.166-2.8c-.052-1.154-.4-1.53-1.534-1.537a2.824,2.824,0,0,0-1.2.2c-.242.1-.362.238-.276.5.1.3.281.24.52.157a2.777,2.777,0,0,1,.916-.183.707.707,0,0,1,.766.674c.059.531-.314.509-.667.554a3.5,3.5,0,0,0-.821.19,1.537,1.537,0,0,0-.931,2.129,1.373,1.373,0,0,0,2.021.5c.313-.157.553-.393.787.089.087.18.265.071.408-.006a.345.345,0,0,0,.178-.471m-2.04-.091c-.462.041-.651-.3-.667-.727-.02-.566.617-1.02,1.331-1.027.536-.006.386.358.417.639.062.777-.437,1.058-1.081,1.115" transform="translate(-422.262 -151.117)" fill="#fff"/><path d="M50.685,2.177a.64.64,0,1,1-.64-.64.64.64,0,0,1,.64.64" transform="translate(-40.032 -1.245)" fill="#fff"/><path d="M50.685,22.353a.64.64,0,1,1-.64-.64.64.64,0,0,1,.64.64" transform="translate(-40.032 -17.594)" fill="#fff"/><path d="M27.923,12.579a.64.64,0,1,1-.64-.64.64.64,0,0,1,.64.64" transform="translate(-21.588 -9.674)" fill="#fff"/><path d="M1.28,41.677a.64.64,0,1,1-.64-.64.64.64,0,0,1,.64.64" transform="translate(0 -33.252)" fill="#fff"/><path d="M14.448,38.3a.64.64,0,1,1-.64-.64.64.64,0,0,1,.64.64" transform="translate(-10.67 -30.518)" fill="#fff"/><path d="M34.031,67.7a.64.64,0,1,1-.64-.64.64.64,0,0,1,.64.64" transform="translate(-26.538 -54.333)" fill="#fff"/><path d="M83.616,57.109a.64.64,0,1,1-.64-.64.64.64,0,0,1,.64.64" transform="translate(-66.715 -45.756)" fill="#fff"/><path d="M66.449,98.134a.64.64,0,1,1-.64-.64.64.64,0,0,1,.64.64" transform="translate(-52.805 -78.998)" fill="#fff"/><path d="M117.639,50.36a.64.64,0,1,1-.64-.64.64.64,0,0,1,.64.64" transform="translate(-94.284 -40.287)" fill="#fff"/><path d="M91.581,22.353a.64.64,0,1,1-.64-.64.64.64,0,0,1,.64.64" transform="translate(-73.169 -17.594)" fill="#fff"/><path d="M68.347.641a.64.64,0,1,1-.64-.64.64.64,0,0,1,.64.64" transform="translate(-54.343 -0.001)" fill="#fff"/><path d="M107.853,18.979a.64.64,0,1,1-.64-.64.64.64,0,0,1,.64.64" transform="translate(-86.354 -14.86)" fill="#fff"/><path d="M126.533,50.36a.64.64,0,1,1-.64-.64.64.64,0,0,1,.64.64" transform="translate(-101.49 -40.287)" fill="#fff"/><path d="M125.913,81.9a.64.64,0,1,1,.62-.66.64.64,0,0,1-.62.66" transform="translate(-101.49 -65.328)" fill="#fff"/><path d="M107.233,95.4a.64.64,0,1,1,.62-.66.64.64,0,0,1-.62.66" transform="translate(-86.354 -76.262)" fill="#fff"/><path d="M109.064,116.042a.64.64,0,1,1,.62-.66.64.64,0,0,1-.62.66" transform="translate(-87.838 -92.99)" fill="#fff"/><path d="M.66,76.907a.64.64,0,1,1,.62-.66.64.64,0,0,1-.62.66" transform="translate(0 -61.279)" fill="#fff"/><path d="M33.411,109.294a.64.64,0,1,1,.62-.66.64.64,0,0,1-.62.66" transform="translate(-26.538 -87.521)" fill="#fff"/><path d="M76.247,130.641a.64.64,0,1,1,.62-.66.64.64,0,0,1-.62.66" transform="translate(-61.247 -104.819)" fill="#fff"/><path d="M41.316,130.641a.64.64,0,1,1,.62-.66.64.64,0,0,1-.62.66" transform="translate(-32.943 -104.819)" fill="#fff"/><path d="M10.454,110.011a.64.64,0,1,1,.62-.66.64.64,0,0,1-.62.66" transform="translate(-7.936 -88.103)" fill="#fff"/><path d="M3.375,10.919,8.429,5.64l4.318-1.973L16.1,3.375l7.5,3.247L27.137,12.6v6.071l-3.2,6.477-6.226,2.77H11.088L5.233,24l-1.858-6.28Z" transform="translate(-2.734 -2.735)" fill="rgba(0,0,0,0)" stroke="#fff" stroke-miterlimit="10" stroke-width="1"/><path d="M16.543,28.113,23.257,25.3l8.219-.21L36.12,30.4l-1.857,8.423-7.855.64L19.988,41.7l.271-8.2Z" transform="translate(-13.404 -20.327)" fill="rgba(0,0,0,0)" stroke="#fff" stroke-miterlimit="10" stroke-width="1"/><path d="M8.617,5.639l4.131,1.854L16.1,3.374,20.506,7.5,23.3,6.854l2.15,5.954,1.893,5.863-3.75,2.56-5.9,6.046L9.621,24l-6.246-6.28,2.3-6.9Z" transform="translate(-2.734 -2.734)" fill="rgba(0,0,0,0)" stroke="#fff" stroke-miterlimit="10" stroke-width="1"/><path d="M87.222,26.195,85.71,32.578l6.455-1.28" transform="translate(-69.45 -21.225)" fill="rgba(0,0,0,0)" stroke="#fff" stroke-miterlimit="10" stroke-width="1"/><path d="M25.261,42.53,24.8,38.824,20.4,31.681H19.47l-8.922,2.008,6.259,5.775,3.113-7.783-6.157-6.594L4.875,35.3" transform="translate(-3.95 -20.327)" fill="rgba(0,0,0,0)" stroke="#fff" stroke-miterlimit="10" stroke-width="1"/><path d="M13.168,112.106h4.388l1.467,3.914" transform="translate(-10.67 -90.837)" fill="rgba(0,0,0,0)" stroke="#fff" stroke-miterlimit="10" stroke-width="1"/><path d="M3.375,35.316,9.588,33.5l2.959-8.412" transform="translate(-2.734 -20.328)" fill="rgba(0,0,0,0)" stroke="#fff" stroke-miterlimit="10" stroke-width="1"/></g></g></g></svg>