<svg xmlns="http://www.w3.org/2000/svg" xmlns:xlink="http://www.w3.org/1999/xlink" width="137" height="69" viewBox="0 0 137 69"><defs><clipPath id="a"><rect width="137" height="69" transform="translate(0.214)" fill="none" stroke="#707070" stroke-width="1"/></clipPath></defs><g transform="translate(-0.214)" clip-path="url(#a)"><path d="M32.412,13c0-7.576,5.763-13,13.519-13A12.809,12.809,0,0,1,56.178,4.452L52.477,7.9a7.984,7.984,0,0,0-6.262-2.944A7.675,7.675,0,0,0,38.247,13a7.675,7.675,0,0,0,7.969,8.044,7.908,7.908,0,0,0,6.262-2.98l3.7,3.447A12.748,12.748,0,0,1,45.9,26C38.175,26,32.412,20.577,32.412,13ZM87.88,13c0-7.576,5.763-13,13.7-13,4.376,0,8,1.508,10.423,4.345l-3.7,3.447a8.392,8.392,0,0,0-6.44-2.837c-4.839,0-8.148,3.269-8.148,8.044a7.722,7.722,0,0,0,8.076,8.044,9.078,9.078,0,0,0,4.482-1.078V12.6h5.266V22.8A17.073,17.073,0,0,1,101.47,26C93.643,26,87.88,20.577,87.88,13ZM22.662,25.569l-.035-15.083L15.3,22.911H12.7l-7.293-12.1v14.76H0V.43H4.767l9.321,15.621L23.267.43H28l.071,25.138Zm37.394,0V.431H71.37C79.517.431,85.1,5.387,85.1,13S79.517,25.568,71.37,25.568Zm5.763-4.777h5.266c4.944,0,8.183-2.98,8.183-7.792S76.03,5.207,71.085,5.207H65.82Z" transform="translate(13.214 22)" fill="#fff" stroke="rgba(0,0,0,0)" stroke-miterlimit="10" stroke-width="1"/></g></svg>