<svg xmlns="http://www.w3.org/2000/svg" xmlns:xlink="http://www.w3.org/1999/xlink" width="190" height="69" viewBox="0 0 190 69"><defs><clipPath id="a"><rect width="190" height="69" transform="translate(-2837 -7219)" fill="none" stroke="#707070" stroke-width="1"/></clipPath></defs><g transform="translate(2837 7219)" clip-path="url(#a)"><g transform="translate(-2843 -7221)"><g transform="translate(18 13)"><g transform="translate(45.861 6.217)"><path d="M546.353,162.329a7.078,7.078,0,0,1-3.12.687,6.5,6.5,0,1,1,0-12.971,7.266,7.266,0,0,1,3.138.678,1.564,1.564,0,0,0,.653.149,1.579,1.579,0,0,0,1.582-1.539,8.371,8.371,0,0,0-5.854-2.176,9.378,9.378,0,1,0,0,18.745,9.206,9.206,0,0,0,3.284-.579,7.966,7.966,0,0,0,2.57-1.6A1.58,1.58,0,0,0,546.353,162.329Z" transform="translate(-533.055 -147.158)" fill="#fff"/><path d="M554.115,147.588v18.025a3.121,3.121,0,0,0,3.181-3.061V147.588Z" transform="translate(-536.012 -147.232)" fill="#fff"/><path d="M572.338,147.158a9.683,9.683,0,0,0-7.367,3.491l-.146-3.135h-3v18.025h3.181v-9.19a6.155,6.155,0,0,1,6.224-6.3c2.888,0,4.891,1.7,4.891,6.229v9.265H579.3V154.992C579.3,149.9,576.671,147.158,572.338,147.158Z" transform="translate(-537.094 -147.158)" fill="#fff"/><path d="M602.915,156.7a9.213,9.213,0,0,0-9.37-9.546,9.117,9.117,0,0,0-9.37,9.265,9.251,9.251,0,0,0,9.671,9.48c4.926,0,7.814-3.143,8.553-5.6l-2.82-.356a6.126,6.126,0,0,1-5.734,3.21c-3.851,0-6.37-2.391-6.482-5.666h15.55Zm-15.55-1.423c.112-2.961,2.665-5.385,6.181-5.385a5.9,5.9,0,0,1,6.189,5.385Z" transform="translate(-540.232 -147.158)" fill="#fff"/><path d="M615.994,147.158a5.6,5.6,0,0,0-4.333,2.639l-.146-2.283h-3v18.025H611.7v-8.975c0-3.383,1.221-6.518,4.109-6.518a3.681,3.681,0,0,1,1.994.571l.559-2.672A3.632,3.632,0,0,0,615.994,147.158Z" transform="translate(-543.649 -147.158)" fill="#fff"/><path d="M627.624,162.619c-2.261,0-3.628-.281-3.628-1.208,0-.463.4-.86,1.075-1.142a9.031,9.031,0,0,0,2.811.43c4.375,0,7.745-2.928,7.745-6.775a6.1,6.1,0,0,0-1.332-3.847l2.183.182a2.567,2.567,0,0,0-2.845-2.5l-2.046.182a8.951,8.951,0,0,0-3.7-.786c-4.4,0-7.737,2.887-7.737,6.767a6.392,6.392,0,0,0,3,5.418c-1.075.5-2.149,1.357-2.149,2.564a2.75,2.75,0,0,0,1.7,2.316,4.751,4.751,0,0,0-2.553,4.136,1.232,1.232,0,0,0,.009.182h3.009a1.245,1.245,0,0,1-.017-.256c0-1.39,1.41-2.639,2.553-3.135.37.033.7.074,1.075.074,3.928,0,6.739.819,6.739,3.168a.865.865,0,0,1-.009.149h3a1.232,1.232,0,0,0,.009-.182C636.512,164.869,633.177,162.619,627.624,162.619Zm.258-12.9c2.63,0,4.7,1.779,4.7,4.2,0,2.391-2.072,4.169-4.7,4.169-2.587,0-4.737-1.779-4.737-4.169C623.145,151.5,625.294,149.722,627.882,149.722Z" transform="translate(-545.281 -147.158)" fill="#fff"/><path d="M641.595,147.588v18.025a3.123,3.123,0,0,0,3.189-3.061V147.588Z" transform="translate(-548.293 -147.232)" fill="#fff"/><path d="M665.669,147.514l-.146,4.095a8.227,8.227,0,0,0-7.556-4.45,9.373,9.373,0,1,0,0,18.745,8.234,8.234,0,0,0,7.556-4.459l.146,4.095a2.978,2.978,0,0,0,3.034-2.92v-15.1Zm-7.221,15.5a6.492,6.492,0,1,1,0-12.971,6.49,6.49,0,1,1,0,12.971Z" transform="translate(-549.26 -147.158)" fill="#fff"/></g><text transform="translate(152.631 36.079)" fill="#fff" font-size="7" font-family="Montserrat-Light, Montserrat" font-weight="300" letter-spacing="0.32em"><tspan x="-103.278" y="0">ESTUDIO CREATIVO</tspan></text><path d="M491.99,141.356a18.8,18.8,0,0,0-3.1,1.525,20.028,20.028,0,0,1,10.221-3.225,18.973,18.973,0,0,0-13.64,5.11,17.826,17.826,0,0,0,0,26.25,18.975,18.975,0,0,0,13.639,5.111,20.014,20.014,0,0,1-10.284-3.262,18.179,18.179,0,0,0,10.284,2.714,19.423,19.423,0,0,1-9.967-3.169,17.606,17.606,0,0,0,9.967,2.621,18.843,18.843,0,0,1-9.652-3.076,17.02,17.02,0,0,0,9.652,2.529,18.252,18.252,0,0,1-9.337-2.985,16.438,16.438,0,0,0,9.337,2.438,17.667,17.667,0,0,1-9.024-2.894,15.86,15.86,0,0,0,9.024,2.347,17.086,17.086,0,0,1-8.707-2.8,15.292,15.292,0,0,0,8.707,2.253,16.5,16.5,0,0,1-8.392-2.71,14.691,14.691,0,0,0,8.392,2.162,15.9,15.9,0,0,1-8.079-2.619,14.117,14.117,0,0,0,8.079,2.071,15.327,15.327,0,0,1-7.765-2.527,14.092,14.092,0,0,0,2.391,1.16,13.928,13.928,0,0,0,5.374.82,14.736,14.736,0,0,1-7.449-2.434,13.575,13.575,0,0,0,2.292,1.109,13.336,13.336,0,0,0,5.157.778,14.152,14.152,0,0,1-7.136-2.344,12.94,12.94,0,0,0,2.2,1.06,12.746,12.746,0,0,0,4.939.736,13.568,13.568,0,0,1-6.823-2.253,12.37,12.37,0,0,0,2.1,1.012,12.174,12.174,0,0,0,4.722.694,12.994,12.994,0,0,1-6.507-2.161,11.8,11.8,0,0,0,2,.96,11.575,11.575,0,0,0,4.5.653,12.4,12.4,0,0,1-6.194-2.071,11.171,11.171,0,0,0,1.908.912,10.984,10.984,0,0,0,4.286.61,11.812,11.812,0,0,1-5.88-1.979,10.637,10.637,0,0,0,1.811.862,10.4,10.4,0,0,0,4.069.569,11.233,11.233,0,0,1-5.567-1.888,10.065,10.065,0,0,0,1.716.813,9.805,9.805,0,0,0,3.851.527,10.644,10.644,0,0,1-5.253-1.8,9.518,9.518,0,0,0,1.62.764,9.23,9.23,0,0,0,3.634.485,9.826,9.826,0,0,1-6.31-2.853,8.591,8.591,0,0,1,0-12.143,9.828,9.828,0,0,1,6.31-2.855,9.229,9.229,0,0,0-3.634.484,9.561,9.561,0,0,0-1.589.748,10.657,10.657,0,0,1,5.222-1.779,9.8,9.8,0,0,0-3.851.526,10.053,10.053,0,0,0-1.683.8,11.239,11.239,0,0,1,5.534-1.87,10.4,10.4,0,0,0-4.069.568,10.638,10.638,0,0,0-1.777.844,11.832,11.832,0,0,1,5.846-1.96,10.991,10.991,0,0,0-4.287.61,11.286,11.286,0,0,0-1.871.892,12.411,12.411,0,0,1,6.157-2.049,11.565,11.565,0,0,0-4.5.652,11.791,11.791,0,0,0-1.966.941,12.994,12.994,0,0,1,6.47-2.14,12.171,12.171,0,0,0-4.722.693,12.476,12.476,0,0,0-2.06.989,13.589,13.589,0,0,1,6.781-2.229,12.761,12.761,0,0,0-4.939.735,12.949,12.949,0,0,0-2.155,1.037,14.165,14.165,0,0,1,7.094-2.32,13.358,13.358,0,0,0-5.158.777,13.6,13.6,0,0,0-2.249,1.086,14.753,14.753,0,0,1,7.406-2.411,13.935,13.935,0,0,0-5.375.819,14.092,14.092,0,0,0-2.343,1.134,15.335,15.335,0,0,1,7.718-2.5,14.522,14.522,0,0,0-5.593.86,14.793,14.793,0,0,0-2.439,1.183,15.932,15.932,0,0,1,8.031-2.591,14.644,14.644,0,0,0-8.343,2.134,16.513,16.513,0,0,1,8.343-2.682,15.712,15.712,0,0,0-6.028.944,15.922,15.922,0,0,0-2.628,1.281,17.1,17.1,0,0,1,8.656-2.772,15.8,15.8,0,0,0-8.969,2.315,17.684,17.684,0,0,1,8.969-2.863,16.387,16.387,0,0,0-9.281,2.406,18.259,18.259,0,0,1,9.281-2.953,16.958,16.958,0,0,0-9.593,2.5,18.848,18.848,0,0,1,9.593-3.043,17.547,17.547,0,0,0-9.906,2.586,19.444,19.444,0,0,1,9.906-3.133A18.654,18.654,0,0,0,491.99,141.356Z" transform="translate(-479.704 -139.642)" fill="#fff"/><path d="M509.737,186.68a18.8,18.8,0,0,0,3.1-1.525,20.025,20.025,0,0,1-10.22,3.225,18.973,18.973,0,0,0,13.639-5.11,17.827,17.827,0,0,0,0-26.25,18.975,18.975,0,0,0-13.639-5.111,20.014,20.014,0,0,1,10.283,3.262,18.178,18.178,0,0,0-10.283-2.714,19.42,19.42,0,0,1,9.966,3.169,17.606,17.606,0,0,0-9.966-2.621,18.843,18.843,0,0,1,9.651,3.076,17.02,17.02,0,0,0-9.651-2.529,18.252,18.252,0,0,1,9.336,2.985,16.438,16.438,0,0,0-9.336-2.438A17.667,17.667,0,0,1,511.644,157a15.86,15.86,0,0,0-9.023-2.347,17.085,17.085,0,0,1,8.706,2.8,15.292,15.292,0,0,0-8.706-2.253,16.5,16.5,0,0,1,8.392,2.71,14.7,14.7,0,0,0-8.392-2.162,15.909,15.909,0,0,1,8.079,2.618,14.672,14.672,0,0,0-2.487-1.209,14.522,14.522,0,0,0-5.592-.862,15.323,15.323,0,0,1,7.764,2.527,13.536,13.536,0,0,0-7.764-1.98,14.736,14.736,0,0,1,7.448,2.434,12.953,12.953,0,0,0-7.448-1.887,14.146,14.146,0,0,1,7.135,2.344,12.878,12.878,0,0,0-2.2-1.06,12.744,12.744,0,0,0-4.938-.736,13.562,13.562,0,0,1,6.822,2.253,12.368,12.368,0,0,0-2.1-1.012,12.169,12.169,0,0,0-4.721-.694,12.983,12.983,0,0,1,6.506,2.161,11.825,11.825,0,0,0-2-.96,11.579,11.579,0,0,0-4.5-.653,12.406,12.406,0,0,1,6.194,2.071,11.177,11.177,0,0,0-1.909-.912,10.982,10.982,0,0,0-4.285-.61,11.809,11.809,0,0,1,5.879,1.979,10.606,10.606,0,0,0-1.811-.862,10.391,10.391,0,0,0-4.068-.569,11.233,11.233,0,0,1,5.566,1.888,10.066,10.066,0,0,0-1.716-.813,9.8,9.8,0,0,0-3.85-.527,10.647,10.647,0,0,1,5.253,1.8,9.555,9.555,0,0,0-1.62-.764,9.228,9.228,0,0,0-3.633-.485,9.826,9.826,0,0,1,6.31,2.853,8.591,8.591,0,0,1,0,12.144,9.828,9.828,0,0,1-6.309,2.855,9.225,9.225,0,0,0,3.633-.484,9.528,9.528,0,0,0,1.589-.748,10.657,10.657,0,0,1-5.221,1.779,9.8,9.8,0,0,0,3.85-.526,10.022,10.022,0,0,0,1.683-.8,11.239,11.239,0,0,1-5.533,1.87,10.4,10.4,0,0,0,4.069-.568,10.7,10.7,0,0,0,1.777-.844,11.829,11.829,0,0,1-5.845,1.96,10.989,10.989,0,0,0,4.286-.61,11.253,11.253,0,0,0,1.871-.892,12.4,12.4,0,0,1-6.157,2.049,11.561,11.561,0,0,0,4.5-.652,11.823,11.823,0,0,0,1.966-.941,12.994,12.994,0,0,1-6.469,2.14,12.169,12.169,0,0,0,4.721-.693,12.444,12.444,0,0,0,2.06-.989,13.589,13.589,0,0,1-6.781,2.229,12.765,12.765,0,0,0,4.939-.735,12.979,12.979,0,0,0,2.155-1.037,14.17,14.17,0,0,1-7.094,2.32,13.355,13.355,0,0,0,5.157-.777,13.641,13.641,0,0,0,2.25-1.086,14.758,14.758,0,0,1-7.406,2.411,13.93,13.93,0,0,0,5.374-.819,14.094,14.094,0,0,0,2.343-1.134,15.343,15.343,0,0,1-7.718,2.5,14.52,14.52,0,0,0,5.592-.86,14.666,14.666,0,0,0,2.439-1.184,15.922,15.922,0,0,1-8.031,2.592,15.117,15.117,0,0,0,5.81-.9,15.282,15.282,0,0,0,2.532-1.232,16.513,16.513,0,0,1-8.343,2.682,15.233,15.233,0,0,0,8.655-2.224,17.1,17.1,0,0,1-8.655,2.772,15.8,15.8,0,0,0,8.968-2.315,17.683,17.683,0,0,1-8.968,2.863,16.387,16.387,0,0,0,9.28-2.406,18.274,18.274,0,0,1-9.28,2.953,16.95,16.95,0,0,0,9.592-2.5,18.855,18.855,0,0,1-9.592,3.043,17.535,17.535,0,0,0,9.905-2.587,19.436,19.436,0,0,1-9.905,3.134A18.653,18.653,0,0,0,509.737,186.68Z" transform="translate(-482.921 -141.76)" fill="#fff"/></g></g></g></svg>